<svg id="Group_582" data-name="Group 582" xmlns="http://www.w3.org/2000/svg" viewBox="0 0 132.871 234.22">
  <path id="Path_4047" data-name="Path 4047" d="M630.961,170.362a12.823,12.823,0,0,1,2.532.784,7.133,7.133,0,0,1,4.125,7.609,3.032,3.032,0,0,0,.416,2.045,9.091,9.091,0,0,0,3.011,2.33c1.072.7,2.105,1.817,1.911,3.084-.22,1.434-1.8,2.138-3,2.949a1.143,1.143,0,0,0-.6.787,1.037,1.037,0,0,0,.307.708c1.74,2.055,5.828,2.286,5.923,4.977.073,2.084-2.49,3.084-4.537,3.48,1.6-.008,2.2,2.459,1.08,3.6s-3.022,1.048-4.484.406a1.978,1.978,0,0,0-1.525-.273c-.441.191-.639.7-.978,1.04a3.206,3.206,0,0,1-2.692.493l-15.617-1.861a10.6,10.6,0,0,1-3.231-.734,5.5,5.5,0,0,1-2.4-7.348c.483-.876,1.248-1.774.993-2.742a4.741,4.741,0,0,0-1.046-1.507c-1.695-2.2-.5-5.373.868-7.787s2.927-5.275,1.771-7.8Z" transform="translate(-565.007 -167.509)" fill="#f59f18"/>
  <path id="Path_4048" data-name="Path 4048" d="M624.144,299.289c2.359,2,.762,4.2,2.256,5.666a7.73,7.73,0,0,1-5.254,2.432,9.868,9.868,0,0,0-2.417.178c-1.452.435-2.337,1.855-3.478,2.849-2.784,2.421-6.914,2.207-10.586,1.856a2.441,2.441,0,0,1-1.922-.8c-.592-.918.255-2.076,1.09-2.781a45.811,45.811,0,0,1,8.678-5.334c3.546-1.83,7.305-3.709,11.29-3.507Z" transform="translate(-569.794 -87.965)"/>
  <path id="Path_4049" data-name="Path 4049" d="M638.793,299.264c2.367,1.989.779,4.2,2.28,5.658a7.74,7.74,0,0,1-5.244,2.451,9.947,9.947,0,0,0-2.417.189c-1.449.441-2.327,1.864-3.465,2.864-2.775,2.432-6.9,2.236-10.578,1.9a2.443,2.443,0,0,1-1.927-.792c-.6-.917.247-2.078,1.08-2.784a45.733,45.733,0,0,1,8.656-5.372c3.536-1.845,7.289-3.74,11.273-3.554Z" transform="translate(-560.726 -87.98)"/>
  <path id="Path_4050" data-name="Path 4050" d="M605.855,264.367c-.094,4.34,8.209,46.614,8.117,50.952-.076,3.546-1.672,7.289-3.391,10.392a19.585,19.585,0,0,1-5.64,5.818,9.961,9.961,0,0,0-1.881,1.683.5.5,0,0,0,.771.635,1.306,1.306,0,0,0,.167-.259.815.815,0,0,0,1.285.656,1.914,1.914,0,0,0,.443-.456c-.286.511.38,1.127.957,1.035a2.39,2.39,0,0,0,1.353-1.049c1.425,1.56,4.093.865,5.7-.5s2.771-3.282,4.623-4.3c1.785-.983,4.232-1.185,5.19-2.983.682-1.282.281-2.843-.073-4.253a47.988,47.988,0,0,1-1.172-16.616l.238-2.794a107.325,107.325,0,0,0-3.975-39.394l-.6-2.05-10.784-1.611Z" transform="translate(-569.543 -112.656)" fill="#fed5b7"/>
  <path id="Path_4051" data-name="Path 4051" d="M613.644,307.312a2.29,2.29,0,0,0-.231-2.088,5.734,5.734,0,0,0-1.188-1.842,3.88,3.88,0,0,0-2.733-.906,9.64,9.64,0,0,0-2.87.634q1.014-2.1,2.031-4.19a14.035,14.035,0,0,1,4.175.855,7.135,7.135,0,0,1,4.154,5.347q-1.683,1.031-3.366,2.058Z" transform="translate(-567.278 -88.191)"/>
  <path id="Path_4052" data-name="Path 4052" d="M620.259,264.392c-.074,4.34,8.405,46.578,8.331,50.918-.062,3.546-1.643,7.3-3.349,10.405a19.582,19.582,0,0,1-5.616,5.842,9.893,9.893,0,0,0-1.872,1.691.5.5,0,0,0,.773.631,1.278,1.278,0,0,0,.166-.257.814.814,0,0,0,1.287.65,1.915,1.915,0,0,0,.442-.458c-.283.513.385,1.125.962,1.03a2.387,2.387,0,0,0,1.35-1.054c1.431,1.556,4.094.849,5.7-.529s2.758-3.294,4.605-4.321c1.782-.99,4.227-1.2,5.178-3.006.678-1.284.27-2.843-.089-4.249a47.947,47.947,0,0,1-1.242-16.613l.226-2.794a107.353,107.353,0,0,0-4.14-39.378l-.613-2.049-10.79-1.565Z" transform="translate(-560.478 -112.645)" fill="#fed5b7"/>
  <path id="Path_4053" data-name="Path 4053" d="M628.339,307.3a2.284,2.284,0,0,0-.241-2.086,5.732,5.732,0,0,0-1.195-1.837,3.882,3.882,0,0,0-2.736-.894,9.7,9.7,0,0,0-2.868.645q1.007-2.1,2.013-4.2a14.059,14.059,0,0,1,4.18.839,7.136,7.136,0,0,1,4.175,5.33l-3.357,2.073Z" transform="translate(-558.222 -88.186)"/>
  <path id="Path_4054" data-name="Path 4054" d="M628.273,307.1a7.007,7.007,0,0,0-2.81-2.957,17.293,17.293,0,0,0-3.813-1.585.932.932,0,0,0-1.13.273l-2,1.7a6.435,6.435,0,0,1,7.718,3.921,9.9,9.9,0,0,1,2.121-1.45Z" transform="translate(-559.934 -86.003)"/>
  <g id="Group_1723" data-name="Group 1723" transform="translate(86.026 109.64)">
    <path id="Path_4055" data-name="Path 4055" d="M664.163,307.332a2.123,2.123,0,0,1,1.323,2.2,3.525,3.525,0,0,1-1.353,2.33,3.591,3.591,0,0,1-2.149.9,2.951,2.951,0,0,1-2.844-2.414,3.394,3.394,0,0,1,1.69-3.418,4.012,4.012,0,0,1,3.885.074Z" transform="translate(-620.929 -193.181)" fill="#87c3a9"/>
    <path id="Path_4056" data-name="Path 4056" d="M648.754,310.387a2.122,2.122,0,0,1,2.419-.851,3.528,3.528,0,0,1,2.007,1.8,3.6,3.6,0,0,1,.443,2.286,2.95,2.95,0,0,1-2.94,2.3,3.4,3.4,0,0,1-3.006-2.348,4.007,4.007,0,0,1,.862-3.789Z" transform="translate(-628.078 -191.338)" fill="#87c3a9"/>
    <path id="Path_4057" data-name="Path 4057" d="M639.414,302.188a2.125,2.125,0,0,1,2.419-.849,3.522,3.522,0,0,1,2.007,1.8,3.575,3.575,0,0,1,.443,2.286,2.95,2.95,0,0,1-2.94,2.3,3.4,3.4,0,0,1-3.006-2.348,4.011,4.011,0,0,1,.862-3.789Z" transform="translate(-633.839 -196.396)" fill="#87c3a9"/>
    <path id="Path_4058" data-name="Path 4058" d="M665.611,304.948a9.347,9.347,0,0,1-2.207,5.724,2.373,2.373,0,0,1-1.121.831.973.973,0,0,1-1.176-.522,1.811,1.811,0,0,1,.268-1.214,3.832,3.832,0,0,0-.867-4.139l5.519-1.421Z" transform="translate(-620.057 -194.571)"/>
    <path id="Path_4059" data-name="Path 4059" d="M653.665,309.522a3.129,3.129,0,0,0-1.864,4.191,1.656,1.656,0,0,1,.236.627c.031.616-.76.935-1.373.865-1.709-.192-2.888-1.826-3.489-3.438a12.265,12.265,0,0,1-.665-5.921,30.8,30.8,0,0,1,7.168,2.328Z" transform="translate(-628.762 -193.558)"/>
    <path id="Path_4060" data-name="Path 4060" d="M644.327,301.324a3.127,3.127,0,0,0-1.864,4.191,1.684,1.684,0,0,1,.234.627c.031.616-.76.933-1.373.865-1.709-.192-2.886-1.827-3.489-3.438a12.286,12.286,0,0,1-.664-5.921,30.77,30.77,0,0,1,7.168,2.328Z" transform="translate(-634.523 -198.616)"/>
    <path id="Path_4061" data-name="Path 4061" d="M635.492,266.619a8.265,8.265,0,0,1,1.022-3.211,6.738,6.738,0,0,1,4.688-3.244l16.871-3.142a7,7,0,0,1,5.82,1.551l14.959,12.722a6.99,6.99,0,0,1,1.973,2.752l1.02,2.569a7,7,0,0,1,.492,2.7l-.936,54.734-5.431,1.226-3.48,4.169-11.175,2.036-1.462-2.207-1.394.335a5.273,5.273,0,0,1-4.727-1.177l-.174,2.27-16.218-17Z" transform="translate(-635.492 -223.755)" fill="#f59f18"/>
    <path id="Path_4062" data-name="Path 4062" d="M665.847,339.325c.288-17.9,1.525-35.952,1.813-53.85.082-5.15.176-12.588-4.175-15.345l-14.561-12.842-4.736.692L655.971,269a19.941,19.941,0,0,1,7.634,16.281L662.013,340Z" transform="translate(-630.127 -223.518)" fill="#32664e"/>
    <path id="Path_4063" data-name="Path 4063" d="M656.125,270.376a5.071,5.071,0,0,1-5.433-3.184,9.572,9.572,0,0,0-.4-1.106,4.92,4.92,0,0,0-1.3-1.444,12.93,12.93,0,0,0-3.012-2.1,10.119,10.119,0,0,1-2.4-1.114,1.71,1.71,0,0,1-.472-2.325,1.58,1.58,0,0,1,1.651-.335,4.63,4.63,0,0,1,1.491.954c3.7,3.1,7.464,6.28,10.046,10.363Z" transform="translate(-630.972 -222.661)"/>
    <path id="Path_4064" data-name="Path 4064" d="M652.23,286.336c.367-1.132.139-2.324.458-3.47s1.714-2.227,2.639-1.478a2.422,2.422,0,0,1,.653,1.678c.6,5.232,1.208,10.512.715,15.756-.223,2.371-.669,4.715-1.116,7.055-.181.951-.66,2.151-1.625,2.084s-1.277-1.289-1.347-2.241l-.265-3.662a1,1,0,0,1,.162-.779c.236-.246.637-.188.959-.3.571-.2.8-.872.922-1.462a25.484,25.484,0,0,0-.149-11.225c-.241-1-.8-2.186-1.827-2.168Z" transform="translate(-625.165 -208.801)"/>
    <path id="Path_4065" data-name="Path 4065" d="M653.4,269.446c-1.3,1.024-3.8,3.362-4.427,4.9a2.028,2.028,0,0,1-.634.994c-.537.351-1.248.057-1.8-.267A20.593,20.593,0,0,1,639.3,267.9a4.87,4.87,0,0,1-.823-2.23c-.068-1.6,1.206-2.894,2.385-3.974,1.064-.973,2.383-2.021,3.787-1.693a4.226,4.226,0,0,1,1.649.957,36.3,36.3,0,0,1,5.275,5.331C652.494,267.442,653.849,269.093,653.4,269.446Z" transform="translate(-633.655 -221.883)" fill="#1c3f2d"/>
    <g id="Group_1709" data-name="Group 1709" transform="translate(23.615 48.76)">
      <path id="Path_4066" data-name="Path 4066" d="M654.039,289.494l.186-10.185c.057-3.1.272-6.358-.983-9.27a7.854,7.854,0,0,0-2.734-3.431c-.3-.205-.584.285-.285.488,2.309,1.573,3.2,4.447,3.405,7.1.126,1.591.066,3.19.037,4.783q-.044,2.464-.091,4.929l-.1,5.585a.283.283,0,0,0,.566,0Z" transform="translate(-650.096 -266.559)"/>
    </g>
    <g id="Group_1710" data-name="Group 1710" transform="translate(26.509 102.327)">
      <path id="Path_4067" data-name="Path 4067" d="M651.9,299.959q-.01,5.329-.018,10.656a.283.283,0,0,0,.566,0q.007-5.326.018-10.656a.283.283,0,0,0-.566,0Z" transform="translate(-651.886 -299.686)"/>
    </g>
    <g id="Group_1711" data-name="Group 1711" transform="translate(18.323 67.234)">
      <path id="Path_4068" data-name="Path 4068" d="M647.749,278.256q.082,8.263-.042,16.525t-.449,16.519q-.184,4.645-.433,9.286c-.019.364.547.362.566,0q.441-8.251.679-16.513t.272-16.522q.02-4.647-.026-9.3a.283.283,0,0,0-.566,0Z" transform="translate(-646.824 -277.983)"/>
    </g>
    <g id="Group_1712" data-name="Group 1712" transform="translate(19.804 53.76)">
      <path id="Path_4069" data-name="Path 4069" d="M652.887,269.671a8.222,8.222,0,0,0-5.145,6.573c-.047.361.519.357.564,0a7.633,7.633,0,0,1,4.731-6.028c.336-.129.189-.676-.151-.545Z" transform="translate(-647.739 -269.651)"/>
    </g>
    <g id="Group_1713" data-name="Group 1713" transform="translate(19.67 52.159)">
      <path id="Path_4070" data-name="Path 4070" d="M652.539,268.661a5.819,5.819,0,0,0-4.856,3.391c-.145.33.343.618.488.286a5.258,5.258,0,0,1,4.368-3.111c.361-.026.364-.592,0-.566Z" transform="translate(-647.656 -268.66)"/>
    </g>
    <g id="Group_1714" data-name="Group 1714" transform="translate(18.551 51.049)">
      <path id="Path_4071" data-name="Path 4071" d="M651.317,267.974a4.884,4.884,0,0,0-4.325,2.838c-.146.33.341.619.488.286a4.326,4.326,0,0,1,3.837-2.558.283.283,0,0,0,0-.566Z" transform="translate(-646.964 -267.974)"/>
    </g>
    <g id="Group_1715" data-name="Group 1715" transform="translate(17.004 48.847)">
      <path id="Path_4072" data-name="Path 4072" d="M650.518,266.623a6.907,6.907,0,0,0-4.5,4.005.283.283,0,1,0,.545.15,6.307,6.307,0,0,1,4.1-3.609.284.284,0,0,0-.15-.547Z" transform="translate(-646.008 -266.612)"/>
    </g>
    <g id="Group_1716" data-name="Group 1716" transform="translate(3.31 38.317)">
      <path id="Path_4073" data-name="Path 4073" d="M640.465,260.115a4.874,4.874,0,0,0-2.915,3.261.283.283,0,0,0,.545.149,4.294,4.294,0,0,1,2.521-2.865.29.29,0,0,0,.2-.348.285.285,0,0,0-.348-.2Z" transform="translate(-637.539 -260.1)"/>
    </g>
    <g id="Group_1717" data-name="Group 1717" transform="translate(2.056 38.037)">
      <path id="Path_4074" data-name="Path 4074" d="M639.634,259.94a5.6,5.6,0,0,0-2.827,2.286c-.192.31.3.593.488.286a4.968,4.968,0,0,1,2.489-2.028.283.283,0,1,0-.15-.545Z" transform="translate(-636.764 -259.927)"/>
    </g>
    <g id="Group_1718" data-name="Group 1718" transform="translate(39.944 52.664)">
      <path id="Path_4075" data-name="Path 4075" d="M664.656,269.043a4.788,4.788,0,0,0-4.387,1.522c-.239.273.158.674.4.4a4.217,4.217,0,0,1,3.837-1.378c.356.063.508-.482.15-.545Z" transform="translate(-660.195 -268.973)"/>
    </g>
    <g id="Group_1719" data-name="Group 1719" transform="translate(39.48 51.23)">
      <path id="Path_4076" data-name="Path 4076" d="M664.586,268.141a5.057,5.057,0,0,0-4.608,1.724c-.231.278.167.679.4.4a4.5,4.5,0,0,1,4.059-1.578.293.293,0,0,0,.348-.2.284.284,0,0,0-.2-.348Z" transform="translate(-659.908 -268.086)"/>
    </g>
    <g id="Group_1720" data-name="Group 1720" transform="translate(38.834 49.659)">
      <path id="Path_4077" data-name="Path 4077" d="M663.8,267.208a4.58,4.58,0,0,0-4.212,1.3c-.251.264.149.663.4.4a4,4,0,0,1,3.662-1.156c.356.073.508-.472.151-.545Z" transform="translate(-659.509 -267.114)"/>
    </g>
    <g id="Group_1721" data-name="Group 1721" transform="translate(37.23 47.705)">
      <path id="Path_4078" data-name="Path 4078" d="M663.3,266.1a4.455,4.455,0,0,0-4.712,1.429c-.225.281.173.682.4.4a3.91,3.91,0,0,1,4.162-1.284c.349.108.5-.437.15-.545Z" transform="translate(-658.517 -265.906)"/>
    </g>
    <path id="Path_4079" data-name="Path 4079" d="M656.431,282.027l.036-5.153a1.541,1.541,0,0,0-1.4-1.547l-.092-.008a1.542,1.542,0,0,0-1.682,1.552l.053,5.161a1.543,1.543,0,0,0,3.087,0Z" transform="translate(-624.511 -212.398)"/>
    <path id="Path_4080" data-name="Path 4080" d="M646.419,236.9a5.846,5.846,0,0,1,5.045,4.228,11.423,11.423,0,0,1,.17,3.538l-2.163,38.691a4.054,4.054,0,0,1-2.589,3.6s6.368-52.322-1.287-46.912c-3.78-.021-3.7,43.692-3.7,43.692l-2.67-2.55,2.094-42.229a2.647,2.647,0,0,1,3.236-2.484Z" transform="translate(-633.187 -236.403)" fill="#32664e"/>
    <g id="Group_1722" data-name="Group 1722" transform="translate(5.274 43.544)">
      <path id="Path_4081" data-name="Path 4081" d="M651.085,266.182a8.148,8.148,0,0,0-2.458,2.015,13.546,13.546,0,0,0-.881,1.287,1.359,1.359,0,0,1-1.184.77,3.05,3.05,0,0,1-1.505-.6,16.277,16.277,0,0,1-1.324-.957,18.281,18.281,0,0,1-2.349-2.249,18.037,18.037,0,0,1-2.1-2.975.283.283,0,0,0-.488.285A18.517,18.517,0,0,0,643.214,269c.438.357.894.7,1.365,1.014a4.629,4.629,0,0,0,1.538.75,1.783,1.783,0,0,0,1.531-.3,4.8,4.8,0,0,0,.93-1.247,7.6,7.6,0,0,1,2.794-2.545c.32-.171.036-.66-.286-.488Z" transform="translate(-638.754 -263.332)" fill="#87c3a9"/>
    </g>
  </g>
  <path id="Path_4082" data-name="Path 4082" d="M640.035,218.878c-.163,0,1.358,16.736-.395,25.524-.669,3.354-1.226,7.454,1.41,9.629.76-1.169.692-2.676,1.111-4.005s1.871-2.611,3.09-1.936a2.339,2.339,0,0,1,.792,2.647c-.26,1.019-.862,1.931-1.045,2.97a.739.739,0,0,0,.091.53c.364.556,1.237-.013,1.6-.587a23.314,23.314,0,0,0,2.015-3.965q-1.111,1.96-2.222,3.921a3.488,3.488,0,0,0,3.185-2.487,6.165,6.165,0,0,0-1.468,1.725.63.63,0,0,0,.726.915c1.914-.576,3.271-3.038,2.317-4.891a1.668,1.668,0,0,0-1-1.594,5.9,5.9,0,0,1-3.2-5.066c-.149-2.45.776-4.815,1.541-7.147a58.2,58.2,0,0,0,2.865-16.338,1.982,1.982,0,0,0-.262-1.289,1.868,1.868,0,0,0-.884-.543c-2.652-.975-8.3-.039-10.276,1.986Z" transform="translate(-547.25 -139.04)" fill="#fed5b7"/>
  <path id="Path_4083" data-name="Path 4083" d="M629.134,193.144c6.379-.181,13.174-.255,18.6,3.1a27.27,27.27,0,0,1,4.626,3.8,80.864,80.864,0,0,1,12.577,15.82c3.2,5.27,6.958,11.193,6.445,17.339.141,1.256-8.986,4.317-11.1,2.406-.834-.757-1.753-5.428-2.594-6.178-1.536-1.373-1.277-1.226-2.881-2.519-3.811-3.076-6.761-7.495-10.832-10.219,0-.163-4.327,21.42-2.935,26.779-3.229.218-6.757,1.07-9.986,1.289-7.04.479-14.383.909-20.882-1.84a2.217,2.217,0,0,1-1.032-.708,2.337,2.337,0,0,1-.294-1.027L607.186,227.8c-.506-4.065-1.009-8.2-.333-12.237.385-2.3,1.148-4.524,1.429-6.835.435-3.567-.288-7.157-.838-10.708a2.18,2.18,0,0,1,.074-1.328c.318-.624.443-2.076,1.137-2.173,7.323-1.017,13.966-.354,20.81-1.3Z" transform="translate(-567.337 -153.495)" fill="#6da8c6"/>
  <path id="Path_4084" data-name="Path 4084" d="M643.128,224.446c.5,8.61,4.629,16.055,5.8,24.6.694,5.064.328,10.206-.039,15.3-.537,7.477-1.192,37.355-1.192,37.355l-19.48.519s-4.833-36.117-4.9-42.782c-.954,6.626-.141,41.634-.141,41.634l-19.978-.141s-.48-47.248,1.575-60.956c.521-3.47,7.509-12.818,7.538-16.057,9.781,2.607,20.731,1.363,30.819.524Z" transform="translate(-569.422 -134.464)" fill="#c2b38c"/>
  <path id="Path_4085" data-name="Path 4085" d="M613.575,307.108a7.016,7.016,0,0,0-2.8-2.969,17.234,17.234,0,0,0-3.806-1.6,1.247,1.247,0,0,0-.49-.084,1.261,1.261,0,0,0-.642.353l-2,1.695a6.433,6.433,0,0,1,7.7,3.953,9.849,9.849,0,0,1,2.128-1.442Z" transform="translate(-568.995 -86.014)"/>
  <path id="Path_4086" data-name="Path 4086" d="M606.082,304.071c-.01-2.594,2.157-48.09,2.419-53.593a1.229,1.229,0,0,0-.359-.928l-1.591-1.591a1.23,1.23,0,0,0-1.261-.3l-2.267.755a1.231,1.231,0,0,0-.839,1.083l-3.716,53.244h2.514l2.492-49.82a1.229,1.229,0,0,1,.359-.809,1.25,1.25,0,0,1,1.793-.052c.246.246.944.585.927.933L603.5,302.743Z" transform="translate(-572.309 -119.857)" fill="#f59f18"/>
  <path id="Path_4087" data-name="Path 4087" d="M608.278,250.7c-1.093.9-1.861,2.6-2.76,3.342-.183.149-4.518-2.477-4.4-1.468-.665-1.719-1.093-.3-.938-2.139s1.415-3.719,3.244-3.949a4.036,4.036,0,0,1,3.129,1.155,10.306,10.306,0,0,1,1.984,2.792Z" transform="translate(-571.274 -120.556)" fill="#606060"/>
  <path id="Path_4088" data-name="Path 4088" d="M612.068,223.343a77.4,77.4,0,0,1-2.45,17.856c-1.239,4.6-2.639,9.351-1.819,14.038.375,2.147,1.208,4.188,1.68,6.316a10.254,10.254,0,0,1-.016,5.254.631.631,0,0,1-1.125.16l-1.214-1.806a3.2,3.2,0,0,0-1.926-1.643,2.154,2.154,0,0,0-2.469,1.449c-.459,1.478.741,2.979,1.114,4.455a.875.875,0,0,1-1.394.9,3.121,3.121,0,0,1-1.15-2.251l.857,2.125a.5.5,0,0,1-.181.616c-.354.222-.7-.23-.849-.6q-.339-.851-.682-1.7a2.142,2.142,0,0,1,.073,1.8c-2.223-2.6-1.539-6.546-.474-9.8a61.562,61.562,0,0,0,2.173-7.144,39.6,39.6,0,0,0,.417-9.034c-.22-6.528-1.921-14.467-2.307-20.987,3.2-.239,9.1-1.814,11.742,0Z" transform="translate(-571.953 -135.353)" fill="#fed5b7"/>
  <path id="Path_4089" data-name="Path 4089" d="M636.4,175.419q.352,6.151.707,12.3c.139,2.4.241,4.966-.972,7.045s-8.227,1.674-8.227,1.674l.083,7.634s7.338,0,6.712.06c.655,6.644-2.356,15-7.847,18.8-3.58,2.476-8.779,3.5-12.126.721-2.7-2.241-3.273-6.1-3.517-9.6-.189-2.72-2.3-8.515-2.3-8.515s5.688-.9,7.527-1.171c1.079-5.391,1.491-6.586,1.222-12.077a3.869,3.869,0,1,1-.228-6.706,74.027,74.027,0,0,0-1.452-10.374Z" transform="translate(-565.864 -164.515)" fill="#fed5b7"/>
  <path id="Path_4090" data-name="Path 4090" d="M613.552,193.97A14.3,14.3,0,0,0,603,199.523c-3.177,3.858-3.368,9.288-3.41,14.286l-.22,26.41a6.692,6.692,0,0,0,6.72,6.772c2.532-.027,4.877-.7,6.46-2.631,1.664-2.032,1.869-4.852,2-7.477q.56-10.99,1.122-21.979c.325-6.376.611-13-1.824-18.9Z" transform="translate(-571.75 -152.943)" fill="#6da8c6"/>
  <path id="Path_4091" data-name="Path 4091" d="M617.159,287.034a5.58,5.58,0,0,1,2.991,3.59,16.508,16.508,0,0,1,.526,4.78q.123,10.354.246,20.713a5.2,5.2,0,0,0,.22,1.746,10.1,10.1,0,0,0,.969,1.628,5.355,5.355,0,0,1-8.943,5.876c-.624-.868-1.031-1.966-1.96-2.5a4.458,4.458,0,0,0-2.66-.285L598.375,323.6a2.468,2.468,0,0,0-1.36.412c-.479.393-.592,1.074-.941,1.585a1.952,1.952,0,0,1-3.561-1.2c.016-.359.123-.76-.089-1.051a1.151,1.151,0,0,0-.734-.353l-2.56-.53a1.634,1.634,0,0,1-2.862,1.37,3.3,3.3,0,0,1-.514-2.091q-.036-1.94-.07-3.882a153.172,153.172,0,0,0,16.255.529,11.756,11.756,0,0,0,5.755-1.146c1.874-1.1,3.071-3.145,5-4.138a5.122,5.122,0,0,0,1.4-.826,3.371,3.371,0,0,0,.715-2.075c.587-5.976-.209-12-.036-18,.057-1.974.454-4.309,2.243-5.145Z" transform="translate(-580.195 -95.526)" fill="#606060"/>
  <path id="Path_4092" data-name="Path 4092" d="M610.742,325.887a5.181,5.181,0,0,1-2.33.5c-2.02-.042-6.09-.113-8.9-.027a7.342,7.342,0,0,0-3.873.839,9.287,9.287,0,0,1-1.478,1.007c-1.659.677-3.282-.925-4.5-2.238a24.914,24.914,0,0,0-5.514-4.448,4.287,4.287,0,0,1-1.368-1.059,3.983,3.983,0,0,1-.474-2.5q.488-15.882.975-31.765c.045-1.447.191-3.1,1.352-3.963.438-.325.975-.493,1.439-.783a9.12,9.12,0,0,0,2.356-2.953c.708-1.054,1.824-2.065,3.082-1.876.842.126,1.536.775,2.377.909a10.766,10.766,0,0,0,2.125-.181c1.357-.06,2.612.711,3.958.894a17.654,17.654,0,0,0,3.724-.265,3.886,3.886,0,0,1,3.42,1.1,9.414,9.414,0,0,1,.8,1.517c1.138,2.154,3.708,3.093,6.1,3.548,1.62.307,3.423.561,4.477,1.827a5.393,5.393,0,0,1,.97,3.443c.027,3.161-.878,6.295-.665,9.45.1,1.523.466,3.019.621,4.539a33.556,33.556,0,0,1-.121,6.083q-.449,5.54-.894,11.079a.984.984,0,0,1-.162.555,1.04,1.04,0,0,1-.668.27,7.969,7.969,0,0,0-4.962,2.995,5.108,5.108,0,0,1-1.863,1.5Z" transform="translate(-582.29 -101.961)" fill="#6da8c6"/>
  <g id="Group_1724" data-name="Group 1724" transform="translate(3.323 179.662)">
    <path id="Path_4093" data-name="Path 4093" d="M595.313,320.763l.618-9.747.621-9.794c.2-3.181.479-6.373.406-9.563a30.176,30.176,0,0,0-.448-4.688,4.244,4.244,0,0,0-.762-1.952,4.863,4.863,0,0,0-1.567-1.171,65.737,65.737,0,0,0-8.4-3.737q-.543-.2-1.088-.388c-.344-.118-.493.427-.15.547a66.655,66.655,0,0,1,8.353,3.546,13.825,13.825,0,0,1,1.853,1.033,2.784,2.784,0,0,1,1.082,1.635,21.413,21.413,0,0,1,.545,4.537,90.91,90.91,0,0,1-.333,9.357q-.3,4.8-.608,9.606-.3,4.778-.606,9.559l-.076,1.218c-.024.364.542.362.564,0Z" transform="translate(-584.345 -279.708)"/>
  </g>
  <g id="Group_1725" data-name="Group 1725" transform="translate(0.864 191.165)">
    <path id="Path_4094" data-name="Path 4094" d="M595.5,289.959a52.084,52.084,0,0,1-9.694-2.175q-1.334-.434-2.644-.943c-.339-.131-.487.416-.15.545A52.386,52.386,0,0,0,592.7,290.1q1.4.25,2.807.425c.359.045.356-.521,0-.566Z" transform="translate(-582.824 -286.822)"/>
  </g>
  <g id="Group_1726" data-name="Group 1726" transform="translate(4.714 192.783)">
    <path id="Path_4095" data-name="Path 4095" d="M586.644,288.027q-.735,4.776-1.1,9.6t-.338,9.671q.012,2.733.145,5.464c.018.362.584.364.566,0q-.235-4.788-.1-9.585.141-4.814.66-9.608.294-2.7.707-5.389c.055-.356-.49-.509-.545-.15Z" transform="translate(-585.205 -287.822)"/>
  </g>
  <path id="Path_4096" data-name="Path 4096" d="M605.777,309.76c-.323-7.006-.729-14.431-1.219-21.428a3.927,3.927,0,0,0-2.091-3.861q-5.045-3.512-10.308-6.694c-.794-.48-1.884-.931-2.563-.3q4.819,3.114,9.367,6.62a11.062,11.062,0,0,1,2.814,2.8,11.2,11.2,0,0,1,1.248,4.941q.8,8.94.771,17.929c.55-.089,1.1.089,1.651,0Z" transform="translate(-577.782 -101.614)" fill="#606060"/>
  <g id="Group_1727" data-name="Group 1727" transform="translate(16.701 206.941)">
    <path id="Path_4097" data-name="Path 4097" d="M608.669,297.508a2.884,2.884,0,0,1-1.379.2c-.495-.021-.99-.074-1.484-.115-1.048-.087-2.1-.158-3.147-.267s-2.075-.369-3.119-.542a16.786,16.786,0,0,0-3.106-.2c-1.185.024-2.366.137-3.544.252-.359.034-.364.6,0,.566a25.316,25.316,0,0,1,6.41-.087c1.066.168,2.105.438,3.179.556s2.128.188,3.19.277a6.436,6.436,0,0,0,3.286-.15c.33-.155.042-.643-.285-.488Z" transform="translate(-592.618 -296.578)"/>
  </g>
  <path id="Path_4098" data-name="Path 4098" d="M606.8,306.568a2.1,2.1,0,1,1-.018-.057Z" transform="translate(-569.217 -83.519)"/>
  <g id="Group_1728" data-name="Group 1728" transform="translate(29.95 220.218)">
    <path id="Path_4099" data-name="Path 4099" d="M609.9,305.2a7.635,7.635,0,0,0-7.653,1.685,6.841,6.841,0,0,0-1.4,1.848c-.168.322.32.608.488.285a7.066,7.066,0,0,1,6.313-3.661,6.365,6.365,0,0,1,2.105.39c.343.125.49-.422.15-.547Z" transform="translate(-600.813 -304.789)"/>
  </g>
  <g id="Group_1729" data-name="Group 1729" transform="translate(14.493 225.917)">
    <path id="Path_4100" data-name="Path 4100" d="M598.022,308.314l-6.5.029a.283.283,0,0,0,0,.566l6.5-.029a.283.283,0,0,0,0-.566Z" transform="translate(-591.253 -308.314)"/>
  </g>
  <g id="Group_1730" data-name="Group 1730" transform="translate(36.74 200.563)">
    <path id="Path_4101" data-name="Path 4101" d="M606.435,292.906a52.7,52.7,0,0,1-.734,11.665q-.289,1.637-.681,3.252c-.086.354.459.5.545.15a53.434,53.434,0,0,0,1.491-11.7q.024-1.686-.057-3.368c-.018-.362-.582-.364-.564,0Z" transform="translate(-605.011 -292.634)"/>
  </g>
  <g id="Group_1731" data-name="Group 1731" transform="translate(99.685 109.129)">
    <path id="Path_4102" data-name="Path 4102" d="M644.7,236.431a5.29,5.29,0,0,1-.705,4.807c-.213.3.277.579.488.286a5.825,5.825,0,0,0,.762-5.244c-.12-.341-.665-.194-.545.15Z" transform="translate(-643.939 -236.087)" fill="#9b643e"/>
  </g>
  <g id="Group_1732" data-name="Group 1732" transform="translate(101.218 109.389)">
    <path id="Path_4103" data-name="Path 4103" d="M646.056,236.517a7.237,7.237,0,0,1-1.122,4.89c-.2.306.289.589.488.286a7.718,7.718,0,0,0,1.2-5.176c-.045-.356-.611-.361-.564,0Z" transform="translate(-644.887 -236.248)" fill="#9b643e"/>
  </g>
  <g id="Group_1733" data-name="Group 1733" transform="translate(99.677 109.122)">
    <path id="Path_4104" data-name="Path 4104" d="M647.454,236.083h-3.247a.282.282,0,0,0,0,.564h3.247a.282.282,0,0,0,0-.564Z" transform="translate(-643.934 -236.083)" fill="#9b643e"/>
  </g>
  <g id="Group_1734" data-name="Group 1734" transform="translate(94.94 104.505)">
    <path id="Path_4105" data-name="Path 4105" d="M645.015,233.35a24.877,24.877,0,0,0-3.738-.089c-.362.019-.364.585,0,.566a24.66,24.66,0,0,1,3.738.089.285.285,0,0,0,.283-.283.291.291,0,0,0-.283-.283Z" transform="translate(-641.005 -233.228)" fill="#9b643e"/>
  </g>
  <g id="Group_1735" data-name="Group 1735" transform="translate(29.187 127.844)">
    <path id="Path_4106" data-name="Path 4106" d="M600.815,247.86a11.54,11.54,0,0,0,.3,7.427c.129.335.677.189.545-.15a11.03,11.03,0,0,1-.3-7.126.283.283,0,0,0-.545-.15Z" transform="translate(-600.34 -247.662)" fill="#9b643e"/>
  </g>
  <g id="Group_1736" data-name="Group 1736" transform="translate(27.687 128.619)">
    <path id="Path_4107" data-name="Path 4107" d="M599.462,248.411a16.918,16.918,0,0,0,.5,5.569.283.283,0,0,0,.545-.15,16.443,16.443,0,0,1-.482-5.418c.027-.362-.539-.361-.566,0Z" transform="translate(-599.413 -248.14)" fill="#9b643e"/>
  </g>
  <g id="Group_1737" data-name="Group 1737" transform="translate(27.234 127.858)">
    <path id="Path_4108" data-name="Path 4108" d="M602.081,247.685a6.491,6.491,0,0,1-2.676.492c-.364-.011-.364.555,0,.566a6.875,6.875,0,0,0,2.825-.513.291.291,0,0,0,.2-.348.286.286,0,0,0-.348-.2Z" transform="translate(-599.132 -247.67)" fill="#9b643e"/>
  </g>
  <g id="Group_1738" data-name="Group 1738" transform="translate(30.968 117.579)">
    <path id="Path_4109" data-name="Path 4109" d="M604.049,241.368a4.887,4.887,0,0,0-2.4.234.292.292,0,0,0-.2.348.285.285,0,0,0,.348.2,4.277,4.277,0,0,1,2.1-.233.294.294,0,0,0,.348-.2.286.286,0,0,0-.2-.349Z" transform="translate(-601.442 -241.313)" fill="#9b643e"/>
  </g>
  <g id="Group_1739" data-name="Group 1739" transform="translate(40.824 40.743)">
    <path id="Path_4110" data-name="Path 4110" d="M637.326,194a53.671,53.671,0,0,1-3.035,11.975,18.71,18.71,0,0,1-6.489,8.284,12.584,12.584,0,0,1-4.657,1.982,10.727,10.727,0,0,1-4.9-.217,11.524,11.524,0,0,1-7.325-6.088c-1.683-3.625-1.242-7.794-2.335-11.579a13.844,13.844,0,0,0-.48-1.384c-.137-.331-.684-.186-.546.15,1.568,3.826,1.059,8.114,2.425,11.993a11.958,11.958,0,0,0,6.958,7.068,11.472,11.472,0,0,0,4.97.786,12.348,12.348,0,0,0,4.977-1.494,17.869,17.869,0,0,0,7.174-7.687A42.972,42.972,0,0,0,637.6,195.7c.091-.516.181-1.03.27-1.546.061-.356-.482-.509-.545-.15Z" transform="translate(-607.537 -193.794)" fill="#1b4b5e"/>
  </g>
  <g id="Group_1740" data-name="Group 1740" transform="translate(36.988 48.914)">
    <path id="Path_4111" data-name="Path 4111" d="M606.839,199.117l-1.024,8.51a48.374,48.374,0,0,0-.621,8.31,22.654,22.654,0,0,0,1.963,7.495,63.432,63.432,0,0,1,2.763,7.218,32.706,32.706,0,0,1,1.213,8.94.283.283,0,0,0,.566,0,33.4,33.4,0,0,0-.941-7.977,46.42,46.42,0,0,0-2.623-7.307,26.388,26.388,0,0,1-2.293-7.362,36.046,36.046,0,0,1,.414-8.289q.572-4.768,1.146-9.538c.044-.361-.522-.357-.564,0Z" transform="translate(-605.165 -198.848)" fill="#1b4b5e"/>
  </g>
  <g id="Group_1741" data-name="Group 1741" transform="translate(92.905 78.004)">
    <path id="Path_4112" data-name="Path 4112" d="M649.709,216.908a12.552,12.552,0,0,1-7.354,2.81,12.2,12.2,0,0,1-2.252-.1.293.293,0,0,0-.348.2.284.284,0,0,0,.2.348,13.185,13.185,0,0,0,8.171-1.5,12.891,12.891,0,0,0,1.986-1.355c.281-.231-.121-.631-.4-.4Z" transform="translate(-639.746 -216.838)" fill="#1b4b5e"/>
  </g>
  <g id="Group_1742" data-name="Group 1742" transform="translate(29.06 90.119)">
    <path id="Path_4113" data-name="Path 4113" d="M611.364,224.365c-2.663,1.361-5.852,2.8-8.825,1.5a4.786,4.786,0,0,1-1.809-1.358c-.23-.281-.627.12-.4.4a5.809,5.809,0,0,0,3.788,1.965,9.723,9.723,0,0,0,4.789-.742c.94-.369,1.845-.813,2.742-1.273.323-.167.039-.655-.286-.488Z" transform="translate(-600.262 -224.331)" fill="#1b4b5e"/>
  </g>
  <g id="Group_1743" data-name="Group 1743" transform="translate(46.537 72.714)">
    <path id="Path_4114" data-name="Path 4114" d="M626.568,219.319q-5.964-1.96-11.78-4.34-1.649-.677-3.286-1.386c-.33-.144-.618.343-.285.488q5.814,2.52,11.8,4.626,1.7.6,3.4,1.156c.346.115.495-.432.15-.545Z" transform="translate(-611.07 -213.567)" fill="#1b4b5e"/>
  </g>
  <g id="Group_1744" data-name="Group 1744" transform="translate(49.974 75.86)">
    <path id="Path_4115" data-name="Path 4115" d="M625.281,220.039a69.934,69.934,0,0,1-9.17-3.329q-1.254-.558-2.487-1.166c-.325-.16-.611.328-.285.488a70.847,70.847,0,0,0,9.123,3.73c.884.293,1.774.564,2.668.821a.283.283,0,0,0,.15-.545Z" transform="translate(-613.196 -215.512)" fill="#1b4b5e"/>
  </g>
  <g id="Group_1745" data-name="Group 1745" transform="translate(74.823 44.416)">
    <path id="Path_4116" data-name="Path 4116" d="M630.679,214.433c-1.413-1.735-1.266-4.083-1.365-6.187-.058-1.237-.223-2.45-.171-3.692a23.779,23.779,0,0,1,.513-3.837c.3-1.449.694-2.877,1.088-4.3a.283.283,0,0,0-.545-.15,38.855,38.855,0,0,0-1.6,7.928,17.037,17.037,0,0,0-.008,1.989c.034.624.118,1.243.152,1.868.06,1.133.044,2.273.191,3.4a6.556,6.556,0,0,0,1.349,3.381c.23.283.627-.12.4-.4Z" transform="translate(-628.563 -196.066)" fill="#1b4b5e"/>
  </g>
  <g id="Group_1746" data-name="Group 1746" transform="translate(36.306 49.671)">
    <path id="Path_4117" data-name="Path 4117" d="M604.745,199.586a17.954,17.954,0,0,0,1.382,5.176c.146.333.632.045.488-.285a17.018,17.018,0,0,1-1.3-4.891c-.041-.359-.606-.362-.566,0Z" transform="translate(-604.743 -199.316)" fill="#1b4b5e"/>
  </g>
  <g id="Group_1747" data-name="Group 1747" transform="translate(74.526 45.659)">
    <path id="Path_4118" data-name="Path 4118" d="M628.385,197.189c.231,1.313.22,2.662.451,3.976.063.357.61.205.547-.15-.233-1.315-.222-2.662-.453-3.976-.063-.357-.608-.205-.545.15Z" transform="translate(-628.38 -196.835)" fill="#1b4b5e"/>
  </g>
  <g id="Group_1748" data-name="Group 1748" transform="translate(64.823 174.551)">
    <path id="Path_4119" data-name="Path 4119" d="M622.384,276.9a4.652,4.652,0,0,0,1.374,2.6c.262.252.663-.147.4-.4a4.161,4.161,0,0,1-1.227-2.354.286.286,0,0,0-.348-.2.289.289,0,0,0-.2.348Z" transform="translate(-622.379 -276.547)" fill="#9b643e"/>
  </g>
  <g id="Group_1749" data-name="Group 1749" transform="translate(40.657 172.538)">
    <path id="Path_4120" data-name="Path 4120" d="M607.442,275.659a5.6,5.6,0,0,0,1.043,2.13.287.287,0,0,0,.4,0,.291.291,0,0,0,0-.4,4.942,4.942,0,0,1-.9-1.88.283.283,0,1,0-.545.15Z" transform="translate(-607.434 -275.302)" fill="#9b643e"/>
  </g>
  <g id="Group_1750" data-name="Group 1750" transform="translate(62.098 219.763)">
    <path id="Path_4121" data-name="Path 4121" d="M621.292,304.589a2.143,2.143,0,0,0-.6,1.446.283.283,0,0,0,.283.281.287.287,0,0,0,.283-.281c0-.055,0-.108.008-.163s.013-.078.018-.105a2.229,2.229,0,0,1,.1-.32c.024-.049.036-.073.049-.1q.039-.073.082-.141l.045-.066a1.949,1.949,0,0,1,.131-.154.282.282,0,1,0-.4-.4Z" transform="translate(-620.694 -304.508)" fill="#9b643e"/>
  </g>
  <g id="Group_1751" data-name="Group 1751" transform="translate(59.636 219.726)">
    <path id="Path_4122" data-name="Path 4122" d="M620.271,304.518a1.906,1.906,0,0,0-1.1,1.779.283.283,0,1,0,.566,0,1.68,1.68,0,0,1,.007-.222,1.254,1.254,0,0,1,.037-.178c.01-.036.019-.071.032-.107a1.807,1.807,0,0,1,.131-.264c.019-.031.04-.063.061-.092a1.918,1.918,0,0,1,.194-.209,1.352,1.352,0,0,1,.147-.11,1.493,1.493,0,0,1,.207-.11.284.284,0,0,0,.1-.387.292.292,0,0,0-.387-.1Z" transform="translate(-619.171 -304.485)" fill="#9b643e"/>
  </g>
  <g id="Group_1752" data-name="Group 1752" transform="translate(58.143 219.514)">
    <path id="Path_4123" data-name="Path 4123" d="M619.011,304.49q-.364.754-.729,1.509a.282.282,0,1,0,.487.285q.366-.754.731-1.507a.288.288,0,0,0-.1-.386.285.285,0,0,0-.386.1Z" transform="translate(-618.248 -304.354)" fill="#9b643e"/>
  </g>
  <g id="Group_1753" data-name="Group 1753" transform="translate(49.629 205.242)">
    <path id="Path_4124" data-name="Path 4124" d="M613.3,295.952c.026.039.05.076.073.116a2.226,2.226,0,0,1,.116.315,1.459,1.459,0,0,1,.027.222c0,.042,0,.082,0,.124a2.237,2.237,0,0,1-.063.343c-.013.039-.026.078-.042.116a2.046,2.046,0,0,1-.1.188,1.472,1.472,0,0,1-.244.268.283.283,0,0,0,.4.4,1.851,1.851,0,0,0,.325-2.379.29.29,0,0,0-.386-.1.283.283,0,0,0-.1.387Z" transform="translate(-612.982 -295.528)" fill="#9b643e"/>
  </g>
  <g id="Group_1754" data-name="Group 1754" transform="translate(73.352 206.019)">
    <path id="Path_4125" data-name="Path 4125" d="M627.792,296.535a.957.957,0,0,1,.133.118.894.894,0,0,1,.089.128,1.445,1.445,0,0,1,.1.264,2.01,2.01,0,0,1,.016.28,1.294,1.294,0,0,1-.032.162c-.011.036-.024.071-.037.107.024-.065-.015.024-.026.045s-.036.058-.055.087c-.152.163-.165.351-.05.456a.286.286,0,0,0,.4,0,1.438,1.438,0,0,0-.247-2.134.286.286,0,0,0-.388.1.29.29,0,0,0,.1.386Z" transform="translate(-627.654 -296.008)" fill="#9b643e"/>
  </g>
  <g id="Group_1755" data-name="Group 1755" transform="translate(42.907 92.659)">
    <path id="Path_4126" data-name="Path 4126" d="M638.624,226.455a57.7,57.7,0,0,1-11.5,1,111.4,111.4,0,0,1-11.537-.757c-2.168-.239-4.332-.514-6.5-.792-.361-.047-.357.519,0,.566,3.858.5,7.721.98,11.6,1.273a79.007,79.007,0,0,0,11.607.113,53.468,53.468,0,0,0,6.469-.855c.357-.07.205-.614-.15-.545Z" transform="translate(-608.825 -225.901)" fill="#87795b"/>
  </g>
  <g id="Group_1756" data-name="Group 1756" transform="translate(51.452 94.354)">
    <path id="Path_4127" data-name="Path 4127" d="M614.99,227.152a24.933,24.933,0,0,0-.555,5.38c-.039,1.874-.066,3.75-.1,5.624l-.2,11.3a6.334,6.334,0,0,0,.031,1.484,1.435,1.435,0,0,0,.771.917,10.213,10.213,0,0,0,2.7.943.286.286,0,0,0,.357-.272q.25-4.819.676-9.627.432-4.829,1.043-9.64.347-2.714.752-5.42c.052-.356-.492-.509-.547-.15q-.718,4.81-1.256,9.644t-.893,9.7q-.2,2.743-.34,5.491l.357-.273a11.2,11.2,0,0,1-2.369-.787c-.325-.154-.648-.336-.715-.72a7.169,7.169,0,0,1,0-1.292q.046-2.709.094-5.417.095-5.438.191-10.877a26.533,26.533,0,0,1,.547-5.865c.086-.353-.459-.5-.547-.149Z" transform="translate(-614.11 -226.95)" fill="#87795b"/>
  </g>
  <g id="Group_1757" data-name="Group 1757" transform="translate(53.156 119.126)">
    <path id="Path_4128" data-name="Path 4128" d="M615.7,242.539q-.269,2.246-.537,4.492c-.044.361.522.357.566,0q.267-2.246.537-4.492c.042-.361-.524-.357-.566,0Z" transform="translate(-615.163 -242.27)" fill="#87795b"/>
  </g>
  <g id="Group_1758" data-name="Group 1758" transform="translate(48.243 123.403)">
    <path id="Path_4129" data-name="Path 4129" d="M622.844,246.062l-10.449-1.145c-.361-.04-.359.526,0,.566l10.449,1.145c.361.039.357-.525,0-.566Z" transform="translate(-612.125 -244.915)" fill="#87795b"/>
  </g>
  <g id="Group_1759" data-name="Group 1759" transform="translate(63.593 94.772)">
    <path id="Path_4130" data-name="Path 4130" d="M621.645,227.641c1.363,3.114,2.886,6.455,5.606,8.63a9.675,9.675,0,0,0,2.442,1.433c.336.136.483-.411.149-.545-3.14-1.268-5.069-4.28-6.508-7.194-.424-.859-.815-1.732-1.2-2.608-.146-.333-.632-.045-.488.285Z" transform="translate(-621.619 -227.208)" fill="#87795b"/>
  </g>
  <g id="Group_1760" data-name="Group 1760" transform="translate(71.138 94.706)">
    <path id="Path_4131" data-name="Path 4131" d="M626.292,227.521a120.165,120.165,0,0,1,2.3,23.993c.1,8.182-.11,16.37-.215,24.55q-.09,7.014-.178,14.029a.282.282,0,0,0,.564,0l.32-25.052c.1-8.1.252-16.223-.367-24.31a98.925,98.925,0,0,0-1.879-13.361c-.078-.356-.622-.205-.545.15Z" transform="translate(-626.284 -227.167)" fill="#87795b"/>
  </g>
  <g id="Group_1761" data-name="Group 1761" transform="translate(58.597 157.969)">
    <path id="Path_4132" data-name="Path 4132" d="M636.895,267.3q-7.216-.124-14.43-.378a8.4,8.4,0,0,1-3.507-.6c-.325-.162-.611.325-.285.488a7.559,7.559,0,0,0,3.067.645c1.211.057,2.425.087,3.638.124q3.689.116,7.378.2,2.069.046,4.138.081a.282.282,0,0,0,0-.564Z" transform="translate(-618.529 -266.292)" fill="#87795b"/>
  </g>
  <g id="Group_1762" data-name="Group 1762" transform="translate(48.553 124.583)">
    <path id="Path_4133" data-name="Path 4133" d="M614.294,245.849q-1.036,6.483-1.533,13.036t-.438,13.136q.031,3.7.239,7.4c.019.362.585.364.564,0q-.364-6.517-.186-13.049t.907-13.065q.408-3.665.991-7.309c.057-.356-.488-.509-.545-.15Z" transform="translate(-612.317 -245.644)" fill="#87795b"/>
  </g>
  <g id="Group_1763" data-name="Group 1763" transform="translate(36.726 158.38)">
    <path id="Path_4134" data-name="Path 4134" d="M619.656,266.595a.772.772,0,0,1-.094.053c-.031.013-.057.023-.084.032a2.829,2.829,0,0,1-.349.091,8.134,8.134,0,0,1-.946.136c-.951.1-1.908.129-2.865.154-2.327.057-4.657.024-6.984-.026q-1.528-.034-3.059-.082c-.364-.011-.362.555,0,.566,2.057.063,4.114.113,6.17.129,2.183.018,4.385.04,6.563-.158a11.417,11.417,0,0,0,1.218-.162,1.992,1.992,0,0,0,.716-.244c.3-.2.018-.692-.286-.488Z" transform="translate(-605.003 -266.546)" fill="#87795b"/>
  </g>
  <g id="Group_1764" data-name="Group 1764" transform="translate(38.97 93.936)">
    <path id="Path_4135" data-name="Path 4135" d="M613,226.828a11.973,11.973,0,0,1-6.419,5.294c-.343.118-.2.665.15.545a12.574,12.574,0,0,0,6.757-5.553.283.283,0,0,0-.488-.286Z" transform="translate(-606.391 -226.691)" fill="#87795b"/>
  </g>
  <path id="Path_4136" data-name="Path 4136" d="M629.621,175.668c2.311.194,3.375,3.444,2.1,5.383s-3.934,2.531-6.216,2.107c-.741,1.648,1.492,3.569.711,5.2-1.112,2.327-5.962-.037-6.788,2.406-.453,1.34,1.006,2.482,2.2,3.244s2.437,2.3,1.559,3.41c-.991,1.253-3.91.674-3.839,2.27.032.708.781,1.137,1.138,1.748.652,1.112-.209,2.616-1.4,3.113a6.874,6.874,0,0,1-3.813.061l-9.335-1.63a2.192,2.192,0,0,1-1.054-.479c-.884-.758-.493-1.662-.074-2.4a22.264,22.264,0,0,1,1.3-2.042,2.82,2.82,0,0,0-.291-3.635,5.871,5.871,0,0,1-.893-1.114,3.31,3.31,0,0,1,0-3.708c.854-1.049,2.629-1.515,2.691-2.865s-1.738-2.045-2.21-3.328c-.962-2.6,3.842-4.091,3.918-6.867a5.176,5.176,0,0,1,.021-1.361c.2-.642.865-.994,1.473-1.277l8.68-4.055a8.122,8.122,0,0,1,2.784-.909c1.046-.074,2.083.257,3.13.239a19.515,19.515,0,0,0,2.763-.461,9.167,9.167,0,0,1,6.976,1.767,2.781,2.781,0,0,1,1.158,1.573,6.705,6.705,0,0,0,.158,1.439c.273.642,1.049.86,1.7,1.116a6.286,6.286,0,0,1,3.806,4.668c.16.912-.346,1.737-.487,2.652-.417,2.749-10.31-.126-11.82-.754Z" transform="translate(-568.676 -168.597)" fill="#f59f18"/>
  <path id="Path_4137" data-name="Path 4137" d="M614.451,181.377a3.031,3.031,0,0,0-4.138-.506,3.679,3.679,0,0,0-1.049,4.2,4.707,4.707,0,0,0,3.509,2.739,1.958,1.958,0,0,0,1.67-.294,2.383,2.383,0,0,0,.395-2.141l-.529-3.761Z" transform="translate(-565.808 -161.389)" fill="#fed5b7"/>
  <g id="Group_1765" data-name="Group 1765" transform="translate(44.758 20.885)">
    <path id="Path_4138" data-name="Path 4138" d="M613.207,183.832l-2.755-2.238a.289.289,0,0,0-.4,0,.285.285,0,0,0,0,.4q1.378,1.118,2.755,2.24a.292.292,0,0,0,.4,0,.285.285,0,0,0,0-.4Z" transform="translate(-609.97 -181.513)" fill="#9b643e"/>
  </g>
  <g id="Group_1766" data-name="Group 1766" transform="translate(45.488 22.4)">
    <path id="Path_4139" data-name="Path 4139" d="M611.433,182.532a4.772,4.772,0,0,0-1,1.674.284.284,0,0,0,.2.348.289.289,0,0,0,.349-.2c.024-.07.05-.141.078-.21.035-.086.05-.118.065-.149a4.379,4.379,0,0,1,.21-.4c.074-.124.155-.244.241-.361.058-.076.079-.1.1-.129.05-.061.1-.121.157-.179a.282.282,0,0,0-.4-.4Z" transform="translate(-610.421 -182.451)" fill="#9b643e"/>
  </g>
  <path id="Path_4140" data-name="Path 4140" d="M623.431,188.788l-7.257-1.172,7.257,4.4Z" transform="translate(-561.384 -156.863)" fill="#9b643e" opacity="0.28"/>
  <g id="Group_1767" data-name="Group 1767" transform="translate(42.74 40.693)">
    <path id="Path_4141" data-name="Path 4141" d="M608.748,194.2a31.883,31.883,0,0,1,1.923,6.625c.218,1.148.4,2.3.56,3.459a24.168,24.168,0,0,0,.59,3.418,11.092,11.092,0,0,0,1.719,3.323c.212.293.7.011.488-.285a10.888,10.888,0,0,1-1.583-2.933,19.5,19.5,0,0,1-.634-3.413,53.981,53.981,0,0,0-1.294-6.786,28.368,28.368,0,0,0-1.281-3.692c-.142-.333-.63-.045-.488.285Z" transform="translate(-608.722 -193.763)" fill="#1b4b5e"/>
  </g>
  <g id="Group_1768" data-name="Group 1768" transform="translate(57.778 53.712)">
    <path id="Path_4142" data-name="Path 4142" d="M625.1,201.949a15.768,15.768,0,0,1-6.932,6.106c-.331.149-.044.637.285.488a16.261,16.261,0,0,0,7.136-6.309.283.283,0,0,0-.488-.285Z" transform="translate(-618.022 -201.815)" fill="#1b4b5e"/>
  </g>
  <g id="Group_1769" data-name="Group 1769" transform="translate(47.873 39.568)">
    <path id="Path_4143" data-name="Path 4143" d="M626.311,193.272a16.943,16.943,0,0,1-1.384,4.411,5.418,5.418,0,0,1-2.911,2.915,7.107,7.107,0,0,1-4.434.238,6.05,6.05,0,0,1-3.074-2.388,17.257,17.257,0,0,1-2.052-4.66c-.113-.344-.66-.2-.545.15.917,2.8,2.071,6.026,5.017,7.26a7.3,7.3,0,0,0,4.706.12,5.782,5.782,0,0,0,2.037-1.014,5.933,5.933,0,0,0,1.4-1.682,15.925,15.925,0,0,0,1.787-5.2c.063-.356-.482-.508-.545-.15Z" transform="translate(-611.896 -193.068)" fill="#fff"/>
  </g>
  <path id="Path_4144" data-name="Path 4144" d="M617.358,198.525a6.676,6.676,0,0,1,.5,4.073,1.312,1.312,0,0,1-.442.863.941.941,0,0,1-1.053-.063,2,2,0,0,1-.639-.9,4.86,4.86,0,0,1-.3-2.621,2.186,2.186,0,0,1,.517-1.188,1.064,1.064,0,0,1,1.2-.268Z" transform="translate(-561.884 -150.255)" fill="#fff"/>
  <g id="Group_1770" data-name="Group 1770" transform="translate(50.338 11.774)">
    <path id="Path_4145" data-name="Path 4145" d="M617.405,175.91a7.934,7.934,0,0,0-2.178,1.512,1.374,1.374,0,0,0-.471,1.054,2.672,2.672,0,0,0,.509,1.208q.4.631.8,1.26c.2.309.511.677.336,1.061-.346.763-1.447.775-2.1,1.109a1.343,1.343,0,0,0-.621,1.989c.235.278.632-.124.4-.4a.646.646,0,0,1,.091-.771,1.774,1.774,0,0,1,.939-.527,2.635,2.635,0,0,0,1.782-1.112c.385-.766-.233-1.47-.626-2.091-.236-.374-.484-.741-.705-1.124a.933.933,0,0,1-.079-1.09,4.6,4.6,0,0,1,1.022-.889,8.229,8.229,0,0,1,1.193-.7c.328-.157.04-.645-.286-.488Z" transform="translate(-613.421 -175.879)" fill="#b77115"/>
  </g>
  <g id="Group_1771" data-name="Group 1771" transform="translate(39.54 12.543)">
    <path id="Path_4146" data-name="Path 4146" d="M611.319,176.355c-1.25.089-2.875.527-3.176,1.948a2.978,2.978,0,0,0,.574,2.194c.228.356.488.689.742,1.027.222.293.53.637.385,1.028-.264.707-1.192.867-1.8,1.124a1.89,1.89,0,0,0-1.294,1.572,2.657,2.657,0,0,0,.781,1.971,14.665,14.665,0,0,0,1.95,1.465c.637.48,1.357,1.285,1.161,2.155-.181.805-1.041,1.226-1.714,1.56-.327.162-.04.648.285.487a4.283,4.283,0,0,0,1.672-1.234,2.014,2.014,0,0,0,.112-2.065,4.457,4.457,0,0,0-1.644-1.685,5.267,5.267,0,0,1-1.753-1.526,1.445,1.445,0,0,1,.125-1.877c.566-.469,1.371-.506,1.968-.933a1.4,1.4,0,0,0,.558-1.9,11,11,0,0,0-.7-.96,6.464,6.464,0,0,1-.661-1.066,1.635,1.635,0,0,1,.357-2.063,3.773,3.773,0,0,1,2.078-.655c.361-.024.364-.59,0-.564Z" transform="translate(-606.743 -176.354)" fill="#b77115"/>
  </g>
  <g id="Group_1772" data-name="Group 1772" transform="translate(47.229 25.251)">
    <path id="Path_4147" data-name="Path 4147" d="M614.033,184.681c.563.456,1.585,1.319.995,2.134-.42.584-1.324.592-1.937.842-.637.262-1.332.8-1.234,1.567a1.941,1.941,0,0,0,.608,1.033,3.282,3.282,0,0,1,.752,1.127,1.009,1.009,0,0,1-.312,1.166,3.209,3.209,0,0,1-1.206.5.283.283,0,0,0,.15.545c.781-.2,1.685-.521,1.945-1.374.3-.985-.48-1.845-1.077-2.521-.272-.309-.43-.674-.141-1.028a1.964,1.964,0,0,1,.97-.576c.734-.217,1.654-.362,2.044-1.117.56-1.083-.378-2.065-1.158-2.7-.281-.228-.682.17-.4.4Z" transform="translate(-611.498 -184.214)" fill="#b77115"/>
  </g>
  <g id="Group_1773" data-name="Group 1773" transform="translate(42.464 30.828)">
    <path id="Path_4148" data-name="Path 4148" d="M609.235,188.145a1.2,1.2,0,0,1,.116.188,1.572,1.572,0,0,1,.049.407,1.431,1.431,0,0,1-.049.217,1.464,1.464,0,0,1-.089.194c-.023.039-.05.076-.076.113-.333.239-.38.254-.428.264a.283.283,0,0,0,.15.545,1.465,1.465,0,0,0,.726-2.328.286.286,0,0,0-.4,0,.29.29,0,0,0,0,.4Z" transform="translate(-608.551 -187.663)" fill="#b77115"/>
  </g>
  <g id="Group_1774" data-name="Group 1774" transform="translate(48.149 4.695)">
    <path id="Path_4149" data-name="Path 4149" d="M615.571,171.516c-1.444.6-3.216,1.559-2.99,3.407a5.087,5.087,0,0,0,1.313,2.514,1.884,1.884,0,0,1,.4.55.655.655,0,0,1-.21.624,8,8,0,0,1-1.174.758,2.113,2.113,0,0,0-.692,2.45c.136.333.684.188.546-.15a1.564,1.564,0,0,1,.624-1.944,5.148,5.148,0,0,0,1.095-.715,1.243,1.243,0,0,0,.369-1.134,3.317,3.317,0,0,0-.757-1.09,5.813,5.813,0,0,1-.731-1.166,2.048,2.048,0,0,1,.222-2.215,5.44,5.44,0,0,1,2.139-1.345.294.294,0,0,0,.2-.348.285.285,0,0,0-.348-.2Z" transform="translate(-612.067 -171.501)" fill="#b77115"/>
  </g>
  <g id="Group_1775" data-name="Group 1775" transform="translate(42.174 6.403)">
    <path id="Path_4150" data-name="Path 4150" d="M612.251,172.57a6.234,6.234,0,0,0-3.163,1.62,2.543,2.543,0,0,0-.39,2.972c.2.3.687.021.487-.285a2.013,2.013,0,0,1,.424-2.422,6.1,6.1,0,0,1,2.792-1.34.283.283,0,0,0-.15-.545Z" transform="translate(-608.372 -172.557)" fill="#b77115"/>
  </g>
  <g id="Group_1776" data-name="Group 1776" transform="translate(39.452 11.561)">
    <path id="Path_4151" data-name="Path 4151" d="M607.4,175.828a2.056,2.056,0,0,0-.678,1.911.285.285,0,0,0,.348.2.292.292,0,0,0,.2-.348c-.011-.092-.013-.125-.014-.159a1.438,1.438,0,0,1,.008-.221c.013-.091.021-.123.027-.155a1.846,1.846,0,0,1,.065-.213c.034-.079.048-.113.066-.146a1.665,1.665,0,0,1,.108-.179c.061-.079.084-.108.11-.136a1.45,1.45,0,0,1,.162-.152.284.284,0,0,0,0-.4.291.291,0,0,0-.4,0Z" transform="translate(-606.689 -175.747)" fill="#b77115"/>
  </g>
  <g id="Group_1777" data-name="Group 1777" transform="translate(55.079 6.822)">
    <path id="Path_4152" data-name="Path 4152" d="M629.273,173.165a2.573,2.573,0,0,1-1.646,2.935,5.016,5.016,0,0,1-2.115.336,7.727,7.727,0,0,1-1.978-.3,3.079,3.079,0,0,1-1.719-1.129c-.168-.246-.64-.1-.516.218a2.018,2.018,0,0,1-1.154,2.458,3.333,3.333,0,0,1-3.294-.679c-.283-.225-.686.173-.4.4a3.9,3.9,0,0,0,3.981.768,2.573,2.573,0,0,0,1.413-3.1l-.518.217c.865,1.266,2.506,1.614,3.944,1.7a4.459,4.459,0,0,0,4.162-1.685,2.746,2.746,0,0,0,.385-2.291c-.107-.348-.652-.2-.545.15Z" transform="translate(-616.353 -172.817)" fill="#b77115"/>
  </g>
  <g id="Group_1778" data-name="Group 1778" transform="translate(53.627 2.959)">
    <path id="Path_4153" data-name="Path 4153" d="M621.57,170.438a2.791,2.791,0,0,0-2.891,3.695l.416-.32a2.516,2.516,0,0,0-3.323.568,1.994,1.994,0,0,0,.694,2.831c.33.149.618-.338.286-.488a1.428,1.428,0,0,1-.492-2.058,1.958,1.958,0,0,1,2.55-.364.285.285,0,0,0,.414-.319A2.227,2.227,0,0,1,621.57,171c.362.032.361-.534,0-.564Z" transform="translate(-615.455 -170.427)" fill="#b77115"/>
  </g>
  <g id="Group_1779" data-name="Group 1779" transform="translate(50.231 1.841)">
    <path id="Path_4154" data-name="Path 4154" d="M614.721,169.77a2.453,2.453,0,0,0-1.362,1.788.291.291,0,0,0,.2.349.287.287,0,0,0,.348-.2,2.011,2.011,0,0,1,.058-.259c.011-.039.024-.076.037-.115a2.449,2.449,0,0,1,.285-.513c.076-.089.1-.121.136-.152a2.058,2.058,0,0,1,.186-.171c.1-.074.134-.1.168-.116a2.03,2.03,0,0,1,.233-.126.285.285,0,0,0,.1-.386.293.293,0,0,0-.388-.1Z" transform="translate(-613.355 -169.736)" fill="#b77115"/>
  </g>
  <g id="Group_1780" data-name="Group 1780" transform="translate(71.817 15.954)">
    <path id="Path_4155" data-name="Path 4155" d="M628.186,179.027a1.5,1.5,0,0,1,.9,1.227,2.344,2.344,0,0,1-.538,1.682c-.382.5-.923.839-1.331,1.316a1.936,1.936,0,0,0-.475,1.659c.251,1.321,1.533,2.05,2.6,2.649,1.053.589,2.448,1.543,2.023,2.956a3.59,3.59,0,0,1-3.26,2.319c-.362.013-.364.577,0,.566a4.3,4.3,0,0,0,3.383-1.868,2.584,2.584,0,0,0,.471-1.986,3.1,3.1,0,0,0-1.095-1.667c-1.1-.912-2.721-1.279-3.412-2.631a1.425,1.425,0,0,1,.283-1.73,11.075,11.075,0,0,0,1.408-1.454,2.742,2.742,0,0,0,.463-2.084,2.032,2.032,0,0,0-1.269-1.5c-.343-.124-.492.422-.15.545Z" transform="translate(-626.705 -178.464)" fill="#b77115"/>
  </g>
  <g id="Group_1781" data-name="Group 1781" transform="translate(71.559 29.827)">
    <path id="Path_4156" data-name="Path 4156" d="M627,187.52a1.7,1.7,0,0,1-.312,2.78.283.283,0,0,0,.285.488,2.266,2.266,0,0,0,.427-3.667c-.268-.244-.669.154-.4.4Z" transform="translate(-626.545 -187.044)" fill="#b77115"/>
  </g>
  <g id="Group_1782" data-name="Group 1782" transform="translate(67.935 32.532)">
    <path id="Path_4157" data-name="Path 4157" d="M625.042,189.2a.972.972,0,0,1,.231,1,.34.34,0,0,1-.042.1c-.024.045-.05.086-.078.128a1.071,1.071,0,0,1-.167.178,1.169,1.169,0,0,1-.217.139,1.363,1.363,0,0,1-.26.079.283.283,0,0,0,.15.545,1.514,1.514,0,0,0,.781-2.569.283.283,0,0,0-.4.4Z" transform="translate(-624.304 -188.716)" fill="#b77115"/>
  </g>
  <g id="Group_1783" data-name="Group 1783" transform="translate(64.093 18.598)">
    <path id="Path_4158" data-name="Path 4158" d="M621.936,180.451a6.534,6.534,0,0,0,3.531,4.364l-.058-.443a2.79,2.79,0,0,1-2.22.891c-.364-.019-.362.547,0,.566a3.34,3.34,0,0,0,2.62-1.058.284.284,0,0,0-.057-.443,6,6,0,0,1-3.271-4.028c-.083-.354-.629-.2-.545.15Z" transform="translate(-621.927 -180.099)" fill="#9b643e"/>
  </g>
  <g id="Group_1784" data-name="Group 1784" transform="translate(62.315 24.57)">
    <path id="Path_4159" data-name="Path 4159" d="M623.9,184.626a2.388,2.388,0,0,1-2.592-.752.285.285,0,0,0-.4,0,.29.29,0,0,0,0,.4,2.938,2.938,0,0,0,3.142.9c.343-.116.2-.663-.15-.545Z" transform="translate(-620.828 -183.792)" fill="#9b643e"/>
  </g>
  <path id="Path_4160" data-name="Path 4160" d="M618.931,181.494c-.018.585.293,1.069.7,1.08s.742-.451.76-1.035-.294-1.069-.7-1.082S618.949,180.91,618.931,181.494Z" transform="translate(-559.684 -161.28)"/>
  <path id="Path_4161" data-name="Path 4161" d="M623.869,181.494c-.018.585.294,1.069.7,1.08s.742-.451.76-1.035-.293-1.069-.7-1.082S623.887,180.91,623.869,181.494Z" transform="translate(-556.637 -161.28)"/>
  <path id="Path_4162" data-name="Path 4162" d="M621.311,178.6c.343.158.243.72-.071.93a2.8,2.8,0,0,1-1.092.267,5.111,5.111,0,0,0-1.889.936,2.519,2.519,0,0,1,.985-2.029,1.982,1.982,0,0,1,2.2-.089Z" transform="translate(-560.097 -162.6)" fill="#b77115"/>
  <path id="Path_4163" data-name="Path 4163" d="M623.417,178.193c-.345.158-.244.718.071.928a2.8,2.8,0,0,0,1.091.268,5.076,5.076,0,0,1,1.887.935,2.522,2.522,0,0,0-.985-2.029,1.979,1.979,0,0,0-2.2-.087Z" transform="translate(-557.049 -162.849)" fill="#b77115"/>
  <g id="Group_1785" data-name="Group 1785" transform="translate(47.593 16.423)">
    <path id="Path_4164" data-name="Path 4164" d="M612.146,180.216a1,1,0,0,1,.686.634,1.029,1.029,0,0,1-.191.993,6.146,6.146,0,0,0-.69,1.012,2.776,2.776,0,0,0-.226,1.172,4.834,4.834,0,0,0,.783,2.343,1.058,1.058,0,0,1,.155,1.075c-.175.327-.454.584-.629.909a1.442,1.442,0,0,0,.656,2,.289.289,0,0,0,.427-.244,5.763,5.763,0,0,1,.705-2.152,9.336,9.336,0,0,0,.5-.983,4.127,4.127,0,0,0,.251-1.108,9.407,9.407,0,0,0-.7-4.618c-.338-.809-.747-1.583-1.163-2.354-.171-.32-.66-.036-.487.286a14.623,14.623,0,0,1,1.693,4.11,9.276,9.276,0,0,1,.105,2.4,3.768,3.768,0,0,1-.231,1.091,8.66,8.66,0,0,1-.5.957,6.423,6.423,0,0,0-.742,2.366l.425-.244a.9.9,0,0,1-.563-.766,1.4,1.4,0,0,1,.422-.914,2.025,2.025,0,0,0,.48-.939,1.935,1.935,0,0,0-.361-1.231,3.778,3.778,0,0,1-.648-2.354,2.176,2.176,0,0,1,.482-1.091,2.932,2.932,0,0,0,.626-1.025,1.58,1.58,0,0,0-1.117-1.874.283.283,0,0,0-.15.545Z" transform="translate(-611.724 -178.754)" fill="#f59f18"/>
  </g>
</svg>
