<svg id="Group_896" data-name="Group 896" xmlns="http://www.w3.org/2000/svg" xmlns:xlink="http://www.w3.org/1999/xlink" viewBox="0 0 175.946 277">
  <defs>
    <clipPath id="clip-path">
      <path id="Path_3568" data-name="Path 3568" d="M111.07,97.645a2.907,2.907,0,0,1,.887-1.479c4.086-4.584,5.757-10.952,9.926-15.462,2.925-3.163,18.518-6.638,22.078-6.154,5.842.792,11.545,2.666,17.439,2.828a6.951,6.951,0,0,1,2.868.44,5.843,5.843,0,0,1,2.291,2.55,43.331,43.331,0,0,1,5.266,27,26.341,26.341,0,0,1-2.126,7.764c-1.334,2.822-3.349,5.285-4.636,8.13-2.638,5.833-1.342,11.37-3.26,17.475a3.343,3.343,0,0,1-.62,1.267,3.471,3.471,0,0,1-1.473.837c-8.031,2.883-17.705,4.078-25.69,1.066-4.847-1.829-9.237-4.666-13.585-7.482q4.47-13.736,7.578-27.861a53.612,53.612,0,0,0-2.468,6,32.187,32.187,0,0,1-14.189-15.65A2.557,2.557,0,0,1,111.07,97.645Z" transform="translate(-111.06 -74.505)" fill="none"/>
    </clipPath>
  </defs>
  <path id="Path_3533" data-name="Path 3533" d="M155,97.871c-3.9-1.068-7.186-1.479-11.089-2.548-3.271,5.576-5.977,8.343-5.2,14.761.011.08,1.347,4.059,1.4,4.122a.446.446,0,0,0,.352.114,55.887,55.887,0,0,0,16.588-2.055Z" transform="translate(-123.248 13.254)" fill="#577293"/>
  <g id="Group_1444" data-name="Group 1444" transform="translate(0.997 0)">
    <path id="Path_3534" data-name="Path 3534" d="M132.126,46.917l-6.065-2.984c-2.6-1.279-5.639-2.6-8.246-1.663-2.723.976-3.806,4.029-6.377,5.275-1.484.719-3.473.854-4.377,2.143-.8,1.132-.394,2.685.116,4.025a36.4,36.4,0,0,0,3.89,7.444c3.861-7.014,11.228-12.189,19.751-13.875Z" transform="translate(-38.476 -34.937)" fill="#f59f18"/>
    <path id="Path_3535" data-name="Path 3535" d="M136.887,65.935c10.187-7.34,8.929-13.837,7.153-16.327-3.079-4.318-9.374-5.618-14.818-5.458a39.842,39.842,0,0,0-22.883,7.827c-1.568,1.2-9.65,9.03-8.773,16.038.44,3.526,4.356,1.853,6.775,4.8S112.4,77.2,116.186,76.56c-5.511-3.892-2.689-5.814-5.039-14.021-1.671-5.833,5.2-6.516,11.172-8.98,3.659-1.511,5.519-3.153,8.982-.877,3.227,2.12,1.774,1.323,2.409,4.82.78,4.293,3.265,7.138,2.164,11.25Z" transform="translate(-34.254 -32.966)" fill="#b77115"/>
    <path id="Path_3536" data-name="Path 3536" d="M169.182,64.786q-3.874-5.155-7.751-10.31a6.723,6.723,0,0,0-1.505-1.6c-1.848-1.248-4.352-.377-6.306.695a37.813,37.813,0,0,0-16.352,17.9c-1.081,2.48-1.928,5.134-3.7,7.178-2.894,3.338-7.9,4.613-10.046,8.476-1.288,2.318-1.267,5.142-.834,7.758s1.245,5.176,1.423,7.823-.383,5.511-2.282,7.361-5.37,2.173-7.1.158a16.564,16.564,0,0,0,11.385,10.194c3.111.765,6.761.447,8.988-1.857a19.046,19.046,0,0,0,2.462-3.85,19.74,19.74,0,0,1,3.239-4.164,8.4,8.4,0,0,1,3.943-2.415c1.952-.424,3.947.276,5.914.622a15.439,15.439,0,0,0,11.288-2.293,13.14,13.14,0,0,0,5.734-9.857,7.388,7.388,0,0,1,.474-3.018c.771-1.484,2.607-1.962,4.072-2.767a8.268,8.268,0,0,0,1.979-12.976,47.413,47.413,0,0,0-4.133-3.224c-1.345-1.119-2.514-2.7-2.405-4.445.082-1.332.887-2.5,1.262-3.779s.076-3-1.2-3.393Z" transform="translate(-98.321 -25.628)" fill="#663b14"/>
    <path id="Path_3537" data-name="Path 3537" d="M110.251,63.87a3.023,3.023,0,0,1,.841,3.039c-.206,1.147-.845,2.392-1.989,2.622a7.319,7.319,0,0,0,2.316,1.115,3.645,3.645,0,0,0,4.093-5.054Z" transform="translate(-26.911 -15.148)"/>
    <path id="Path_3538" data-name="Path 3538" d="M129.333,162.888q-.557,4.547-1.115,9.1a17.869,17.869,0,0,1-1.307,5.595c-.546,1.147-1.336,2.171-1.812,3.349a3.755,3.755,0,0,0,.185,3.637c1.393,1.825,4.219.978,6.514,1,3.981.036,7.831,3.246,11.6,1.956-.413-2.7-3.165-4.394-4.3-6.877-.919-2.01-.7-4.335-.419-6.525q1.1-8.649,3-17.172Z" transform="translate(-84.211 68.895)" fill="#fed5b7"/>
    <path id="Path_3539" data-name="Path 3539" d="M132.807,169.491c-.921,3.243-2.59,4.168-5.911,4.74-2.66.461-7.189-.944-9.785-1.686-.434,1.233.506,5.9.506,5.9s6.542,1.5,7.311,1.224c.845-.3,2.491-2.554,2.834-2.141,2.388,2.874,6.285,3.964,9.979,4.514a54.078,54.078,0,0,0,12.3.417,1.1,1.1,0,0,0,.931-.647c.232-.552-.162-.94-.525-1.254a24.771,24.771,0,0,0-7.583-4.139,25.565,25.565,0,0,1-10.057-6.933Z" transform="translate(-77.153 80.225)" fill="#685434"/>
    <path id="Path_3540" data-name="Path 3540" d="M165.44,159.5c-1.9,9.068-7.252,14.339-12.261,36.364a19.3,19.3,0,0,1-8.617-1.368,1.966,1.966,0,0,1-1.182-.925,2.012,2.012,0,0,1,.009-1.189c2.5-11.686,7.762-25.237,10.242-36.929Z" transform="translate(-141.593 67.547)" fill="#fed5b7"/>
    <path id="Path_3541" data-name="Path 3541" d="M162.161,176.249a16.909,16.909,0,0,0-11.231-2.967q-.719,3.023-1.435,6.044a16.348,16.348,0,0,0-.655,5.174c.246,2.736,1.85,5.165,3.673,7.22a4.731,4.731,0,0,0,2.187,1.612,4.254,4.254,0,0,0,3.4-.967c1.448-1.024,3.42-5.041,3.332-6.813C161.115,178.923,162.161,176.249,162.161,176.249Z" transform="translate(-148.807 83.581)" fill="#685434"/>
    <path id="Path_3542" data-name="Path 3542" d="M179.383,109.683c2.19,5.465,4.655,11.5,4.9,19.505.162,5.393-.953,10.735-2.061,16.015l-13.342,63.519a3.636,3.636,0,0,1-2.794,3.361c-4.344,1.823-9.216,3.667-13.631,2.017a2.529,2.529,0,0,1-1.353-.946,2.93,2.93,0,0,1-.242-1.705q1.459-24.5,2.915-48.992-6.574,15.694-13.148,31.384a133.979,133.979,0,0,0-6.432,17.627,9.652,9.652,0,0,1-1.311,3.349,6.419,6.419,0,0,1-2.276,1.819c-5.593,2.885-13.393-.175-15.53-6.093,5.062-13.621,6.683-28.617,14.017-41.161a17.374,17.374,0,0,0,2.293-4.834,16.158,16.158,0,0,0,.19-3.943c-.417-16.246,3.766-32.219,7.918-47.932a4.841,4.841,0,0,1,3.64-4.05c5.85-2.588,11.812-5.207,18.168-5.935s13.279.708,17.772,5.262Z" transform="translate(-106.751 19.743)" fill="#dc4345"/>
    <g id="Group_1324" data-name="Group 1324" transform="translate(14.164 140.609)">
      <path id="Path_3543" data-name="Path 3543" d="M157.66,112.571c-1.4,6.137-2.392,12.36-3.2,18.6-.8,6.194-1.429,12.409-2.126,18.617-.664,5.937-1.391,11.873-2.392,17.764a143.862,143.862,0,0,1-3.867,17.024,92.416,92.416,0,0,1-6.339,15.979q-.5.968-1.026,1.92c-.207.375-.782.04-.575-.335a88.319,88.319,0,0,0,6.754-15.97,135.734,135.734,0,0,0,4.061-16.8c1.066-5.888,1.833-11.821,2.512-17.764.712-6.206,1.332-12.423,2.1-18.623.761-6.131,1.665-12.249,2.946-18.3q.245-1.15.506-2.295c.1-.417.736-.242.641.177Z" transform="translate(-138.095 -112.156)" fill="#8e292e"/>
    </g>
    <g id="Group_1325" data-name="Group 1325" transform="translate(9.38 227.45)">
      <path id="Path_3544" data-name="Path 3544" d="M158.063,163.1a24.933,24.933,0,0,1-12.249-2.786,24.487,24.487,0,0,1-3.066-1.892c-.343-.249-.011-.826.337-.575a24.1,24.1,0,0,0,14.978,4.588c.428-.015.428.651,0,.664Z" transform="translate(-142.603 -157.79)" fill="#8e292e"/>
    </g>
    <g id="Group_1326" data-name="Group 1326" transform="translate(45.533 226.618)">
      <path id="Path_3545" data-name="Path 3545" d="M139.36,157.969a20.1,20.1,0,0,1-12.23,2.109,19.2,19.2,0,0,1-3.452-.826c-.4-.137-.23-.78.177-.641a19.4,19.4,0,0,0,11.974.122,18.737,18.737,0,0,0,3.2-1.338c.377-.2.714.375.335.575Z" transform="translate(-123.449 -157.353)" fill="#8e292e"/>
    </g>
    <g id="Group_1327" data-name="Group 1327" transform="translate(53.422 258.298)">
      <path id="Path_3546" data-name="Path 3546" d="M135.766,177.133a68.931,68.931,0,0,1-13.29-1.557q-1.873-.408-3.72-.921a.333.333,0,0,1,.177-.641,67.989,67.989,0,0,0,13.058,2.278q1.884.14,3.775.177a.332.332,0,0,1,0,.664Z" transform="translate(-118.52 -174.001)" fill="#c2b38c"/>
    </g>
    <g id="Group_1328" data-name="Group 1328" transform="translate(40.728 257.357)">
      <path id="Path_3547" data-name="Path 3547" d="M137.261,175.182l-6.2-1.03c-.421-.07-.242-.712.177-.641q3.1.514,6.2,1.03c.421.068.242.71-.177.641Z" transform="translate(-130.817 -173.506)" fill="#c2b38c"/>
    </g>
    <g id="Group_1329" data-name="Group 1329" transform="translate(0.996 268.531)">
      <path id="Path_3548" data-name="Path 3548" d="M160.249,180.8c-.82,1.684-1.777,3.479-3.654,4.145a3.212,3.212,0,0,1-2.579-.141,5.992,5.992,0,0,1-1.893-1.861q-1.145-1.536-2.28-3.081c-.255-.344.322-.677.573-.337l1.815,2.453a9.76,9.76,0,0,0,1.658,1.952c1.423,1.127,3.224.337,4.27-.9a11.959,11.959,0,0,0,1.515-2.567c.188-.384.763-.048.575.337Z" transform="translate(-149.78 -179.378)" fill="#c2b38c"/>
    </g>
    <g id="Group_1330" data-name="Group 1330" transform="translate(48.239 243.313)">
      <path id="Path_3549" data-name="Path 3549" d="M130.359,166.231a3.137,3.137,0,0,1-.059,4.217c-.3.306-.769-.164-.47-.47a2.462,2.462,0,0,0,.059-3.277c-.289-.316.179-.786.47-.47Z" transform="translate(-129.734 -166.126)" fill="#89563d"/>
    </g>
    <g id="Group_1331" data-name="Group 1331" transform="translate(4.497 248.209)">
      <path id="Path_3550" data-name="Path 3550" d="M154.294,169.312a2.674,2.674,0,0,0-.274.143c-.046.029-.091.057-.135.089a2.494,2.494,0,0,0-.3.266c-.034.036-.067.072-.1.11a2.5,2.5,0,0,0-.221.335c-.027.048-.051.1-.074.145a2.747,2.747,0,0,0-.126.379c-.011.046-.021.1-.029.143-.029.289-.156.459-.346.449a.337.337,0,0,1-.333-.333,2.787,2.787,0,0,1,1.6-2.3.341.341,0,0,1,.455.12.337.337,0,0,1-.12.455Z" transform="translate(-152.362 -168.699)" fill="#89563d"/>
    </g>
    <path id="Path_3551" data-name="Path 3551" d="M99.838,173.468a4.586,4.586,0,0,0,1.448,3.932,25.986,25.986,0,0,0,3.465,2.638,18.846,18.846,0,0,1,5.214,5.865,5.293,5.293,0,0,1,.837,4.147c-.719,2.166-3.433,2.778-5.7,3.045q-2.229.265-4.457.527c-2.293.27-4.917.44-6.592-1.149-1.007-.953-1.452-2.373-2.411-3.376-1.724-1.8-4.531-1.8-7-2.15A3.5,3.5,0,0,1,82.4,186c-.8-.927-.537-2.333-.225-3.519q1.444-5.492,2.887-10.986a.883.883,0,0,1,1.024-.8,79.723,79.723,0,0,1,12.86.086Z" transform="translate(29.761 81.122)" fill="#6da8c6"/>
    <path id="Path_3552" data-name="Path 3552" d="M120.928,175.912q.814,3.5,1.631,7.007a2.814,2.814,0,0,1,.044,1.665c-.312.78-1.214,1.1-1.973,1.463A7.779,7.779,0,0,0,116.865,190a13.2,13.2,0,0,1-1.33,3.058c-1.182,1.547-3.372,1.855-5.317,1.825a30.488,30.488,0,0,1-5.6-.643c-2.181-.449-4.742-1.6-4.872-3.819-.122-2.116,2.03-3.522,3.463-5.083,3.317-3.61,3.109-9.115,4.609-13.783a2.661,2.661,0,0,1,.559-1.085,2.869,2.869,0,0,1,1.479-.639l7.6-1.673Z" transform="translate(-15.986 79.019)" fill="#6da8c6"/>
    <path id="Path_3553" data-name="Path 3553" d="M144.382,113.576c-.915,12.118,1.536,15.33,3.218,27.365.474,3.382-2.215,15.753-1.941,19.157a86.17,86.17,0,0,1-.67,15.806l-1.644,15.8c-.478,4.588-.955,9.186-1.846,13.713-1.855,9.444-5.505,6.072-5.248,15.694.049,1.884.234,3.865-.58,5.564-1.271,2.66-4.459,3.686-7.307,4.443-3.283.873-6.919,1.716-9.956.192-4.432-2.227-5.239-8.147-5.073-13.1.185-5.511,3.094-8.3,3.115-10.605a56.936,56.936,0,0,0-.894-7.353,66.205,66.205,0,0,1-.19-9.46c.251-11.884,2.188-34.552.693-46.345-4.413,9.991-4.957,32.223-4.853,43.144.135,13.93-2.99,15.283-1.208,29.1.455,3.536,1.231,7.132.535,10.628a4.338,4.338,0,0,1-1.037,2.287,4.651,4.651,0,0,1-1.488.9,22.184,22.184,0,0,1-17.268-.01,5.646,5.646,0,0,1-1.871-1.157c-1.334-1.38-1.18-3.56-1.085-5.479.594-12.187-4.913-11.4-4.649-23.6a36.833,36.833,0,0,0-.04-5.992c-.4-2.788-1.722-5.347-2.539-8.042-3.737-12.333,3.439-25.325,3.014-38.2-.112-3.423-.763-6.8-1.108-10.211-.82-8.124,1.115-17.456,2.049-25.568,9.646,2,18.832,2.466,28.13-.786a43.57,43.57,0,0,1,7.5-2.32c2.137-.337,4.316-.223,6.474-.346a52.494,52.494,0,0,1,5.907-.312,14.066,14.066,0,0,1,9.488,4.51Z" transform="translate(-2.36 25.111)" fill="#32485e"/>
    <g id="Group_1332" data-name="Group 1332" transform="translate(112.175 264.344)">
      <path id="Path_3554" data-name="Path 3554" d="M82.934,177.18c3.422.358,7.188.809,10.019,2.948a8.888,8.888,0,0,1,1.823,1.84,9.974,9.974,0,0,0,1.834,2.293c1.49,1.119,3.555,1.016,5.305.8a33.55,33.55,0,0,0,7.435-1.815c.4-.148.577.495.177.641a33.976,33.976,0,0,1-6.641,1.707,10.587,10.587,0,0,1-5.682-.24,5.027,5.027,0,0,1-2.118-1.764,16.27,16.27,0,0,0-1.705-2.226,10.786,10.786,0,0,0-4.491-2.472,32.221,32.221,0,0,0-5.956-1.047c-.422-.044-.426-.71,0-.666Z" transform="translate(-82.616 -177.178)" fill="#fff"/>
    </g>
    <g id="Group_1333" data-name="Group 1333" transform="translate(130.9 264.991)">
      <path id="Path_3555" data-name="Path 3555" d="M90.048,178.148A15.467,15.467,0,0,0,84.2,185.3c-.158.392-.8.221-.641-.177a16.243,16.243,0,0,1,6.15-7.547c.36-.236.693.341.337.575Z" transform="translate(-83.535 -177.518)" fill="#fff"/>
    </g>
    <g id="Group_1334" data-name="Group 1334" transform="translate(126.762 260.398)">
      <path id="Path_3556" data-name="Path 3556" d="M86.291,178.9a48.9,48.9,0,0,1,5.17-3.739c.363-.228.7.348.335.575a47.422,47.422,0,0,0-5.035,3.637c-.327.27-.8-.2-.47-.472Z" transform="translate(-86.178 -175.104)" fill="#fff"/>
    </g>
    <g id="Group_1335" data-name="Group 1335" transform="translate(124.839 259.871)">
      <path id="Path_3557" data-name="Path 3557" d="M87.147,178.762a17.461,17.461,0,0,1,5.427-3.9c.388-.177.725.4.337.575a16.943,16.943,0,0,0-5.292,3.8c-.295.312-.765-.158-.472-.47Z" transform="translate(-87.055 -174.827)" fill="#fff"/>
    </g>
    <g id="Group_1336" data-name="Group 1336" transform="translate(84.04 266.842)">
      <path id="Path_3558" data-name="Path 3558" d="M105.754,178.676a13.029,13.029,0,0,1,9.235,1.9,12.625,12.625,0,0,1,2.129,1.737c.3.306-.171.776-.472.472a12.324,12.324,0,0,0-8.147-3.621,11.855,11.855,0,0,0-2.569.156c-.419.072-.6-.569-.177-.641Z" transform="translate(-105.514 -178.491)" fill="#fff"/>
    </g>
    <g id="Group_1337" data-name="Group 1337" transform="translate(83.774 261.867)">
      <path id="Path_3559" data-name="Path 3559" d="M100.885,184.213c1.834.285,3.667.6,5.507.854a18.115,18.115,0,0,0,4.548.181,6.712,6.712,0,0,0,3.987-1.758,23.683,23.683,0,0,0,2.685-3.775,13.605,13.605,0,0,1,3.933-3.785c.362-.23.7.344.335.573a12.707,12.707,0,0,0-3.616,3.439,29.343,29.343,0,0,1-2.744,3.9c-2.253,2.3-5.618,2.339-8.607,1.966-2.074-.259-4.139-.624-6.206-.948-.421-.067-.242-.708.177-.641Z" transform="translate(-100.468 -175.876)" fill="#fff"/>
    </g>
    <g id="Group_1338" data-name="Group 1338" transform="translate(88.133 262.109)">
      <path id="Path_3560" data-name="Path 3560" d="M106.131,176.111a9.469,9.469,0,0,1,6.495,1.351c.362.228.029.8-.335.573a8.779,8.779,0,0,0-5.983-1.283c-.419.063-.6-.579-.177-.641Z" transform="translate(-105.89 -176.003)" fill="#fff"/>
    </g>
    <g id="Group_1339" data-name="Group 1339" transform="translate(89.449 260.698)">
      <path id="Path_3561" data-name="Path 3561" d="M105.835,175.338a11.683,11.683,0,0,1,5.743.788c.392.16.221.8-.175.641a11.276,11.276,0,0,0-5.568-.763c-.424.049-.421-.617,0-.666Z" transform="translate(-105.518 -175.262)" fill="#fff"/>
    </g>
    <path id="Path_3562" data-name="Path 3562" d="M147.017,130.984c-3.581,2.693-10.034,6.116-14.168,4.386-10.381-4.348,9.534-43.483,9.454-44.67-.061-.925-.287-1.829-.409-2.748-.483-3.677.733-7.34,1.932-10.847a3.484,3.484,0,0,1,1.56-2.261c.866-.379,2.135.521,1.678,1.347a22.154,22.154,0,0,0,1.182-2.04c.533-.735,1.787-1.161,2.226-.145a1.493,1.493,0,0,1,.11.5,10.945,10.945,0,0,1-.409,3.717c.957-3.184,1.656-8.464,3.659-11.117a.755.755,0,0,1,1.353.424c.183,3.578-2.348,12.742-2.348,12.742,1.281-2.447,4.746-8.059,6.464-10.55a.755.755,0,0,1,1.378.474c-.225,3.787-3.8,9.41-2.967,12.765a11.641,11.641,0,0,1,.141,4.558c-.455,1.962-3.174,2.158-4.738,3.427a7.427,7.427,0,0,0-1.945,3.165c-2.417,6.017-3.494,12.645-5.913,18.662,9.125-10.955,12.836-19.781,22.39-26.672,1.833-1.323,4.038-2.533,6.247-2.055l-5.671,22.969S151.253,127.8,147.017,130.984Z" transform="translate(-124.469 -12.497)" fill="#fed5b7"/>
    <path id="Path_3563" data-name="Path 3563" d="M111.07,97.776a2.907,2.907,0,0,1,.887-1.479c4.086-4.584,5.757-10.952,9.926-15.462a18.353,18.353,0,0,1,11.292-5.705,27.515,27.515,0,0,1,10.786-.449c5.842.792,11.545,2.666,17.439,2.828a6.951,6.951,0,0,1,2.868.44,5.843,5.843,0,0,1,2.291,2.55,43.331,43.331,0,0,1,5.266,27,26.341,26.341,0,0,1-2.126,7.764c-1.334,2.822-3.349,5.285-4.636,8.13-2.638,5.833-1.342,11.37-3.26,17.475a3.343,3.343,0,0,1-.62,1.267,3.471,3.471,0,0,1-1.473.837c-8.031,2.883-17.705,4.078-25.69,1.066-4.847-1.829-9.237-4.666-13.585-7.482q4.47-13.736,7.578-27.861a53.612,53.612,0,0,0-2.468,6,32.187,32.187,0,0,1-14.189-15.65A2.557,2.557,0,0,1,111.07,97.776Z" transform="translate(-87.011 -5.675)" fill="#87c3a9"/>
    <g id="Group_1345" data-name="Group 1345" transform="translate(24.049 68.961)">
      <g id="Group_1344" data-name="Group 1344" clip-path="url(#clip-path)">
        <g id="Group_1340" data-name="Group 1340" transform="translate(3.172 0.799)" opacity="0.38">
          <path id="Path_3564" data-name="Path 3564" d="M171.523,82.141q-13.085.637-26.194.487c-13.247-.15-27.06-1.062-38.522-7.7q-.985,3.511-1.97,7.024a200.492,200.492,0,0,0,69.807,5.964Z" transform="translate(-104.837 -74.925)" fill="#fff"/>
        </g>
        <g id="Group_1341" data-name="Group 1341" transform="translate(-8.097 11.393)" opacity="0.38">
          <path id="Path_3565" data-name="Path 3565" d="M187.45,92.81a693.38,693.38,0,0,1-82.783-12.318q-.765,4.835-1.532,9.669c26.735,5.673,53.768,11.374,81.091,10.693Z" transform="translate(-103.135 -80.492)" fill="#fff"/>
        </g>
        <g id="Group_1342" data-name="Group 1342" transform="translate(-4.348 33.536)" opacity="0.38">
          <path id="Path_3566" data-name="Path 3566" d="M175.989,99.637q-34.1-4.833-68.458-7.509-.882,4.7-1.76,9.4a409.811,409.811,0,0,0,75.55,5.795Z" transform="translate(-105.771 -92.128)" fill="#fff"/>
        </g>
        <g id="Group_1343" data-name="Group 1343" transform="translate(2.215 54.451)" opacity="0.38">
          <path id="Path_3567" data-name="Path 3567" d="M170.34,107.926q-31.759-3.9-63.788-4.807c-.866,1.4.063,3.345,1.486,4.177a10.388,10.388,0,0,0,4.8.953c16.093.8,31.222,7.167,46,5.93,5.188-.434,10.48-1.734,15.517-.415Z" transform="translate(-106.218 -103.119)" fill="#fff"/>
        </g>
      </g>
    </g>
    <path id="Path_3569" data-name="Path 3569" d="M64.832,69.1q3.551-4.5,6.894-9.146a16.006,16.006,0,0,1-3.981-4.415,4.574,4.574,0,0,1-.86-2.932,1.938,1.938,0,0,1,2.158-1.726,4.3,4.3,0,0,1,1.281.775c1.722,1.189,3.833-2.274,5.926-2.337s4.653,3.475,5.89,5.165c1.279,1.743.731,4.173.118,6.247q-2.144,7.253-4.474,14.447A18.149,18.149,0,0,1,64.9,68.828Z" transform="translate(90.241 -28.288)" fill="#f6a472"/>
    <g id="Group_1346" data-name="Group 1346" transform="translate(164.949 25.27)">
      <path id="Path_3570" data-name="Path 3570" d="M68.375,51.655a7.985,7.985,0,0,1,1.96,5.562c-.019.426-.683.428-.666,0a7.3,7.3,0,0,0-1.764-5.092c-.28-.322.188-.794.47-.47Z" transform="translate(-67.819 -51.546)" fill="#a36340"/>
    </g>
    <path id="Path_3571" data-name="Path 3571" d="M84.568,59.957c1.964-3.031,5.7-4.329,8.4-6.725.261-.23.533-.588.362-.891a.677.677,0,0,0-.291-.244c-1.226-.632-2.683.044-3.941.611a24.924,24.924,0,0,1-9.709,2.19,5.2,5.2,0,0,0,5.25,4.824Z" transform="translate(52.063 -26.007)" fill="#b7734e"/>
    <path id="Path_3572" data-name="Path 3572" d="M68.074,88.822a48.972,48.972,0,0,1,37.574-17.355c9.016.04,18.6,2.4,26.7-1.564,5.273-2.58,8.986-7.456,12.5-12.16q6.306,2.566,12.615,5.13a2.209,2.209,0,0,1,1.353,1.037,2.151,2.151,0,0,1-.141,1.484A47.245,47.245,0,0,1,125.013,95.23c6.291,21.327,9.68,42.832,6.091,64.775-3.463,1.123-9.258,1.216-12.82,1.962-2.649.554-4.957,2.107-7.319,3.425a46.33,46.33,0,0,1-29.89,5.2c-5-.828-10.588-3.25-11.722-8.185a11.965,11.965,0,0,1,.79-6.681c2.647-7.288,8.249-13.658,8.716-21.4.558-9.306-6.386-17.146-9.966-25.753a37.224,37.224,0,0,1-2.839-14.832c.034-2.173.367-4.565,1.99-6.01Z" transform="translate(11.945 -20.68)" fill="#dc4345"/>
    <path id="Path_3573" data-name="Path 3573" d="M100.758,60.953A2.294,2.294,0,0,1,99,61.992L75.975,63.655a5.69,5.69,0,0,1-2.466-.183c-1.336-.518-2.07-1.926-2.649-3.237a79.571,79.571,0,0,1-3.054-8.059c-.468-1.475-.858-3.2.03-4.468,1.18-1.675,3.892-1.515,5.218-3.075a13.279,13.279,0,0,1,1.085-1.452c1.037-.931,2.687-.55,3.981-1.062,2.07-.816,3.035-3.8,5.26-3.852,1.134-.025,2.143.788,3.277.851.653.036,1.3-.179,1.952-.152,2.343.1,3.391,2.938,3.8,5.245,1.176.691,2.74-.171,4.015.308,1.243.466,1.692,1.96,1.977,3.256l2.078,9.418.55,1.865a2.29,2.29,0,0,1-.274,1.9Z" transform="translate(67.328 -38.267)" fill="#606060"/>
    <path id="Path_3574" data-name="Path 3574" d="M79.648,43.313c-.461-1.583-1.142-3.4-2.723-3.871a4.987,4.987,0,0,0-1.952-.048,2.5,2.5,0,0,0-2.023.906,2.461,2.461,0,0,0-.2,1.288,3.025,3.025,0,0,0,.308,1.524,1.042,1.042,0,0,0,1.34.453c.755-.466.238-1.774.82-2.442.284-.609,1.258-.409,1.673.118s.542,1.237.969,1.756,1.416.674,1.661.051Z" transform="translate(78.451 -37.314)"/>
    <path id="Path_3575" data-name="Path 3575" d="M79.469,42.881q-3.9-.305-7.81-.223A2.538,2.538,0,0,0,69.2,45.572,25.192,25.192,0,0,0,70,48.8c.3,1.028.615,2.049.976,3.056a2.271,2.271,0,0,0,.548.938,2.63,2.63,0,0,0,1.912.449c2.767-.1,5.427.835,8.1.1a1.472,1.472,0,0,0,.765-.388,1.52,1.52,0,0,0,.093-1.366c-.5-1.941-.97-5.233-1.589-7.14-.236-.723-.8-1.616-1.519-1.349Z" transform="translate(82.4 -34.317)"/>
    <g id="Group_1347" data-name="Group 1347" transform="translate(151.176 15.428)">
      <path id="Path_3576" data-name="Path 3576" d="M83.679,51.141a3.785,3.785,0,0,1-3.033.818q-2.212-.06-4.426-.124l-2.158-.059c-.677-.019-1.363-.011-2.036-.084a3.575,3.575,0,0,1-2.769-1.6,8.411,8.411,0,0,1-1.049-3.3c-.069-.419.573-.6.641-.177a9.264,9.264,0,0,0,.757,2.756,2.9,2.9,0,0,0,2.268,1.64,16.826,16.826,0,0,0,1.909.093l1.992.055,4.04.112c1.069.03,2.582.284,3.393-.6.291-.316.759.156.47.47Z" transform="translate(-68.202 -46.374)"/>
    </g>
    <g id="Group_1348" data-name="Group 1348" transform="translate(135.134 9.47)">
      <path id="Path_3577" data-name="Path 3577" d="M86.217,43.909a3.3,3.3,0,0,0-2.672,2.065.341.341,0,0,1-.409.232A.335.335,0,0,1,82.9,45.8a3.984,3.984,0,0,1,3.313-2.552.334.334,0,0,1,.333.331.341.341,0,0,1-.333.333Z" transform="translate(-82.888 -43.243)"/>
    </g>
    <g id="Group_1349" data-name="Group 1349" transform="translate(137.19 11.852)">
      <path id="Path_3578" data-name="Path 3578" d="M82.393,44.718a85.277,85.277,0,0,1,3.136,9.389.333.333,0,0,1-.641.177,85.685,85.685,0,0,0-3.136-9.389c-.158-.4.485-.571.641-.177Z" transform="translate(-81.727 -44.495)"/>
    </g>
    <g id="Group_1350" data-name="Group 1350" transform="translate(140.413 21.11)">
      <path id="Path_3579" data-name="Path 3579" d="M82.854,50.026c-.049,0-.1,0-.148.008a1.991,1.991,0,0,0-.356.1c-.12.055-.16.076-.2.1s-.084.051-.124.08a1.98,1.98,0,0,0-.276.251.966.966,0,0,0-.135.181c-.027.042-.051.084-.074.127a1.1,1.1,0,0,0-.124.362.335.335,0,0,1-.409.234.341.341,0,0,1-.232-.409,2.208,2.208,0,0,1,2.078-1.694.333.333,0,1,1,0,.666Z" transform="translate(-80.767 -49.36)"/>
    </g>
    <g id="Group_1351" data-name="Group 1351" transform="translate(145.329 20.757)">
      <path id="Path_3580" data-name="Path 3580" d="M68.507,49.678a92.219,92.219,0,0,0,16.128.017q2.295-.2,4.575-.516a.345.345,0,0,1,.409.234.336.336,0,0,1-.232.409,92.9,92.9,0,0,1-16.307.814q-2.289-.088-4.573-.293c-.422-.038-.426-.7,0-.666Z" transform="translate(-68.189 -49.174)"/>
    </g>
    <g id="Group_1352" data-name="Group 1352" transform="translate(147.792 1.521)">
      <path id="Path_3581" data-name="Path 3581" d="M83.442,44.683a33.745,33.745,0,0,0-6.816.266,5.3,5.3,0,0,1-2.913-.01,2.682,2.682,0,0,1-1.42-1.979c-.247-1.149.017-2.35-.32-3.484a.333.333,0,0,1,.641-.177,14.383,14.383,0,0,1,.244,2.972,2.467,2.467,0,0,0,.988,1.994c.826.476,1.939.133,2.816.013q1.573-.217,3.159-.291a34.314,34.314,0,0,1,3.621.03c.426.025.428.691,0,.664Z" transform="translate(-71.958 -39.066)"/>
    </g>
    <g id="Group_1353" data-name="Group 1353" transform="translate(142.465 3.964)">
      <path id="Path_3582" data-name="Path 3582" d="M83.317,40.847a2.5,2.5,0,0,1-1.892,1.283,7.57,7.57,0,0,0-2.624.565c-.365.226-.7-.348-.337-.575a6.3,6.3,0,0,1,2.544-.59,2.075,2.075,0,0,0,1.734-1.018.333.333,0,0,1,.455-.12.341.341,0,0,1,.12.455Z" transform="translate(-78.308 -40.35)"/>
    </g>
    <path id="Path_3583" data-name="Path 3583" d="M79.437,43.634A1.109,1.109,0,0,1,80.49,44.8a2.5,2.5,0,0,1-2.1,2.076,1.653,1.653,0,0,1-1.366-2.331,2.11,2.11,0,0,1,2.818-.755Z" transform="translate(69.745 -33.51)"/>
    <g id="Group_1354" data-name="Group 1354" transform="translate(147.628 10.533)">
      <path id="Path_3584" data-name="Path 3584" d="M79.085,44.5a.923.923,0,0,1,0,.354.832.832,0,0,1-.1.257.965.965,0,0,1-.4.379.907.907,0,0,1-.618.086.81.81,0,0,1-.424-.263.992.992,0,0,1-.188-.948.856.856,0,0,1,.35-.441.885.885,0,0,1,.485-.124.945.945,0,0,1,.887.657.333.333,0,1,1-.641.177.327.327,0,0,0-.055-.1c.023.03-.011,0-.049-.032.023.017-.025-.01-.076-.032.025.011-.034,0-.093-.013.034.006-.021.006-.078.011.038,0-.011.008-.059.029.044-.017.008,0-.025.029.036-.027.008,0-.019.034.027-.032.006,0-.011.044.013-.03,0,.017-.006.069.006-.034.006.021.011.076,0-.025.013.034.038.093-.013-.032.011.011.044.053-.025-.03.01,0,.046.032-.032-.025.006,0,.046.015-.042-.019,0-.008.04,0-.042-.008,0-.008.049-.013-.038,0,.01-.01.057-.029-.029.01.019-.019.065-.051-.023.017.017-.023.051-.067-.017.023.011-.023.032-.074-.015.036,0-.008,0-.053-.006.046-.006,0-.01-.04a.29.29,0,0,1,.04-.192.344.344,0,0,1,.2-.154.337.337,0,0,1,.257.034.318.318,0,0,1,.152.2Z" transform="translate(-77.301 -43.802)"/>
    </g>
    <g id="Group_1355" data-name="Group 1355" transform="translate(139.247 10.261)">
      <path id="Path_3585" data-name="Path 3585" d="M81.189,43.891a74.985,74.985,0,0,0,3.344,9.087c.171.388-.4.727-.575.335a76,76,0,0,1-3.41-9.245.333.333,0,0,1,.641-.177Z" transform="translate(-80.532 -43.659)"/>
    </g>
    <path id="Path_3586" data-name="Path 3586" d="M79.664,81.619c.036-.021,9.228-7.947,9.64-8.982.232-.586,1.073-10.961,2.32-12.847a16.123,16.123,0,0,1,2.107-2.266c3.593-3.648,5.012-8.893,8-13.052a.9.9,0,0,1,.28-.263c.773-.438,1.315.742,1.265,1.574a10.581,10.581,0,0,1-1.9,5.439,7.53,7.53,0,0,1,3.874-.807,1.77,1.77,0,0,1,.358.055c1.526.417.887,2.419-.287,3.012-1.056.535-2.331.474-3.408.969a3.656,3.656,0,0,0-2.053,3.631,39.651,39.651,0,0,1,9.142-2,4.347,4.347,0,0,1,1.669.148.976.976,0,0,1,.217,1.751c-3.325,2.074-7.985,2.126-10.453,5.189a28.993,28.993,0,0,1,8.7,1.18c.892.263,1.989,1.083,1.46,1.878a1.064,1.064,0,0,1-.567.419,12.68,12.68,0,0,1-4.308.607c-.565-.017-1.231-.029-1.566.426a1.666,1.666,0,0,0-.217.988,18.483,18.483,0,0,1-.681,5.726A6.775,6.775,0,0,1,99.6,78.656c-.761.306-1.591.424-2.335.767-1.355.624-6.118,7.431-7.618,9.585Z" transform="translate(33.593 -32.986)" fill="#f6a472"/>
    <g id="Group_1356" data-name="Group 1356" transform="translate(125.916 44.435)">
      <path id="Path_3587" data-name="Path 3587" d="M90.7,64.325l-2.729-2.143a.335.335,0,0,1,0-.47.341.341,0,0,1,.472,0l2.727,2.143a.335.335,0,0,1,0,.47.34.34,0,0,1-.47,0Z" transform="translate(-87.874 -61.617)" fill="#a36340"/>
    </g>
    <g id="Group_1357" data-name="Group 1357" transform="translate(128.987 17.035)">
      <path id="Path_3588" data-name="Path 3588" d="M91.124,47.883a10.165,10.165,0,0,0-6.086,6.278c-.133.4-.776.23-.641-.177a10.869,10.869,0,0,1,6.552-6.744c.4-.147.577.5.175.643Z" transform="translate(-84.378 -47.219)" fill="#a36340"/>
    </g>
    <path id="Path_3589" data-name="Path 3589" d="M72.4,63.8c1.368-3.071,2.754-9.631,2.265-12.957a5.211,5.211,0,0,0-1.03-2.714,2.209,2.209,0,0,0-2.639-.641,3.84,3.84,0,0,0-1.892-2.5,2.792,2.792,0,0,0-3.028.295,4.1,4.1,0,0,0-1.045,3.25,10.8,10.8,0,0,1-.131,3.505c-.192.622-.542,1.186-.752,1.8a2.093,2.093,0,0,0,.118,1.876,1.724,1.724,0,0,0,1.848.552,3.168,3.168,0,0,0,1.6-1.22,5.756,5.756,0,0,0-.166,2.674A1.969,1.969,0,0,0,69.474,59.3a3.962,3.962,0,0,1,.649-.086c.757.046,1.066,1.007,1.688,1.442a1.406,1.406,0,0,0,1.6-.021Z" transform="translate(100.006 -32.475)" fill="#f6a472"/>
    <path id="Path_3590" data-name="Path 3590" d="M120.478,48.313c1.791,5.079,9.287,19.646,9.066,22.463-.228,2.9-7.188,7.2-7.188,7.2s2.83,5.741,3.087,7.918a4.6,4.6,0,0,1-2.489,4.815c-5.964,3.237-11.132,5.835-11.412,5.306-1.859-3.511-2.649-12.851-4.51-16.362.108,1.144-6.28,2.752-8.025-4.227-.506-2.025,1.848-4.687,3.77-3.873a127.131,127.131,0,0,0-3.958-14.156Z" transform="translate(-21.068 -29.195)" fill="#f6a472"/>
    <g id="Group_1358" data-name="Group 1358" transform="translate(167.36 15.394)">
      <path id="Path_3591" data-name="Path 3591" d="M69.706,46.774a22.622,22.622,0,0,1-.929,4.339,9.667,9.667,0,0,1-2.358,3.633c-.306.3-.778-.169-.472-.47A8.962,8.962,0,0,0,68.186,50.8a23.572,23.572,0,0,0,.879-4.2c.063-.422.7-.244.641.177Z" transform="translate(-65.849 -46.356)" fill="#a36340"/>
    </g>
    <g id="Group_1359" data-name="Group 1359" transform="translate(167.867 19.836)">
      <path id="Path_3592" data-name="Path 3592" d="M70.949,49.093a16.3,16.3,0,0,1-2.936,4.95,4.3,4.3,0,0,1-2.1,1.517,1.557,1.557,0,0,1-1.886-.919,6.251,6.251,0,0,1,.1-2.677c.03-.424.695-.428.666,0a15.023,15.023,0,0,0-.225,2.074.924.924,0,0,0,1.277.851,4.072,4.072,0,0,0,1.76-1.385,15.481,15.481,0,0,0,2.7-4.586c.15-.4.794-.226.643.177Z" transform="translate(-63.89 -48.69)" fill="#a36340"/>
    </g>
    <path id="Path_3593" data-name="Path 3593" d="M128.821,54.837A217.1,217.1,0,0,1,142.38,73.692c1.187,1.853,2.343,4.322,1.05,6.1a4.879,4.879,0,0,1-2.084,1.46c-1.781.778-7.161,2.573-7.189,2.965-.314,4.352-1.1,15.3-.868,16.388a13.207,13.207,0,0,0,1.265,3.079,61.907,61.907,0,0,1,3.479,8.4c.83,2.51,1.277,5.783-.858,7.345a4.477,4.477,0,0,1-4.457.177,12.1,12.1,0,0,1-3.589-2.955,94.492,94.492,0,0,1-11.966-16.166q1.561-7.9,2.4-15.911a3.461,3.461,0,1,1-1.294-6.223q-1.353-2.346-2.708-4.695a2.131,2.131,0,0,1-.023-2.645q1.513-2.9,3.024-5.808a29.975,29.975,0,0,1,3.985-6.31c1.663-1.859,3.736-3.764,6.219-3.992Z" transform="translate(-64.654 -23.304)" fill="#fed5b7"/>
    <path id="Path_3594" data-name="Path 3594" d="M111.236,63.9l-9.72,3.8,11.778.177Z" transform="translate(-9.946 -15.122)" fill="#a36340" opacity="0.57"/>
    <g id="Group_1360" data-name="Group 1360" transform="translate(126.024 57.228)">
      <path id="Path_3595" data-name="Path 3595" d="M94.073,85.427a87.55,87.55,0,0,0-7.541-13.155q-1.213-1.747-2.51-3.431a.334.334,0,0,1,.12-.455.339.339,0,0,1,.455.12,87.794,87.794,0,0,1,8.173,12.773q.985,1.884,1.878,3.814c.179.386-.394.725-.575.335Z" transform="translate(-83.972 -68.34)" fill="#93252b"/>
    </g>
    <g id="Group_1361" data-name="Group 1361" transform="translate(166.039 43.311)">
      <path id="Path_3596" data-name="Path 3596" d="M69.786,61.522,67.8,64.893a.333.333,0,0,1-.575-.335q1-1.687,1.989-3.372a.333.333,0,0,1,.575.337Z" transform="translate(-67.174 -61.026)" fill="#93252b"/>
    </g>
    <g id="Group_1362" data-name="Group 1362" transform="translate(164.172 42.248)">
      <path id="Path_3597" data-name="Path 3597" d="M70.745,61.091a6.578,6.578,0,0,0-2.082,2.7.335.335,0,0,1-.455.12.342.342,0,0,1-.12-.455,7.187,7.187,0,0,1,2.322-2.936.336.336,0,0,1,.455.12.34.34,0,0,1-.12.455Z" transform="translate(-68.05 -60.468)" fill="#93252b"/>
    </g>
    <g id="Group_1363" data-name="Group 1363" transform="translate(162.057 41.328)">
      <path id="Path_3598" data-name="Path 3598" d="M71.875,60.473q-.991,1.521-1.981,3.041c-.232.358-.809.025-.575-.335q.99-1.521,1.981-3.041c.234-.358.809-.025.575.335Z" transform="translate(-69.264 -59.984)" fill="#93252b"/>
    </g>
    <g id="Group_1364" data-name="Group 1364" transform="translate(159.694 40.353)">
      <path id="Path_3599" data-name="Path 3599" d="M73,59.973q-.868,1.322-1.734,2.647a.341.341,0,0,1-.455.12.335.335,0,0,1-.12-.455q.865-1.324,1.734-2.649a.333.333,0,1,1,.575.337Z" transform="translate(-70.645 -59.472)" fill="#93252b"/>
    </g>
    <g id="Group_1365" data-name="Group 1365" transform="translate(156.716 38.66)">
      <path id="Path_3600" data-name="Path 3600" d="M74.574,59.2a5.12,5.12,0,0,0-1.893,2.23.335.335,0,0,1-.455.12.342.342,0,0,1-.12-.455,5.753,5.753,0,0,1,2.133-2.47.333.333,0,1,1,.335.575Z" transform="translate(-72.067 -58.582)" fill="#93252b"/>
    </g>
    <g id="Group_1366" data-name="Group 1366" transform="translate(154.968 37.958)">
      <path id="Path_3601" data-name="Path 3601" d="M75.26,58.781q-.688.825-1.372,1.654a.335.335,0,0,1-.472,0,.344.344,0,0,1,0-.47l1.372-1.654a.334.334,0,0,1,.472,0,.344.344,0,0,1,0,.47Z" transform="translate(-73.323 -58.214)" fill="#93252b"/>
    </g>
    <g id="Group_1367" data-name="Group 1367" transform="translate(110.38 75.646)">
      <path id="Path_3602" data-name="Path 3602" d="M105.253,78.686a33.77,33.77,0,0,0-12.586,8.99,33.061,33.061,0,0,0-2.693,3.52c-.236.356-.813.023-.575-.335a34.2,34.2,0,0,1,15.679-12.817c.4-.162.569.481.175.641Z" transform="translate(-89.343 -78.018)" fill="#93252b"/>
    </g>
    <g id="Group_1368" data-name="Group 1368" transform="translate(114.328 81.676)">
      <path id="Path_3603" data-name="Path 3603" d="M100,81.733a66.378,66.378,0,0,0-8.525,7.92c-.287.32-.757-.152-.47-.47a66.243,66.243,0,0,1,8.525-7.92c.333-.261.809.207.47.47Z" transform="translate(-90.911 -81.187)" fill="#93252b"/>
    </g>
    <g id="Group_1369" data-name="Group 1369" transform="translate(150.29 60.817)">
      <path id="Path_3604" data-name="Path 3604" d="M78.371,70.8Q77,72.281,75.622,73.76c-.291.316-.761-.156-.47-.47q1.373-1.481,2.748-2.961c.293-.314.763.158.472.47Z" transform="translate(-75.06 -70.226)" fill="#93252b"/>
    </g>
    <g id="Group_1370" data-name="Group 1370" transform="translate(148.665 60.494)">
      <path id="Path_3605" data-name="Path 3605" d="M78.571,70.713l-1.68.666a.335.335,0,0,1-.409-.232.342.342,0,0,1,.232-.409l1.68-.666a.335.335,0,0,1,.409.232.342.342,0,0,1-.232.409Z" transform="translate(-76.472 -70.056)" fill="#93252b"/>
    </g>
    <g id="Group_1371" data-name="Group 1371" transform="translate(145.953 66.831)">
      <path id="Path_3606" data-name="Path 3606" d="M79.663,73.953l-.67.674a.333.333,0,0,1-.47,0,.331.331,0,0,1-.1-.236.346.346,0,0,1,.1-.234q.334-.337.67-.674a.338.338,0,0,1,.234-.1.342.342,0,0,1,.236.1.339.339,0,0,1,.1.236.347.347,0,0,1-.1.234Z" transform="translate(-78.426 -73.386)" fill="#93252b"/>
    </g>
    <g id="Group_1372" data-name="Group 1372" transform="translate(98.699 137.844)">
      <path id="Path_3607" data-name="Path 3607" d="M122.1,111.367A99.627,99.627,0,0,0,105.7,113.4c-1.294.272-2.6.54-3.869.923A12.21,12.21,0,0,0,98.426,116a22.583,22.583,0,0,1-3.127,1.949,15.812,15.812,0,0,1-3.345,1.115,38.8,38.8,0,0,1-8.118.624.332.332,0,0,1,0-.664,41.621,41.621,0,0,0,7.25-.464,16.437,16.437,0,0,0,3.406-.976,17.119,17.119,0,0,0,3.191-1.876,13.955,13.955,0,0,1,3.3-1.8,31.18,31.18,0,0,1,3.8-.986q4-.871,8.063-1.412,4.6-.617,9.247-.8c.428-.017.428.647,0,.664Z" transform="translate(-83.515 -110.703)" fill="#93252b"/>
    </g>
    <path id="Path_3608" data-name="Path 3608" d="M107.386,60.766c3.486.759,5.951-.586,9.517-.7,2.114-.067,4.352-.339,6.01-1.65a2,2,0,0,0,.744-.965c.268-.946-.7-1.829-1.657-2.038s-1.971-.025-2.931-.236c3.338.367,7.2.559,9.526-1.859a2.542,2.542,0,0,0-2.426-1.06,7.342,7.342,0,0,0,3.077.733,2.517,2.517,0,0,0,2.388-1.762c.295-1.41-1.134-2.632-2.537-2.957s-2.9-.133-4.276-.567a19.5,19.5,0,0,0-2.27-.82,6.275,6.275,0,0,0-3.073.461,71.475,71.475,0,0,0-14.31,6.66,8.5,8.5,0,0,0-3.1,2.727c-1.323,2.257-.464,5.121.537,7.538a81.9,81.9,0,0,0,4.632,9.425,2.178,2.178,0,0,1,2.993-.388,6.31,6.31,0,0,1,1.954,2.7,7.575,7.575,0,0,1,1.812-1.121C112.067,69.841,107.386,60.766,107.386,60.766Z" transform="translate(-28.084 -30.535)"/>
    <path id="Path_3609" data-name="Path 3609" d="M126.376,47.9c-6.438,5.011-13,7.951-10.021,21.346a28.446,28.446,0,0,1-4.017-5.161,9.915,9.915,0,0,1-1.355-6.291c.419-2.62,2.2-4.813,4.112-6.655s4.377-3.56,6.976-3.075Z" transform="translate(-40.865 -29.565)" fill="#b77115"/>
    <g id="Group_1373" data-name="Group 1373" transform="translate(79.54 45.356)">
      <path id="Path_3610" data-name="Path 3610" d="M115.745,64.754a13.987,13.987,0,0,0-3.943-1.992c-.407-.129-.232-.773.177-.643a14.617,14.617,0,0,1,4.1,2.061.341.341,0,0,1,.12.455.337.337,0,0,1-.455.12Z" transform="translate(-111.571 -62.101)" fill="#a36340"/>
    </g>
    <g id="Group_1374" data-name="Group 1374" transform="translate(81.333 46.558)">
      <path id="Path_3611" data-name="Path 3611" d="M113.214,62.975l.331,1.678a.333.333,0,0,1-.641.177q-.166-.839-.331-1.68a.342.342,0,0,1,.232-.409.338.338,0,0,1,.409.234Z" transform="translate(-112.566 -62.733)" fill="#a36340"/>
    </g>
    <g id="Group_1376" data-name="Group 1376" transform="translate(95.983 37.893)">
      <path id="Path_3612" data-name="Path 3612" d="M108.34,58.357a40.785,40.785,0,0,1-6.647,3.3l1,.2c4.891,1.975,5.987-.436,5.652-3.5Z" transform="translate(-101.367 -58.019)" fill="#fff"/>
      <g id="Group_1375" data-name="Group 1375" transform="translate(0)">
        <path id="Path_3613" data-name="Path 3613" d="M108.658,58.8a41.959,41.959,0,0,1-6.725,3.334V61.5l.7.139a6.565,6.565,0,0,1,.921.295,6.68,6.68,0,0,0,2.493.462,2.152,2.152,0,0,0,1.416-.546,2.492,2.492,0,0,0,.651-1.315,4.981,4.981,0,0,0,.1-.993c0-.186,0-.373-.015-.559a1.865,1.865,0,0,1-.027-.552.333.333,0,0,1,.641.177c.025-.088.021.036.027.057a1.234,1.234,0,0,1,.011.145c.008.078.011.154.017.23.01.185.013.371.01.556a6,6,0,0,1-.093,1,3.308,3.308,0,0,1-.729,1.606c-1.014,1.155-2.763.95-4.086.567-.453-.131-.894-.362-1.355-.453l-.858-.169c-.356-.07-.276-.535,0-.641a41.08,41.08,0,0,0,6.567-3.267C108.689,58.006,109.024,58.58,108.658,58.8Z" transform="translate(-101.518 -58.179)" fill="#a36340"/>
      </g>
    </g>
    <g id="Group_1377" data-name="Group 1377" transform="translate(94.737 30.14)">
      <path id="Path_3614" data-name="Path 3614" d="M102.9,54.192q3.054,2.68,6.343,5.071a.337.337,0,0,1,0,.575l-2.683,1.713c-.363.23-.7-.344-.337-.575l2.685-1.713v.575q-3.357-2.438-6.478-5.176c-.324-.284.148-.752.47-.47Z" transform="translate(-102.32 -54.105)" fill="#a36340"/>
    </g>
    <g id="Group_1378" data-name="Group 1378" transform="translate(88.616 34.624)">
      <path id="Path_3615" data-name="Path 3615" d="M110.681,57.511a1.779,1.779,0,0,0-2.862,1.743.333.333,0,1,1-.641.177A2.522,2.522,0,0,1,108.2,56.86a2.487,2.487,0,0,1,2.813.076.343.343,0,0,1,.12.457.334.334,0,0,1-.455.118Z" transform="translate(-107.127 -56.461)"/>
    </g>
    <g id="Group_1379" data-name="Group 1379" transform="translate(99.131 29.367)">
      <path id="Path_3616" data-name="Path 3616" d="M105.157,54.75a1.844,1.844,0,0,0-2.1-.1,1.824,1.824,0,0,0-.759,1.844.341.341,0,0,1-.232.409.335.335,0,0,1-.409-.232,2.516,2.516,0,0,1,1.026-2.569,2.483,2.483,0,0,1,2.813.076.344.344,0,0,1,.12.455.336.336,0,0,1-.455.12Z" transform="translate(-101.602 -53.699)"/>
    </g>
    <path id="Path_3617" data-name="Path 3617" d="M111.935,54.643l.822.828c.183.185.379.445.261.674a.656.656,0,0,1-.424.259,9.124,9.124,0,0,0-4.546,3.1,3.3,3.3,0,0,1,3.648-4.877Z" transform="translate(-21.292 -23.584)"/>
    <path id="Path_3618" data-name="Path 3618" d="M102.154,54.155l.377,1.106c.084.244.23.537.489.531a.649.649,0,0,0,.419-.266,9.141,9.141,0,0,1,4.792-2.7,3.3,3.3,0,0,0-5.989,1.1Z" transform="translate(-6.096 -26.471)"/>
    <g id="Group_1380" data-name="Group 1380" transform="translate(93.254 16.288)">
      <path id="Path_3619" data-name="Path 3619" d="M102.147,46.839a11.978,11.978,0,0,0,2.594.407,19.43,19.43,0,0,0,2.639-.147c1.395-.129,3.235.04,3.863,1.532a1.917,1.917,0,0,1-.3,2.055c-.291.316-.761-.156-.472-.47a1.359,1.359,0,0,0-.221-1.859,3.228,3.228,0,0,0-2.392-.628c-.991.051-1.964.217-2.961.186a12.7,12.7,0,0,1-2.929-.436.333.333,0,0,1,.177-.641Z" transform="translate(-101.735 -46.826)"/>
    </g>
    <g id="Group_1381" data-name="Group 1381" transform="translate(75.84 35.304)">
      <path id="Path_3620" data-name="Path 3620" d="M116.277,57.055a6,6,0,0,1-.188,3.545.34.34,0,0,1-.409.232.335.335,0,0,1-.232-.409,5.392,5.392,0,0,0,.188-3.191.333.333,0,0,1,.641-.177Z" transform="translate(-115.431 -56.819)"/>
    </g>
    <g id="Group_1382" data-name="Group 1382" transform="translate(76.81 37.99)">
      <path id="Path_3621" data-name="Path 3621" d="M116.115,58.561a4.06,4.06,0,0,1-.757,2.5.345.345,0,0,1-.457.12.335.335,0,0,1-.118-.455,3.435,3.435,0,0,0,.668-2.164.332.332,0,0,1,.664,0Z" transform="translate(-114.735 -58.23)"/>
    </g>
    <path id="Path_3622" data-name="Path 3622" d="M139.524,55.5a5.559,5.559,0,0,1-1.2,6.659c-1.734,1.5-4.423,1.92-5.564,3.909-.83,1.448-.544,3.245-.363,4.906s.133,3.57-1.109,4.683c-.485.436-1.13.719-1.454,1.285-.495.858-.223,2.265-1.149,2.615a3,3,0,0,1-1.277-.042c-1.385-.112-3.511,1.481-3.176,2.83-.685-1.281-.506-2.668-1.191-3.949a7.951,7.951,0,0,1-1.34-4.476c.223-1.971,1.857-3.467,2.6-5.307.727-1.812.565-3.9,1.374-5.678a10.7,10.7,0,0,1,3.547-3.812c1.5-1.138,3.031-2.24,4.561-3.338a7.659,7.659,0,0,1,2.856-1.494,2.625,2.625,0,0,1,2.832,1.087Z" transform="translate(-75.161 -23.853)" fill="#663b14"/>
    <path id="Path_3623" data-name="Path 3623" d="M126.465,65.279a5.111,5.111,0,0,0,2.093,3.96c1.02.735,2.577,1,3.458.1a4.889,4.889,0,0,1-7.819-1.886Z" transform="translate(-71.83 -13.875)" fill="#663b14"/>
    <path id="Path_3624" data-name="Path 3624" d="M127.766,70.269l-8.434.329,8.434,2.957Z" transform="translate(-58.322 -9.369)" fill="#7f4924" opacity="0.35"/>
    <g id="Group_1383" data-name="Group 1383" transform="translate(50.838 57.794)">
      <path id="Path_3625" data-name="Path 3625" d="M130.361,70.412a14.871,14.871,0,0,0-2.951-1.121.333.333,0,0,1,.177-.641,15.687,15.687,0,0,1,3.109,1.187.333.333,0,1,1-.335.575Z" transform="translate(-127.174 -68.637)" fill="#7f4924"/>
    </g>
    <g id="Group_1384" data-name="Group 1384" transform="translate(52.02 58.448)">
      <path id="Path_3626" data-name="Path 3626" d="M128.946,69.6a1.93,1.93,0,0,0-.169.162,1.638,1.638,0,0,0-.143.2c-.025.044-.048.086-.069.131a1.73,1.73,0,0,0-.1.386c.008-.053,0-.015,0,.021a.332.332,0,1,1-.664,0,1.925,1.925,0,0,1,.813-1.475.324.324,0,0,1,.255-.034.335.335,0,0,1,.234.409.39.39,0,0,1-.154.2Z" transform="translate(-127.798 -68.981)" fill="#7f4924"/>
    </g>
    <g id="Group_1385" data-name="Group 1385" transform="translate(64.658 44.748)">
      <path id="Path_3627" data-name="Path 3627" d="M118.969,61.885a70.112,70.112,0,0,0,5.89,5.562.334.334,0,0,1-.067.523,3.8,3.8,0,0,1-2.763.129c-.4-.137-.23-.78.177-.641a3.111,3.111,0,0,0,2.249-.063l-.067.521a69.211,69.211,0,0,1-5.89-5.562c-.295-.312.175-.784.47-.47Z" transform="translate(-118.405 -61.782)" fill="#7f4924"/>
    </g>
    <g id="Group_1386" data-name="Group 1386" transform="translate(60.779 27.403)">
      <path id="Path_3628" data-name="Path 3628" d="M116.729,52.669a8.224,8.224,0,0,1,6.98,3.777,8.631,8.631,0,0,1,.9,1.977,7.789,7.789,0,0,0,.976,2.253c.925,1.265,2.447,1.918,3.583,2.959a4.392,4.392,0,0,1,1.366,2.11,2.791,2.791,0,0,1-.358,2.322c-.247.344-.826.011-.575-.337.9-1.248.046-2.767-.938-3.656-1.094-.988-2.489-1.627-3.437-2.78-.959-1.17-1.1-2.687-1.789-3.992a7.451,7.451,0,0,0-2.6-2.794,7.375,7.375,0,0,0-4.11-1.174.333.333,0,0,1,0-.666Z" transform="translate(-116.408 -52.667)" fill="#663b14"/>
    </g>
    <path id="Path_3629" data-name="Path 3629" d="M122.619,65.551c.451.655,1.182.936,1.633.628s.451-1.092,0-1.749-1.18-.936-1.631-.628S122.17,64.895,122.619,65.551Z" transform="translate(-60.761 -15.322)"/>
    <path id="Path_3630" data-name="Path 3630" d="M118.314,62.955c.449.657,1.18.938,1.631.628s.453-1.09,0-1.747-1.18-.938-1.631-.628S117.863,62.3,118.314,62.955Z" transform="translate(-48.261 -17.665)"/>
    <g id="Group_1387" data-name="Group 1387" transform="translate(66.123 52.39)">
      <path id="Path_3631" data-name="Path 3631" d="M122.4,67.175a5.222,5.222,0,0,1-3.007-.752c-.363-.223-.03-.8.337-.575a4.6,4.6,0,0,0,2.67.662.332.332,0,1,1,0,.664Z" transform="translate(-119.24 -65.797)" fill="#7f4924"/>
    </g>
    <path id="Path_3632" data-name="Path 3632" d="M125.119,62.2a3.35,3.35,0,0,1,.788,1.206,3.974,3.974,0,0,0-2.516,3.13,5.876,5.876,0,0,1-.025-2.548,2.171,2.171,0,0,1,1.758-1.654Z" transform="translate(-63.888 -16.658)" fill="#663b14"/>
    <path id="Path_3633" data-name="Path 3633" d="M118.745,60.1a3.371,3.371,0,0,0,.9,1.127,3.977,3.977,0,0,1,3.76-1.414,5.9,5.9,0,0,0-2.415-.818,2.174,2.174,0,0,0-2.12,1.153Z" transform="translate(-52.846 -19.556)" fill="#663b14"/>
    <g id="Group_1388" data-name="Group 1388" transform="translate(22.93 68.315)">
      <path id="Path_3634" data-name="Path 3634" d="M148.019,75.949a1.129,1.129,0,0,0-.735-.988,2.3,2.3,0,0,0-1.625.032,20.555,20.555,0,0,0-3.14,1.342,9.587,9.587,0,0,0-2.7,1.876c-.28.3-.544.8-.057,1.035a2.723,2.723,0,0,0,1.344.12,15.725,15.725,0,0,0,4.04-.773c.382-.126.542.4.255.607a22.449,22.449,0,0,1-3.684,1.783,4.607,4.607,0,0,0-2.731,3,.333.333,0,0,1-.641-.177,5.109,5.109,0,0,1,2.813-3.288,27.414,27.414,0,0,0,3.909-1.893l.257.609a16.461,16.461,0,0,1-4.322.8,2.935,2.935,0,0,1-1.635-.247,1.1,1.1,0,0,1-.459-1.393A3.707,3.707,0,0,1,140.192,77a12.032,12.032,0,0,1,1.656-1.068c.586-.314,1.193-.592,1.8-.854a16.91,16.91,0,0,1,1.93-.759,2.789,2.789,0,0,1,2.143.118,1.751,1.751,0,0,1,.961,1.509.333.333,0,0,1-.666,0Z" transform="translate(-138.337 -74.166)" fill="#7f4924"/>
    </g>
    <g id="Group_1389" data-name="Group 1389" transform="translate(19.613 62.215)">
      <path id="Path_3635" data-name="Path 3635" d="M148.6,71.279a14.641,14.641,0,0,1-.776,5.678q-.237.676-.537,1.328c-.16.35-.392.742-.847.565-.377-.145-.537-.717-.677-1.058a7.755,7.755,0,0,1-.413-1.326,8.108,8.108,0,0,1-.051-3.132c.07-.39.628-.265.655.088a14.706,14.706,0,0,1-.1,3.062,14.441,14.441,0,0,1-.278,1.479,3.5,3.5,0,0,1-.481,1.334,1.119,1.119,0,0,1-1.035.445,1.376,1.376,0,0,1-.854-.672,6.124,6.124,0,0,1-.931-2.426,17.631,17.631,0,0,1-.2-3.037.333.333,0,0,1,.666,0,16.46,16.46,0,0,0,.179,2.9,6.453,6.453,0,0,0,.388,1.368,2.978,2.978,0,0,0,.685,1.113c.424.354.683-.287.774-.6a13.726,13.726,0,0,0,.516-4.967l.653.089a7.324,7.324,0,0,0,.609,4.419,1.051,1.051,0,0,1,.129.257c.088.1.049.129-.114.078l.086-.181c.116-.244.225-.491.324-.742a14.13,14.13,0,0,0,.963-6.063c-.027-.426.637-.424.664,0Z" transform="translate(-142.077 -70.96)" fill="#7f4924"/>
    </g>
    <g id="Group_1390" data-name="Group 1390" transform="translate(21.178 71.158)">
      <path id="Path_3636" data-name="Path 3636" d="M144.762,75.906a6.52,6.52,0,0,1,.072,4.666c-.147.4-.79.226-.641-.177a5.958,5.958,0,0,0-.072-4.312.333.333,0,1,1,.641-.177Z" transform="translate(-144.104 -75.66)" fill="#7f4924"/>
    </g>
    <g id="Group_1391" data-name="Group 1391" transform="translate(20.164 79.866)">
      <path id="Path_3637" data-name="Path 3637" d="M146.362,81.513l-2.611-.626a.333.333,0,1,1,.177-.641l2.611.626a.333.333,0,0,1-.177.641Z" transform="translate(-143.508 -80.236)" fill="#7f4924"/>
    </g>
    <g id="Group_1392" data-name="Group 1392" transform="translate(13.68 103.169)">
      <path id="Path_3638" data-name="Path 3638" d="M151.351,92.983q-2.578,4.921-5.153,9.844c-.2.379-.773.044-.573-.337q2.575-4.921,5.151-9.842c.2-.381.773-.044.575.335Z" transform="translate(-145.584 -92.481)" fill="#7f4924"/>
    </g>
    <g id="Group_1393" data-name="Group 1393" transform="translate(27.65 55.839)">
      <path id="Path_3639" data-name="Path 3639" d="M142.868,67.932c.019,4.084-1.323,7.991-2.655,11.8-.141.4-.784.228-.641-.177,1.311-3.753,2.649-7.6,2.63-11.623a.333.333,0,0,1,.666,0Z" transform="translate(-139.552 -67.61)" fill="#7f4924"/>
    </g>
    <path id="Path_3640" data-name="Path 3640" d="M99.267,50.814a147.081,147.081,0,0,1-1.3,28.453,56.767,56.767,0,0,0-.43,6.377c.329,1,2.129,5.144,2.147,5.1.042-.108-2.485,14.411-4.011,19.407-1.14,3.73-2.5,7.439-2.879,11.321-.375,3.852.228,7.753-.221,11.6s-2.3,7.9-5.894,9.347c-2.955,1.191-6.462.274-8.963-1.7a18.472,18.472,0,0,1-5.323-7.81,35.674,35.674,0,0,1-2.607-12.883c-.03-2.938-.647-5.829-.3-8.746.872-7.283,1.273-15.127,2.147-22.411.074-.617,2.339-2.24,2.56-2.735a8.122,8.122,0,0,0,.531-2.645c.786-9.294.662-29.6.662-29.6l2.847-1.1s.124,19.309-.866,29.437a13.6,13.6,0,0,0-.057,3.382c.19,1.245,2.276,1.92,2.643,3.127.849,2.778-.784,6.228-.879,9.132q-.5,15.443-1,30.889a18.2,18.2,0,0,0,.676,6.961c.818,2.2,2.746,4.158,5.09,4.274a5.708,5.708,0,0,0,4.927-2.883,10.527,10.527,0,0,0,1.285-5.77c-.148-5.741-2.942-11.157-3.159-16.895a36.382,36.382,0,0,1,.546-6.626q1.139-7.718,2.592-15.387c.266-1.4.961-2.658,1.317-4.04.015-.059,4.04-3.414,4.023-3.374l1.855-13.631a85.057,85.057,0,0,0,.31-20.362Z" transform="translate(64.815 -26.937)" fill="#9ab9dc"/>
    <g id="Group_1394" data-name="Group 1394" transform="translate(130.809 29.6)">
      <path id="Path_3641" data-name="Path 3641" d="M89.705,54.972a25.935,25.935,0,0,0-2.814-.341,19.508,19.508,0,0,0-2.847-.127c-.428.025-.426-.641,0-.666a20.2,20.2,0,0,1,2.917.133,26.845,26.845,0,0,1,2.921.36c.419.084.242.725-.177.641Z" transform="translate(-83.723 -53.822)" fill="#a36340"/>
    </g>
    <g id="Group_1395" data-name="Group 1395" transform="translate(131.62 34.222)">
      <path id="Path_3642" data-name="Path 3642" d="M89.307,56.918q-1.736.134-3.469.265l.322-.244a5.6,5.6,0,0,0,.375,2.495,9.293,9.293,0,0,1,.516,2.411,6.158,6.158,0,0,1-1.324,3.951,5.817,5.817,0,0,1-1.85,1.559c-.379.2-.716-.375-.337-.575a5.452,5.452,0,0,0,2.843-5.014,9.539,9.539,0,0,0-.533-2.293,6.038,6.038,0,0,1-.331-2.71.335.335,0,0,1,.32-.244l3.469-.266c.426-.032.424.634,0,.666Z" transform="translate(-83.373 -56.25)" fill="#a36340"/>
    </g>
    <g id="Group_1396" data-name="Group 1396" transform="translate(131.196 25.043)">
      <path id="Path_3643" data-name="Path 3643" d="M87.864,52.078c-.088.023-.175.048-.263.078q-.071.023-.143.051a3.625,3.625,0,0,0-.567.3c-.038.025-.074.051-.112.078-.137.1-.206.164-.274.226s-.137.133-.2.2c-.03.034-.061.069-.089.1-.1.126,0,0-.063.076a.341.341,0,0,1-.455.12.336.336,0,0,1-.12-.455,3.849,3.849,0,0,1,2.11-1.423.333.333,0,1,1,.177.641Z" transform="translate(-85.527 -51.427)" fill="#a36340"/>
    </g>
    <path id="Path_3644" data-name="Path 3644" d="M141.615,72c-3.9-3.087-8.695-7.051-12.6-10.137A100.748,100.748,0,0,1,116.4,73.177c-4.546,3.425-9.724,6.39-15.435,6.944a29.959,29.959,0,0,0-5.81.66c-3.852,1.165-6.4,5.028-6.83,8.942s.931,7.833,2.845,11.3c1.532,2.775,3.606,5.492,6.619,6.622a11.86,11.86,0,0,0,6.655.23c6.1-1.334,11.071-5.536,15.509-9.833a162.925,162.925,0,0,0,21.983-26.3Z" transform="translate(-13.348 -16.957)" fill="#dc4345"/>
    <g id="Group_1397" data-name="Group 1397" transform="translate(121.83 53.006)">
      <path id="Path_3645" data-name="Path 3645" d="M93.443,66.778a8.4,8.4,0,0,0-3.159,2.03c-.3.306-.771-.166-.47-.47a9.139,9.139,0,0,1,3.452-2.2.333.333,0,0,1,.409.232.337.337,0,0,1-.232.409Z" transform="translate(-89.717 -66.121)" fill="#93252b"/>
    </g>
    <g id="Group_1398" data-name="Group 1398" transform="translate(119.79 51.987)">
      <path id="Path_3646" data-name="Path 3646" d="M94.438,66.209q-1.487.876-2.974,1.756a.333.333,0,0,1-.337-.575L94.1,65.634a.333.333,0,0,1,.337.575Z" transform="translate(-90.968 -65.585)" fill="#93252b"/>
    </g>
    <g id="Group_1399" data-name="Group 1399" transform="translate(118.101 50.394)">
      <path id="Path_3647" data-name="Path 3647" d="M95.359,65.377l-3.045,1.975c-.36.234-.695-.341-.335-.575L95.024,64.8c.36-.232.695.343.335.575Z" transform="translate(-91.825 -64.749)" fill="#93252b"/>
    </g>
    <g id="Group_1400" data-name="Group 1400" transform="translate(115.215 48.962)">
      <path id="Path_3648" data-name="Path 3648" d="M96.943,64.611a9.765,9.765,0,0,0-3.119,2.5.335.335,0,0,1-.47,0,.338.338,0,0,1,0-.47,10.241,10.241,0,0,1,3.254-2.6.342.342,0,0,1,.455.12.336.336,0,0,1-.12.455Z" transform="translate(-93.258 -63.996)" fill="#93252b"/>
    </g>
    <g id="Group_1401" data-name="Group 1401" transform="translate(114.076 47.691)">
      <path id="Path_3649" data-name="Path 3649" d="M97.523,63.891l-3.007,2.365a.343.343,0,0,1-.472,0,.337.337,0,0,1,0-.47l3.009-2.365a.344.344,0,0,1,.47,0,.333.333,0,0,1,0,.47Z" transform="translate(-93.949 -63.328)" fill="#93252b"/>
    </g>
    <g id="Group_1402" data-name="Group 1402" transform="translate(86.586 54.036)">
      <path id="Path_3650" data-name="Path 3650" d="M129.317,67.151q-3.365,5.138-6.735,10.276c-2.072,3.165-4.107,6.358-6.3,9.443a56.6,56.6,0,0,1-6.944,8.272,30.78,30.78,0,0,1-8.548,5.886,21.7,21.7,0,0,1-9.96,2.036q-.645-.034-1.288-.114c-.419-.051-.424-.717,0-.664a20.271,20.271,0,0,0,9.92-1.414,28.85,28.85,0,0,0,8.659-5.507,51.427,51.427,0,0,0,6.992-8c2.164-2.98,4.15-6.088,6.168-9.169q3.323-5.07,6.645-10.137l.814-1.245c.234-.358.811-.025.575.335Z" transform="translate(-89.229 -66.662)" fill="#93252b"/>
    </g>
    <g id="Group_1403" data-name="Group 1403" transform="translate(85.611 48.628)">
      <path id="Path_3651" data-name="Path 3651" d="M123.34,64.389a67.784,67.784,0,0,1-8.289,7.142A45.716,45.716,0,0,1,104.3,77.4a34.3,34.3,0,0,1-7,1.812c-.419.063-.6-.579-.177-.641a36.5,36.5,0,0,0,11.838-4.006,53.679,53.679,0,0,0,9.62-6.659c1.484-1.269,2.912-2.6,4.287-3.987a.333.333,0,0,1,.472.47Z" transform="translate(-96.882 -63.82)" fill="#93252b"/>
    </g>
    <g id="Group_1404" data-name="Group 1404" transform="translate(92.613 83.295)">
      <path id="Path_3652" data-name="Path 3652" d="M108.741,82.657l-3.02,1.678c-.375.207-.712-.367-.337-.575l3.02-1.678c.375-.207.712.367.337.575Z" transform="translate(-105.221 -82.038)" fill="#93252b"/>
    </g>
    <g id="Group_1405" data-name="Group 1405" transform="translate(91.605 81.946)">
      <path id="Path_3653" data-name="Path 3653" d="M108.793,81.944l-2.013,1.01a.333.333,0,1,1-.335-.575l2.011-1.01a.333.333,0,1,1,.337.575Z" transform="translate(-106.284 -81.329)" fill="#93252b"/>
    </g>
    <g id="Group_1406" data-name="Group 1406" transform="translate(88.235 81.543)">
      <path id="Path_3654" data-name="Path 3654" d="M110.166,81.77l-1.342.337a.333.333,0,0,1-.177-.641q.671-.168,1.342-.339a.334.334,0,0,1,.177.643Z" transform="translate(-108.406 -81.117)" fill="#93252b"/>
    </g>
    <g id="Group_1407" data-name="Group 1407" transform="translate(166.286 33.988)">
      <path id="Path_3655" data-name="Path 3655" d="M70.113,56.787a9.637,9.637,0,0,1-3.456.476c-.426-.019-.428-.685,0-.666a9.085,9.085,0,0,0,3.279-.451c.407-.135.582.506.177.641Z" transform="translate(-66.337 -56.127)" fill="#a36340"/>
    </g>
    <g id="Group_1408" data-name="Group 1408" transform="translate(57.615 111.507)">
      <path id="Path_3656" data-name="Path 3656" d="M134.156,97.83a34.382,34.382,0,0,0-14.263,1.1,33.814,33.814,0,0,0-3.833,1.38c-.388.169-.727-.405-.335-.575a34.8,34.8,0,0,1,18.607-2.55.334.334,0,0,1,.232.409.343.343,0,0,1-.409.232Z" transform="translate(-115.552 -96.863)" fill="#32664e"/>
    </g>
    <g id="Group_1409" data-name="Group 1409" transform="translate(64.762 115.066)">
      <path id="Path_3657" data-name="Path 3657" d="M125.505,99.549a16.714,16.714,0,0,0-7.882.8c-.405.143-.579-.5-.177-.641a17.426,17.426,0,0,1,8.236-.8c.422.059.244.7-.177.641Z" transform="translate(-117.218 -98.733)" fill="#32664e"/>
    </g>
    <g id="Group_1410" data-name="Group 1410" transform="translate(40.602 84.275)">
      <path id="Path_3658" data-name="Path 3658" d="M136.405,82.97q-1.324,8.381-2.647,16.758-.377,2.375-.752,4.75c-.067.422-.708.244-.641-.177q1.324-8.378,2.647-16.758l.752-4.75c.067-.421.708-.242.641.177Z" transform="translate(-132.36 -82.553)" fill="#32664e"/>
    </g>
    <g id="Group_1411" data-name="Group 1411" transform="translate(41.916 84.759)">
      <path id="Path_3659" data-name="Path 3659" d="M133.726,83.128a52.866,52.866,0,0,0,.731,8c.07.419-.571.6-.643.177a53.983,53.983,0,0,1-.752-8.173.332.332,0,0,1,.664,0Z" transform="translate(-133.062 -82.807)" fill="#32664e"/>
    </g>
    <g id="Group_1412" data-name="Group 1412" transform="translate(26.698 91.483)">
      <path id="Path_3660" data-name="Path 3660" d="M147.676,100.836q-5.032-5.424-10.067-10.845l-2.856-3.077c-.291-.312.179-.784.472-.47q5.032,5.423,10.067,10.845l2.854,3.077c.291.312-.179.784-.47.47Z" transform="translate(-134.661 -86.341)" fill="#32664e"/>
    </g>
    <g id="Group_1413" data-name="Group 1413" transform="translate(51.228 80.91)">
      <path id="Path_3661" data-name="Path 3661" d="M137.291,81.663c1.7,2.887,3.462,5.939,3.7,9.357a8.608,8.608,0,0,1-2.687,7.052,6.044,6.044,0,0,1-3.842,1.433,9.122,9.122,0,0,1-4.512-1.265c-2.862-1.593-5.018-4.215-6.952-6.8-2.234-2.982-4.4-6.013-6.6-9.022q-.422-.579-.847-1.159c-.251-.346.325-.677.575-.335q3.243,4.436,6.482,8.872a30.966,30.966,0,0,0,6.32,6.988c2.282,1.675,5.517,2.9,8.175,1.33a7.446,7.446,0,0,0,3.243-6.267c.084-3.583-1.88-6.87-3.631-9.854a.333.333,0,0,1,.575-.335Z" transform="translate(-115.491 -80.784)" fill="#32664e"/>
    </g>
    <g id="Group_1414" data-name="Group 1414" transform="translate(43.198 140.412)">
      <path id="Path_3662" data-name="Path 3662" d="M143.872,113.968a32.767,32.767,0,0,1-17.873.386,32.028,32.028,0,0,1-4.86-1.7c-.392-.171-.053-.746.335-.575a32.015,32.015,0,0,0,17.38,2.339,31.651,31.651,0,0,0,4.841-1.1c.411-.127.586.516.177.641Z" transform="translate(-120.965 -112.052)" fill="#8e292e"/>
    </g>
    <g id="Group_1415" data-name="Group 1415" transform="translate(50.993 143.346)">
      <path id="Path_3663" data-name="Path 3663" d="M134.094,114.435l-2.58,11.087c-.4,1.734-.755,3.492-1.25,5.2a9.3,9.3,0,0,1-2.188,4.118,4.95,4.95,0,0,1-4.426,1.505.337.337,0,0,1-.232-.409q2.172-8.532,3.817-17.186.465-2.455.889-4.919c.072-.422.714-.244.641.177q-1.49,8.675-3.513,17.249-.577,2.435-1.193,4.856l-.232-.409a4.258,4.258,0,0,0,3.749-1.305,8.728,8.728,0,0,0,2.086-3.991c.461-1.635.8-3.307,1.186-4.961l1.227-5.273q.691-2.96,1.378-5.92c.1-.417.74-.242.643.177Z" transform="translate(-123.407 -113.594)" fill="#8e292e"/>
    </g>
    <g id="Group_1416" data-name="Group 1416" transform="translate(45.81 163.986)">
      <path id="Path_3664" data-name="Path 3664" d="M134.741,124.854q-1.867,7.716-4.249,15.292-.679,2.164-1.4,4.314c-.137.4-.778.23-.643-.177q2.526-7.524,4.542-15.207.577-2.2,1.109-4.4c.1-.415.742-.24.641.177Z" transform="translate(-128.429 -124.44)" fill="#8e292e"/>
    </g>
    <g id="Group_1417" data-name="Group 1417" transform="translate(51.836 163.971)">
      <path id="Path_3665" data-name="Path 3665" d="M130.449,124.753q.368,6.237.449,12.489.08,6.217-.131,12.434-.211,6.246-.71,12.478-.5,6.2-1.283,12.369t-1.855,12.322q-.134.768-.272,1.532c-.076.421-.717.242-.641-.177q2.209-12.257,3.273-24.683,1.056-12.391.969-24.845-.051-6.962-.464-13.918c-.025-.428.641-.426.666,0Z" transform="translate(-125.999 -124.433)" fill="#8e292e"/>
    </g>
    <g id="Group_1418" data-name="Group 1418" transform="translate(25.445 186.659)">
      <path id="Path_3666" data-name="Path 3666" d="M144.589,139.721l-4.889-2.746a.333.333,0,0,1,.337-.575l4.887,2.746a.333.333,0,0,1-.335.575Z" transform="translate(-139.537 -136.355)" fill="#8e292e"/>
    </g>
    <g id="Group_1419" data-name="Group 1419" transform="translate(24.485 189.026)">
      <path id="Path_3667" data-name="Path 3667" d="M144.874,140.113l-4.426-1.9a.333.333,0,1,1,.335-.575l4.426,1.9a.333.333,0,0,1,.12.455.341.341,0,0,1-.455.12Z" transform="translate(-140.286 -137.599)" fill="#8e292e"/>
    </g>
    <g id="Group_1420" data-name="Group 1420" transform="translate(52.24 198.401)">
      <path id="Path_3668" data-name="Path 3668" d="M131.116,143.191H125.3a.333.333,0,0,1,0-.666h5.817a.333.333,0,0,1,0,.666Z" transform="translate(-124.978 -142.525)" fill="#8e292e"/>
    </g>
    <g id="Group_1421" data-name="Group 1421" transform="translate(50.004 199.723)">
      <path id="Path_3669" data-name="Path 3669" d="M131.766,144.417a17.3,17.3,0,0,0-4.813-.523c-.428.013-.428-.653,0-.666a18,18,0,0,1,4.99.548.333.333,0,0,1-.177.641Z" transform="translate(-126.632 -143.22)" fill="#8e292e"/>
    </g>
    <g id="Group_1422" data-name="Group 1422" transform="translate(155.587 62.424)">
      <path id="Path_3670" data-name="Path 3670" d="M77.4,74.132l-7.254-2.4c-.4-.133-.23-.776.177-.641l7.254,2.4c.4.133.23.776-.177.641Z" transform="translate(-69.919 -71.07)" fill="#32485e"/>
    </g>
    <g id="Group_1423" data-name="Group 1423" transform="translate(135.481 62.249)">
      <path id="Path_3671" data-name="Path 3671" d="M88.349,72.924q-4.031-.648-8.061-1.3c-.421-.069-.242-.71.177-.641l8.061,1.3c.422.068.244.71-.177.641Z" transform="translate(-80.048 -70.978)" fill="#32485e"/>
    </g>
    <g id="Group_1424" data-name="Group 1424" transform="translate(142.173 111.858)">
      <path id="Path_3672" data-name="Path 3672" d="M85.248,97.659a10.408,10.408,0,0,1-8.727.16c-.392-.173-.053-.746.335-.575a9.681,9.681,0,0,0,8.055-.16c.384-.188.721.386.337.575Z" transform="translate(-76.347 -97.047)" fill="#32485e"/>
    </g>
    <g id="Group_1425" data-name="Group 1425" transform="translate(139.035 57.917)">
      <path id="Path_3673" data-name="Path 3673" d="M83.718,69.8l-2.236-.451a.333.333,0,1,1,.177-.641l2.236.451a.334.334,0,0,1,.232.409.34.34,0,0,1-.409.232Z" transform="translate(-81.239 -68.702)" fill="#32485e"/>
    </g>
    <g id="Group_1426" data-name="Group 1426" transform="translate(160.545 57.349)">
      <path id="Path_3674" data-name="Path 3674" d="M71.99,69.508l-1.342-.449a.333.333,0,1,1,.177-.641l1.342.449a.333.333,0,0,1-.177.641Z" transform="translate(-70.402 -68.403)" fill="#32485e"/>
    </g>
    <g id="Group_1427" data-name="Group 1427" transform="translate(111.685 148.39)">
      <path id="Path_3675" data-name="Path 3675" d="M100.8,116.66a46.975,46.975,0,0,0-.978,9.384c-.006,2.676.221,5.637-1.614,7.827a4.351,4.351,0,0,1-3.368,1.667.338.338,0,0,1-.331-.333q-.565-6.934-1.128-13.871-.163-1.981-.322-3.962c-.036-.428.63-.426.664,0q.565,6.933,1.128,13.871.16,1.981.322,3.962l-.333-.331a3.689,3.689,0,0,0,2.818-1.382,6.281,6.281,0,0,0,1.387-3.361,32.84,32.84,0,0,0,.112-4.2c.008-1.481.084-2.963.232-4.436a48.391,48.391,0,0,1,.767-5.014c.088-.421.729-.244.643.175Z" transform="translate(-93.062 -116.245)" fill="#132330"/>
    </g>
    <g id="Group_1428" data-name="Group 1428" transform="translate(107.725 166.643)">
      <path id="Path_3676" data-name="Path 3676" d="M105.284,128.146a44.986,44.986,0,0,0-12.923-1.637.332.332,0,0,1,0-.664,45.671,45.671,0,0,1,13.1,1.659.333.333,0,0,1-.177.641Z" transform="translate(-92.04 -125.837)" fill="#132330"/>
    </g>
    <g id="Group_1429" data-name="Group 1429" transform="translate(84.079 150.041)">
      <path id="Path_3677" data-name="Path 3677" d="M115.225,117.593a51.609,51.609,0,0,1-7.045,7.829c-.318.285-.79-.183-.472-.47a50.648,50.648,0,0,0,6.942-7.7c.249-.343.828-.011.575.337Z" transform="translate(-107.603 -117.112)" fill="#132330"/>
    </g>
    <g id="Group_1430" data-name="Group 1430" transform="translate(83.92 148.337)">
      <path id="Path_3678" data-name="Path 3678" d="M108.432,116.537c-.567,6.464-1.134,12.973-.626,19.46a77.273,77.273,0,0,0,1.578,9.6,37.679,37.679,0,0,1,.712,4.607,30.343,30.343,0,0,1-.057,4.832c-.265,3.241-.826,6.451-.946,9.705a66.139,66.139,0,0,0,.489,10.008c.771,6.657,1.956,13.277,2.986,19.9s2.057,13.224,3.085,19.837q.194,1.242.386,2.48c.065.419-.577.6-.643.177q-1.55-9.968-3.1-19.936c-1.031-6.628-2.152-13.25-3.056-19.9a83.068,83.068,0,0,1-.839-9.789,74.505,74.505,0,0,1,.7-9.873,34.685,34.685,0,0,0,.042-9.715c-.518-3.157-1.359-6.244-1.755-9.424-.807-6.489-.386-13.052.164-19.544q.1-1.216.209-2.428c.038-.424.7-.428.666,0Z" transform="translate(-106.944 -116.217)" fill="#132330"/>
    </g>
    <g id="Group_1431" data-name="Group 1431" transform="translate(85.702 246.56)">
      <path id="Path_3679" data-name="Path 3679" d="M118.793,168.461a21.809,21.809,0,0,1-12.982,3.38,21.57,21.57,0,0,1-3.821-.575.333.333,0,0,1,.177-.641,21.2,21.2,0,0,0,12.982-1.007,20.5,20.5,0,0,0,3.309-1.732c.362-.232.695.344.335.575Z" transform="translate(-101.753 -167.833)" fill="#132330"/>
    </g>
    <g id="Group_1432" data-name="Group 1432" transform="translate(117.285 167.737)">
      <path id="Path_3680" data-name="Path 3680" d="M91.73,126.51c3.37,3.37,4.83,8.093,5.136,12.756.362,5.509-.94,10.934-2,16.3a66.612,66.612,0,0,0-1.235,8.668,72.8,72.8,0,0,0,0,8.278c.276,5.591.963,11.155,1.176,16.75a48.462,48.462,0,0,1-1.665,16.154c-.2.641-.417,1.273-.653,1.9-.148.4-.792.225-.641-.177A43.071,43.071,0,0,0,94.2,191.279c-.082-5.517-.735-11-1.1-16.5-.181-2.738-.295-5.482-.23-8.227a57.106,57.106,0,0,1,.826-8.287c.953-5.553,2.521-11.066,2.571-16.737.042-4.632-.915-9.557-3.857-13.264a14.912,14.912,0,0,0-1.146-1.281.333.333,0,0,1,.47-.47Z" transform="translate(-91.163 -126.411)" fill="#132330"/>
    </g>
    <g id="Group_1433" data-name="Group 1433" transform="translate(112.177 247.874)">
      <path id="Path_3681" data-name="Path 3681" d="M106.111,169.147a21.334,21.334,0,0,1-15.243,2.483,20.376,20.376,0,0,1-4.223-1.391c-.388-.175-.051-.75.337-.575a20.648,20.648,0,0,0,14.87.71,19.731,19.731,0,0,0,3.924-1.8.333.333,0,0,1,.335.575Z" transform="translate(-86.473 -168.523)" fill="#132330"/>
    </g>
    <g id="Group_1434" data-name="Group 1434" transform="translate(131.521 142.9)">
      <path id="Path_3682" data-name="Path 3682" d="M81.894,113.594a13.329,13.329,0,0,0,6.664,8.112,12.538,12.538,0,0,0,2.856,1.068c.417.1.24.742-.177.641a14,14,0,0,1-8.746-6.668,13.4,13.4,0,0,1-1.239-2.976.333.333,0,0,1,.641-.177Z" transform="translate(-81.239 -113.36)" fill="#132330"/>
    </g>
    <g id="Group_1435" data-name="Group 1435" transform="translate(36.445 40.916)">
      <path id="Path_3683" data-name="Path 3683" d="M142.349,60.088c-.333,3.945-.887,8.413-4.354,10.906-.929.668-1.962,1.172-2.9,1.827a8.008,8.008,0,0,0-2.051,2.055,11.921,11.921,0,0,0-1.815,5.288,34.889,34.889,0,0,0-.036,6.672c.029.428-.636.426-.666,0a38.063,38.063,0,0,1-.04-5.947,14.281,14.281,0,0,1,1.475-5.507,8.9,8.9,0,0,1,1.669-2.221,14.2,14.2,0,0,1,2.685-1.884,10.378,10.378,0,0,0,2.59-1.985,8.644,8.644,0,0,0,1.5-2.5,23.093,23.093,0,0,0,1.281-6.706c.036-.424.7-.428.666,0Z" transform="translate(-130.385 -59.768)" fill="#351c08"/>
    </g>
    <g id="Group_1436" data-name="Group 1436" transform="translate(39.188 55.868)">
      <path id="Path_3684" data-name="Path 3684" d="M137.776,68.106c-1.09,1.543-1.119,3.484-1.8,5.2a4.4,4.4,0,0,1-3.317,3.079c-.424.051-.421-.615,0-.666,1.5-.181,2.413-1.734,2.837-3.039.535-1.65.674-3.452,1.7-4.906.244-.346.822-.015.573.335Z" transform="translate(-132.346 -67.625)" fill="#351c08"/>
    </g>
    <g id="Group_1437" data-name="Group 1437" transform="translate(38.455 44.841)">
      <path id="Path_3685" data-name="Path 3685" d="M137.833,62.467a10.625,10.625,0,0,0-4.183,6.6c-.08.421-.721.242-.641-.177a11.3,11.3,0,0,1,4.487-7c.348-.251.681.325.337.575Z" transform="translate(-133.002 -61.83)" fill="#351c08"/>
    </g>
    <g id="Group_1438" data-name="Group 1438" transform="translate(51.637 33.814)">
      <path id="Path_3686" data-name="Path 3686" d="M130.95,56.177c1.241,1.665.2,3.9-1.052,5.222-1.328,1.4-3.252,2.527-3.618,4.571a2.347,2.347,0,0,0,.778,2.39c.35.242.017.818-.337.575-1.509-1.045-1.376-3.216-.52-4.643,1.094-1.827,3.226-2.788,4.192-4.7a2.9,2.9,0,0,0-.019-3.075c-.255-.344.322-.676.575-.337Z" transform="translate(-125.569 -56.036)" fill="#351c08"/>
    </g>
    <g id="Group_1439" data-name="Group 1439" transform="translate(58.943 29.777)">
      <path id="Path_3687" data-name="Path 3687" d="M125.543,54.136a5.66,5.66,0,0,1-1.319,6.1c-.31.295-.782-.175-.472-.47a5.012,5.012,0,0,0,1.149-5.458c-.162-.4.481-.569.641-.177Z" transform="translate(-123.65 -53.915)" fill="#351c08"/>
    </g>
    <g id="Group_1440" data-name="Group 1440" transform="translate(50.92 31.073)">
      <path id="Path_3688" data-name="Path 3688" d="M130.586,54.916a5.848,5.848,0,0,1-2.721,5.245c-.365.226-.7-.35-.337-.575a5.175,5.175,0,0,0,2.392-4.67c-.027-.428.639-.426.666,0Z" transform="translate(-127.372 -54.596)" fill="#351c08"/>
    </g>
    <g id="Group_1441" data-name="Group 1441" transform="translate(44.637 34.191)">
      <path id="Path_3689" data-name="Path 3689" d="M134.212,56.847a10.433,10.433,0,0,0-3.509,2.638c-.28.324-.75-.148-.47-.47a10.862,10.862,0,0,1,3.644-2.742.343.343,0,0,1,.455.12.336.336,0,0,1-.12.455Z" transform="translate(-130.147 -56.234)" fill="#351c08"/>
    </g>
    <g id="Group_1442" data-name="Group 1442" transform="translate(43.728 59.642)">
      <path id="Path_3690" data-name="Path 3690" d="M134.277,69.781a4.348,4.348,0,0,1-2.976,5.876c-.419.082-.6-.559-.177-.643a3.681,3.681,0,0,0,2.579-4.9c-.175-.386.4-.725.575-.335Z" transform="translate(-130.884 -69.608)" fill="#351c08"/>
    </g>
    <g id="Group_1443" data-name="Group 1443" transform="translate(19.66 25.941)">
      <path id="Path_3691" data-name="Path 3691" d="M164.073,52.558a61.151,61.151,0,0,0-9.776,3.825,19.909,19.909,0,0,0-7.658,6.552c-1.737,2.685-2.6,5.823-4.274,8.541a9.909,9.909,0,0,1-3.043,3.245,12.828,12.828,0,0,1-5.42,1.49,15.393,15.393,0,0,0-2.9.58,8.406,8.406,0,0,0-2.244,1.151,8.824,8.824,0,0,0-3.068,3.893,8.553,8.553,0,0,0-.371,1.191c-.1.415-.742.24-.643-.177a9.486,9.486,0,0,1,7-6.938c1.962-.459,4.03-.4,5.939-1.09a7.807,7.807,0,0,0,3.612-2.837c1.884-2.592,2.752-5.755,4.32-8.525a19.321,19.321,0,0,1,7.288-7.03,51.069,51.069,0,0,1,9.791-4.1q.634-.208,1.269-.413c.407-.131.582.512.177.641Z" transform="translate(-124.663 -51.899)" fill="#663b14"/>
    </g>
  </g>
  <path id="Path_3692" data-name="Path 3692" d="M137.115,74.242c1.069,14.718,3.041,31.82-.921,46.035a15.988,15.988,0,0,0-4.185-.5,171.3,171.3,0,0,0,.434-42.737,1.96,1.96,0,0,1,.126-1.235,1.787,1.787,0,0,1,.834-.636,11.234,11.234,0,0,1,3.817-1.009Z" transform="translate(-92.243 -5.86)" fill="#577293"/>
  <path id="Path_3693" data-name="Path 3693" d="M173.23,99.3l-11.814-2.7c-1.855,3.97-7.629,8.723-11.719,10.3-1.176.453-5.106,1.271-6.107,2.036-1.669,1.275-5.471,22.957-11.448,31.517-1.123,1.606-2.354,3.465-1.886,5.368a6.477,6.477,0,0,0,2.83,3.359,77.385,77.385,0,0,0,24.605,11.886,8.449,8.449,0,0,0,4.619.348c2.837-.845,4.048-4.118,4.841-6.971Q174.514,128,180,101.078a18.023,18.023,0,0,0-6.274-1.467Z" transform="translate(-130.155 14.407)" fill="#577293"/>
  <g id="Group_1445" data-name="Group 1445" transform="translate(27.573 115.502)">
    <path id="Path_3694" data-name="Path 3694" d="M151.424,99.369c-1.347,3.951-2.841,7.85-4.4,11.722s-3.182,7.726-4.782,11.587S139.068,130.4,137.6,134.3s-2.822,7.836-3.981,11.835a58.078,58.078,0,0,0-1.553,6.067c-.316,1.795-.206,3.9,1.311,5.144a2.832,2.832,0,0,0,1.066.542.333.333,0,0,1-.177.641,4.389,4.389,0,0,1-2.952-3.758c-.293-2.129.434-4.318.976-6.352,1.094-4.093,2.411-8.122,3.857-12.1,1.456-4.006,3.041-7.962,4.662-11.9s3.275-7.846,4.879-11.783,3.167-7.922,4.579-11.949c.173-.5.346-.993.516-1.49.137-.4.78-.23.641.177Z" transform="translate(-131.246 -98.963)" fill="#132330"/>
  </g>
  <g id="Group_1446" data-name="Group 1446" transform="translate(39.427 113.493)">
    <path id="Path_3695" data-name="Path 3695" d="M137.3,99.744q-1.844-.648-3.724-1.182a.333.333,0,0,1,.177-.641q1.878.534,3.724,1.18c.4.141.228.784-.177.643Z" transform="translate(-133.337 -97.906)" fill="#132330"/>
  </g>
  <path id="Path_3696" data-name="Path 3696" d="M140.492,125.764l6.062-2.2,4.275,4.828.906-7.691,5.522-4.2-5.5-2.556-.862-7.427-4.306,6.112-6.055-.385,2.841,6.333Z" transform="translate(-127.082 23.36)" fill="#9ab9dc"/>
  <g id="Group_1447" data-name="Group 1447" transform="translate(19.057 130.86)">
    <path id="Path_3697" data-name="Path 3697" d="M144.477,107.271q2.027,9.962,3.4,20.04.383,2.806.716,5.619c.049.424-.617.421-.666,0q-1.182-10-3.011-19.9-.517-2.795-1.083-5.58c-.086-.417.556-.6.641-.177Z" transform="translate(-143.828 -107.033)" fill="#132330"/>
  </g>
  <g id="Group_1448" data-name="Group 1448" transform="translate(16.604 133.405)">
    <path id="Path_3698" data-name="Path 3698" d="M147.143,108.61a68.261,68.261,0,0,1,1.5,13.389q.023,1.91-.063,3.821c-.019.426-.685.428-.666,0a67.468,67.468,0,0,0-.725-13.328q-.291-1.864-.683-3.705c-.089-.419.552-.6.641-.177Z" transform="translate(-146.494 -108.37)" fill="#132330"/>
  </g>
  <g id="Group_1449" data-name="Group 1449" transform="translate(3.997 161.767)">
    <path id="Path_3699" data-name="Path 3699" d="M164.71,135.143a134.047,134.047,0,0,1-17.646-8.432q-2.372-1.359-4.687-2.809c-.363-.228-.029-.8.335-.575a133.34,133.34,0,0,0,17.112,9.071q2.509,1.1,5.064,2.1c.394.154.223.8-.177.641Z" transform="translate(-142.22 -123.274)" fill="#132330"/>
  </g>
</svg>
