<svg id="Group_891" data-name="Group 891" xmlns="http://www.w3.org/2000/svg" viewBox="0 0 181.339 277">
  <path id="Path_2955" data-name="Path 2955" d="M286.779,225.081a2.47,2.47,0,0,0-2.737,1.262,4.8,4.8,0,0,0,1.222,5.569,3.393,3.393,0,0,0,4.344-.438,4.143,4.143,0,0,0,.654-4.521,4.692,4.692,0,0,0-3.789-2.575Z" transform="translate(-283.599 22.337)" fill="#87c3a9"/>
  <path id="Path_2956" data-name="Path 2956" d="M282.882,236.419a2.543,2.543,0,0,0-1.762-2.488,4.049,4.049,0,0,0-3.13.4,4.251,4.251,0,0,0-1.951,1.951,3.585,3.585,0,0,0,1.3,4.266,3.905,3.905,0,0,0,4.458-.261,4.863,4.863,0,0,0,1.694-4.322Z" transform="translate(-261.253 31.212)" fill="#87c3a9"/>
  <path id="Path_2957" data-name="Path 2957" d="M270.868,235a2.541,2.541,0,0,0-1.76-2.488,4.046,4.046,0,0,0-3.132.4,4.243,4.243,0,0,0-1.949,1.949,3.585,3.585,0,0,0,1.3,4.268,3.9,3.9,0,0,0,4.456-.263,4.864,4.864,0,0,0,1.7-4.322Z" transform="translate(-225.876 29.871)" fill="#87c3a9"/>
  <path id="Path_2958" data-name="Path 2958" d="M233.018,184.081c1.241-.671,2.727-.615,4.087-.973s2.776-1.484,2.593-2.91a2.549,2.549,0,0,0-2.747-1.945,7.335,7.335,0,0,0-3.361,1.416Z" transform="translate(-134.269 -21.267)" fill="#efbf85"/>
  <path id="Path_2959" data-name="Path 2959" d="M284.9,222.509a11.411,11.411,0,0,0-1.69,7.145,2.86,2.86,0,0,0,.525,1.583,1.121,1.121,0,0,0,1.478.286,2.2,2.2,0,0,0,.552-1.379,4.532,4.532,0,0,1,3.591-3.486q-2.182-2.582-4.363-5.165Z" transform="translate(-281.432 19.61)"/>
  <path id="Path_2960" data-name="Path 2960" d="M274.143,232.734a3.8,3.8,0,0,1-1,5.4,1.985,1.985,0,0,0-.644.459c-.442.586.109,1.438.745,1.788,1.772.977,4,.171,5.649-1.006a14.631,14.631,0,0,0,4.585-5.38,35.369,35.369,0,0,0-8.45-2.595Z" transform="translate(-254.53 28.973)"/>
  <path id="Path_2961" data-name="Path 2961" d="M262.132,231.315a3.8,3.8,0,0,1-1,5.4,1.933,1.933,0,0,0-.644.457c-.442.586.107,1.438.743,1.79,1.774.977,4,.169,5.651-1.008a14.627,14.627,0,0,0,4.583-5.38,35.346,35.346,0,0,0-8.45-2.595Z" transform="translate(-219.153 27.632)"/>
  <path id="Path_2962" data-name="Path 2962" d="M328.282,217.082a10.085,10.085,0,0,0,1.157-3.861,8.182,8.182,0,0,0-2.352-6.392l-14.144-14.6a8.179,8.179,0,0,0-2.846-1.912,8.028,8.028,0,0,0-3.787-.531l-22.874,2.33a8.073,8.073,0,0,0-3.731,1.366l-2.694,1.836a8.3,8.3,0,0,0-2.274,2.327L239.169,252.2l4.41,4.912.572,6.481,9.4,9.629,2.879-1.177,1.117,1.28a6.1,6.1,0,0,0,5.334,2.062l-1.344,2.358,26.934-5.684Z" transform="translate(-235.993 -10.403)" fill="#87c3a9"/>
  <path id="Path_2963" data-name="Path 2963" d="M243.859,261.875c11.648-17.828,22.489-36.457,34.137-54.285,3.352-5.131,8.217-12.523,14.241-12.27l22.57-2.719,4.1,3.912-18.682,2.819a23.079,23.079,0,0,0-14.515,6.351,23.765,23.765,0,0,0-3.68,4.48L247.1,265.151Z" transform="translate(-234.549 -7.701)" fill="#32664e"/>
  <path id="Path_2964" data-name="Path 2964" d="M243.583,199.29a5.832,5.832,0,0,0,7.351.57,11.677,11.677,0,0,1,1.119-.819,5.672,5.672,0,0,1,2.214-.535,14.648,14.648,0,0,1,4.3-.01,11.636,11.636,0,0,0,3.052.537c1.035-.078,2.13-.916,2-1.969a1.873,1.873,0,0,0-1.366-1.455,5.3,5.3,0,0,0-2.072-.078c-5.629.533-11.366,1.1-16.571,3.357Z" transform="translate(-178.733 -4.99)"/>
  <path id="Path_2965" data-name="Path 2965" d="M280.7,215.263c.4-1.366,1.414-2.383,1.869-3.731s-.163-3.363-1.552-3.256a2.841,2.841,0,0,0-1.749,1.208c-4.067,4.742-8.166,9.532-11.185,15.035-1.365,2.488-2.5,5.1-3.628,7.711-.459,1.06-.8,2.568.177,3.163s2.087-.4,2.788-1.292l2.7-3.426a1.215,1.215,0,0,0,.364-.879c-.062-.4-.488-.619-.726-.947a2.2,2.2,0,0,1,.088-2.066,30.527,30.527,0,0,1,7.623-10.957c.895-.819,2.229-1.607,3.2-.891Z" transform="translate(-237.564 7.112)"/>
  <path id="Path_2966" data-name="Path 2966" d="M242.1,200.981c.572,1.9,1.412,5.9,1,7.843a2.453,2.453,0,0,0-.051,1.412c.282.714,1.163.908,1.912.967a23.592,23.592,0,0,0,11.747-2.126,5.709,5.709,0,0,0,2.28-1.634c1.13-1.527.768-3.674.352-5.544-.373-1.685-.945-3.616-2.515-4.25a4.85,4.85,0,0,0-2.225-.183,41.827,41.827,0,0,0-8.629,1.655C244.31,199.625,241.905,200.33,242.1,200.981Z" transform="translate(-171.948 -3.143)" fill="#32664e"/>
  <g id="Group_891-2" data-name="Group 891" transform="translate(46.479 196.146)">
    <path id="Path_2967" data-name="Path 2967" d="M253.605,218.542q3.286-5.051,6.569-10.1c1.937-2.982,3.82-6.229,6.8-8.3a9.225,9.225,0,0,1,5.272-1.762.34.34,0,0,1,0,.679c-3.431-.025-6.23,2.361-8.228,4.927-1.1,1.406-2.042,2.926-3.013,4.418q-1.6,2.457-3.192,4.91l-3.622,5.571c-.237.366-.827.025-.587-.344Z" transform="translate(-253.549 -198.382)"/>
  </g>
  <g id="Group_892" data-name="Group 892" transform="translate(19.25 246.917)">
    <path id="Path_2968" data-name="Path 2968" d="M281.054,224.979l-7.083,10.51c-.243.36-.833.021-.587-.342q3.542-5.255,7.083-10.51c.243-.362.832-.021.587.342Z" transform="translate(-273.326 -224.483)"/>
  </g>
  <g id="Group_893" data-name="Group 893" transform="translate(29.413 217.31)">
    <path id="Path_2969" data-name="Path 2969" d="M285.657,209.758q-5.593,8.1-10.987,16.332-5.383,8.217-10.561,16.562-2.915,4.7-5.768,9.438a.34.34,0,0,1-.588-.342q5.08-8.441,10.362-16.756,5.267-8.287,10.736-16.441,3.075-4.59,6.217-9.137c.247-.358.836-.017.587.344Z" transform="translate(-257.703 -209.262)"/>
  </g>
  <g id="Group_894" data-name="Group 894" transform="translate(60.397 200.304)">
    <path id="Path_2970" data-name="Path 2970" d="M255.663,200.674a10.028,10.028,0,0,1,.554,9.919c-.2.391-.786.047-.587-.342a9.338,9.338,0,0,0-.554-9.232c-.243-.366.346-.706.587-.344Z" transform="translate(-255.018 -200.52)"/>
  </g>
  <g id="Group_895" data-name="Group 895" transform="translate(61.923 199.045)">
    <path id="Path_2971" data-name="Path 2971" d="M254.408,199.955a7.057,7.057,0,0,1,2.358,6.68c-.08.43-.735.247-.656-.181a6.373,6.373,0,0,0-2.185-6.017c-.337-.28.146-.759.482-.482Z" transform="translate(-253.811 -199.872)"/>
  </g>
  <g id="Group_896" data-name="Group 896" transform="translate(64.287 199.042)">
    <path id="Path_2972" data-name="Path 2972" d="M253.189,199.936a5.936,5.936,0,0,1,2.286,5.826c-.08.428-.737.247-.658-.181a5.216,5.216,0,0,0-1.972-5.058c-.348-.257-.01-.848.344-.587Z" transform="translate(-252.699 -199.871)"/>
  </g>
  <g id="Group_897" data-name="Group 897" transform="translate(67.014 197.771)">
    <path id="Path_2973" data-name="Path 2973" d="M252.088,199.333a8.416,8.416,0,0,1,1.687,7.013c-.091.428-.747.247-.658-.181a7.681,7.681,0,0,0-1.509-6.351c-.274-.337.2-.821.48-.48Z" transform="translate(-251.526 -199.217)"/>
  </g>
  <g id="Group_898" data-name="Group 898" transform="translate(88.702 197.849)">
    <path id="Path_2974" data-name="Path 2974" d="M241.457,199.414a5.938,5.938,0,0,1,.611,5.133c-.144.41-.8.233-.656-.181a5.285,5.285,0,0,0-.543-4.61c-.239-.368.35-.708.587-.342Z" transform="translate(-240.813 -199.257)"/>
  </g>
  <g id="Group_899" data-name="Group 899" transform="translate(90.145 198.469)">
    <path id="Path_2975" data-name="Path 2975" d="M240.594,199.729a6.752,6.752,0,0,1,1.167,4.108c-.019.436-.7.438-.679,0a6.135,6.135,0,0,0-1.076-3.766c-.249-.362.34-.7.587-.342Z" transform="translate(-239.946 -199.576)"/>
  </g>
  <g id="Group_900" data-name="Group 900" transform="translate(42.521 186.104)">
    <path id="Path_2976" data-name="Path 2976" d="M263.992,193.255a5.728,5.728,0,0,1,3.161,4.527.343.343,0,0,1-.34.34.347.347,0,0,1-.34-.34,5.037,5.037,0,0,0-2.824-3.937c-.395-.187-.051-.774.344-.589Z" transform="translate(-263.473 -193.22)"/>
  </g>
  <g id="Group_901" data-name="Group 901" transform="translate(43.727 184.842)">
    <path id="Path_2977" data-name="Path 2977" d="M263.331,192.61a6.061,6.061,0,0,1,3.239,4.877c.037.436-.644.434-.681,0a5.371,5.371,0,0,0-2.9-4.289c-.391-.2-.047-.782.344-.587Z" transform="translate(-262.814 -192.571)"/>
  </g>
  <g id="Group_902" data-name="Group 902" transform="translate(45.748 184.035)">
    <path id="Path_2978" data-name="Path 2978" d="M262.344,192.2a5.415,5.415,0,0,1,3.126,4.1.35.35,0,0,1-.237.418.342.342,0,0,1-.418-.237A4.81,4.81,0,0,0,262,192.783a.341.341,0,0,1-.123-.465.349.349,0,0,1,.465-.123Z" transform="translate(-261.835 -192.156)"/>
  </g>
  <g id="Group_903" data-name="Group 903" transform="translate(48.072 182.955)">
    <path id="Path_2979" data-name="Path 2979" d="M260.857,191.619a5.335,5.335,0,0,1,3.614,4.69c.029.438-.65.436-.679,0a4.636,4.636,0,0,0-3.116-4.034c-.416-.132-.239-.79.181-.656Z" transform="translate(-260.439 -191.601)"/>
  </g>
  <path id="Path_2980" data-name="Path 2980" d="M261.565,209.03l3.4-5.1a1.78,1.78,0,0,1,2.381-.568l.093.054a1.873,1.873,0,0,1,.584,2.677l-3.49,5.048a1.781,1.781,0,0,1-2.328.56A1.872,1.872,0,0,1,261.565,209.03Z" transform="translate(-217.829 2.244)"/>
  <path id="Path_2981" data-name="Path 2981" d="M264.361,178.125a6.714,6.714,0,0,0-7.672.726,13.7,13.7,0,0,0-2.521,3.367q-11.846,19.8-23.7,39.593a4.956,4.956,0,0,0,.091,5.312s28.737-55.888,32.5-45.335c3.653,2.556-25.554,45.563-25.554,45.563l4.27-.691L267.9,183.63a3.205,3.205,0,0,0-1.459-4.655Z" transform="translate(-156.574 -22.214)" fill="#32485e"/>
  <g id="Group_904" data-name="Group 904" transform="translate(72.36 197.946)">
    <path id="Path_2982" data-name="Path 2982" d="M243.309,199.48a10.11,10.11,0,0,1,1.043,3.731c.054.669-.016,1.327-.016,2a1.549,1.549,0,0,0,.613,1.391,3,3,0,0,0,1.406.416,14.5,14.5,0,0,0,1.862.012,20.417,20.417,0,0,0,3.972-.57,20.783,20.783,0,0,0,4.262-1.554c.391-.193.737.395.344.587a21.5,21.5,0,0,1-8.168,2.194,8.176,8.176,0,0,1-3.612-.288,2.116,2.116,0,0,1-1.157-1.07,4.137,4.137,0,0,1-.167-1.908,9.291,9.291,0,0,0-.969-4.593c-.195-.391.391-.735.587-.344Z" transform="translate(-242.682 -199.308)" fill="#87c3a9"/>
  </g>
  <path id="Path_2983" data-name="Path 2983" d="M205.973,121.882A24.2,24.2,0,0,1,216.547,133.3a24.95,24.95,0,0,1,1.484,15.663,50.945,50.945,0,0,0-16.838-26.745Z" transform="translate(-51.319 -74.545)" fill="#577293"/>
  <g id="Group_909" data-name="Group 909" transform="translate(125.853 244.784)">
    <path id="Path_2984" data-name="Path 2984" d="M204.845,230.268c-.045,1.959,1.475,3.951.667,5.727a7.9,7.9,0,0,1-1.8,2.006,6.121,6.121,0,0,0,.115,8.252c-.836,1.389-.074,6.481-.074,6.481h8.38a6.358,6.358,0,0,1,.63-2.229c1.307-.321,1.823,1.655,2.766,2.636a4.612,4.612,0,0,0,2.951,1.045c4.3.463,8.578,1.613,12.895,1.389,10.094-.523,10.611-3.165,10.352-5.447a5.667,5.667,0,0,0-3.474-4.165c-1.7-.8-3.571-1.089-5.334-1.714a15.86,15.86,0,0,1-10.084-12.317,31.257,31.257,0,0,0-.817-5.233c-.564-1.673-1.92-3.247-3.647-3.311-2.159-.082-3.768,2.111-5.875,2.591-1.556.356-3.147-.265-4.733-.43s-3.54.44-3.889,2.031Z" transform="translate(-202.167 -223.386)" fill="#577293"/>
    <path id="Path_2985" data-name="Path 2985" d="M218.238,225.133q3.265,1.188,6.528,2.371a3.282,3.282,0,0,1,1.222.652,3.52,3.52,0,0,1,.589,2.871,1.341,1.341,0,0,1-.438,1.066,1.235,1.235,0,0,1-.708.123q-.89-.026-1.78-.089c-1.9-.138-3.92-.471-5.307-1.8s-1.687-3.978-.13-5.1Z" transform="translate(-216.207 -221.734)"/>
    <g id="Group_905" data-name="Group 905" transform="translate(11.332 2.038)">
      <path id="Path_2986" data-name="Path 2986" d="M219.167,250.137c-.955-1.963.358-3.925,1.4-5.532a6.067,6.067,0,0,0,1.161-2.723,4.408,4.408,0,0,0-.766-2.712c-1.14-1.782-3.07-2.747-4.774-3.89a12.113,12.113,0,0,1-5.532-10.518c.012-.436.693-.438.679,0a11.431,11.431,0,0,0,5.032,9.818c1.69,1.161,3.573,2.1,4.844,3.766a5.676,5.676,0,0,1,1.155,2.568,4.736,4.736,0,0,1-.5,2.817c-.5,1.017-1.239,1.891-1.76,2.895a3.6,3.6,0,0,0-.356,3.169c.193.393-.395.737-.587.344Z" transform="translate(-210.654 -224.434)" fill="#9ab9dc"/>
    </g>
    <g id="Group_906" data-name="Group 906" transform="translate(2.616 21.843)">
      <path id="Path_2987" data-name="Path 2987" d="M203.084,234.65q4.12,1.94,8.339,3.661a32.187,32.187,0,0,0,7.419,2.385c1.2.175,2.585.292,3.869.348a50.707,50.707,0,0,0,6.316-.121,53.923,53.923,0,0,0,9.327-1.587.34.34,0,0,1,.181.655,53.706,53.706,0,0,1-15.171,1.757,42.255,42.255,0,0,1-4.377-.35,28.643,28.643,0,0,1-6.775-2.041q-4.8-1.917-9.471-4.12c-.4-.185-.051-.772.342-.587Z" transform="translate(-202.566 -234.615)" fill="#9ab9dc"/>
    </g>
    <g id="Group_907" data-name="Group 907" transform="translate(15.695 7.747)">
      <path id="Path_2988" data-name="Path 2988" d="M220.105,237.79l-5.118,2.632c-.27.138-.689-.173-.465-.465l3.908-5.1.383.5-5.32,1.618c-.263.08-.568-.257-.383-.5l4.2-5.521c.156.154.311.309.467.465q-3.151,1.517-6.369,2.883a.342.342,0,0,1-.412-.535q2.445-3.145,4.888-6.293l.412.533-7.487,4.462a.341.341,0,0,1-.344-.587l7.487-4.462c.358-.212.634.249.412.535q-2.442,3.145-4.886,6.295l-.412-.535q3.218-1.366,6.367-2.883c.27-.13.692.167.465.465q-2.1,2.76-4.2,5.522l-.385-.5q2.661-.811,5.32-1.618c.263-.08.57.257.385.5q-1.955,2.547-3.908,5.1l-.465-.465,5.118-2.632c.389-.2.733.387.342.587Z" transform="translate(-208.3 -227.368)" fill="#9ab9dc"/>
    </g>
    <g id="Group_908" data-name="Group 908" transform="translate(3.662 14.46)">
      <path id="Path_2989" data-name="Path 2989" d="M218.64,230.869a9.216,9.216,0,0,1,4.324,6.874,8.781,8.781,0,0,1-.068,2.4c-.07.43-.726.247-.656-.181a8.527,8.527,0,0,0-3.945-8.506.341.341,0,0,1,.344-.587Z" transform="translate(-218.133 -230.819)" fill="#9ab9dc"/>
    </g>
  </g>
  <g id="Group_914" data-name="Group 914" transform="translate(95.127 216.128)">
    <path id="Path_2990" data-name="Path 2990" d="M241.724,210.948c-1.729.842-2.782,3.128-4.694,3.19a7.694,7.694,0,0,1-2.562-.747,5.853,5.853,0,0,0-7.147,3.82c-1.587-.14-5.686,2.85-5.686,2.85l3.772,7.658a5.968,5.968,0,0,1,2.227-.426c.87,1.05-.622,2.41-1.052,3.713a4.9,4.9,0,0,0,.414,3.169c1.533,4.137,2.457,8.567,4.595,12.412,5,8.991,7.538,8.275,9.411,7.012,1.558-1.05,2.138-3.143,2.07-5.052s-.658-3.754-.907-5.647a16.127,16.127,0,0,1,6.205-14.762,29.712,29.712,0,0,0,4.2-3.1c1.206-1.266,1.969-3.215,1.247-4.824-.9-2.009-3.536-2.494-4.9-4.2-1.01-1.262-1.185-3-1.757-4.519s-1.974-3.038-3.521-2.64Z" transform="translate(-221.636 -208.529)" fill="#577293"/>
    <path id="Path_2991" data-name="Path 2991" d="M230.782,208.914q.438,3.519.871,7.034a3.486,3.486,0,0,1-.018,1.412c-.288.969-1.319,1.457-2.239,1.829a1.27,1.27,0,0,1-1.126.082,1.306,1.306,0,0,1-.428-.593q-.376-.826-.722-1.667c-.733-1.8-1.354-3.793-.817-5.661s2.71-3.332,4.388-2.414Z" transform="translate(-207.947 -208.654)"/>
    <g id="Group_910" data-name="Group 910" transform="translate(9.547 8.282)">
      <path id="Path_2992" data-name="Path 2992" d="M223.773,232.15c1.181-1.626,3.315-1.5,5.089-1.268a6.363,6.363,0,0,0,3.32-.132,4.224,4.224,0,0,0,1.926-1.825c1.113-1.912,1.052-4.178,1.305-6.308a12.514,12.514,0,0,1,1.972-5.559,11.8,11.8,0,0,1,4.684-4.108c.393-.189.737.4.342.587a11.435,11.435,0,0,0-6.293,8.866c-.278,2.151-.216,4.385-1.169,6.384a5.622,5.622,0,0,1-1.669,2.1,4.514,4.514,0,0,1-2.863.819c-1.169-.027-2.317-.337-3.488-.3a3.185,3.185,0,0,0-2.57,1.085c-.255.35-.846.012-.587-.344Z" transform="translate(-223.709 -212.912)" fill="#9ab9dc"/>
    </g>
    <g id="Group_911" data-name="Group 911" transform="translate(6.54 9.235)">
      <path id="Path_2993" data-name="Path 2993" d="M229.191,213.729q.166,4.686.568,9.36a33.871,33.871,0,0,0,1.255,7.789,48.57,48.57,0,0,0,4.392,9.425,56.133,56.133,0,0,0,5.563,7.791c.282.333-.2.815-.48.48a56.25,56.25,0,0,1-8.351-13.041c-.619-1.352-1.185-2.731-1.667-4.139a30.01,30.01,0,0,1-1.276-7.018q-.5-5.31-.683-10.646c-.016-.438.665-.436.679,0Z" transform="translate(-228.512 -213.402)" fill="#9ab9dc"/>
    </g>
    <g id="Group_912" data-name="Group 912" transform="translate(16.671 16.828)">
      <path id="Path_2994" data-name="Path 2994" d="M228.3,230.672q-2.3-1.748-4.6-3.494a.343.343,0,0,1,.263-.622l6.205,1.278-.331.568q-1.9-2.069-3.807-4.136a.343.343,0,0,1,.331-.568l6.707,1.354-.331.568q-2.743-2.2-5.38-4.523c-.272-.239.021-.634.331-.568l7.689,1.634-.261.621q-3.633-2.416-7.263-4.834c-.362-.243-.021-.831.344-.587l7.261,4.834a.342.342,0,0,1-.263.622l-7.689-1.634.331-.568q2.638,2.323,5.381,4.523c.29.23-.033.628-.331.568l-6.705-1.354.331-.568,3.8,4.136a.343.343,0,0,1-.331.568l-6.205-1.278.263-.621q2.3,1.748,4.6,3.494c.342.261,0,.852-.344.587Z" transform="translate(-223.545 -217.305)" fill="#9ab9dc"/>
    </g>
    <g id="Group_913" data-name="Group 913" transform="translate(8.134 6.966)">
      <path id="Path_2995" data-name="Path 2995" d="M237.048,212.562a6.39,6.39,0,0,1-1.01,3.361,6.233,6.233,0,0,1-2.492,1.978,16.615,16.615,0,0,1-2.064.784c-.418.13-.6-.525-.181-.658a8.942,8.942,0,0,0,3.643-1.863,5.27,5.27,0,0,0,1.422-3.6c.023-.434.7-.438.681,0Z" transform="translate(-231.065 -212.235)" fill="#9ab9dc"/>
    </g>
  </g>
  <path id="Path_2996" data-name="Path 2996" d="M200.826,124.679c4.348,4.449,8.549,9.143,11.572,14.624s4.811,11.852,4.011,18.092c-.3,2.309-.938,4.562-1.264,6.869-.547,3.834-.216,7.732-.1,11.605a105.966,105.966,0,0,1-1.508,21.355c-1.366,7.876-3.634,15.785-2.714,23.726a26.66,26.66,0,0,0,9.514,3.741,255.472,255.472,0,0,1,.416-35.45,61.349,61.349,0,0,0,.329-10.259c-.228-2.647-.842-5.248-1.1-7.892-.368-3.8.012-7.639.052-11.461.105-9.46-2.05-19.289-7.929-26.589-3.365-4.18-7.837-7.409-10.7-11.969q-1.153.878-2.307,1.753Z" transform="translate(-49.791 -75.312)" fill="#f59f18"/>
  <path id="Path_2997" data-name="Path 2997" d="M247.357,167.547q7.642,25.032,15.282,50.064a20.037,20.037,0,0,1,1.247,6.942c-.282,4.737-3.793,8.54-7.215,11.741a171.752,171.752,0,0,1-46.277,30.962,2.64,2.64,0,0,1-1.852.335,2.737,2.737,0,0,1-1.27-1.194L194,246.929q21.405-15.339,41.861-32.014a272.727,272.727,0,0,0-16.18-26.443,49.945,49.945,0,0,0,11.506-10.043Z" transform="translate(-82.564 -31.382)" fill="#663b14"/>
  <path id="Path_2998" data-name="Path 2998" d="M208.518,163.7c-5.225,7.02-7.026,16.245-6.454,25.051s3.332,17.3,6.487,25.515a51.147,51.147,0,0,1,3.33,10.769c.906,6.182-.685,12.418-1.8,18.563a123.77,123.77,0,0,0-.21,42.929,45.475,45.475,0,0,0,24.516-.488,472.316,472.316,0,0,0,10.269-75.212c.214-3.881.379-7.765.461-11.65a88.662,88.662,0,0,1,.463-9.294c.982-7.728,3.906-12.064,5.425-19.7-13.683-3.023-27.266-7.415-41.264-7.386Z" transform="translate(-85.15 -35.876)" fill="#b7772f"/>
  <g id="Group_923" data-name="Group 923" transform="translate(133.679)">
    <path id="Path_2999" data-name="Path 2999" d="M217.54,121.326c.117,1.21-1.262,2.052-2.449,2.019a4.147,4.147,0,0,1-3.562-2.377,2.266,2.266,0,0,0,1.978-1.7,2.332,2.332,0,0,0-.975-2.451l7.633-1.912Z" transform="translate(-206.6 -81.142)" fill="#663b14"/>
    <path id="Path_3000" data-name="Path 3000" d="M225.412,102.609c.986,4.651,4.729,25.482,5.036,29.011a5.728,5.728,0,0,1-.434,3.492c-1.5,2.455-10.01,2.492-10.01,2.492s-2,10.827-3.534,14.648a49.339,49.339,0,0,0-13.27-6.384q1.935-8.485,4.445-16.82a3.755,3.755,0,0,1-5.3-1.06,4.7,4.7,0,0,1,.823-5.666c1.478-1.418,1.739-1.743,3.632-1.006q-.712-7.843-1.422-15.686Z" transform="translate(-197.903 -92.763)" fill="#fed5b7"/>
    <g id="Group_915" data-name="Group 915" transform="translate(6.685 30.976)">
      <path id="Path_3001" data-name="Path 3001" d="M216.112,116.5a10.591,10.591,0,0,0-2.595-2.395.34.34,0,1,1,.342-.587,11.083,11.083,0,0,1,2.733,2.5.35.35,0,0,1,0,.48.34.34,0,0,1-.48,0Z" transform="translate(-213.35 -113.471)" fill="#7f4924"/>
    </g>
    <g id="Group_916" data-name="Group 916" transform="translate(7.461 32.986)">
      <path id="Path_3002" data-name="Path 3002" d="M215.336,115.137l-1.045.646a.343.343,0,0,1-.465-.123.348.348,0,0,1,.123-.465l1.045-.646a.343.343,0,0,1,.465.123.347.347,0,0,1-.123.465Z" transform="translate(-213.784 -114.505)" fill="#7f4924"/>
    </g>
    <path id="Path_3003" data-name="Path 3003" d="M214.959,121.856l-7.818-2.586,7.121,5.862Z" transform="translate(-192.857 -77.014)" fill="#7f4924" opacity="0.61"/>
    <g id="Group_917" data-name="Group 917" transform="translate(20.695 33.096)">
      <path id="Path_3004" data-name="Path 3004" d="M209.537,115.989a2.954,2.954,0,0,1-3.569-.916.342.342,0,0,1,.123-.465.348.348,0,0,1,.465.123,2.257,2.257,0,0,0,2.64.671.351.351,0,0,1,.465.123.343.343,0,0,1-.123.465Z" transform="translate(-205.918 -114.561)" fill="#7f4924"/>
    </g>
    <path id="Path_3005" data-name="Path 3005" d="M209.6,111.8c.064.823.527,1.457,1.035,1.414s.868-.741.8-1.564-.527-1.457-1.035-1.414S209.54,110.976,209.6,111.8Z" transform="translate(-194.127 -85.556)"/>
    <path id="Path_3006" data-name="Path 3006" d="M215.289,108.376a.946.946,0,0,1-.422,1.628,2.07,2.07,0,0,1-.831-.2,5.122,5.122,0,0,0-4.406.453,5.473,5.473,0,0,1,3.225-3.126c.982-.342,2.408-.123,2.572.928Z" transform="translate(-198.35 -88.632)"/>
    <path id="Path_3007" data-name="Path 3007" d="M205.89,110.982c.062.823-.3,1.523-.805,1.564s-.971-.593-1.033-1.416.3-1.523.8-1.564S205.826,110.159,205.89,110.982Z" transform="translate(-177.772 -86.189)"/>
    <path id="Path_3008" data-name="Path 3008" d="M203.1,107.62a.947.947,0,0,0,.422,1.63,2.055,2.055,0,0,0,.829-.2,5.126,5.126,0,0,1,4.408.453,5.476,5.476,0,0,0-3.227-3.126c-.982-.342-2.408-.121-2.57.928Z" transform="translate(-178.186 -89.345)"/>
    <g id="Group_921" data-name="Group 921" transform="translate(5.422 20.114)">
      <g id="Group_918" data-name="Group 918">
        <path id="Path_3009" data-name="Path 3009" d="M206.663,111.091a.825.825,0,0,1,.247-.451,1.29,1.29,0,0,1,.531-.245,19.708,19.708,0,0,1,8.462-.477,7.868,7.868,0,0,0,3.92.1,9.484,9.484,0,0,0,1.4-.737,10.839,10.839,0,0,1,7.139-1.239.759.759,0,0,1,.529.391l.224.408a1.233,1.233,0,0,1-.029,1.15c-.093.161-.224.3-.323.457a3.113,3.113,0,0,0-.214,1.906,6.152,6.152,0,0,1-.533,3.5,3.759,3.759,0,0,1-3.365,1.879,4.055,4.055,0,0,1-3.289-2.068c-.576-1.023-.854-2.992-1.828-3.675a1.2,1.2,0,0,0-.71-.235c-.621.016-.749,1.189-.9,1.659-.418,1.332-.613,2.824-1.558,3.834a5.765,5.765,0,0,1-3.274,1.786,5.03,5.03,0,0,1-2.848-.473,4.122,4.122,0,0,1-1.659-2.083,20.847,20.847,0,0,1-1.251-3.556.567.567,0,0,0-.171-.338,1.935,1.935,0,0,0-.259-.115q-2.7,1.7-5.392,3.394C200.762,116.343,203.777,112.736,206.663,111.091Zm19.437,5.174a2.2,2.2,0,0,0,1.089-.685,2.661,2.661,0,0,0,.366-1.111,11.623,11.623,0,0,0,0-3.579,1.869,1.869,0,0,0-.706-1.41,2.046,2.046,0,0,0-.761-.091c-1.755-.208-2.885.391-4.281.813-.514.156-.613.368-.955.833S222.727,117.6,226.1,116.265Zm-17.373-3.2a10.253,10.253,0,0,0,1,3.439,2.525,2.525,0,0,0,.718.959,2.335,2.335,0,0,0,1.393.338,4.9,4.9,0,0,0,3.669-1.437c.2-.249,2.006-3.7,1.2-4.723-.7-.891-5.151-.763-6.783-.451a1.726,1.726,0,0,0-.815.311A1.763,1.763,0,0,0,208.727,113.069Z" transform="translate(-201.4 -107.887)" fill="#9ab9dc"/>
      </g>
      <g id="Group_919" data-name="Group 919" transform="translate(7.185 2.768)" opacity="0.65">
        <path id="Path_3010" data-name="Path 3010" d="M214.7,114.924a5.086,5.086,0,0,1-3.807,1.49,2.419,2.419,0,0,1-1.445-.35,2.591,2.591,0,0,1-.743-1,10.616,10.616,0,0,1-1.041-3.569,1.406,1.406,0,0,1,1.247-1.945c1.694-.323,6.316-.457,7.04.469C216.785,111.088,214.913,114.665,214.7,114.924Z" transform="translate(-207.64 -109.31)"/>
      </g>
      <g id="Group_920" data-name="Group 920" transform="translate(19.355 1.299)" opacity="0.65">
        <path id="Path_3011" data-name="Path 3011" d="M207.583,115.735a2.27,2.27,0,0,0,1.128-.71,2.763,2.763,0,0,0,.381-1.154,12.128,12.128,0,0,0,0-3.713,1.945,1.945,0,0,0-.735-1.465,2.11,2.11,0,0,0-.79-.093c-1.819-.216-2.992.4-4.441.842-.535.161-.636.381-.992.866S204.081,117.122,207.583,115.735Z" transform="translate(-202.096 -108.555)"/>
      </g>
    </g>
    <g id="Group_922" data-name="Group 922" transform="translate(22.759 25.303)">
      <path id="Path_3012" data-name="Path 3012" d="M207.109,110.792a17.682,17.682,0,0,1,.731,6.725c-.016.195-.208.418-.43.329q-.773-.318-1.546-.632c-.4-.163-.224-.823.181-.657q.773.318,1.546.632l-.43.329a17.164,17.164,0,0,0-.708-6.544c-.13-.418.525-.6.656-.181Z" transform="translate(-205.639 -110.555)" fill="#7f4924"/>
    </g>
    <path id="Path_3013" data-name="Path 3013" d="M211.463,128.11q-1.132-8.129-2.066-16.283a14.767,14.767,0,0,0,7.693-.134,1.655,1.655,0,0,0-1.2-1.366,9.828,9.828,0,0,0,7.717.934l-1-1.179a10.183,10.183,0,0,0,8.578-.165,1.967,1.967,0,0,0-1.268-1.381,3.659,3.659,0,0,0,4.836-1.243,17.178,17.178,0,0,0-4.61-1.832,3.688,3.688,0,0,0,2.715-.344,1.857,1.857,0,0,0,.64-2.476,2.732,2.732,0,0,0-2.467-.714l-4.093.216a5.4,5.4,0,0,0,3.153-4.556c-3.824-.453-6.915,3.212-10.673,4.071-2.346.535-4.789-.062-7.192.029s-5.128,1.257-5.672,3.655a3.671,3.671,0,0,0-4.838,1.669c-.692,1.473-.354,3.212,0,4.8l3.863,17.491a4.547,4.547,0,0,1,2.525-2.457,2.089,2.089,0,0,1,2.679,1.636.6.6,0,0,0,.774-.607Z" transform="translate(-201.313 -97.547)" fill="#663b14"/>
  </g>
  <path id="Path_3014" data-name="Path 3014" d="M216.588,124.692c2.3,1.309,6.339,2.523,7.246-.01,5.141,5.095,9.736,8,11.973,14.959,1.434,4.455,1.486,9.232,1.5,13.92q.073,23.561-.679,47.115c-.062,1.937-.16,3.982-1.181,5.616-1.953,3.122-6.258,3.387-9.864,3.068a81.067,81.067,0,0,1-24.6-6.178,327.982,327.982,0,0,0,5.063-35.152c1.148-12.86,1.523-25.947-1.136-38.57l10.382-2.99Z" transform="translate(-69.547 -71.899)" fill="#9ab9dc"/>
  <path id="Path_3015" data-name="Path 3015" d="M261.976,120.3l-6.585-.562c-4.381-.372-8.95-.722-13.043.811s-7.509,5.563-6.643,9.664c.58,2.745,2.961,4.927,5.7,5.97a19.29,19.29,0,0,0,8.709.811,40.156,40.156,0,0,0,9.57-2.126,8.287,8.287,0,0,0,4.3-2.766,8.13,8.13,0,0,0,1.062-3.591,13.336,13.336,0,0,0-.047-5.054,5.228,5.228,0,0,0-3.274-3.745Z" transform="translate(-164.782 -76.877)" fill="#87c3a9"/>
  <path id="Path_3016" data-name="Path 3016" d="M267.009,122.626l-2.75-.033c-.16-3-3.852-4.279-6.783-4.184a22.386,22.386,0,0,0-17.39,9.58c-1.408,2.039-2.539,4.375-4.513,5.843-3.009,2.241-7.355,1.988-10.2,4.443-3.033,2.614-3.256,7.234-3.186,11.29q.368,21.437,2.731,42.775c.488,4.41,1.089,8.962,3.334,12.757a18.551,18.551,0,0,0,12.535,8.409,27.623,27.623,0,0,0,15.142-1.811,17.92,17.92,0,0,0,7.724-5.207c3.289-4.172,3.455-10,3.365-15.365-.368-21.946-2.461-44.149,1.72-65.678a3.643,3.643,0,0,0-.241-2.9c-.6-.79-2.251-.455-2.093.535Z" transform="translate(-142.379 -77.833)" fill="#577293"/>
  <path id="Path_3017" data-name="Path 3017" d="M226.685,123.571q5.164-2.938,10.594-5.349a29.621,29.621,0,0,1,9.611-2.871c4.8-.368,9.541,1.344,13.838,3.573a7.94,7.94,0,0,1,3.276,2.6,3.1,3.1,0,0,1-.323,3.908,22.516,22.516,0,0,0-21.294,5.5c-.774-3.338-3.82-5.725-7.049-6.645s-6.653-.638-9.993-.35Z" transform="translate(-144.167 -80.766)" fill="#577293"/>
  <g id="Group_924" data-name="Group 924" transform="translate(71.796 45.392)">
    <path id="Path_3018" data-name="Path 3018" d="M243.633,127.665a9.3,9.3,0,0,1,2.9-5.106,6.759,6.759,0,0,1,5.519-1.583,5.437,5.437,0,0,1,4.058,3.227,6.029,6.029,0,0,1,0,4.935,5.3,5.3,0,0,1-4.25,2.957,4.226,4.226,0,0,1-4.128-2.363,3.855,3.855,0,0,1,.57-4.56,3.808,3.808,0,0,1,4.2-.652,2.857,2.857,0,0,1,1.523,2.046,2.3,2.3,0,0,1-1.276,2.342,2.45,2.45,0,0,1-2.5.029,1.28,1.28,0,0,1-.084-2.052.921.921,0,0,1,1.066-.115c.383.212.041.8-.342.587-.216-.119-.414.148-.486.327a.582.582,0,0,0,.309.743,1.948,1.948,0,0,0,2.035-.327,1.577,1.577,0,0,0,.35-2.124,2.339,2.339,0,0,0-1.488-1.066,3.122,3.122,0,0,0-3.219,1.2,3.432,3.432,0,0,0,.233,3.783,3.522,3.522,0,0,0,3.688,1.451,4.641,4.641,0,0,0,3.3-2.745,5.394,5.394,0,0,0-.1-4.089,4.782,4.782,0,0,0-3.25-2.8,5.952,5.952,0,0,0-4.766.955,8.051,8.051,0,0,0-2.873,3.986,10.509,10.509,0,0,0-.331,1.192c-.093.428-.749.247-.655-.181Z" transform="translate(-243.624 -120.882)" fill="#32664e"/>
  </g>
  <path id="Path_3019" data-name="Path 3019" d="M233.637,125.761c-5.425,5.814-8.715,13.451-10.44,21.3s-1.974,15.947-1.974,23.987c0,8.2.294,16.608,3.249,24.235a3.064,3.064,0,0,0,1.249,1.751c1.475.749,2.9-1.082,3.546-2.634,3.251-7.863,5.114-16.241,6.964-24.566q4.231-19.056,8.464-38.113Z" transform="translate(-116.306 -70.879)" fill="#32485e"/>
  <path id="Path_3020" data-name="Path 3020" d="M237.327,148.821c-6.289,11.557-8.306,24.693-10.232,37.556-1.124,7.5-2.282,17.194-3.406,24.7h0a32.385,32.385,0,0,1,6.1-6.12.817.817,0,0,1,1.268.6c.408,3.284.3,8.049,2.076,7.812,1.725-.716,2.525-2.634,2.669-4.406s-.191-3.568.074-5.328c.529-3.542,3.429-6.946,2.21-10.333-.6-1.667-2.134-2.961-2.542-4.678-.48-2.015.694-4.017,1.825-5.785,5.818-9.119,11.689-18.579,13.336-29.108a3.8,3.8,0,0,0-.2-2.476,4.152,4.152,0,0,0-2.531-1.593,27.245,27.245,0,0,0-11.1-1Z" transform="translate(-127.032 -49.407)" fill="#fed5b7"/>
  <path id="Path_3021" data-name="Path 3021" d="M217.1,130.885a15.067,15.067,0,0,1,1.665-1.488c2.661-1.976,5.83-3.169,8.736-4.781,3.972-2.2,5.736-2.9,8.545-6.522,5.382,2.815,11.383,5.517,13.309,11.38.986,3,1.383,6.174,2.235,9.218,1.152,4.114,3.122,7.95,4.26,12.068a50.424,50.424,0,0,1,1.484,12.665c.348,22.16-4.993,44-11.512,65.134-5.073-.7-9.621-3.488-14.513-5.03-7.273-2.293-15.5-1.92-21.884-6.162a54.576,54.576,0,0,0,5.39-20.732,17.058,17.058,0,0,0-1.126-8.289c-1.206-2.537-5.795-5.855-8.538-5.585.656-3.309,1.817-4.279,2.47-7.588.195-.975,1.885-3.031,1.712-4.011-.282-1.6-1.508-2.953-1.519-4.573-.017-2.231,2.231-3.863,2.562-6.069a9.235,9.235,0,0,0-.453-3.392c-2-8.635,2.151-17.381,6.176-25.239Z" transform="translate(-97.715 -78.127)" fill="#f59f18"/>
  <path id="Path_3022" data-name="Path 3022" d="M212.085,126.77c3.949-2.97,9.563-4.877,13.626-2.074,3.593,2.48,4.388,7.567,4.031,11.988-.9,11.068-6.832,21.2-7.8,32.265a33.249,33.249,0,0,0,15.678-27.138,24.852,24.852,0,0,0-2.459-12.008,16.012,16.012,0,0,0-8.864-8c-3.624-1.208-7.616-2.445-12.784-.835-1.064,1.57-.545,3.922-1.36,5.641Z" transform="translate(-91.47 -76.132)" fill="#577293"/>
  <g id="Group_925" data-name="Group 925" transform="translate(125.408 245.87)">
    <path id="Path_3023" data-name="Path 3023" d="M233.971,224.611a50.164,50.164,0,0,1-23.1.407c-.426-.093-.245-.749.181-.656a49.4,49.4,0,0,0,17.8.591,48.891,48.891,0,0,0,4.933-1,.34.34,0,0,1,.181.656Z" transform="translate(-210.633 -223.944)" fill="#663b14"/>
  </g>
  <g id="Group_926" data-name="Group 926" transform="translate(128.657 189.261)">
    <path id="Path_3024" data-name="Path 3024" d="M223.873,196.092a27.577,27.577,0,0,0-5.859-.568.341.341,0,0,1,0-.681,28.5,28.5,0,0,1,6.04.593c.428.089.247.745-.181.656Z" transform="translate(-217.685 -194.842)" fill="#663b14"/>
  </g>
  <g id="Group_927" data-name="Group 927" transform="translate(129.575 191.635)">
    <path id="Path_3025" data-name="Path 3025" d="M222.165,196.742h-3.213a.34.34,0,0,1,0-.679h3.213a.34.34,0,0,1,0,.679Z" transform="translate(-218.623 -196.063)" fill="#663b14"/>
  </g>
  <g id="Group_928" data-name="Group 928" transform="translate(157.525 145.627)">
    <path id="Path_3026" data-name="Path 3026" d="M204.789,172.518a13.006,13.006,0,0,1,3.373,8.189c.019.438-.661.436-.681,0A12.251,12.251,0,0,0,204.307,173c-.294-.323.185-.805.482-.482Z" transform="translate(-204.215 -172.411)" fill="#663b14"/>
  </g>
  <g id="Group_929" data-name="Group 929" transform="translate(124.076 204.667)">
    <path id="Path_3027" data-name="Path 3027" d="M215.576,202.763l13.91.685,3.959.2a.343.343,0,0,1,.34.34q-.945,9.042-1.889,18.087-.236,2.252-.471,4.507-.12,1.155-.241,2.311a8.044,8.044,0,0,1-.274,1.893,1.364,1.364,0,0,1-1.245.945,16.394,16.394,0,0,1-2.159-.107q-2.258-.137-4.519-.27l-10.166-.611c-.434-.025-.438-.706,0-.679l8.812.527,4.4.265,2.2.132c.352.021.7.047,1.052.062a.972.972,0,0,0,.823-.2,3.062,3.062,0,0,0,.354-1.617q.12-1.129.235-2.255.23-2.2.459-4.4.458-4.365.912-8.732.516-4.931,1.029-9.86c.115.113.228.226.34.339l-13.91-.685-3.959-.195c-.436-.021-.44-.7,0-.681Z" transform="translate(-212.494 -202.763)" fill="#663b14"/>
  </g>
  <g id="Group_930" data-name="Group 930" transform="translate(123.532 206.903)">
    <path id="Path_3028" data-name="Path 3028" d="M233.732,204.542c-5.017,2.675-10.481,5.491-16.352,4.509a11.707,11.707,0,0,1-4.274-1.589c-.372-.232-.029-.821.342-.587a12.465,12.465,0,0,0,7.509,1.659,23.179,23.179,0,0,0,8.036-2.338c1.49-.693,2.943-1.467,4.394-2.241.387-.206.731.381.344.587Z" transform="translate(-212.947 -203.912)" fill="#663b14"/>
  </g>
  <g id="Group_931" data-name="Group 931" transform="translate(123.619 214.726)">
    <path id="Path_3029" data-name="Path 3029" d="M231.745,225.85q-3.554-6.778-7.106-13.556l-2.019-3.852h.587c-2.2,3.241-4.406,6.472-6.326,9.888-.613,1.091-1.2,2.192-1.782,3.3-.2.387-.79.043-.587-.344a106.914,106.914,0,0,1,6.009-10.086q1.045-1.555,2.1-3.1a.343.343,0,0,1,.587,0l7.106,13.554,2.019,3.851c.2.387-.383.731-.587.344Z" transform="translate(-214.471 -207.934)" fill="#663b14"/>
  </g>
  <g id="Group_932" data-name="Group 932" transform="translate(117.644 144.725)">
    <path id="Path_3030" data-name="Path 3030" d="M222.16,172.341a20.584,20.584,0,0,1,8.9.2.344.344,0,0,1,.249.329q-.487,6.1-.519,12.222-.009,1.739.019,3.48a.352.352,0,0,1-.249.327q-3.242,1.345-6.483,2.686c-.4.167-.58-.49-.181-.656l6.483-2.686-.251.329q-.1-6.119.259-12.232.1-1.736.241-3.47l.251.327a19.773,19.773,0,0,0-8.541-.195c-.428.084-.611-.572-.181-.658Z" transform="translate(-221.915 -171.947)" fill="#663b14"/>
  </g>
  <g id="Group_933" data-name="Group 933" transform="translate(116.75 148.032)">
    <path id="Path_3031" data-name="Path 3031" d="M230.885,174.666a17.6,17.6,0,0,0-7.6.154c-.426.1-.607-.552-.181-.656a18.377,18.377,0,0,1,7.96-.154c.43.086.247.741-.181.656Z" transform="translate(-222.863 -173.648)" fill="#663b14"/>
  </g>
  <g id="Group_934" data-name="Group 934" transform="translate(120.004 93.394)">
    <path id="Path_3032" data-name="Path 3032" d="M231.056,145.975a127.694,127.694,0,0,1-7.95,18.641q-1.342,2.559-2.8,5.052a.34.34,0,0,1-.587-.342,126.321,126.321,0,0,0,8.753-18.182q1.024-2.652,1.928-5.349c.138-.414.8-.235.656.181Z" transform="translate(-219.67 -145.559)" fill="#b77115"/>
  </g>
  <path id="Path_3033" data-name="Path 3033" d="M241.281,163.149a31.022,31.022,0,0,0-5.334-8.783c-2.365-2.478-6.515-6.174-9.872-5.731-.467,2.167-1.778,5.423-2.247,7.59,2.453-.167,6.1,2.821,7.415,4.945a25.964,25.964,0,0,1,3.764,11.4,33.282,33.282,0,0,0,6.24-10.107Z" transform="translate(-117.96 -49.292)" fill="#b77115"/>
  <g id="Group_935" data-name="Group 935" transform="translate(112.594 81.217)">
    <path id="Path_3034" data-name="Path 3034" d="M225.96,139.336l6.894,3.266c.395.187.051.774-.344.587q-3.446-1.634-6.892-3.266c-.4-.189-.051-.774.342-.587Z" transform="translate(-225.442 -139.299)" fill="#b77115"/>
  </g>
  <g id="Group_936" data-name="Group 936" transform="translate(112.385 82.107)">
    <path id="Path_3035" data-name="Path 3035" d="M226.64,139.763c2.266.395,3.966,2.159,5.725,3.492.346.263.008.852-.342.587-1.708-1.292-3.367-3.04-5.563-3.424-.432-.076-.249-.731.181-.656Z" transform="translate(-226.213 -139.757)" fill="#b77115"/>
  </g>
  <g id="Group_937" data-name="Group 937" transform="translate(113.52 92.988)">
    <path id="Path_3036" data-name="Path 3036" d="M226.1,145.377q2.772,1.123,5.546,2.245c.4.163.226.821-.181.656q-2.772-1.12-5.546-2.245c-.4-.161-.226-.819.181-.656Z" transform="translate(-225.69 -145.351)" fill="#b77115"/>
  </g>
  <g id="Group_938" data-name="Group 938" transform="translate(115.777 96.319)">
    <path id="Path_3037" data-name="Path 3037" d="M226.922,147.106l1.84.928a.342.342,0,0,1,.123.465.348.348,0,0,1-.465.123l-1.842-.928a.341.341,0,0,1-.121-.465.347.347,0,0,1,.465-.123Z" transform="translate(-226.41 -147.063)" fill="#b77115"/>
  </g>
  <g id="Group_939" data-name="Group 939" transform="translate(131.761 61.995)">
    <path id="Path_3038" data-name="Path 3038" d="M220.5,129.745a33.077,33.077,0,0,1-1.478,12.272c-.132.416-.79.237-.656-.181a32.515,32.515,0,0,0,1.453-12.091c-.029-.438.652-.436.681,0Z" transform="translate(-218.343 -129.418)" fill="#b77115"/>
  </g>
  <g id="Group_940" data-name="Group 940" transform="translate(129.132 75.127)">
    <path id="Path_3039" data-name="Path 3039" d="M220.864,136.335a5.962,5.962,0,0,1,.453,3.556.342.342,0,0,1-.418.237.349.349,0,0,1-.239-.418,5.145,5.145,0,0,0-.383-3.033.351.351,0,0,1,.123-.465.341.341,0,0,1,.465.123Z" transform="translate(-220.236 -136.168)" fill="#b77115"/>
  </g>
  <g id="Group_941" data-name="Group 941" transform="translate(121.681 63.396)">
    <path id="Path_3040" data-name="Path 3040" d="M225.285,130.478q-.292,2.34-.584,4.682a.354.354,0,0,1-.34.34.345.345,0,0,1-.34-.34q.292-2.343.584-4.682a.353.353,0,0,1,.34-.34.342.342,0,0,1,.34.34Z" transform="translate(-224.019 -130.138)" fill="#b77115"/>
  </g>
  <g id="Group_942" data-name="Group 942" transform="translate(118.073 70.925)">
    <path id="Path_3041" data-name="Path 3041" d="M226.583,134.243a10.336,10.336,0,0,1,.473,4.314.348.348,0,0,1-.338.34.343.343,0,0,1-.34-.34,9.862,9.862,0,0,0-.449-4.134c-.138-.416.519-.593.656-.181Z" transform="translate(-225.908 -134.009)" fill="#b77115"/>
  </g>
  <g id="Group_943" data-name="Group 943" transform="translate(117.921 136.535)">
    <path id="Path_3042" data-name="Path 3042" d="M240.127,179.134a36.33,36.33,0,0,0-10.156-6,72.977,72.977,0,0,0-11.428-3.381c-2.2-.488-4.414-.922-6.627-1.348-.43-.084-.247-.739.181-.656,3.974.766,7.952,1.552,11.85,2.645a50.915,50.915,0,0,1,11.142,4.423,33.888,33.888,0,0,1,5.519,3.84c.333.284-.15.764-.48.48Z" transform="translate(-211.67 -167.737)" fill="#b77115"/>
  </g>
  <g id="Group_944" data-name="Group 944" transform="translate(135.055 43.694)">
    <path id="Path_3043" data-name="Path 3043" d="M225.595,133.221a61.4,61.4,0,0,0-12.488-10.3q-1.955-1.217-4-2.282c-.389-.2-.045-.792.342-.587a61.711,61.711,0,0,1,13.346,9.417q1.7,1.576,3.278,3.272c.3.319-.183.8-.481.48Z" transform="translate(-208.938 -120.009)" fill="#b77115"/>
  </g>
  <g id="Group_945" data-name="Group 945" transform="translate(139.214 71.015)">
    <path id="Path_3044" data-name="Path 3044" d="M216.7,134.057a50.772,50.772,0,0,1,5.458.908.339.339,0,0,1,.249.329q-.858,6.594-1.718,13.187l-.858,6.565c-.107.825-.13,1.844-.858,2.393a2.134,2.134,0,0,1-1.153.368c-.516.041-1.039.025-1.554.033q-3.717.05-7.433.1a.341.341,0,0,1,0-.681l6.363-.088,1.578-.023a6.79,6.79,0,0,0,1.334-.064c.941-.2.943-1.26,1.045-2.041l1.646-12.624q.464-3.566.93-7.127l.249.329a48.418,48.418,0,0,0-5.277-.885c-.43-.049-.436-.729,0-.681Z" transform="translate(-208.51 -134.055)" fill="#b77115"/>
  </g>
  <g id="Group_946" data-name="Group 946" transform="translate(142.82 72.442)">
    <path id="Path_3045" data-name="Path 3045" d="M218.263,135.424a79.64,79.64,0,0,0-8.839,5.91.345.345,0,0,1-.467-.121.353.353,0,0,1,.123-.467,80.008,80.008,0,0,1,8.839-5.91.341.341,0,0,1,.344.587Z" transform="translate(-208.911 -134.788)" fill="#b77115"/>
  </g>
  <g id="Group_947" data-name="Group 947" transform="translate(151.602 111.28)">
    <path id="Path_3046" data-name="Path 3046" d="M210.366,156.318a4.236,4.236,0,0,0-2.5-.883.341.341,0,0,1,0-.681,5,5,0,0,1,2.98,1.084.342.342,0,0,1,0,.48.35.35,0,0,1-.48,0Z" transform="translate(-207.537 -154.754)" fill="#b77115"/>
  </g>
  <g id="Group_948" data-name="Group 948" transform="translate(152.973 100.011)">
    <path id="Path_3047" data-name="Path 3047" d="M209.618,150.463l-2.332-.831a.349.349,0,0,1-.237-.418.343.343,0,0,1,.418-.237q1.167.414,2.332.831a.35.35,0,0,1,.237.418.343.343,0,0,1-.418.237Z" transform="translate(-207.036 -148.961)" fill="#b77115"/>
  </g>
  <g id="Group_949" data-name="Group 949" transform="translate(155.275 89.165)">
    <path id="Path_3048" data-name="Path 3048" d="M208.633,144.575l-2.743-.527a.341.341,0,0,1-.237-.418.348.348,0,0,1,.418-.237l2.743.527a.341.341,0,0,1,.237.418.347.347,0,0,1-.418.237Z" transform="translate(-205.642 -143.385)" fill="#b77115"/>
  </g>
  <g id="Group_950" data-name="Group 950" transform="translate(147.937 128.659)">
    <path id="Path_3049" data-name="Path 3049" d="M212.329,165.728l-2.752-1.41a.345.345,0,0,1-.123-.465.349.349,0,0,1,.467-.123q1.374.706,2.752,1.41a.34.34,0,1,1-.344.587Z" transform="translate(-209.411 -163.688)" fill="#b77115"/>
  </g>
  <g id="Group_951" data-name="Group 951" transform="translate(146.522 137.17)">
    <path id="Path_3050" data-name="Path 3050" d="M213.1,169.138a2.989,2.989,0,0,1-2.566-.438.351.351,0,0,1-.123-.467.342.342,0,0,1,.465-.121,2.284,2.284,0,0,0,1.008.432c.014,0,.123.019.074.014.049.006.1.01.146.014.1.006.2.006.294,0a2.016,2.016,0,0,0,.521-.091.34.34,0,1,1,.181.656Z" transform="translate(-210.366 -168.063)" fill="#b77115"/>
  </g>
  <g id="Group_952" data-name="Group 952" transform="translate(136.03 97.646)">
    <path id="Path_3051" data-name="Path 3051" d="M212.388,147.858q3.884,4.6,7.771,9.2,1.112,1.319,2.225,2.634c.28.333-.2.817-.482.48l-7.769-9.2q-1.115-1.316-2.227-2.634c-.28-.333.2-.815.482-.48Z" transform="translate(-211.82 -147.745)" fill="#b77115"/>
  </g>
  <g id="Group_953" data-name="Group 953" transform="translate(137.799 105.69)">
    <path id="Path_3052" data-name="Path 3052" d="M211.784,152q3.65,4.485,7.3,8.971,1.05,1.29,2.1,2.581c.274.337-.2.821-.48.482l-7.3-8.973-2.1-2.581c-.274-.336.2-.821.481-.48Z" transform="translate(-211.222 -151.88)" fill="#b77115"/>
  </g>
  <g id="Group_954" data-name="Group 954" transform="translate(130.5 105.192)">
    <path id="Path_3053" data-name="Path 3053" d="M212.885,151.771q5.41,7.373,11.306,14.371,1.646,1.952,3.328,3.873c.286.329-.193.811-.482.48q-6.04-6.9-11.611-14.2-1.584-2.075-3.128-4.18c-.259-.354.331-.694.587-.344Z" transform="translate(-212.234 -151.624)" fill="#b77115"/>
  </g>
  <g id="Group_955" data-name="Group 955" transform="translate(125.465 115.506)">
    <path id="Path_3054" data-name="Path 3054" d="M216.885,157.044l9.2,11.415q1.307,1.622,2.616,3.249c.272.337-.206.821-.48.48l-9.2-11.415q-1.307-1.625-2.616-3.249c-.272-.338.206-.823.48-.48Z" transform="translate(-216.323 -156.927)" fill="#b77115"/>
  </g>
  <g id="Group_956" data-name="Group 956" transform="translate(122.763 123.473)">
    <path id="Path_3055" data-name="Path 3055" d="M220.652,161.191a67.266,67.266,0,0,0,7.25,10.745c.276.337-.2.819-.48.482a68.174,68.174,0,0,1-7.357-10.885c-.208-.383.379-.728.587-.342Z" transform="translate(-220.02 -161.022)" fill="#b77115"/>
  </g>
  <g id="Group_957" data-name="Group 957" transform="translate(120.38 131.997)">
    <path id="Path_3056" data-name="Path 3056" d="M224.549,165.444a4.1,4.1,0,0,1,1.982,1.976.348.348,0,0,1-.123.465.344.344,0,0,1-.465-.121,3.723,3.723,0,0,0-.333-.58c-.047-.066-.1-.138-.076-.105a4.208,4.208,0,0,0-.307-.344c-.074-.074-.152-.146-.233-.214-.122-.1-.169-.132-.216-.165a3.625,3.625,0,0,0-.574-.325.343.343,0,0,1-.123-.465.354.354,0,0,1,.467-.123Z" transform="translate(-224.038 -165.404)" fill="#b77115"/>
  </g>
  <g id="Group_958" data-name="Group 958" transform="translate(133.151 111.835)">
    <path id="Path_3057" data-name="Path 3057" d="M225.6,155.544q-4.9,8.053-10.339,15.766-1.538,2.18-3.118,4.33c-.255.35-.846.01-.585-.342q5.576-7.6,10.633-15.56,1.433-2.255,2.822-4.538c.228-.372.815-.031.587.344Z" transform="translate(-211.496 -155.039)" fill="#b77115"/>
  </g>
  <g id="Group_959" data-name="Group 959" transform="translate(134.598 106.068)">
    <path id="Path_3058" data-name="Path 3058" d="M223.606,152.566q-4.24,5.891-8.481,11.78-1.2,1.675-2.408,3.346c-.253.352-.844.014-.587-.342q4.24-5.891,8.481-11.78,1.2-1.675,2.408-3.346c.253-.352.842-.014.587.342Z" transform="translate(-212.066 -152.075)" fill="#b77115"/>
  </g>
  <g id="Group_960" data-name="Group 960" transform="translate(127.641 101.042)">
    <path id="Path_3059" data-name="Path 3059" d="M227.973,149.979q-5.235,7.029-9.921,14.447-1.331,2.107-2.612,4.243a.34.34,0,0,1-.587-.342q4.517-7.516,9.605-14.669,1.441-2.028,2.928-4.021c.259-.348.85-.01.587.342Z" transform="translate(-214.802 -149.491)" fill="#b77115"/>
  </g>
  <g id="Group_961" data-name="Group 961" transform="translate(120.019 122.074)">
    <path id="Path_3060" data-name="Path 3060" d="M228.854,160.813a83.062,83.062,0,0,1-6.246,9.524c-.261.344-.852.006-.587-.344a83.034,83.034,0,0,0,6.246-9.522.34.34,0,0,1,.587.342Z" transform="translate(-221.954 -160.303)" fill="#b77115"/>
  </g>
  <g id="Group_962" data-name="Group 962" transform="translate(133.71 131.435)">
    <path id="Path_3061" data-name="Path 3061" d="M221.152,165.613a54.358,54.358,0,0,1-4.972,6.269c-.3.323-.778-.16-.48-.48a52.988,52.988,0,0,0,4.865-6.133c.243-.36.833-.019.587.344Z" transform="translate(-215.606 -165.115)" fill="#b77115"/>
  </g>
  <g id="Group_963" data-name="Group 963" transform="translate(130.005 99.542)">
    <path id="Path_3062" data-name="Path 3062" d="M223.326,149.21q-2.728,3.779-5.454,7.557c-.255.35-.844.012-.587-.344l5.454-7.555c.253-.352.844-.012.587.342Z" transform="translate(-217.22 -148.72)" fill="#b77115"/>
  </g>
  <g id="Group_964" data-name="Group 964" transform="translate(124.514 98.134)">
    <path id="Path_3063" data-name="Path 3063" d="M223.932,148.416q-.411,1.424-.821,2.848a.34.34,0,0,1-.656-.181q.409-1.424.821-2.848a.34.34,0,0,1,.656.181Z" transform="translate(-222.44 -147.996)" fill="#b77115"/>
  </g>
  <g id="Group_965" data-name="Group 965" transform="translate(121.832 98.666)">
    <path id="Path_3064" data-name="Path 3064" d="M225.482,148.848q-.677.718-1.352,1.434a.34.34,0,0,1-.482-.48L225,148.368a.34.34,0,0,1,.482.48Z" transform="translate(-223.552 -148.269)" fill="#b77115"/>
  </g>
  <g id="Group_966" data-name="Group 966" transform="translate(135.468 58.985)">
    <path id="Path_3065" data-name="Path 3065" d="M223.126,137.594a1.8,1.8,0,0,1-1.1,1.465,5.592,5.592,0,0,1-1.98.111,18.715,18.715,0,0,1-3.98-.589,15.844,15.844,0,0,1-3.657-1.391,1.928,1.928,0,0,1-1.1-1.509,6.74,6.74,0,0,1,.329-1.994,34.659,34.659,0,0,1,1.15-3.912c.222-.619.409-1.366,1.031-1.7a3.651,3.651,0,0,1,2.015-.125,28.407,28.407,0,0,1,4.241.685,4.48,4.48,0,0,1,2.669,1.776,4.214,4.214,0,0,1,.677,1.566,7.6,7.6,0,0,1,.047,2.027,25.5,25.5,0,0,1-.346,3.591.685.685,0,0,1-.836.475.693.693,0,0,1-.475-.836,7.284,7.284,0,0,0,.13-.977c.051-.517.089-1.037.123-1.556.037-.543.076-1.087.1-1.632a2.9,2.9,0,0,0-.171-1.179A3,3,0,0,0,220.5,130.2a6.261,6.261,0,0,0-1.371-.393q-.884-.193-1.78-.327c-.591-.089-1.187-.152-1.782-.2-.278-.021-.558-.047-.836-.049-.206,0-.261,0-.338.15a10.379,10.379,0,0,0-.55,1.508q-.289.867-.531,1.745-.236.855-.428,1.721c-.06.278-.121.558-.175.84a.756.756,0,0,0,.016.535,1.193,1.193,0,0,0,.373.276c.237.132.486.243.733.354a16.482,16.482,0,0,0,1.564.6,17.154,17.154,0,0,0,3.68.778,17.585,17.585,0,0,0,1.947.076c.189,0,.486.037.638-.084-.056.045.066-.14.053-.109a2.313,2.313,0,0,0,.1-.395.68.68,0,1,1,1.311.362Z" transform="translate(-211.306 -127.87)" fill="#32485e"/>
  </g>
  <g id="Group_967" data-name="Group 967" transform="translate(136.784 61.707)">
    <path id="Path_3066" data-name="Path 3066" d="M221.406,132.8l-9.67-2.2a.68.68,0,1,1,.362-1.311l9.67,2.2a.68.68,0,0,1-.362,1.311Z" transform="translate(-211.239 -129.269)" fill="#32485e"/>
  </g>
  <path id="Path_3067" data-name="Path 3067" d="M237.655,124.075c-1.227-2.97-2.951-6.159-5.972-7.075a5.759,5.759,0,0,0-5.511,1.3,10.051,10.051,0,0,0-2.562,5.6,14.741,14.741,0,0,0-.163,5.528l1.564-.181a.882.882,0,0,0,.422-.124.958.958,0,0,0,.286-.685,21.611,21.611,0,0,1,1.626-5.828c.549-1.255,1.366-2.575,2.677-2.877a3.269,3.269,0,0,1,3.126,1.317,10.069,10.069,0,0,1,1.531,3.262q1.363.012,2.721.025Z" transform="translate(-113.214 -79.38)" fill="#32485e"/>
  <path id="Path_3068" data-name="Path 3068" d="M254.1,151.267l-16.289-1.43a1.766,1.766,0,0,0-.918.084c-.525.251-.681.932-.757,1.521-.759,5.793-.2,11.671.362,17.49a5.259,5.259,0,0,0,.945,3.036,4.707,4.707,0,0,0,1.71,1.1,35.827,35.827,0,0,0,12.924,2.994,2.372,2.372,0,0,0,1.387-.239,2.59,2.59,0,0,0,.821-2.109q.7-10.936.515-21.909Z" transform="translate(-154.745 -48.141)" fill="#32485e"/>
  <path id="Path_3069" data-name="Path 3069" d="M255.7,151.521l-2.515,3a7.9,7.9,0,0,1-3.293,2.717,8.046,8.046,0,0,1-3.223.163l-7.857-.667a3.2,3.2,0,0,1-2.169-.749,2.759,2.759,0,0,1-.564-1.432,12.947,12.947,0,0,1,.15-4.991c6.31.846,12.731.685,19.059,1.389Z" transform="translate(-155.872 -48.38)" fill="#87c3a9"/>
  <g id="Group_968" data-name="Group 968" transform="translate(86.264 107.587)">
    <path id="Path_3070" data-name="Path 3070" d="M244.413,153.641a4.635,4.635,0,0,1-.276,1.167,2.257,2.257,0,0,1-.64.961,1.247,1.247,0,0,1-1.167.231,1.6,1.6,0,0,1-.953-1,3.481,3.481,0,0,1,.027-1.9.343.343,0,0,1,.418-.237.349.349,0,0,1,.237.418,3.227,3.227,0,0,0-.086,1.348,1.152,1.152,0,0,0,.2.444,1.7,1.7,0,0,0,.134.144,1.107,1.107,0,0,0,.173.113c.08.027.2.049.136.041a.915.915,0,0,0,.1.006c.156-.027.235-.058.2-.041s.043-.023.054-.031a.829.829,0,0,0,.126-.091c.025-.023.047-.047.07-.07s.045-.051.066-.076a2.488,2.488,0,0,0,.152-.247c.018-.033.035-.066.051-.1s.053-.117.031-.066a3.669,3.669,0,0,0,.171-.537c.021-.086.041-.171.056-.257.01-.049.018-.1.025-.144a.447.447,0,0,0,.01-.08.353.353,0,0,1,.34-.34.341.341,0,0,1,.34.34Z" transform="translate(-241.252 -152.855)" fill="#87c3a9"/>
  </g>
  <g id="Group_969" data-name="Group 969" transform="translate(80.492 42.002)">
    <path id="Path_3071" data-name="Path 3071" d="M266.475,121.912c-3.223.85-6.085,2.593-9.038,4.081a20.879,20.879,0,0,1-9.2,2.671,10.5,10.5,0,0,1-4.561-.971,14.417,14.417,0,0,1-3.735-2.877,14.087,14.087,0,0,0-3.208-2.544,14.419,14.419,0,0,0-3.663-1.3,18.861,18.861,0,0,0-8.713.051.68.68,0,0,1-.362-1.311,20.224,20.224,0,0,1,8.129-.3,14.476,14.476,0,0,1,7.372,3.126c1.185,1.031,2.22,2.249,3.5,3.169a8.343,8.343,0,0,0,3.968,1.533,16.677,16.677,0,0,0,8.888-1.976c3.387-1.626,6.6-3.7,10.263-4.663a.68.68,0,0,1,.362,1.311Z" transform="translate(-223.51 -119.14)" fill="#32485e"/>
  </g>
  <g id="Group_970" data-name="Group 970" transform="translate(82.38 74.063)">
    <path id="Path_3072" data-name="Path 3072" d="M252.961,136.342q-.554,5.24-1.111,10.481-.274,2.591-.55,5.182c-.091.877-.175,1.757-.278,2.634a1.653,1.653,0,0,1-.451,1.1,2.347,2.347,0,0,1-1.175.449,23.114,23.114,0,0,1-9.7-.088,16.307,16.307,0,0,1-2.282-.648,1.467,1.467,0,0,1-.93-.889,4.106,4.106,0,0,1-.117-1.216q-.064-2.614-.049-5.229.038-5.85.49-11.683a.7.7,0,0,1,.681-.681l11.309-.1,3.208-.029a.69.69,0,0,1,.482,1.161,94.594,94.594,0,0,1-8.711,9.23.689.689,0,0,1-1.068-.138q-2.9-4.537-5.526-9.24c-.428-.764.747-1.451,1.175-.687q2.629,4.7,5.526,9.24c-.356-.045-.712-.091-1.07-.138a94.1,94.1,0,0,0,8.711-9.228c.159.387.321.774.48,1.159l-11.309.1-3.208.029.681-.681q-.382,4.934-.469,9.884-.044,2.471-.014,4.947.017,1.237.051,2.474a1.26,1.26,0,0,0,.031.385c.021.033-.021.021.09.047.364.08.722.233,1.083.335a21.458,21.458,0,0,0,8.956.572q.569-.088,1.132-.2c.163-.035.329-.066.492-.109.031-.008.15-.047.154-.051,0-.058,0-.212.01-.344l.072-.677c.043-.412.088-.827.13-1.239q.266-2.48.527-4.958l1.183-11.156a.7.7,0,0,1,.681-.681.685.685,0,0,1,.679.681Z" transform="translate(-236.318 -135.622)" fill="#32485e"/>
  </g>
  <g id="Group_971" data-name="Group 971" transform="translate(87.544 49.748)">
    <path id="Path_3073" data-name="Path 3073" d="M248.5,124.395a24.255,24.255,0,0,0-6.468,7.176,38.531,38.531,0,0,0-4.089,9.833c-.566,2.056-1.013,4.141-1.4,6.238a.685.685,0,0,1-.836.475.694.694,0,0,1-.475-.836,58.085,58.085,0,0,1,3.011-11.084,32.2,32.2,0,0,1,5.349-9.1,23.825,23.825,0,0,1,4.219-3.879.686.686,0,0,1,.932.245.694.694,0,0,1-.245.93Z" transform="translate(-235.22 -123.122)" fill="#32485e"/>
  </g>
  <g id="Group_972" data-name="Group 972" transform="translate(96.429 151.514)">
    <path id="Path_3074" data-name="Path 3074" d="M239.233,176.02a8.75,8.75,0,0,0-2.021,4.075,26.335,26.335,0,0,0-.652,4.464c-.033.434-.714.436-.681,0a27.256,27.256,0,0,1,.7-4.725,9.35,9.35,0,0,1,2.175-4.3c.307-.313.788.169.482.48Z" transform="translate(-235.878 -175.438)" fill="#7f4924"/>
  </g>
  <g id="Group_973" data-name="Group 973" transform="translate(98.365 151.257)">
    <path id="Path_3075" data-name="Path 3075" d="M238.279,177.364a8.362,8.362,0,0,0-3.636-1.387c-.375-.051-.29-.72.089-.669a8.947,8.947,0,0,1,3.89,1.469.348.348,0,0,1,.121.465.342.342,0,0,1-.465.123Z" transform="translate(-234.401 -175.306)" fill="#7f4924"/>
  </g>
  <g id="Group_974" data-name="Group 974" transform="translate(103.696 155.534)">
    <path id="Path_3076" data-name="Path 3076" d="M233.59,177.833a31.978,31.978,0,0,0,.16,4.272c.072.685.163,1.371.29,2.05a1.763,1.763,0,0,0,.677,1.325c.381.212.039.8-.344.587a2.052,2.052,0,0,1-.912-1.375,17.076,17.076,0,0,1-.34-2.151,31.73,31.73,0,0,1-.21-4.707.341.341,0,0,1,.681,0Z" transform="translate(-232.896 -177.504)" fill="#7f4924"/>
  </g>
  <g id="Group_975" data-name="Group 975" transform="translate(104.093 137.339)">
    <path id="Path_3077" data-name="Path 3077" d="M234.732,169.3q-1.153-.245-2.3-.488a.34.34,0,0,1,.181-.656q1.153.242,2.3.488a.34.34,0,1,1-.181.656Z" transform="translate(-232.18 -168.15)" fill="#7f4924"/>
  </g>
  <g id="Group_976" data-name="Group 976" transform="translate(106.697 109.419)">
    <path id="Path_3078" data-name="Path 3078" d="M232.838,154.31c-.043.066-.082.132-.119.2-.016.031-.029.062-.045.091a2.794,2.794,0,0,0-.136.461c0,.016-.021.14-.012.054a3.059,3.059,0,0,0-.018.321c0,.068.008.136.014.2a1.456,1.456,0,0,0,.031.169.341.341,0,0,1-.657.181,2.678,2.678,0,0,1,.354-2.025.34.34,0,0,1,.587.342Z" transform="translate(-231.833 -153.798)" fill="#7f4924"/>
  </g>
</svg>
