<svg xmlns="http://www.w3.org/2000/svg" viewBox="0 0 199.348 277">
  <g id="Group_898" data-name="Group 898" transform="translate(-689.281 -266.545)">
    <g id="Group_1656" data-name="Group 1656" transform="translate(689.281 276.184)">
      <path id="Path_3865" data-name="Path 3865" d="M765.369,292.742c.02,2.138.407,4.591,2.225,5.717a7.031,7.031,0,0,0,4.081.625l3.255-.155a1.678,1.678,0,0,1,1.485.423,1.136,1.136,0,0,1-.421,1.52,3.309,3.309,0,0,1-1.7.389,53.2,53.2,0,0,1-5.9.05,6.55,6.55,0,0,1-4.462-1.606,6.288,6.288,0,0,1-.879-1.282,22.021,22.021,0,0,1-2.146-5.477.4.4,0,0,1-.006-.24c.053-.127.216-.159.353-.173a12.884,12.884,0,0,1,4.081.278Z" transform="translate(-618.754 -250.639)"/>
      <g id="Group_1578" data-name="Group 1578" transform="translate(27.514 240.187)">
        <path id="Path_3866" data-name="Path 3866" d="M705.786,401.533a59.734,59.734,0,0,0-2.618,13.675,2.921,2.921,0,0,0,.2,1.624c.476.864,1.624,1.028,2.606,1.1l21.465,1.453a39.752,39.752,0,0,0,7.684.012,1.629,1.629,0,0,0,.431-3.118c-3.017-1.266-6.566-1.683-9.447-3.331a5.127,5.127,0,0,1-2.154-2.045,6.432,6.432,0,0,1-.4-3.184c.254-5.123.762-10.236,1.524-15.31Z" transform="translate(-703.143 -392.404)" fill="#c23f37"/>
        <g id="Group_1572" data-name="Group 1572" transform="translate(0.832 17.916)">
          <path id="Path_3867" data-name="Path 3867" d="M703.808,402.111a6.03,6.03,0,0,1,4.424,5.084c.046.441.74.445.693,0a6.736,6.736,0,0,0-4.933-5.753.347.347,0,0,0-.185.669Z" transform="translate(-703.562 -401.43)" fill="#fff"/>
        </g>
        <g id="Group_1573" data-name="Group 1573" transform="translate(0.528 22.001)">
          <path id="Path_3868" data-name="Path 3868" d="M703.65,404.175a64.426,64.426,0,0,0,12.34,2.513,122.343,122.343,0,0,0,12.619.643c2.376.018,4.752,0,7.128-.02a.348.348,0,0,0,0-.695c-4.184.036-8.371.067-12.553-.1a86.554,86.554,0,0,1-12.5-1.306,58.107,58.107,0,0,1-6.854-1.705c-.427-.135-.609.534-.185.669Z" transform="translate(-703.408 -403.488)" fill="#fff"/>
        </g>
        <g id="Group_1574" data-name="Group 1574" transform="translate(24.42 22.556)">
          <path id="Path_3869" data-name="Path 3869" d="M718.321,403.783a6.534,6.534,0,0,0-2.773,1.578.347.347,0,0,0,.49.49,5.788,5.788,0,0,1,2.467-1.4.348.348,0,0,0-.185-.671Z" transform="translate(-715.445 -403.767)" fill="#fff"/>
        </g>
        <g id="Group_1575" data-name="Group 1575" transform="translate(18.301 18.546)">
          <path id="Path_3870" data-name="Path 3870" d="M712.87,405.316l4.371-2.91c.371-.246.024-.848-.349-.6l-4.371,2.91c-.369.246-.024.848.349.6Z" transform="translate(-712.363 -401.747)" fill="#fff"/>
        </g>
        <g id="Group_1576" data-name="Group 1576" transform="translate(16.862 17.559)">
          <path id="Path_3871" data-name="Path 3871" d="M712.153,404.023a27.851,27.851,0,0,1,4.311-2.088.355.355,0,0,0,.242-.427.351.351,0,0,0-.427-.242,29.012,29.012,0,0,0-4.476,2.158.347.347,0,0,0,.349.6Z" transform="translate(-711.637 -401.25)" fill="#fff"/>
        </g>
        <g id="Group_1577" data-name="Group 1577" transform="translate(16.142 15.666)">
          <path id="Path_3872" data-name="Path 3872" d="M711.879,403.482a13.625,13.625,0,0,1,4.19-2.493c.415-.155.234-.826-.185-.669a14.558,14.558,0,0,0-4.5,2.67c-.339.294.155.784.49.492Z" transform="translate(-711.275 -400.296)" fill="#fff"/>
        </g>
        <path id="Path_3873" data-name="Path 3873" d="M711.454,401.262a2.407,2.407,0,1,1-2.406-2.406A2.407,2.407,0,0,1,711.454,401.262Z" transform="translate(-699.698 -386.049)" fill="#fff"/>
      </g>
      <g id="Group_1585" data-name="Group 1585" transform="translate(73.772 226.372)">
        <path id="Path_3874" data-name="Path 3874" d="M729.091,394.573a59.641,59.641,0,0,0-2.62,13.676,2.9,2.9,0,0,0,.2,1.622c.474.863,1.622,1.03,2.6,1.1l21.467,1.453a39.764,39.764,0,0,0,7.684.012,1.629,1.629,0,0,0,.429-3.118c-3.015-1.266-6.564-1.683-9.446-3.331a5.138,5.138,0,0,1-2.154-2.045,6.411,6.411,0,0,1-.395-3.184c.252-5.123.76-10.237,1.522-15.31Z" transform="translate(-726.447 -385.444)" fill="#c23f37"/>
        <g id="Group_1579" data-name="Group 1579" transform="translate(0.832 17.916)">
          <path id="Path_3875" data-name="Path 3875" d="M727.114,395.153a6.023,6.023,0,0,1,4.422,5.082c.046.441.74.447.695,0a6.738,6.738,0,0,0-4.935-5.752.348.348,0,0,0-.183.671Z" transform="translate(-726.866 -394.47)" fill="#fff"/>
        </g>
        <g id="Group_1580" data-name="Group 1580" transform="translate(0.528 22.001)">
          <path id="Path_3876" data-name="Path 3876" d="M726.954,397.215a64.413,64.413,0,0,0,12.343,2.513,122.289,122.289,0,0,0,12.618.643c2.374.018,4.75,0,7.126-.02a.348.348,0,0,0,0-.695c-4.184.036-8.371.068-12.551-.1a86.759,86.759,0,0,1-12.5-1.3,58.54,58.54,0,0,1-6.856-1.707c-.427-.135-.609.536-.185.669Z" transform="translate(-726.713 -396.528)" fill="#fff"/>
        </g>
        <g id="Group_1581" data-name="Group 1581" transform="translate(24.422 22.557)">
          <path id="Path_3877" data-name="Path 3877" d="M741.624,396.824a6.5,6.5,0,0,0-2.771,1.576.347.347,0,0,0,.49.49,5.788,5.788,0,0,1,2.465-1.4.347.347,0,0,0-.185-.669Z" transform="translate(-738.75 -396.808)" fill="#fff"/>
        </g>
        <g id="Group_1582" data-name="Group 1582" transform="translate(18.302 18.546)">
          <path id="Path_3878" data-name="Path 3878" d="M736.175,398.356l4.371-2.91c.369-.246.022-.848-.351-.6l-4.371,2.91c-.369.246-.022.848.351.6Z" transform="translate(-735.667 -394.787)" fill="#fff"/>
        </g>
        <g id="Group_1583" data-name="Group 1583" transform="translate(16.862 17.56)">
          <path id="Path_3879" data-name="Path 3879" d="M735.459,397.063a27.822,27.822,0,0,1,4.311-2.086.359.359,0,0,0,.242-.427.349.349,0,0,0-.427-.242,28.759,28.759,0,0,0-4.478,2.156.348.348,0,0,0,.351.6Z" transform="translate(-734.942 -394.29)" fill="#fff"/>
        </g>
        <g id="Group_1584" data-name="Group 1584" transform="translate(16.142 15.666)">
          <path id="Path_3880" data-name="Path 3880" d="M735.183,396.522a13.62,13.62,0,0,1,4.19-2.493c.415-.153.236-.826-.185-.669a14.581,14.581,0,0,0-4.5,2.67c-.338.294.155.784.49.492Z" transform="translate(-734.579 -393.336)" fill="#fff"/>
        </g>
        <path id="Path_3881" data-name="Path 3881" d="M734.757,394.3a2.406,2.406,0,1,1-2.406-2.406A2.406,2.406,0,0,1,734.757,394.3Z" transform="translate(-723.001 -379.089)" fill="#fff"/>
      </g>
      <path id="Path_3882" data-name="Path 3882" d="M707.794,325.322c-6.1,8.236-4.806,19.625-2.84,29.683,3.323,17.009,7.821,33.893,15.141,49.6a10.682,10.682,0,0,1,1.284,4.053,10.436,10.436,0,0,1-1.664,5.066c-5.331,9.99-10.51,20.211-13.132,31.228-2,8.406-5.336,26.672-4.962,27.182.447.609,20.866.782,26.8,1.489,5.349-13.929,6.693-25.791,13.224-39.207,2.054-4.222,4.192-8.488,5.038-13.109a45.6,45.6,0,0,0,.439-9.57,294.913,294.913,0,0,0-4.881-45.358q9.432,13.973,18.861,27.944a8.426,8.426,0,0,1,1.661,8.95c-4.5,16.855-14.157,53.092-13.7,54.261.324.83,19.709,4.79,25.809,3.432,6.3-16.167,6.1-29.572,12.4-45.74a58.554,58.554,0,0,0,3.607-11.576c1.773-10.739-2.535-21.541-7.831-31.049a144.35,144.35,0,0,0-11.777-17.885c-5.854-7.593-12.64-14.931-15.219-24.165l-35.136-8.38c-.782-.187-2.058.278-1.584.929Z" transform="translate(-677.156 -221.433)" fill="#87c3a9"/>
      <path id="Path_3883" data-name="Path 3883" d="M762.635,288.6c-9.524-1.727-19.4,2.856-26.017,9.921-4.448,4.75-7.654,10.506-10.812,16.2-8.043,14.5-16.126,29.082-21.632,44.721,3.829-.5,7.551,1.491,10.586,3.877s5.738,5.26,9.155,7.059a17.447,17.447,0,0,0,11.745,1.592c4.087-.893,7.868-3.267,12.051-3.319,2.4-.03,5.2.592,6.9-1.1a6.636,6.636,0,0,0,1.2-1.943q4.118-8.807,8.238-17.613a25.605,25.605,0,0,1,3.027-5.318,40.232,40.232,0,0,1,5.157-4.744,35.153,35.153,0,0,0,9.566-13.655,20.548,20.548,0,0,1,9.042,6.9q6.795-8.09,13.518-16.241c-6.844-5.369-10.985-13.607-17.835-18.966C781.022,291.655,762.635,288.6,762.635,288.6Z" transform="translate(-674.612 -254.822)" fill="#847452"/>
      <path id="Path_3884" data-name="Path 3884" d="M753.9,290.112a5.312,5.312,0,0,1,2.85-4.264,7.426,7.426,0,0,1,1.959-.623,13.074,13.074,0,0,1,6.136.3,3.566,3.566,0,0,1,1.513.766,1.49,1.49,0,0,1,.435,1.556c-.19.476-.671.76-1.006,1.147a4.325,4.325,0,0,0-.627,3.188,85.026,85.026,0,0,0,1.237,9.581,1.842,1.842,0,0,1,.016.935c-.183.544-.8.784-1.356.947-1.778.526-3.585.969-5.405,1.324a5.491,5.491,0,0,1-2.574.069,3.892,3.892,0,0,1-2.416-2.569,11.555,11.555,0,0,1-.425-3.623q-.045-4.615-.093-9.232Z" transform="translate(-625.633 -258.012)"/>
      <path id="Path_3885" data-name="Path 3885" d="M760.988,290.155c14.032-1.415,30.634-2.32,44.668-3.736-.185-1.25-.012-1.9,1.242-2.051a73.336,73.336,0,0,1,12.9-.284V304.3l-12.511.921a1.52,1.52,0,0,1-1.634-1.516l-12.358-.447-32.607-1.342-2.978-8.039Z" transform="translate(-621.878 -259.065)" fill="#606060"/>
      <g id="Group_1586" data-name="Group 1586" transform="translate(194.256 24.892)">
        <path id="Path_3886" data-name="Path 3886" d="M787.145,284.276q.366,7.607.552,15.225.051,2.135.087,4.27a.348.348,0,0,0,.695,0q-.134-7.616-.449-15.229-.086-2.135-.19-4.266c-.022-.445-.715-.449-.695,0Z" transform="translate(-787.145 -283.941)" fill="#6da8c6"/>
      </g>
      <g id="Group_1587" data-name="Group 1587" transform="translate(182.414 27.726)">
        <path id="Path_3887" data-name="Path 3887" d="M781.229,285.887a.475.475,0,0,1-.04-.127c0,.036.006.071.008.107.008.115.014.23.02.343.022.409.04.818.058,1.227.057,1.308.107,2.618.157,3.926q.167,4.362.318,8.724c.024.683.034,1.368.073,2.05.026.445.721.447.695,0-.109-1.87-.133-3.748-.2-5.621-.107-2.936-.21-5.873-.335-8.809-.022-.484-.042-.969-.067-1.451a1.781,1.781,0,0,0-.086-.719.347.347,0,0,0-.6.349Z" transform="translate(-781.179 -285.369)" fill="#6da8c6"/>
      </g>
      <path id="Path_3888" data-name="Path 3888" d="M774.154,286.081l0,1.54a.3.3,0,0,0,.4.377q1.17-.164,2.34-.331l-.25-1.975a17.566,17.566,0,0,1-2.614.369Z" transform="translate(-605.798 -257.325)"/>
      <g id="Group_1588" data-name="Group 1588" transform="translate(170.821 30.82)">
        <path id="Path_3889" data-name="Path 3889" d="M775.407,287.262a29.463,29.463,0,0,0,.292,6.6c.069.441.739.254.669-.185a28.775,28.775,0,0,1-.268-6.411c.032-.447-.663-.445-.693,0Z" transform="translate(-775.338 -286.928)"/>
      </g>
      <g id="Group_1589" data-name="Group 1589" transform="translate(168.573 31.615)">
        <path id="Path_3890" data-name="Path 3890" d="M774.216,287.663a24.526,24.526,0,0,0,.244,4.2.353.353,0,0,0,.429.244.359.359,0,0,0,.242-.427,23.406,23.406,0,0,1-.22-4.014.348.348,0,0,0-.695,0Z" transform="translate(-774.206 -287.328)"/>
      </g>
      <g id="Group_1590" data-name="Group 1590" transform="translate(178.377 29.9)">
        <path id="Path_3891" data-name="Path 3891" d="M779.429,286.8a41.122,41.122,0,0,0,.447,12.527c.083.439.752.252.669-.185a40.482,40.482,0,0,1-.421-12.343c.054-.443-.641-.439-.695,0Z" transform="translate(-779.145 -286.465)" fill="#6da8c6"/>
      </g>
      <path id="Path_3892" data-name="Path 3892" d="M767.276,286.458a10.225,10.225,0,0,0-.079,1.651.843.843,0,0,0,.083.4c.147.244.482.278.766.284.453.01.995-.03,1.215-.423a1.271,1.271,0,0,0,.113-.592l.042-1.546-2.33.185Z" transform="translate(-612.647 -256.795)"/>
      <path id="Path_3893" data-name="Path 3893" d="M762.9,286.924c0,.627-.008,1.253-.012,1.88a.838.838,0,0,0,.218.7.564.564,0,0,0,.754-.183,1.52,1.52,0,0,0,.212-.828,12.857,12.857,0,0,0-.02-1.54q-.521-.074-1.042-.153Z" transform="translate(-616.779 -256.229)"/>
      <path id="Path_3894" data-name="Path 3894" d="M710.966,320.648a140.007,140.007,0,0,0,31.764-16.1,1.592,1.592,0,0,1,2.384.062l5.51,4.353-37.689,15.425Z" transform="translate(-667.923 -239.251)" fill="#6da8c6"/>
      <path id="Path_3895" data-name="Path 3895" d="M708.571,355.217q-5.934-1.132-11.866-2.261c-2.86-.546-6.2-1.483-7.162-4.23a7.747,7.747,0,0,1,.218-4.544,96.012,96.012,0,0,1,6-15.143c3.146-6.8,6.35-13.686,11.179-19.411a84.632,84.632,0,0,1,5.987-6.189q8-7.718,16-15.437a20.044,20.044,0,0,1,4.946-3.863,6.783,6.783,0,0,1,6.066-.2c1.322.709,2.314,2,3.742,2.463,3.505,1.129,6.691-3.3,10.36-2.964,2.169.2,3.8,2.013,5.1,3.765a3.978,3.978,0,0,0,1.139,1.175c1.243.7,2.884-.133,4.212.4,1.5.6,1.826,2.727,1.09,4.168a9.943,9.943,0,0,1-3.5,3.283c-9.29,6.427-16.239,15.687-22.2,25.279s-11,20.961-17.642,30.1c-1.215,1.673-2.646,2.092-4.414,3.164a5.888,5.888,0,0,1-5.9.379Z" transform="translate(-689.281 -259.672)" fill="#c23f37"/>
      <path id="Path_3896" data-name="Path 3896" d="M722.658,284.126a3.633,3.633,0,0,0,2.183,1.427q-7.581,12.258-14.151,25.108l-2.4-1.763q6.619-12.392,13.857-24.439Z" transform="translate(-670.555 -258.867)" fill="#9b342e"/>
      <path id="Path_3897" data-name="Path 3897" d="M738.685,280c-.995.22-1.227,6.058-1.177,7.078s.29,2.118-.22,3a2.415,2.415,0,0,1-2.463,1.048,3.949,3.949,0,0,1-2.352-1.491c.288,2.579,2.809,4.536,5.4,4.724a9.352,9.352,0,0,0,6.967-2.908Z" transform="translate(-646.74 -262.932)"/>
      <path id="Path_3898" data-name="Path 3898" d="M766.061,280.372c-.222,4.127-.54,13.956-.54,13.956l4.425,3.611-4.583,1.814s-1,5.091-1.258,6.666a4.991,4.991,0,0,1-2.457,3.879c-2.749,1.276-11.094-3.627-11.066-3.724q-1.072,1.474-2.209,2.9a5.6,5.6,0,0,1-8.426.357,39.711,39.711,0,0,1-6.554-8.341,52.922,52.922,0,0,0,6.961-8.466c-2.114-.881-3.635-3.452-2.781-5.578,1.665-4.147,5.554-1.515,5.554-1.515l1.675-9.853Z" transform="translate(-645.836 -266.797)" fill="#fed5b7"/>
      <path id="Path_3899" data-name="Path 3899" d="M741.805,290.451a5.086,5.086,0,0,0-6.356,2.561,38.157,38.157,0,0,1-.653-9.925,9.782,9.782,0,0,1,.72-4.22A3.345,3.345,0,0,1,739,276.9a2.432,2.432,0,0,1,1.211-2.551,7.115,7.115,0,0,1,2.89-.816l7.392-.991c3.049-.409,6.1-.816,9.167-1.076a6.569,6.569,0,0,1,2.8.183,2.349,2.349,0,0,1,1.65,2.08,1.458,1.458,0,0,1-1.951,1.334c2.408.1-3.011,6.521,2.1,3.412,1.175-.713,8.365-2.378,8.041-1.042a2.142,2.142,0,0,1-.977,1.151,11.421,11.421,0,0,1-4.609,1.856A23.069,23.069,0,0,1,771.7,281a3.2,3.2,0,0,1,2.112,1.149c.834,1.312-.419,2.979-1.741,3.8-3.841,2.374-8.76,2.251-13.129,1.11s-8.448-3.2-12.765-4.52l-2.12,14.983-2.823-.46C741.44,293.418,741.805,290.451,741.805,290.451Z" transform="translate(-644.491 -271.401)"/>
      <path id="Path_3900" data-name="Path 3900" d="M743.763,302.64l13.907,19.34c6.677-4.165,18.47-17.654,18.492-20.542.01-1.2.119-6.916.381-8.091.448-2.009,2.13-3.474,3.714-4.788,1.654-1.372,3.5-2.819,5.7-2.616a1.245,1.245,0,0,1,.953.552c.359.576,0,1.1-.332,1.546l-3.573,4.758a31.447,31.447,0,0,1,6.28-4.069,1.7,1.7,0,0,1,2.1,2.561,5.272,5.272,0,0,1-1.088,1.066,2.354,2.354,0,1,1,2.934,3.313c1.3-.3,2.181,1.921,1.026,2.592,1.495-.067,2.122,2.148,1.288,3.39S793.169,303.4,791.8,304c-7.154,3.166-11.253,10.6-14.9,17.527-2.977,5.655-6.012,11.334-10.062,16.279-1.489,1.818-3.271,3.623-5.58,4.063-3.041.582-5.939-1.35-8.414-3.21-10.224-7.678-20.3-16.05-26.9-27a1.9,1.9,0,0,1-.385-1.219,1.855,1.855,0,0,1,.574-.927,28.094,28.094,0,0,1,11.723-7.35Z" transform="translate(-653.555 -257.097)" fill="#fed5b7"/>
      <path id="Path_3901" data-name="Path 3901" d="M741.905,291.511a189.019,189.019,0,0,1,14.322,17.216l-14.286,22.015c-4.331-6.61-11.35-11.03-16.064-17.374a12.357,12.357,0,0,1-2.336-4.593,11.306,11.306,0,0,1,.937-6.721,21.214,21.214,0,0,1,11.118-11.171Z" transform="translate(-655.722 -252.213)" fill="#847452"/>
      <path id="Path_3902" data-name="Path 3902" d="M722.85,292.657c5.854.76,12.575,1.328,17.992,3.676s10.334,6.509,12.2,12.108a29.259,29.259,0,0,0-4.222-11.735,15.944,15.944,0,0,0-4.693-5.072,18.712,18.712,0,0,0-6.235-2.283c-2.6-.564-10.113-4.244-11.3-1.866-.179.357-2.714,4.774-3.744,5.171Z" transform="translate(-656.217 -256.338)" fill="#6da8c6"/>
      <path id="Path_3903" data-name="Path 3903" d="M726.352,316.858a3.826,3.826,0,0,0-2.775-3.412,14.442,14.442,0,0,0-4.665-.435,33.24,33.24,0,0,1-14.594-3.515c-.971-.486-2.136-1.022-3.077-.482a3.124,3.124,0,0,0-1.147,1.618q-2.236,5.327-3.938,10.856a4.9,4.9,0,0,0-.306,2.442,4.767,4.767,0,0,0,1.455,2.209,47.988,47.988,0,0,0,11.243,8.434,5.68,5.68,0,0,0,3.2.933c1.513-.161,2.646-1.413,3.624-2.578,3.424-4.079,7.152-6.9,10.576-10.979a2.625,2.625,0,0,0,1.2-3.724Z" transform="translate(-682.87 -234.577)" fill="#6da8c6"/>
      <g id="Group_1591" data-name="Group 1591" transform="translate(36.196 29.103)">
        <path id="Path_3904" data-name="Path 3904" d="M742.021,286.24a38.9,38.9,0,0,1-5.695,8.351c-2.217,2.545-4.645,4.891-7.043,7.263-2.571,2.545-5.064,5.155-7.4,7.916-2.457,2.9-4.772,5.921-7,9s-4.381,6.245-6.5,9.415l-.8,1.2c-.248.373.351.721.6.351,2.114-3.174,4.246-6.336,6.459-9.442s4.51-6.157,6.945-9.1c2.336-2.817,4.818-5.5,7.408-8.079,2.4-2.386,4.843-4.722,7.11-7.235a42.436,42.436,0,0,0,5.921-8.132q.313-.578.6-1.169c.2-.4-.4-.75-.6-.349Z" transform="translate(-707.516 -286.063)" fill="#9b342e"/>
      </g>
      <g id="Group_1592" data-name="Group 1592" transform="translate(4.398 42.782)">
        <path id="Path_3905" data-name="Path 3905" d="M712.387,293.607c1.066.655.8,2.166.494,3.17a21.371,21.371,0,0,1-.822,2.086q-.515,1.23-1.038,2.453-2.081,4.865-4.291,9.669-4.445,9.662-9.413,19.07-2.8,5.309-5.772,10.532a.348.348,0,0,0,.6.351q5.389-9.486,10.242-19.264t9.147-19.8q.581-1.358,1.153-2.721a19.252,19.252,0,0,0,.929-2.416c.347-1.294.413-2.932-.877-3.726-.383-.236-.73.365-.351.6Z" transform="translate(-691.497 -292.954)" fill="#9b342e"/>
      </g>
      <path id="Path_3906" data-name="Path 3906" d="M728.628,284.913a1.4,1.4,0,0,0-.361-1.4c-.546-.506-1.153-.232-1.661.058a15.365,15.365,0,0,0-4.446,3.857c-1.3,1.661-2.749,3.841-4.841,3.567a36.966,36.966,0,0,1,7.335-9.24c1.983-1.81,4.641-3.5,7.2-2.67,2.449.792,3.7,3.734,3.311,6.278s-2.019,4.722-3.8,6.584a36.24,36.24,0,0,1-6.747,5.542,5.348,5.348,0,0,1-1.618.582,2.237,2.237,0,0,1-2.2-3.607Z" transform="translate(-661.666 -264.045)" fill="#7c211e"/>
      <g id="Group_1593" data-name="Group 1593" transform="translate(18.051 74.637)">
        <path id="Path_3907" data-name="Path 3907" d="M698.385,309.435a68.49,68.49,0,0,0,2.251,7.874q.67,1.906,1.455,3.769a9.738,9.738,0,0,0,1.64,2.874,4.975,4.975,0,0,0,3.144,1.479,15.487,15.487,0,0,0,3.75,0,24.394,24.394,0,0,0,7.116-2.066,67.23,67.23,0,0,0,7.587-4.151.348.348,0,0,0-.351-.6c-4.155,2.527-8.5,5.131-13.359,5.979a16.727,16.727,0,0,1-3.547.242,5.738,5.738,0,0,1-3.37-.923,6.523,6.523,0,0,1-1.755-2.59c-.518-1.173-.981-2.376-1.419-3.581a68.2,68.2,0,0,1-2.469-8.492c-.1-.435-.766-.25-.671.185Z" transform="translate(-698.375 -309.002)" fill="#9b342e"/>
      </g>
      <g id="Group_1594" data-name="Group 1594" transform="translate(11.017 61.311)">
        <path id="Path_3908" data-name="Path 3908" d="M694.922,302.893a7.785,7.785,0,0,0,4.018,2.426c.433.105.619-.564.185-.669a7.154,7.154,0,0,1-3.712-2.249c-.294-.336-.784.157-.49.492Z" transform="translate(-694.831 -302.289)" fill="#9b342e"/>
      </g>
      <g id="Group_1595" data-name="Group 1595" transform="translate(25.924 53.022)">
        <path id="Path_3909" data-name="Path 3909" d="M712.754,298.286q-4.433,8.408-8.281,17.11-1.081,2.444-2.112,4.911a.349.349,0,0,0,.242.427.354.354,0,0,0,.427-.242q3.647-8.7,7.89-17.132,1.194-2.373,2.433-4.722c.208-.4-.389-.746-.6-.351Z" transform="translate(-702.342 -298.113)" fill="#9b342e"/>
      </g>
      <g id="Group_1596" data-name="Group 1596" transform="translate(28.679 55.24)">
        <path id="Path_3910" data-name="Path 3910" d="M712.9,299.4a148.641,148.641,0,0,0-7.392,15.558q-.917,2.26-1.759,4.548c-.155.419.516.6.669.185a146.734,146.734,0,0,1,6.832-15.677q1.09-2.15,2.249-4.264c.214-.391-.383-.742-.6-.349Z" transform="translate(-703.729 -299.23)" fill="#9b342e"/>
      </g>
      <g id="Group_1597" data-name="Group 1597" transform="translate(29.839 40.668)">
        <path id="Path_3911" data-name="Path 3911" d="M704.378,292.391a15.623,15.623,0,0,0,5.135,4.6c.391.216.742-.383.351-.6a14.868,14.868,0,0,1-4.889-4.347c-.256-.361-.857-.014-.6.349Z" transform="translate(-704.314 -291.889)" fill="#9b342e"/>
      </g>
      <g id="Group_1598" data-name="Group 1598" transform="translate(63.633 53.821)">
        <path id="Path_3912" data-name="Path 3912" d="M721.424,299.124q4.091,4.9,8.456,9.568t8.986,9.071q2.614,2.492,5.306,4.9a.355.355,0,0,0,.546-.069,177.112,177.112,0,0,0,9.945-15.02q1.268-2.087,2.507-4.188a.347.347,0,0,0-.6-.351c-3.057,5.171-6.191,10.306-9.6,15.25-.925,1.338-1.87,2.662-2.851,3.958l.544-.069q-4.761-4.255-9.274-8.776t-8.76-9.292q-2.4-2.7-4.712-5.471c-.288-.343-.776.151-.492.492Z" transform="translate(-721.339 -298.516)" fill="#5a4c32"/>
      </g>
      <g id="Group_1599" data-name="Group 1599" transform="translate(84.961 54.811)">
        <path id="Path_3913" data-name="Path 3913" d="M744.2,299.191a155.971,155.971,0,0,1-9.129,16.211q-1.426,2.212-2.926,4.377c-.256.367.345.715.6.349a156.16,156.16,0,0,0,9.671-15.894q1.23-2.325,2.384-4.693c.195-.4-.4-.752-.6-.351Z" transform="translate(-732.084 -299.014)" fill="#5a4c32"/>
      </g>
      <g id="Group_1600" data-name="Group 1600" transform="translate(63.34 56.302)">
        <path id="Path_3914" data-name="Path 3914" d="M721.292,300.354a7.13,7.13,0,0,0,4.214,1.655c.447.022.445-.671,0-.695a6.345,6.345,0,0,1-3.724-1.451.355.355,0,0,0-.49,0,.348.348,0,0,0,0,.49Z" transform="translate(-721.191 -299.765)" fill="#5a4c32"/>
      </g>
      <g id="Group_1601" data-name="Group 1601" transform="translate(39.647 104.791)">
        <path id="Path_3915" data-name="Path 3915" d="M709.5,324.875c3.879,1.01,6.219,4.7,9.115,7.176a10.321,10.321,0,0,0,5.542,2.634c2.872.32,5.715-.711,8.408-1.562q4.9-1.545,9.8-3.095c.423-.135.242-.8-.185-.669l-8.646,2.729c-1.393.441-2.781.905-4.19,1.292a15.492,15.492,0,0,1-4.234.665,9.127,9.127,0,0,1-5.78-2.295c-1.519-1.255-2.817-2.745-4.23-4.109a12.618,12.618,0,0,0-5.419-3.436.347.347,0,0,0-.185.669Z" transform="translate(-709.255 -324.194)" fill="#5a4c32"/>
      </g>
      <g id="Group_1602" data-name="Group 1602" transform="translate(105.38 44.294)">
        <path id="Path_3916" data-name="Path 3916" d="M742.376,294.151a78.036,78.036,0,0,1,1.054,13.567q-.021,1.929-.135,3.853c-.026.447.669.445.695,0a78.4,78.4,0,0,0-.4-13.752q-.227-1.932-.546-3.853c-.073-.439-.742-.252-.671.185Z" transform="translate(-742.37 -293.716)" fill="#5a4c32"/>
      </g>
      <path id="Path_3917" data-name="Path 3917" d="M747.648,294.615l-11.282-6.4,9.074,9.3Z" transform="translate(-642.905 -254.839)" fill="#995834" opacity="0.55"/>
      <g id="Group_1603" data-name="Group 1603" transform="translate(93.131 20.694)">
        <path id="Path_3918" data-name="Path 3918" d="M736.372,282.477a3.581,3.581,0,0,1,1.37,2.569.356.356,0,0,0,.347.347.35.35,0,0,0,.347-.347,4.318,4.318,0,0,0-1.715-3.168.349.349,0,0,0-.474.125.355.355,0,0,0,.125.474Z" transform="translate(-736.199 -281.826)" fill="#995834"/>
      </g>
      <g id="Group_1604" data-name="Group 1604" transform="translate(92.758 22.474)">
        <path id="Path_3919" data-name="Path 3919" d="M736.451,283.977a4.077,4.077,0,0,0,.621-.3,3.562,3.562,0,0,1,.494-.262c-.05.02-.018.008.016-.006a.376.376,0,0,0,.206-.159.351.351,0,0,0,.036-.268.363.363,0,0,0-.159-.208.343.343,0,0,0-.268-.034,3.75,3.75,0,0,0-.622.3,3.822,3.822,0,0,1-.5.262c.052-.022.018-.008-.014,0a.383.383,0,0,0-.208.161.346.346,0,0,0-.034.266.344.344,0,0,0,.427.242Z" transform="translate(-736.011 -282.723)" fill="#995834"/>
      </g>
      <g id="Group_1605" data-name="Group 1605" transform="translate(93.703 47.602)">
        <path id="Path_3920" data-name="Path 3920" d="M736.528,295.908q2.689,5.353,5.77,10.493a.347.347,0,0,0,.6-.349q-3.078-5.136-5.77-10.493c-.2-.4-.8-.048-.6.349Z" transform="translate(-736.488 -295.382)" fill="#5a4c32"/>
      </g>
      <g id="Group_1606" data-name="Group 1606" transform="translate(106.292 46.359)">
        <path id="Path_3921" data-name="Path 3921" d="M744.232,295.006a16.294,16.294,0,0,1-1.362,4.037c-.2.4.4.752.6.351a16.935,16.935,0,0,0,1.431-4.2c.087-.437-.582-.623-.669-.185Z" transform="translate(-742.83 -294.756)" fill="#5a4c32"/>
      </g>
      <g id="Group_1607" data-name="Group 1607" transform="translate(79.127 80.398)">
        <path id="Path_3922" data-name="Path 3922" d="M729.394,312.582c3.619.768,6.82,2.666,10.1,4.291.927.459,1.866.9,2.823,1.288.413.169.593-.5.184-.669-3.4-1.4-6.517-3.408-9.963-4.7a20.753,20.753,0,0,0-2.96-.875c-.437-.093-.621.576-.184.669Z" transform="translate(-729.144 -311.904)" fill="#5a4c32"/>
      </g>
      <g id="Group_1608" data-name="Group 1608" transform="translate(79.661 83.564)">
        <path id="Path_3923" data-name="Path 3923" d="M729.665,314.173a68.219,68.219,0,0,1,12.164,3.025c.421.147.6-.524.184-.671a68.376,68.376,0,0,0-12.164-3.023c-.437-.068-.625.6-.185.669Z" transform="translate(-729.414 -313.5)" fill="#5a4c32"/>
      </g>
      <g id="Group_1609" data-name="Group 1609" transform="translate(59.032 117.157)">
        <path id="Path_3924" data-name="Path 3924" d="M723.275,330.759a36.585,36.585,0,0,0,.959,7.587c.5,2.187,1.09,4.663-.268,6.666a3.169,3.169,0,0,1-2.535,1.5l.335.254q-1.036-7.155-2.07-14.31c-.065-.441-.732-.252-.671.185l2.072,14.31a.343.343,0,0,0,.333.254c2.1-.014,3.638-1.975,3.968-3.912a10.515,10.515,0,0,0-.22-3.895c-.274-1.322-.6-2.628-.814-3.964a33.907,33.907,0,0,1-.4-4.679.347.347,0,0,0-.695,0Z" transform="translate(-719.021 -330.423)" fill="#5a4c32"/>
      </g>
      <g id="Group_1610" data-name="Group 1610" transform="translate(61.411 133.214)">
        <path id="Path_3925" data-name="Path 3925" d="M720.247,338.927q2.087,5.065,4.174,10.125c.167.409.84.23.669-.185q-2.087-5.062-4.174-10.125c-.167-.407-.84-.228-.669.185Z" transform="translate(-720.219 -338.512)" fill="#5a4c32"/>
      </g>
      <g id="Group_1611" data-name="Group 1611" transform="translate(55.668 129.842)">
        <path id="Path_3926" data-name="Path 3926" d="M717.749,343.708a101.631,101.631,0,0,0,11.2-4.683q1.545-.759,3.061-1.568c.4-.21.044-.81-.349-.6a99.407,99.407,0,0,1-10.925,5.012q-1.578.611-3.174,1.169c-.419.145-.24.816.185.669Z" transform="translate(-717.326 -336.814)" fill="#5a4c32"/>
      </g>
      <g id="Group_1612" data-name="Group 1612" transform="translate(32.005 115.307)">
        <path id="Path_3927" data-name="Path 3927" d="M717.5,329.6a17.007,17.007,0,0,1-8.809,5.318,16.309,16.309,0,0,1-2.954.427c-.445.024-.448.719,0,.695a17.725,17.725,0,0,0,10.026-3.821,16.849,16.849,0,0,0,2.227-2.128c.292-.333-.2-.828-.49-.49Z" transform="translate(-705.405 -329.491)" fill="#5a4c32"/>
      </g>
      <g id="Group_1613" data-name="Group 1613" transform="translate(26.239 244.283)">
        <path id="Path_3928" data-name="Path 3928" d="M702.75,395.146a91.075,91.075,0,0,0,17.279,2.15q2.477.069,4.957,0a.348.348,0,0,0,0-.695,90.069,90.069,0,0,1-17.244-1.187q-2.414-.405-4.807-.939c-.437-.1-.621.574-.185.669Z" transform="translate(-702.5 -394.467)" fill="#5a4c32"/>
      </g>
      <g id="Group_1614" data-name="Group 1614" transform="translate(44.346 190.592)">
        <path id="Path_3929" data-name="Path 3929" d="M712.154,369.587a17.817,17.817,0,0,1,9.3-1.338c.443.054.438-.641,0-.695a18.448,18.448,0,0,0-9.653,1.435c-.409.179-.056.776.349.6Z" transform="translate(-711.623 -367.419)" fill="#5a4c32"/>
      </g>
      <g id="Group_1615" data-name="Group 1615" transform="translate(45.12 191.744)">
        <path id="Path_3930" data-name="Path 3930" d="M712.53,370.9a16.631,16.631,0,0,1,8.547-2.205.348.348,0,0,0,0-.695,17.326,17.326,0,0,0-8.9,2.3.347.347,0,0,0,.349.6Z" transform="translate(-712.012 -367.999)" fill="#5a4c32"/>
      </g>
      <g id="Group_1616" data-name="Group 1616" transform="translate(64.987 133.016)">
        <path id="Path_3931" data-name="Path 3931" d="M722.17,339.076a139.618,139.618,0,0,1,16.7,14.538q3.832,3.909,7.35,8.115a44.13,44.13,0,0,1,6.215,8.863c1.713,3.543,2,7.352,1.876,11.231-.107,3.426-.379,6.848-.762,10.254a177.186,177.186,0,0,1-3.781,21.291,184.806,184.806,0,0,1-6.03,20.282q-.432,1.188-.881,2.366c-.159.417.512.6.669.185a180.736,180.736,0,0,0,6.362-20.394,184.309,184.309,0,0,0,4.079-21.42c.443-3.468.772-6.951.951-10.443.195-3.8.314-7.724-.923-11.378a30.646,30.646,0,0,0-5.427-9.063c-2.324-2.914-4.782-5.725-7.338-8.438a140.22,140.22,0,0,0-16.483-14.911q-1.1-.852-2.221-1.675c-.359-.266-.7.335-.349.6Z" transform="translate(-722.021 -338.413)" fill="#5a4c32"/>
      </g>
      <g id="Group_1617" data-name="Group 1617" transform="translate(75.98 230.014)">
        <path id="Path_3932" data-name="Path 3932" d="M727.809,387.954c5.014.9,10.036,1.759,15.056,2.63l4.3.744c.437.077.625-.591.185-.669q-7.527-1.3-15.054-2.612-2.15-.375-4.3-.762c-.437-.077-.623.59-.185.669Z" transform="translate(-727.559 -387.279)" fill="#5a4c32"/>
      </g>
      <g id="Group_1618" data-name="Group 1618" transform="translate(89.157 170.627)">
        <path id="Path_3933" data-name="Path 3933" d="M734.612,360.21a28.924,28.924,0,0,1,9.762-2.156c.445-.018.447-.713,0-.693a29.44,29.44,0,0,0-9.947,2.18c-.407.167-.228.838.185.669Z" transform="translate(-734.197 -357.361)" fill="#5a4c32"/>
      </g>
      <g id="Group_1619" data-name="Group 1619" transform="translate(91.347 173.544)">
        <path id="Path_3934" data-name="Path 3934" d="M735.721,360.6a16.6,16.6,0,0,1,6.84-1.05c.446.024.444-.669,0-.695a17.121,17.121,0,0,0-7.025,1.076c-.415.157-.236.828.185.669Z" transform="translate(-735.3 -358.83)" fill="#5a4c32"/>
      </g>
      <g id="Group_1620" data-name="Group 1620" transform="translate(43.294 81.09)">
        <path id="Path_3935" data-name="Path 3935" d="M711.191,312.845a13.534,13.534,0,0,1,2.046,3.511.359.359,0,0,0,.427.242.35.35,0,0,0,.244-.427,14.658,14.658,0,0,0-2.227-3.817.347.347,0,0,0-.49,0,.353.353,0,0,0,0,.49Z" transform="translate(-711.092 -312.253)" fill="#9b342e"/>
      </g>
      <g id="Group_1621" data-name="Group 1621" transform="translate(52.588 72.834)">
        <path id="Path_3936" data-name="Path 3936" d="M717.074,311.618a2.631,2.631,0,0,0-1.169,3.063,8.075,8.075,0,0,0,.474,1,4.552,4.552,0,0,0,.693,1.129,1.7,1.7,0,0,0,1.965.222q1.194-.42,2.388-.842l2.386-.84a21.509,21.509,0,0,0,2.319-.842,1.5,1.5,0,0,0,.788-1.6,13.877,13.877,0,0,0-.381-2.338,3.5,3.5,0,0,0-.766-1.677,2.586,2.586,0,0,0-1.443-.768,2.893,2.893,0,0,0-1.973.441l-1.667.963q-1.807,1.042-3.613,2.086a.347.347,0,0,0,.349.6c1.83-1.056,3.647-2.138,5.489-3.17a1.941,1.941,0,0,1,2.267.238,2.677,2.677,0,0,1,.677,1.419,13.783,13.783,0,0,1,.365,2.162,1.213,1.213,0,0,1-.115.812,1.627,1.627,0,0,1-.8.411l-2.116.744q-2.171.765-4.341,1.53c-.33.115-.74.31-1.08.127a1.619,1.619,0,0,1-.574-.726c-.157-.3-.308-.605-.461-.907a1.95,1.95,0,0,1,.685-2.64A.347.347,0,0,0,717.074,311.618Z" transform="translate(-715.774 -308.094)" fill="#fff"/>
      </g>
      <g id="Group_1622" data-name="Group 1622" transform="translate(56.096 75.594)">
        <path id="Path_3937" data-name="Path 3937" d="M717.6,309.994l2.709,4.139c.244.371.844.024.6-.351l-2.709-4.137c-.244-.373-.846-.026-.6.349Z" transform="translate(-717.542 -309.484)" fill="#fff"/>
      </g>
      <g id="Group_1623" data-name="Group 1623" transform="translate(98.915 64.237)">
        <path id="Path_3938" data-name="Path 3938" d="M744.637,303.868a21.675,21.675,0,0,0-5.514,10.256c-.1.437.572.621.669.185a21,21,0,0,1,5.336-9.951c.31-.322-.181-.814-.49-.49Z" transform="translate(-739.113 -303.763)" fill="#995834"/>
      </g>
      <g id="Group_1624" data-name="Group 1624" transform="translate(134.322 33.949)">
        <path id="Path_3939" data-name="Path 3939" d="M760.131,288.6l-3.081,2.567a.351.351,0,0,0,0,.49.356.356,0,0,0,.492,0l3.079-2.567a.347.347,0,0,0,0-.49.353.353,0,0,0-.49,0Z" transform="translate(-756.951 -288.504)" fill="#995834"/>
      </g>
      <g id="Group_1625" data-name="Group 1625" transform="translate(137.059 37.786)">
        <path id="Path_3940" data-name="Path 3940" d="M761.151,290.536q-1.361,1.1-2.719,2.2a.347.347,0,0,0,0,.49.353.353,0,0,0,.49,0l2.719-2.2a.347.347,0,0,0,0-.49.353.353,0,0,0-.49,0Z" transform="translate(-758.33 -290.437)" fill="#995834"/>
      </g>
      <g id="Group_1626" data-name="Group 1626" transform="translate(138.503 41.351)">
        <path id="Path_3941" data-name="Path 3941" d="M761.372,292.276a9.182,9.182,0,0,0-2.215,1.582.348.348,0,0,0,.492.492,7.881,7.881,0,0,1,.959-.8,8.857,8.857,0,0,1,1.116-.673.349.349,0,0,0,.125-.474.359.359,0,0,0-.476-.125Z" transform="translate(-759.057 -292.233)" fill="#995834"/>
      </g>
      <g id="Group_1627" data-name="Group 1627" transform="translate(133.26 35.177)">
        <path id="Path_3942" data-name="Path 3942" d="M756.51,289.723a28.94,28.94,0,0,1,5.449,8.649c.165.409.836.23.669-.185A29.863,29.863,0,0,0,757,289.233c-.3-.332-.79.161-.49.49Z" transform="translate(-756.416 -289.123)" fill="#995834"/>
      </g>
      <g id="Group_1628" data-name="Group 1628" transform="translate(123.075 44.63)">
        <path id="Path_3943" data-name="Path 3943" d="M751.387,294.478a25.758,25.758,0,0,0,3.112,2.654.349.349,0,0,0,.474-.125.354.354,0,0,0-.123-.474,24.526,24.526,0,0,1-2.973-2.545.347.347,0,0,0-.49.49Z" transform="translate(-751.285 -293.885)" fill="#995834"/>
      </g>
      <g id="Group_1635" data-name="Group 1635" transform="translate(117.972 31.632)">
        <path id="Path_3944" data-name="Path 3944" d="M759.588,317.157l-10.874,12.656c5.494,4.272,18.482,15.965,22.386,17.261,1.808.6,3.9.881,5.532-.093a7.892,7.892,0,0,0,2.549-3.021,107.135,107.135,0,0,0,10.836-26.182,12.068,12.068,0,0,1,4.81-8.192c3.184-2.838,6.358-6.225,6.84-10.463A9.994,9.994,0,0,0,796,289.247a.716.716,0,0,0-1,.786,10.587,10.587,0,0,0,1.761,4.17,42.407,42.407,0,0,0-4.3-6.318,1.452,1.452,0,0,0-1.113-.548c-1.324.008-1.5,1.85-.957,2.946a39.933,39.933,0,0,0,3.438,6.189c-.018.155-4.4-8.716-5.9-7.755a.463.463,0,0,0-.2.345c-.274,2.781,2.211,7.825,2.525,8.442a36.862,36.862,0,0,0-2.817-5.661.713.713,0,0,0-1.288.484q.348,3.7.7,7.392a3.55,3.55,0,0,1-.371,2.471c-.435.59-1.185.846-1.755,1.306-1,.814-1.028,5.461-1.465,6.673-1.128,3.142-10.046,15.725-12.954,19.5C768.564,328.108,759.588,317.693,759.588,317.157Z" transform="translate(-748.714 -287.337)" fill="#fed5b7"/>
        <g id="Group_1629" data-name="Group 1629" transform="translate(21.614 42.195)">
          <path id="Path_3945" data-name="Path 3945" d="M759.6,308.929a15.454,15.454,0,0,0,1.058,5.754c.161.411.834.232.669-.185a14.89,14.89,0,0,1-1.034-5.57.347.347,0,0,0-.693,0Z" transform="translate(-759.603 -308.594)" fill="#995834"/>
        </g>
        <g id="Group_1630" data-name="Group 1630" transform="translate(38.622 4.098)">
          <path id="Path_3946" data-name="Path 3946" d="M768.2,289.932q1.453,3.379,2.678,6.846c.149.419.82.238.671-.185q-1.26-3.549-2.749-7.011c-.175-.409-.774-.056-.6.349Z" transform="translate(-768.171 -289.401)" fill="#995834"/>
        </g>
        <g id="Group_1631" data-name="Group 1631" transform="translate(40.496 1.626)">
          <path id="Path_3947" data-name="Path 3947" d="M769.143,288.571q1.682,4.076,3.363,8.156c.169.407.84.228.671-.185l-3.365-8.156c-.169-.407-.84-.228-.669.185Z" transform="translate(-769.115 -288.156)" fill="#995834"/>
        </g>
        <g id="Group_1632" data-name="Group 1632" transform="translate(45.907 3.18)">
          <path id="Path_3948" data-name="Path 3948" d="M771.891,289.457a36.054,36.054,0,0,1,2.356,4.909c.161.413.832.234.669-.183a37.174,37.174,0,0,0-2.426-5.076.347.347,0,0,0-.6.349Z" transform="translate(-771.841 -288.939)" fill="#995834"/>
        </g>
        <g id="Group_1633" data-name="Group 1633" transform="translate(40.679 7.972)">
          <path id="Path_3949" data-name="Path 3949" d="M769.738,296.081l8.962-4.093c.4-.187.054-.784-.349-.6q-4.484,2.046-8.964,4.093c-.405.187-.054.784.351.6Z" transform="translate(-769.208 -291.353)" fill="#995834"/>
        </g>
        <g id="Group_1634" data-name="Group 1634" transform="translate(37.629 23.847)">
          <path id="Path_3950" data-name="Path 3950" d="M767.919,300.03q1.569.375,3.1.877a.347.347,0,1,0,.185-.669c-1.02-.335-2.056-.627-3.1-.877-.435-.1-.619.566-.184.669Z" transform="translate(-767.671 -299.351)" fill="#995834"/>
        </g>
      </g>
      <g id="Group_1636" data-name="Group 1636" transform="translate(186.385 43.596)">
        <path id="Path_3951" data-name="Path 3951" d="M783.514,294.057h5.643a.347.347,0,0,0,0-.693h-5.643a.347.347,0,0,0,0,.693Z" transform="translate(-783.179 -293.364)"/>
      </g>
      <g id="Group_1637" data-name="Group 1637" transform="translate(185.11 41.593)">
        <path id="Path_3952" data-name="Path 3952" d="M782.872,293.048H788.7a.347.347,0,0,0,0-.693h-5.826a.347.347,0,0,0,0,.693Z" transform="translate(-782.537 -292.355)"/>
      </g>
      <g id="Group_1638" data-name="Group 1638" transform="translate(185.293 38.862)">
        <path id="Path_3953" data-name="Path 3953" d="M782.964,291.674h6.918a.348.348,0,0,0,0-.695h-6.918a.348.348,0,0,0,0,.695Z" transform="translate(-782.629 -290.979)"/>
      </g>
      <g id="Group_1639" data-name="Group 1639" transform="translate(185.11 35.221)">
        <path id="Path_3954" data-name="Path 3954" d="M782.872,289.838h6.918a.347.347,0,0,0,0-.693h-6.918a.347.347,0,0,0,0,.693Z" transform="translate(-782.537 -289.145)"/>
      </g>
      <g id="Group_1640" data-name="Group 1640" transform="translate(185.11 31.944)">
        <path id="Path_3955" data-name="Path 3955" d="M782.872,288.187h6.008a.347.347,0,0,0,0-.693h-6.008a.347.347,0,0,0,0,.693Z" transform="translate(-782.537 -287.494)"/>
      </g>
      <g id="Group_1641" data-name="Group 1641" transform="translate(185.293 27.938)">
        <path id="Path_3956" data-name="Path 3956" d="M782.964,286.171h6.189a.348.348,0,0,0,0-.695h-6.189a.348.348,0,0,0,0,.695Z" transform="translate(-782.629 -285.476)"/>
      </g>
      <g id="Group_1642" data-name="Group 1642" transform="translate(187.113 25.753)">
        <path id="Path_3957" data-name="Path 3957" d="M783.881,285.07h3.46a.348.348,0,0,0,0-.695h-3.46a.348.348,0,0,0,0,.695Z" transform="translate(-783.546 -284.375)"/>
      </g>
      <path id="Path_3958" data-name="Path 3958" d="M788.851,283.9v21.118l1.705.1-.179-21.571Z" transform="translate(-591.208 -259.439)"/>
      <path id="Path_3959" data-name="Path 3959" d="M749.007,285.419a1.392,1.392,0,1,1-1.381-1.558A1.478,1.478,0,0,1,749.007,285.419Z" transform="translate(-633.175 -259.128)"/>
      <path id="Path_3960" data-name="Path 3960" d="M751.411,282.159l-.3,1.388c-.034.155-.089.333-.238.385a.459.459,0,0,1-.306-.04,16.2,16.2,0,0,0-2.612-.885,3.582,3.582,0,0,0-2.662.393,7.39,7.39,0,0,1,3.192-1.814c.973-.262,2.251-.185,2.674.728Z" transform="translate(-634.113 -261.499)"/>
      <g id="Group_1643" data-name="Group 1643" transform="translate(112.986 31.957)">
        <path id="Path_3961" data-name="Path 3961" d="M746.254,288.022a4.259,4.259,0,0,0,4.778,1.427c.415-.155.236-.826-.185-.669a3.567,3.567,0,0,1-4-1.11.359.359,0,0,0-.474-.123.349.349,0,0,0-.123.474Z" transform="translate(-746.202 -287.5)" fill="#995834"/>
      </g>
      <g id="Group_1644" data-name="Group 1644" transform="translate(70.802 51.412)">
        <path id="Path_3962" data-name="Path 3962" d="M724.966,297.741l.911,2.729a.347.347,0,1,0,.669-.183q-.456-1.367-.911-2.731a.354.354,0,0,0-.427-.242.349.349,0,0,0-.242.427Z" transform="translate(-724.951 -297.302)" fill="#5a4c32"/>
      </g>
      <g id="Group_1645" data-name="Group 1645" transform="translate(73.675 56.345)">
        <path id="Path_3963" data-name="Path 3963" d="M726.44,300.309l.544,1.094a.35.35,0,0,0,.474.125.359.359,0,0,0,.125-.476q-.274-.545-.544-1.094a.35.35,0,0,0-.475-.125.359.359,0,0,0-.125.476Z" transform="translate(-726.398 -299.787)" fill="#5a4c32"/>
      </g>
      <g id="Group_1646" data-name="Group 1646" transform="translate(76.432 53.588)">
        <path id="Path_3964" data-name="Path 3964" d="M727.839,298.922a2.789,2.789,0,0,1,.258.415c.018.036.034.073.052.109.04.107.066.185.087.262s.042.159.055.238c0,.008.02.135.02.151a2.51,2.51,0,0,1,0,.488.348.348,0,0,0,.345.347.357.357,0,0,0,.347-.347,2.926,2.926,0,0,0-.564-2.015.358.358,0,0,0-.476-.123.351.351,0,0,0-.123.474Z" transform="translate(-727.787 -298.398)" fill="#5a4c32"/>
      </g>
      <g id="Group_1647" data-name="Group 1647" transform="translate(78.432 62.344)">
        <path id="Path_3965" data-name="Path 3965" d="M728.8,303.25a5.308,5.308,0,0,0,.746,1.908.347.347,0,1,0,.6-.349c-.087-.137-.169-.278-.242-.421-.038-.077-.076-.155-.111-.234s-.048-.115-.063-.155a5.071,5.071,0,0,1-.26-.933.346.346,0,0,0-.427-.242.356.356,0,0,0-.242.427Z" transform="translate(-728.794 -302.809)" fill="#5a4c32"/>
      </g>
      <g id="Group_1648" data-name="Group 1648" transform="translate(45.653 89.463)">
        <path id="Path_3966" data-name="Path 3966" d="M713.4,316.64a6.42,6.42,0,0,0-1.106,2.283.347.347,0,0,0,.669.185,5.913,5.913,0,0,1,.179-.58,4.566,4.566,0,0,1,.218-.508,6.174,6.174,0,0,1,.639-1.028.346.346,0,0,0-.125-.474.359.359,0,0,0-.474.123Z" transform="translate(-712.281 -316.471)" fill="#5a4c32"/>
      </g>
      <g id="Group_1649" data-name="Group 1649" transform="translate(47.818 91.655)">
        <path id="Path_3967" data-name="Path 3967" d="M713.97,317.745c-.184.3-.367.605-.552.907a.349.349,0,0,0,.125.474.353.353,0,0,0,.474-.125l.552-.907a.347.347,0,1,0-.6-.349Z" transform="translate(-713.372 -317.576)" fill="#5a4c32"/>
      </g>
      <g id="Group_1650" data-name="Group 1650" transform="translate(52.356 86.9)">
        <path id="Path_3968" data-name="Path 3968" d="M717.151,315.349l-1.445,2.013a.35.35,0,0,0,.125.474.355.355,0,0,0,.474-.125l1.445-2.011a.349.349,0,0,0-.125-.474.356.356,0,0,0-.474.123Z" transform="translate(-715.657 -315.18)" fill="#5a4c32"/>
      </g>
      <g id="Group_1651" data-name="Group 1651" transform="translate(29.979 204.593)">
        <path id="Path_3969" data-name="Path 3969" d="M711.881,375.2q6.952,1.274,13.982,2.037,1.986.214,3.976.385l-.345-.345q-1.254,10.966-3.031,21.866-.506,3.1-1.056,6.2l.335-.254q-8.191.065-16.37-.52-2.322-.167-4.641-.387l.347.347c.385-3.982.78-7.968,1.417-11.918a64.741,64.741,0,0,1,2.844-11.539,41.716,41.716,0,0,1,2.733-6.076h-.6c1.969,2.6,2.588,6.084,5.181,8.222a5.27,5.27,0,0,0,4.073,1.34,9.5,9.5,0,0,0,4.285-2.394,22.485,22.485,0,0,0,3.9-4.137c.264-.361-.338-.707-.6-.349a21.82,21.82,0,0,1-3.226,3.513,21.113,21.113,0,0,1-1.888,1.473,7.621,7.621,0,0,1-2,1.074,4.3,4.3,0,0,1-3.95-.925,10.042,10.042,0,0,1-2.628-3.482,29.53,29.53,0,0,0-2.551-4.685.352.352,0,0,0-.6,0,46.992,46.992,0,0,0-4.3,11.161,92.866,92.866,0,0,0-2.082,11.924c-.268,2.261-.49,4.53-.709,6.8-.02.2.175.332.345.347q8.155.771,16.354.891,2.329.033,4.657.014a.347.347,0,0,0,.334-.254q1.944-10.963,3.357-22.009.4-3.117.754-6.239c.024-.2-.178-.334-.347-.347q-6.946-.6-13.837-1.717-1.971-.319-3.936-.681c-.437-.079-.623.589-.185.669Z" transform="translate(-704.384 -374.472)" fill="#5a4c32"/>
      </g>
      <g id="Group_1652" data-name="Group 1652" transform="translate(30.724 134.6)">
        <path id="Path_3970" data-name="Path 3970" d="M705.983,344.716a59.21,59.21,0,0,0,12.263-3.176q1.685-.634,3.329-1.372l-.51-.206q2.507,7.6,4.9,15.233,1.188,3.79,2.346,7.591.575,1.885,1.143,3.773l.59,1.971a3.815,3.815,0,0,1,.329,1.687c-.105.548-.707.842-1.135,1.116q-.738.467-1.5.9-1.566.893-3.214,1.632c-1.1.492-2.227.927-3.37,1.308q-.834.274-1.675.51c-.3.083-.6.163-.9.238a2.039,2.039,0,0,1-.889.151c-.22-.058-.3-.29-.377-.48-.127-.322-.246-.647-.369-.971q-.363-.944-.723-1.888-.721-1.888-1.443-3.773-1.432-3.749-2.864-7.5l-5.77-15.1-.7-1.832-.51.391a20.372,20.372,0,0,1,3.831,3.351A7.7,7.7,0,0,0,713.1,350.6a7.265,7.265,0,0,0,4.712-1.127,7.932,7.932,0,0,0,3.148-4,10.463,10.463,0,0,0,.278-6.016c-.105-.433-.774-.25-.669.185.764,3.19.012,7.033-2.795,9.022a6.181,6.181,0,0,1-8.424-.79,22.115,22.115,0,0,0-4.063-3.547c-.244-.135-.623.1-.51.393l5.955,15.582c1.977,5.171,3.9,10.364,5.931,15.515.2.5.488.929,1.078.957a2.863,2.863,0,0,0,.826-.131c.333-.081.665-.169,1-.26,1.191-.329,2.366-.719,3.517-1.165a37.255,37.255,0,0,0,6.592-3.343,3.283,3.283,0,0,0,1.205-1.046,2.2,2.2,0,0,0,.077-1.655c-.344-1.306-.772-2.6-1.163-3.893q-1.191-3.939-2.412-7.868-2.442-7.861-5.006-15.681-.319-.977-.643-1.953a.354.354,0,0,0-.51-.208,58.863,58.863,0,0,1-11.916,3.855q-1.745.363-3.509.623c-.441.065-.254.734.185.669Z" transform="translate(-704.76 -339.211)" fill="#5a4c32"/>
      </g>
      <g id="Group_1653" data-name="Group 1653" transform="translate(30.744 110.526)">
        <path id="Path_3971" data-name="Path 3971" d="M704.864,327.417a60,60,0,0,0,5.423,28.492c.187.4.786.052.6-.351a59.264,59.264,0,0,1-5.328-28.141c.026-.447-.669-.445-.695,0Z" transform="translate(-704.77 -327.083)" fill="#5a4c32"/>
      </g>
      <g id="Group_1654" data-name="Group 1654" transform="translate(44.483 174.677)">
        <path id="Path_3972" data-name="Path 3972" d="M714.319,359.732a57.6,57.6,0,0,1-1.139,19.092q-.61,2.641-1.469,5.218c-.141.425.53.607.669.185a58.245,58.245,0,0,0,2.962-19.083q-.036-2.71-.33-5.411c-.046-.439-.74-.445-.693,0Z" transform="translate(-711.691 -359.401)" fill="#5a4c32"/>
      </g>
      <g id="Group_1655" data-name="Group 1655" transform="translate(72.742 114.65)">
        <path id="Path_3973" data-name="Path 3973" d="M726.04,329.743a22.728,22.728,0,0,0,10.314,5.2c.437.091.623-.578.185-.669a22.022,22.022,0,0,1-10.008-5.024c-.334-.294-.826.195-.49.492Z" transform="translate(-725.928 -329.16)" fill="#5a4c32"/>
      </g>
    </g>
    <path id="Path_3974" data-name="Path 3974" d="M734.339,293.755l-.238-16.672a5.141,5.141,0,0,1,.83-3.545c1.745-1.979,5.038-.3,7.6-.929,2.86-.7,4.19-4.1,6.791-5.479,3.1-1.642,5.165.472,7.984,2.557a50.725,50.725,0,0,1,9.041,8.845c-8.184,8.885-19.669,11.878-31.095,15.8Z" transform="translate(44.143)" fill="#b7772f"/>
    <path id="Path_3975" data-name="Path 3975" d="M731.832,291.977a6.188,6.188,0,0,0,5.447,1.169,19.417,19.417,0,0,0,5.31-2.3,221.781,221.781,0,0,1,22.8-10.939,16.665,16.665,0,0,0,5.762-3.293c1.536-1.572,2.267-4.073,1.06-5.858l-25.791,12.081c-5.143,2.41-10.405,4.9-14.363,8.841Z" transform="translate(41.911 4.15)" fill="#f59f18"/>
    <g id="Group_1657" data-name="Group 1657" transform="translate(781.696 270.811)">
      <path id="Path_3976" data-name="Path 3976" d="M736.169,273.662a15.465,15.465,0,0,0,5.647-.371,9.344,9.344,0,0,0,4.147-2.088,5.1,5.1,0,0,0,1.354-2.086c.143-.423-.526-.605-.669-.183a5.969,5.969,0,0,1-3.9,3.355,14.663,14.663,0,0,1-6.574.681c-.443-.054-.439.641,0,.693Z" transform="translate(-735.839 -268.694)" fill="#84511e"/>
    </g>
    <g id="Group_1658" data-name="Group 1658" transform="translate(779.538 282.034)">
      <path id="Path_3977" data-name="Path 3977" d="M735.191,287.227q5.288-2.218,10.518-4.569t10.37-4.821q2.921-1.4,5.818-2.848c.4-.2.05-.8-.349-.6q-5.091,2.537-10.246,4.948t-10.369,4.685q-2.954,1.289-5.925,2.537a.357.357,0,0,0-.242.427.35.35,0,0,0,.427.242Z" transform="translate(-734.752 -274.348)" fill="#84511e"/>
    </g>
  </g>
</svg>
