<svg xmlns="http://www.w3.org/2000/svg" xmlns:xlink="http://www.w3.org/1999/xlink" viewBox="0 0 257.796 277">
  <defs>
    <clipPath id="clip-path">
      <path id="Path_3770" data-name="Path 3770" d="M763.281,61.572a8.1,8.1,0,0,0-12.1.915,20.954,20.954,0,0,0-3.425,7.253c-1.486,5.732-1.339,11.846-3.315,17.43-1.484,4.193-4.094,7.881-6.781,11.422-6.87,9.051-14.71,17.743-24.8,22.965q1.406,3.676,2.813,7.352a5.111,5.111,0,0,0,.978,1.785,4.457,4.457,0,0,0,2.24,1.061c7.043,1.634,14.517-1.331,20.008-6.031s13.391-8.769,17.174-14.928c7.958,3.823,9.742,8.694,15.627,15.277s12.556,13.141,21.115,15.314c2.209-3.726,6.11-6.133,10.106-7.8s8.23-2.758,12.127-4.649a32.329,32.329,0,0,0,11.93-9.976c-8.1-2.075-14.615-7.9-20.784-13.542-4.856-4.435-19.353-11.783-23.3-17.042C779.6,83.988,771.465,69.512,763.281,61.572Z" transform="translate(-712.857 -59.279)" fill="none"/>
    </clipPath>
  </defs>
  <g id="Group_1897" data-name="Group 1897" transform="translate(-651.649 -36.425)">
    <path id="Path_3700" data-name="Path 3700" d="M780.876,81.892a110.753,110.753,0,0,0-13.306-5.185,76.091,76.091,0,0,0-7.1,12.594,1.872,1.872,0,0,0-.223.833,1.909,1.909,0,0,0,.74,1.179,25.676,25.676,0,0,0,6.783,5.132c2.6,1.171,5.8,1.39,8.19-.171Z" transform="translate(105.167 39.008)" fill="#579177"/>
    <path id="Path_3701" data-name="Path 3701" d="M778.021,80.219a8.029,8.029,0,0,0-8.332-1.1,11.2,11.2,0,0,0-5.8,6.4,9.629,9.629,0,0,0-.693,3.449c.02,4.067,3.553,7.5,7.49,8.513,3.254.841,7.029.217,9.359-2.2a8.948,8.948,0,0,0,2.063-8,11.869,11.869,0,0,0-4.09-7.055Z" transform="translate(108.022 40.681)" fill="#87c3a9"/>
    <path id="Path_3702" data-name="Path 3702" d="M732.851,42.118c2.888-1.242,6.334.045,8.637,2.183s3.768,5,5.446,7.657,3.764,5.269,6.695,6.4a24.323,24.323,0,0,0,4.687,1.006,10.489,10.489,0,0,1,6.021,2.72c3.1,3.321,2.049,9.23,5.39,12.31,2.762,2.549,7.09,1.905,10.728,2.85a11.969,11.969,0,0,1,6.2,19.219c1.52-1.2.207-3.933-1.693-4.3s-3.748.728-5.354,1.811c-4.311,2.907-8.612,6.1-13.659,7.346s-11.147,0-13.9-4.411c-1.86-2.976-2.126-7.127-5.055-9.06-2.122-1.4-4.984-1.114-7.208-2.34-2.785-1.535-3.876-5.254-3-8.31a2.982,2.982,0,0,0,.159-2.09,2.923,2.923,0,0,0-1.271-1.061,10.173,10.173,0,0,1-4.433-11.432Z" transform="translate(76.681 5.043)" fill="#f59f18"/>
    <path id="Path_3703" data-name="Path 3703" d="M738.946,62.289a27.1,27.1,0,0,0,8.535-1.248,15.613,15.613,0,0,1,3.5-.9,9.124,9.124,0,0,1,5.635,1.827c3.285,2.214,12.735,5.248,15.277,8.285,4.954,5.921,6.795,8.212,12.914,12.915,2.4,1.846,5.413,3.234,7.381,5.535s-.388,8.927-.654,11.942c-.329,3.7-3.017,6.7-5.649,9.312a2.255,2.255,0,0,1-3.134.665q-3.688-1.594-7.258-3.441a40.629,40.629,0,0,1-10.482-7.169,49.237,49.237,0,0,1-4.4-5.385Q752.754,84.018,744.89,73.4c-2.606-3.519-5.3-7.236-5.911-11.572Z" transform="translate(84.536 22.952)" fill="#9b5e0e"/>
    <g id="Group_1451" data-name="Group 1451" transform="translate(823.744 62.78)">
      <path id="Path_3704" data-name="Path 3704" d="M739.16,50.418c1.864,2.317,5.283,1.663,7.872,2.124a5.315,5.315,0,0,1,3.606,2.161,9.834,9.834,0,0,1,1.5,4.441,49.124,49.124,0,0,0,.685,5.838,9.261,9.261,0,0,0,2.419,4.35,9.126,9.126,0,0,0,4.141,2.4,22.32,22.32,0,0,0,5.962.327,11.126,11.126,0,0,1,5,.8,5.114,5.114,0,0,1,2.88,2.923,3.436,3.436,0,0,1,.144,1.01.345.345,0,0,0,.689,0c0-3.149-3.328-4.97-6.084-5.319-2.014-.254-4.051.01-6.072-.083a9.292,9.292,0,0,1-5.035-1.587,8.427,8.427,0,0,1-2.978-3.74,20.344,20.344,0,0,1-.951-5.83c-.264-3.1-1.106-6.74-4.346-7.988a14.518,14.518,0,0,0-4.325-.65,7.441,7.441,0,0,1-3.919-.99,3.506,3.506,0,0,1-.7-.677c-.278-.346-.762.144-.488.486Z" transform="translate(-739.079 -49.814)" fill="#9b5e0e"/>
    </g>
    <path id="Path_3705" data-name="Path 3705" d="M713.354,91.509a13.757,13.757,0,0,0-5.287.234,6.147,6.147,0,0,0-4.018,3.234,1.3,1.3,0,0,0-.118.935c.26.724,1.327.6,2.016.262s1.577-.752,2.147-.236c.654.591.3,1.984,1.13,2.279a1.393,1.393,0,0,0,1.025-.187,46.146,46.146,0,0,0,5.311-2.97q-1.081-2.073-2.157-4.145Z" transform="translate(50.584 52.767)" fill="#fed5b7"/>
    <path id="Path_3706" data-name="Path 3706" d="M794.628,90.176c.232,5.846-5.85,10.462-11.229,12.765s-11.395,3.319-16.141,6.74c-2.216,1.6-4.077,3.671-6.415,5.084a14.032,14.032,0,0,1-14.8-.4c2.7-2.2.226-7.131,2.423-9.834a6.893,6.893,0,0,1,2.393-1.649l12.08-6.009c9.515-4.734,21.408-9.6,31.685-6.891Z" transform="translate(91.413 51.113)" fill="#363644"/>
    <g id="Group_1454" data-name="Group 1454" transform="translate(656.141 236.034)">
      <g id="Group_1452" data-name="Group 1452" transform="translate(0 18.427)">
        <path id="Path_3707" data-name="Path 3707" d="M743.921,147.2,708.9,154.018q-17.509,3.41-35.015,6.816l-19.709,3.838c-.433.085-.25.748.183.663q17.509-3.41,35.017-6.816l35.015-6.818,19.709-3.836c.433-.085.25-.748-.183-.663Z" transform="translate(-653.931 -147.194)"/>
      </g>
      <g id="Group_1453" data-name="Group 1453" transform="translate(5.795)">
        <path id="Path_3708" data-name="Path 3708" d="M732.667,191.763l-14.69-10.511L703.285,170.74l-14.692-10.511q-7.346-5.253-14.692-10.509l-14.692-10.511q-.915-.655-1.834-1.313c-.362-.258-.707.339-.348.594q7.346,5.253,14.692,10.509l14.692,10.511,14.69,10.511q7.346,5.256,14.692,10.509l14.692,10.511,1.836,1.315c.36.258.7-.339.346-.594Z" transform="translate(-656.875 -137.833)"/>
      </g>
    </g>
    <g id="Group_1457" data-name="Group 1457" transform="translate(675.568 216.344)">
      <g id="Group_1455" data-name="Group 1455" transform="translate(0 8.57)">
        <path id="Path_3709" data-name="Path 3709" d="M715.135,211.577q-4.948-7.739-9.9-15.473t-9.9-15.473l-9.9-15.473-9.856-15.406q-4.949-7.736-9.9-15.473l-1.238-1.933c-.238-.372-.835-.028-.595.346q4.949,7.736,9.9,15.473t9.9,15.473l9.9,15.473,9.854,15.406q4.952,7.736,9.9,15.473l1.236,1.933c.238.372.835.028.594-.346Z" transform="translate(-663.801 -132.184)"/>
      </g>
      <g id="Group_1456" data-name="Group 1456" transform="translate(16.048)">
        <path id="Path_3710" data-name="Path 3710" d="M672.624,221.688q3.484-18.229,6.964-36.454t6.966-36.456q1.958-10.257,3.919-20.516c.083-.433-.581-.618-.663-.183q-3.484,18.226-6.964,36.454t-6.966,36.454q-1.958,10.26-3.919,20.518c-.083.433.581.618.663.183Z" transform="translate(-671.953 -127.83)"/>
      </g>
    </g>
    <g id="Group_1460" data-name="Group 1460" transform="translate(675.899 216.407)">
      <g id="Group_1458" data-name="Group 1458" transform="translate(15.962)">
        <path id="Path_3711" data-name="Path 3711" d="M690.913,221.47q-3.543-18.214-7.088-36.429t-7.088-36.429q-1.993-10.254-3.988-20.5c-.085-.435-.748-.252-.663.183q3.543,18.211,7.086,36.427t7.088,36.431q2,10.251,3.99,20.5c.085.433.748.25.663-.183Z" transform="translate(-672.078 -127.862)"/>
      </g>
      <g id="Group_1459" data-name="Group 1459" transform="translate(0 5.466)">
        <path id="Path_3712" data-name="Path 3712" d="M664.619,210.565q4.931-7.765,9.862-15.534l9.82-15.469q4.907-7.733,9.818-15.467l9.862-15.536,9.82-15.469,1.232-1.941c.238-.376-.356-.722-.594-.348l-9.862,15.536q-4.91,7.733-9.818,15.467t-9.82,15.469l-9.862,15.536-9.82,15.467q-.617.971-1.232,1.943c-.238.374.356.72.594.346Z" transform="translate(-663.969 -130.638)"/>
      </g>
    </g>
    <g id="Group_1463" data-name="Group 1463" transform="translate(653.665 234.371)">
      <g id="Group_1461" data-name="Group 1461" transform="translate(7.819)">
        <path id="Path_3713" data-name="Path 3713" d="M657.144,193.35Q664.6,188.03,672,182.643q7.5-5.447,14.976-10.93,7.553-5.533,15.1-11.072,7.488-5.489,14.989-10.954,7.426-5.4,14.887-10.747l1.807-1.293c.358-.254.016-.852-.346-.594q-7.452,5.321-14.859,10.708-7.5,5.447-14.975,10.932-7.553,5.53-15.1,11.07-7.488,5.489-14.991,10.954-7.423,5.4-14.887,10.749c-.6.431-1.2.86-1.807,1.291-.356.254-.014.852.349.594Z" transform="translate(-656.646 -136.988)"/>
      </g>
      <g id="Group_1462" data-name="Group 1462" transform="translate(0 21.001)">
        <path id="Path_3714" data-name="Path 3714" d="M652.921,148.328c5.994,1.175,11.968,2.453,17.928,3.781,6.228,1.388,12.442,2.834,18.652,4.3q9.4,2.22,18.8,4.464c6.228,1.474,12.46,2.935,18.7,4.342,6,1.35,12,2.653,18.03,3.86q1.107.221,2.212.439c.433.085.618-.579.183-.663-5.994-1.175-11.968-2.453-17.928-3.781-6.228-1.388-12.442-2.834-18.652-4.3q-9.4-2.22-18.8-4.464c-6.23-1.474-12.46-2.935-18.705-4.342-6-1.35-12-2.653-18.03-3.86q-1.1-.221-2.212-.439c-.431-.085-.618.579-.183.663Z" transform="translate(-652.673 -147.657)"/>
      </g>
    </g>
    <path id="Path_3715" data-name="Path 3715" d="M799.51,163.493a10.857,10.857,0,0,0,3.752-1.9,10.714,10.714,0,0,0,4.041-7.521c.449-5.61-3.937-7.309-5.982-8.169-2.766-1.163-5.931-1.035-8.96-.884-9.921.494-46.245,3.236-58.935,5.693a21.409,21.409,0,0,0-9.678,5.226,14.11,14.11,0,0,0-5.069,9.116c-.6,6.937,4.559,11.066,11.741,12.938s14.846.455,22.054-1.331C763.018,174.047,794.028,165.083,799.51,163.493Z" transform="translate(64.863 105.063)" fill="#363644"/>
    <path id="Path_3716" data-name="Path 3716" d="M689.218,155.681a8.023,8.023,0,1,1-8.023-8.023A8.025,8.025,0,0,1,689.218,155.681Z" transform="translate(20.842 107.716)" fill="#363644"/>
    <path id="Path_3717" data-name="Path 3717" d="M728.833,121.23q-1.119,6.688-2.071,13.4a17.611,17.611,0,0,0-.112,6.338,17.906,17.906,0,0,0,2,4.582q9.546,17.278,19.087,34.557,4.11-2.944,8.218-5.891a2.387,2.387,0,0,0,1.022-1.142,2.361,2.361,0,0,0-.136-1.342,112.02,112.02,0,0,0-13.269-28.354,9.415,9.415,0,0,1-1.384-2.687,9.1,9.1,0,0,1-.014-3.415q1.1-9,2.21-17.991a45.71,45.71,0,0,0-14.833,1.136Z" transform="translate(72.387 80.072)" fill="#ddb192"/>
    <g id="Group_1466" data-name="Group 1466" transform="translate(815.077 232.955)">
      <g id="Group_1464" data-name="Group 1464" transform="translate(0 18.427)">
        <path id="Path_3718" data-name="Path 3718" d="M824.664,145.637l-35.015,6.818-35.017,6.816-19.707,3.836c-.435.085-.25.748.183.663l35.015-6.816,35.018-6.816,19.707-3.836c.435-.085.25-.748-.183-.665Z" transform="translate(-734.676 -145.63)"/>
      </g>
      <g id="Group_1465" data-name="Group 1465" transform="translate(5.795)">
        <path id="Path_3719" data-name="Path 3719" d="M813.412,190.2,798.72,179.688l-14.692-10.509-14.69-10.511-14.692-10.511q-7.346-5.256-14.692-10.509l-1.837-1.315c-.36-.258-.7.339-.346.594l14.69,10.511,14.692,10.511q7.346,5.253,14.692,10.509l14.692,10.511,14.692,10.511,1.836,1.313c.36.258.7-.339.347-.594Z" transform="translate(-737.62 -136.269)"/>
      </g>
    </g>
    <g id="Group_1469" data-name="Group 1469" transform="translate(834.504 213.266)">
      <g id="Group_1467" data-name="Group 1467" transform="translate(0 8.57)">
        <path id="Path_3720" data-name="Path 3720" d="M795.88,210.013l-9.9-15.473q-4.949-7.736-9.9-15.473t-9.9-15.471q-4.928-7.7-9.854-15.406l-9.9-15.473q-.617-.968-1.236-1.935c-.238-.372-.835-.028-.594.348l9.9,15.471q4.949,7.739,9.9,15.473t9.9,15.473l9.856,15.406q4.949,7.739,9.9,15.473l1.238,1.935c.238.372.835.028.594-.348Z" transform="translate(-744.545 -130.62)"/>
      </g>
      <g id="Group_1468" data-name="Group 1468" transform="translate(16.048)">
        <path id="Path_3721" data-name="Path 3721" d="M753.369,220.124q3.481-18.226,6.964-36.454l6.964-36.454q1.96-10.26,3.919-20.518c.083-.433-.581-.618-.663-.183q-3.481,18.229-6.964,36.456t-6.964,36.454q-1.961,10.257-3.919,20.516c-.083.433.581.618.663.183Z" transform="translate(-752.698 -126.266)"/>
      </g>
    </g>
    <g id="Group_1472" data-name="Group 1472" transform="translate(834.834 213.329)">
      <g id="Group_1470" data-name="Group 1470" transform="translate(15.962)">
        <path id="Path_3722" data-name="Path 3722" d="M771.659,219.906q-3.546-18.214-7.088-36.429t-7.088-36.429q-2-10.251-3.99-20.5c-.085-.435-.748-.25-.663.183q3.546,18.214,7.088,36.429t7.088,36.429q1.993,10.251,3.99,20.5c.085.435.748.25.663-.183Z" transform="translate(-752.822 -126.298)"/>
      </g>
      <g id="Group_1471" data-name="Group 1471" transform="translate(0 5.467)">
        <path id="Path_3723" data-name="Path 3723" d="M745.363,209l9.864-15.536q4.907-7.733,9.818-15.467t9.82-15.469l9.862-15.536,9.82-15.467q.614-.971,1.232-1.943c.238-.376-.358-.72-.594-.346q-4.931,7.768-9.862,15.534L775.5,160.24q-4.91,7.736-9.818,15.469-4.934,7.768-9.863,15.534-4.91,7.736-9.818,15.469l-1.234,1.943c-.238.374.358.72.594.346Z" transform="translate(-744.713 -129.075)"/>
      </g>
    </g>
    <g id="Group_1475" data-name="Group 1475" transform="translate(812.601 231.294)">
      <g id="Group_1473" data-name="Group 1473" transform="translate(7.819)">
        <path id="Path_3724" data-name="Path 3724" d="M737.888,191.786q7.455-5.321,14.859-10.706,7.5-5.447,14.977-10.932,7.55-5.533,15.1-11.072,7.488-5.486,14.991-10.952,7.426-5.4,14.887-10.749.9-.647,1.807-1.291c.358-.256.014-.852-.346-.594q-7.455,5.321-14.859,10.706-7.5,5.45-14.977,10.932-7.55,5.533-15.1,11.072-7.488,5.489-14.991,10.952-7.426,5.4-14.887,10.749-.9.647-1.807,1.291c-.358.256-.014.852.346.594Z" transform="translate(-737.39 -135.425)"/>
      </g>
      <g id="Group_1474" data-name="Group 1474" transform="translate(0 21.001)">
        <path id="Path_3725" data-name="Path 3725" d="M733.666,146.765c5.994,1.175,11.968,2.451,17.928,3.779q9.342,2.085,18.652,4.3,9.4,2.217,18.8,4.462c6.228,1.474,12.46,2.935,18.7,4.342,6,1.352,12.005,2.655,18.032,3.862q1.1.221,2.21.437c.433.085.618-.579.183-.663-5.994-1.175-11.966-2.451-17.928-3.779q-9.339-2.084-18.65-4.3-9.4-2.217-18.8-4.462-9.342-2.214-18.7-4.342c-6-1.352-12-2.655-18.03-3.862q-1.107-.221-2.212-.437c-.433-.085-.618.579-.183.663Z" transform="translate(-733.418 -146.094)"/>
      </g>
    </g>
    <path id="Path_3726" data-name="Path 3726" d="M704.372,100.9a2.885,2.885,0,0,0,3.187,2.232,5.072,5.072,0,0,0,3.46-2.34,24.672,24.672,0,0,0,1.907-3.86,4.117,4.117,0,0,1,1.362-1.852,4.3,4.3,0,0,1,3.169-.215,92.561,92.561,0,0,1,13.566,4.226,3.628,3.628,0,0,1,1.919,1.226c.766,1.189-.193,2.878-1.518,3.37a6.751,6.751,0,0,1-4.159-.244c-2.669-.768-5.291-1.693-7.881-2.693a3.887,3.887,0,0,0-1.732-.38c-2.055.2-2.49,3.236-4.322,4.189a12.423,12.423,0,0,1,9.763,4.832c.478.632.679,1.844-.106,1.947a1.178,1.178,0,0,1-.854-.384c-2.138-1.831-4.055-4.256-6.82-4.769-3.407-.632-6.868,1.923-10.23,1.089a6.91,6.91,0,0,1-4.643-5.019,15.757,15.757,0,0,1,.087-7.106,4.25,4.25,0,0,1,.89-2.173c.974-1.028,2.632-.888,4.014-.577a31.887,31.887,0,0,1,6.358,2.155,2.322,2.322,0,0,1,1.285,1.059c.518,1.254-1.325,2.279-2.638,1.941s-2.447-1.329-3.8-1.38a2.925,2.925,0,0,0-2.768,1.821C703.441,99.091,704.372,100.9,704.372,100.9Z" transform="translate(46.886 53.982)" fill="#8ca3c4"/>
    <path id="Path_3727" data-name="Path 3727" d="M734.483,62.061c-2,5.856-3.712,11.293-5.716,17.148-.8,2.327-4.543,8.183-4.83,10.627a21.874,21.874,0,0,0,.464,7.206,19.621,19.621,0,0,0,4.108,8.763c1.266,1.451,2.807,2.642,4.065,4.1,1.856,2.155,5.46,4.264,6.509,6.909,1.366,3.441,3.525,13.214,4.3,13.208,9.726-.059,20.428-1.748,26.74-9.147-3.386-10.155-10.362-18.678-15.074-28.287C750.578,83.477,748.2,73.5,744.5,64.049a1.38,1.38,0,0,0-1.933-1.079c-3.321.669-4.768-1.577-8.088-.909Z" transform="translate(69.884 24.704)" fill="#e15046"/>
    <path id="Path_3728" data-name="Path 3728" d="M739.612,75.533c-8.694,11.623-18.05,23.774-31.494,29.246a33.633,33.633,0,0,0,2.758,6.746,41.027,41.027,0,0,0,12.017-2.053c9.072-3.177,16-10.452,22.56-17.479a26.854,26.854,0,0,1-5.966-16.062Z" transform="translate(54.683 37.872)" fill="#363644"/>
    <path id="Path_3729" data-name="Path 3729" d="M730.732,119.416q-2.306,7.012-4.614,14.021a62.436,62.436,0,0,0,20.558,2.815,173.521,173.521,0,0,0,13.92-30c-5.919.2-11.94.476-17.53,2.431s-10.791,5.856-12.907,11.387Z" transform="translate(72.114 67.62)" fill="#685434"/>
    <path id="Path_3730" data-name="Path 3730" d="M732.6,167.75a238.611,238.611,0,0,0,37.2-.837,15.438,15.438,0,0,0,4.842-1.043,15,15,0,0,0,4.092-3.1c10.289-9.993,17.143-19.3,25.5-30.957-7.366-4.478-14.682-6.006-23.3-6.155a55.319,55.319,0,0,0-8.793.659c-10.352,1.392-18.483,6.358-25.28,14.288s-11.668,17-13.631,27.26Z" transform="translate(78.388 86.407)" fill="#8ca3c4"/>
    <path id="Path_3731" data-name="Path 3731" d="M735.077,187.321s-3.378-20.747,4.035-32.636,23.882-27.628,41.672-28.039,36.177,9.923,40.958,16.141a65.187,65.187,0,0,1,7.005,11.017l4.567,1.541S827.3,134.437,806.2,127.211s-37.836-3.474-44.995.24-25.805,16.765-29.27,31.2-1.588,29.762-1.588,29.762Z" transform="translate(75.719 83.933)" fill="#9b5e0e"/>
    <path id="Path_3732" data-name="Path 3732" d="M677.715,124.1a6.354,6.354,0,0,0,5.563,3.549c3.559.094,43.92,10.5,43.985,54.678,0,2.909-1.331,5.689-1.588,8.588s-.953,5.653,1.029,7.846c0,0,5.183-18.168,2.317-33.134S710.8,130.59,691.133,125.687C687.317,124.734,677.715,124.1,677.715,124.1Z" transform="translate(25.242 84.906)" fill="#9b5e0e"/>
    <path id="Path_3733" data-name="Path 3733" d="M773.8,122.828a1.185,1.185,0,0,1,1.006-1.577,1.924,1.924,0,0,1,1.764,1.11,5.67,5.67,0,0,1,.492,2.138,15.3,15.3,0,0,1-.307,6.48c-.238.689-.744,1.445-1.47,1.4-.9-.059-1.206-1.22-1.267-2.124q-.257-3.829-.516-7.661Z" transform="translate(117.998 82.138)" fill="#e15046"/>
    <path id="Path_3734" data-name="Path 3734" d="M701.071,225.777a49.287,49.287,0,1,1,19.237-3.886A49.094,49.094,0,0,1,701.071,225.777Zm0-96.328a46.906,46.906,0,1,0,46.906,46.906A46.959,46.959,0,0,0,701.071,129.449Z" transform="translate(0 87.648)"/>
    <path id="Path_3735" data-name="Path 3735" d="M700.43,223.246a47.489,47.489,0,1,1,18.54-3.744A47.323,47.323,0,0,1,700.43,223.246Zm0-92.834a45.206,45.206,0,1,0,45.2,45.206A45.257,45.257,0,0,0,700.43,130.412Z" transform="translate(1.114 88.669)" fill="#8ca3c4"/>
    <path id="Path_3736" data-name="Path 3736" d="M780.926,221.968a47.467,47.467,0,1,1,18.54-3.742A47.336,47.336,0,0,1,780.926,221.968Zm0-92.834a45.206,45.206,0,1,0,45.206,45.206A45.256,45.256,0,0,0,780.926,129.134Z" transform="translate(79.066 87.431)" fill="#8ca3c4"/>
    <path id="Path_3737" data-name="Path 3737" d="M781.823,224.179a49.265,49.265,0,1,1,19.239-3.884A49.092,49.092,0,0,1,781.823,224.179Zm0-96.326a46.906,46.906,0,1,0,46.906,46.906A46.959,46.959,0,0,0,781.823,127.853Z" transform="translate(78.2 86.1)"/>
    <path id="Path_3738" data-name="Path 3738" d="M744.006,47.5A8.908,8.908,0,0,1,745.4,59.429a5.8,5.8,0,0,0-.878,1.283,6.68,6.68,0,0,0-.169,2.455,5.859,5.859,0,0,1-2.575,4.783,5.246,5.246,0,0,1-5.372.185c-.829-.482-1.508-1.2-2.374-1.612-.512-.24-1.075-.366-1.563-.65a3.529,3.529,0,0,1-1.329-3.99,7.219,7.219,0,0,1,2.716-3.527,11.336,11.336,0,0,0,2.057-1.752c.915-1.136,1.171-2.647,1.653-4.025a12.128,12.128,0,0,1,3.7-5.3Z" transform="translate(76.828 10.506)" fill="#f59f18"/>
    <path id="Path_3739" data-name="Path 3739" d="M750.325,58.547a5.5,5.5,0,0,0-5.618-.439c.029-4.679.061-8.1.09-12.779l-17.7-.506-1.337,10.322-5.943,3.084,3.947,2.035s-.614,6.7-.116,10.017a3.385,3.385,0,0,0,.651,1.781,3.183,3.183,0,0,0,1.955.848,14.383,14.383,0,0,0,4.492-.014,2.409,2.409,0,0,1,1.417.033,2.231,2.231,0,0,1,.9,1.071c1.461,2.781,4.38,8.346,4.38,8.346s-1.957,12.4-3.771,18.418c2.145-3.449,9.678-17.6,9.678-17.6l6.913-4.649s-2.33-8.45-3.962-12.627c1.242,1.537,3.99-.405,5.078-2.055A4.123,4.123,0,0,0,750.325,58.547Z" transform="translate(66.014 8.133)" fill="#fed5b7"/>
    <g id="Group_1476" data-name="Group 1476" transform="translate(701.197 160.848)">
      <path id="Path_3740" data-name="Path 3740" d="M869.194,146.035a7.531,7.531,0,0,0-2.87-4.807l-.234-.177a7.534,7.534,0,0,0-4.848-1.541l-42.94,1.575a7.53,7.53,0,0,0-4.3,1.545l-10.921,8.352-5.911-6.163,10.186-25.15-5.659-.754L777.551,186.7s-16.6-5.785-25.906-15.719a181.7,181.7,0,0,1-17.95-23.459,74.767,74.767,0,0,1-8.157-17.662c-.968-3.128-1.669-6.116-1.433-7.671.628-4.151,6.864-22.109,6.864-22.109l-.913.14a6.186,6.186,0,0,1-3.7-.579C716.242,125.355,708,145.743,700,169.763c-1.856,5.574-3.716,11.316-7.435,15.863-4.36,5.33-11.029,8.716-15.3,13.93a1.92,1.92,0,0,0,2.368,2.917c9.129-4.771,16.1-12.889,21.121-21.823s8.277-18.733,11.5-28.463c21.558,13.529,26.951,44.58,48.684,57.825a23.165,23.165,0,0,0,11.1,3.76,32.387,32.387,0,0,0,6.421-.648l7.8-1.313q18.35-3.091,36.7-6.179c4.065-.685,8.3-1.439,11.608-3.9,2.921-2.167,21-27.971,26.229-37.175l7.553-13.706A7.527,7.527,0,0,0,869.194,146.035ZM748,184.808c-9.181-13.832-15.347-22.817-22.006-28.923-1.51-1.382-10.6-11.358-10.6-11.358a71.764,71.764,0,0,1,4.765-12.269c1.949,3.362,14.3,26.831,21.583,34.2,3.642,3.691,7.32,9.446,11.32,12.743,7.031,5.795,14.578,11.82,23.613,13q-2.262,6.646-3.943,13.472S757.178,198.641,748,184.808Zm83.126,12.21a4.43,4.43,0,0,1-3.425,2.222l-51.28,7.45c6.99-18.44,13.137-38.135,19.743-56.715l34.525,42.039A4.425,4.425,0,0,1,831.124,197.017Zm31.864-46.233q-12.126,20.423-25.461,40.094a2.42,2.42,0,0,1-.378.447c-1.089.994-2.238.087-3.053-.74a205.019,205.019,0,0,1-26.664-33.492,3.9,3.9,0,0,1,.679-4.982,30.855,30.855,0,0,1,15.761-7.582,60.92,60.92,0,0,1,7.743-.567l25.461-.774c2.864-.087,6.573.441,7.189,3.238C864.6,147.942,863.781,149.45,862.988,150.784Z" transform="translate(-676.821 -99.636)" fill="#f59f18"/>
    </g>
    <path id="Path_3741" data-name="Path 3741" d="M749.176,123.573c.213-.285,28.969-.752,42.964-.966,3.884-.059,7.824-.128,11.517-1.4a1.255,1.255,0,0,0,.768-1.673c-.254-.573-.8-.587-1.3-.583-13.674.1-27.37.195-40.98,1.524-5.336.522-11.174,1.118-15.643-1.846a3.28,3.28,0,0,0,2.48,4.919Z" transform="translate(91.417 79.608)" fill="#8ca3c4"/>
    <path id="Path_3742" data-name="Path 3742" d="M719.414,93.074l-3.939-.581a3.879,3.879,0,0,0-4.891,1.927c-1.337,1.949-2.73,4.338-1.844,6.529a1.821,1.821,0,0,0,1.226,1.193c.587.108,1.268-.427,1.114-1a1.118,1.118,0,1,0,2,.945,1.751,1.751,0,0,0,1.014,1.858c.726.226,1.61-.652,1.187-1.287.455.7,1.25,1.492,1.976,1.089.84-.465.34-1.724.366-2.683a2.845,2.845,0,0,1,1.659-2.313,8.389,8.389,0,0,1,2.889-.693q-1.157-2.495-2.313-4.992l-.427.459Z" transform="translate(55.015 54.151)" fill="#fed5b7"/>
    <path id="Path_3743" data-name="Path 3743" d="M759.619,160.025Q776.4,146.133,794.5,133.8a6.019,6.019,0,0,1,2.049,1.931,230.082,230.082,0,0,0-36.939,26.616,1.315,1.315,0,0,1,.134-2.458Z" transform="translate(103.781 94.298)" fill="#f59f18"/>
    <path id="Path_3744" data-name="Path 3744" d="M677.755,150.981a1.97,1.97,0,0,0,.988,3.4c3.145.653,6.559.48,9.806.819,3.4.354,38.169,6.964,38.962,6.944.177-1.3.1-.742.279-2.045l-41.159-6.988-6.649-2.539a2.167,2.167,0,0,0-2.228.413Z" transform="translate(24.654 110.394)" fill="#f59f18"/>
    <path id="Path_3745" data-name="Path 3745" d="M720.93,107.735c-4.006,2.039-8.541,4.828-8.883,9.308a10.937,10.937,0,0,0,.815,4.466c2.7,7.513,8.186,13.625,12.826,20.123a103.143,103.143,0,0,1,11.487,20.8,15.862,15.862,0,0,1,1.443,5.384,12.154,12.154,0,0,1-1.085,5.051,20.87,20.87,0,0,1-9.633,10.409c-.913.468-1.966.99-2.224,1.982a26.124,26.124,0,0,0,18.068-7.44c1.344-1.327,2.6-2.84,4.328-3.6,1.791-.787,3.972-.7,5.515-1.905,2.283-1.785,1.915-5.472.341-7.905s-4.021-4.183-5.726-6.527c-2.232-3.071-3.028-6.915-4.151-10.541-3.14-10.112-5.592-17.865-13.759-24.6,5.809-.8,7.929-3,13.737-3.793l-13.651-16.607Z" transform="translate(58.469 63.829)" fill="#fed5b7"/>
    <path id="Path_3746" data-name="Path 3746" d="M748.429,135.15c.75.8,1.075,2.915,1.453,3.947a3.328,3.328,0,0,1-.825,3.3,10.968,10.968,0,0,1-3.132,2.216,4.081,4.081,0,0,1-4.061-.344c-4.767,5.523-10.216,11.415-17.456,12.326a6.264,6.264,0,0,1-3.791-.482,2.956,2.956,0,0,1-1.583-3.226c7.675-.024,13.8-5.254,19.786-10.062,5.1-4.1,9.608-7.673,9.608-7.673Z" transform="translate(65.17 95.603)"/>
    <path id="Path_3747" data-name="Path 3747" d="M721.109,145.528c2.628.033,5.175-.348,6.6,1.634l5.031-3.049a7.756,7.756,0,0,0-7.033-4.433Z" transform="translate(67.263 99.99)"/>
    <path id="Path_3748" data-name="Path 3748" d="M724.868,137.805a40.6,40.6,0,0,1,13.777,4.614c.712-.047,1.037-1.022.722-1.661a3.167,3.167,0,0,0-1.651-1.291,50.152,50.152,0,0,0-12.18-3.809Z" transform="translate(70.903 96.095)"/>
    <path id="Path_3749" data-name="Path 3749" d="M729.849,143.363q2.415-5.687,4.828-11.373a10.353,10.353,0,0,0,2.244,1.537,55.185,55.185,0,0,0-4.195,10.513,8.6,8.6,0,0,1-2.909-1.213Z" transform="translate(75.696 92.543)"/>
    <path id="Path_3750" data-name="Path 3750" d="M736.712,115.216a148.382,148.382,0,0,0,23.233.2,11.394,11.394,0,0,0,5.257-1.266,5.947,5.947,0,0,0,2.557-3.348,3.386,3.386,0,0,0-.216-2.752,4.39,4.39,0,0,0-3.222-1.557c-6.637-.98-13.381.262-19.975,1.5a12.739,12.739,0,0,0-5.518,1.953c-1.567,1.193-2.521,3.439-1.622,5.189Z" transform="translate(82.373 67.515)" fill="#e15046"/>
    <path id="Path_3751" data-name="Path 3751" d="M728.26,169.493c-1.856-1.094-1.742-2.868-1.927-5.015a84.425,84.425,0,0,0-2.287-12.249,5.428,5.428,0,0,0-.941-2.3,1.864,1.864,0,0,0-2.238-.585c-.655-.7-1.327-1.805-.671-2.5a1.923,1.923,0,0,1,1.075-.451q5.167-1,10.33-1.994a2.437,2.437,0,0,1,2.057.22,1.587,1.587,0,0,1,.165,1.99,3.625,3.625,0,0,1-1.714,1.285,10.95,10.95,0,0,1-4.72.892,66.633,66.633,0,0,0,3.4,13.621c.632,1.559,1.4,3.189,1.12,4.846s-2.208,3.12-3.64,2.236Z" transform="translate(66.119 104.444)" fill="#8ca3c4"/>
    <path id="Path_3752" data-name="Path 3752" d="M724.167,155.705a1.173,1.173,0,0,0-.228,1.551,1.852,1.852,0,0,0,2.714.463,1.739,1.739,0,0,0-.282-2.685,1.638,1.638,0,0,0-2.321,1.264Z" transform="translate(69.823 114.697)" fill="#363644"/>
    <path id="Path_3753" data-name="Path 3753" d="M750.063,101.167a359,359,0,0,0-33.336,15.408c4.706,8.047,10.242,16.357,14.948,24.4a212.173,212.173,0,0,0,33.143-13c4.218-2,8.452-4.179,11.771-7.462s5.641-7.877,5.161-12.521a23.875,23.875,0,0,0-1.474-5.5l-4.169-11.73a128.449,128.449,0,0,0-26,10.69Z" transform="translate(63.02 52.625)" fill="#c2b38c"/>
    <g id="Group_1477" data-name="Group 1477" transform="translate(771.376 180.966)">
      <path id="Path_3754" data-name="Path 3754" d="M712.669,110.025a2.047,2.047,0,0,0,1.307,2.834.352.352,0,0,0,.425-.24.349.349,0,0,0-.24-.423,1.172,1.172,0,0,1-.167-.047,1.649,1.649,0,0,1-.25-.132,2.163,2.163,0,0,1-.213-.189,1.483,1.483,0,0,1-.335-.63c-.016-.057-.024-.114-.035-.169a2.354,2.354,0,0,1,0-.281,1.787,1.787,0,0,1,.057-.258c0-.01.034-.094.018-.053s.026-.055.031-.065a.353.353,0,0,0-.124-.47.347.347,0,0,0-.47.124Z" transform="translate(-712.474 -109.856)" fill="#a46e4a"/>
    </g>
    <g id="Group_1478" data-name="Group 1478" transform="translate(801.568 222.738)">
      <path id="Path_3755" data-name="Path 3755" d="M728.148,131.247a3.574,3.574,0,0,0,.8,4.126c.329.3.817-.191.486-.488a2.875,2.875,0,0,1-.691-3.291.353.353,0,0,0-.124-.47.346.346,0,0,0-.47.124Z" transform="translate(-727.813 -131.078)" fill="#a46e4a"/>
    </g>
    <g id="Group_1479" data-name="Group 1479" transform="translate(783.344 167.891)">
      <path id="Path_3756" data-name="Path 3756" d="M718.593,103.736a80.108,80.108,0,0,0,5.576,9.3c2.033,3.014,4.141,5.978,6.063,9.064,1.081,1.738,2.1,3.517,3,5.352.195.4.789.049.594-.346a79.785,79.785,0,0,0-5.576-9.3c-2.033-3.014-4.141-5.978-6.061-9.064-1.083-1.738-2.1-3.518-3.006-5.352-.195-.4-.789-.049-.594.346Z" transform="translate(-718.554 -103.214)" fill="#685434"/>
    </g>
    <g id="Group_1480" data-name="Group 1480" transform="translate(833.74 153.508)">
      <path id="Path_3757" data-name="Path 3757" d="M752.461,96.092a17.084,17.084,0,0,0-8.049.732.353.353,0,0,0-.254.333q.4,3.735.8,7.472a5.445,5.445,0,0,0,.852,3.075,3.947,3.947,0,0,0,1.2.888c.514.27,1.039.52,1.565.766q1.839.862,3.742,1.571c.415.155.595-.51.183-.663-1.059-.4-2.1-.827-3.134-1.3q-.792-.36-1.569-.75a5.666,5.666,0,0,1-1.25-.744c-.789-.693-.8-1.821-.9-2.789q-.189-1.754-.376-3.51l-.429-4.019-.252.333a16.323,16.323,0,0,1,7.683-.734c.433.063.622-.6.183-.663Z" transform="translate(-744.157 -95.907)" fill="#685434"/>
    </g>
    <g id="Group_1481" data-name="Group 1481" transform="translate(833.908 156.219)">
      <path id="Path_3758" data-name="Path 3758" d="M744.676,99.2l9.059-1.252a.346.346,0,0,0,.24-.423.352.352,0,0,0-.423-.24l-9.058,1.252a.344.344,0,0,0-.24.423.352.352,0,0,0,.423.24Z" transform="translate(-744.243 -97.284)" fill="#685434"/>
    </g>
    <g id="Group_1482" data-name="Group 1482" transform="translate(813.461 153.243)">
      <path id="Path_3759" data-name="Path 3759" d="M734.012,96.425q4.866,3.221,9.734,6.446c.37.244.716-.35.348-.594l-9.735-6.446c-.37-.246-.715.35-.347.594Z" transform="translate(-733.855 -95.772)" fill="#685434"/>
    </g>
    <g id="Group_1483" data-name="Group 1483" transform="translate(814.473 153.358)">
      <path id="Path_3760" data-name="Path 3760" d="M734.613,96.509a54.018,54.018,0,0,1,5.307,1.606,23.373,23.373,0,0,1,4.882,2.537c.368.25.712-.346.348-.594a24.181,24.181,0,0,0-4.962-2.575,54.19,54.19,0,0,0-5.391-1.64.345.345,0,0,0-.183.665Z" transform="translate(-734.369 -95.831)" fill="#685434"/>
    </g>
    <circle id="Ellipse_20" data-name="Ellipse 20" cx="8.024" cy="8.024" r="8.024" transform="translate(852.29 251.417)" fill="#e15046"/>
    <path id="Path_3761" data-name="Path 3761" d="M723.293,47.953c-.714,2.724-1.87,4.858,3.842,6.706,1.988.642,4.4.262,5.994,1.567,1.5,1.222,1.695,3.492,3.2,4.708a5.867,5.867,0,0,0,4.468.813,18.759,18.759,0,0,1,4.645-.447c1.549.183,3.151,1.213,3.287,2.708.567-3,4.59-4.657,4.819-7.7a6.839,6.839,0,0,0-.417-2.443q-.647-2.152-1.293-4.309a5.4,5.4,0,0,0-1.724-3.041c-1.315-.931-3.232-.624-4.624-1.449-1.144-.675-1.711-1.976-2.718-2.831-1.628-1.38-4.1-1.342-6.187-.77s-4.041,1.59-6.181,1.947c-1.706.283-3.5.14-5.135.683S723.293,47.953,723.293,47.953Z" transform="translate(68.793 4.523)" fill="#f59f18"/>
    <path id="Path_3762" data-name="Path 3762" d="M763.177,61.572a8.1,8.1,0,0,0-12.1.915,20.955,20.955,0,0,0-3.425,7.253c-1.486,5.732-1.339,11.846-3.315,17.43-1.484,4.193-4.094,7.881-6.783,11.422-6.868,9.051-14.708,17.743-24.8,22.965q1.406,3.676,2.813,7.352a5.082,5.082,0,0,0,.978,1.785,4.457,4.457,0,0,0,2.24,1.061c7.043,1.634,14.517-1.331,20.008-6.031s13.391-8.769,17.174-14.928c7.958,3.823,9.741,8.694,15.627,15.277s12.556,13.141,21.115,15.314c2.206-3.726,6.11-6.133,10.106-7.8s8.23-2.758,12.125-4.649a32.3,32.3,0,0,0,11.93-9.976c-8.094-2.075-14.613-7.9-20.782-13.542-4.856-4.435-19.353-11.783-23.3-17.042C779.493,83.988,771.361,69.512,763.177,61.572Z" transform="translate(59.172 22.132)" fill="#8ca3c4"/>
    <g id="Group_1485" data-name="Group 1485" transform="translate(772.129 81.411)">
      <g id="Group_1484" data-name="Group 1484" clip-path="url(#clip-path)">
        <path id="Path_3763" data-name="Path 3763" d="M730.158,77.025l4.433-1.3a1.383,1.383,0,0,1,1.714,1.716l-1.3,4.433a1.413,1.413,0,0,0,0,.778l1.3,4.433a1.382,1.382,0,0,1-1.714,1.714l-4.433-1.3a1.375,1.375,0,0,0-.778,0l-4.433,1.3a1.382,1.382,0,0,1-1.716-1.714l1.3-4.433a1.408,1.408,0,0,0,0-.778l-1.3-4.433a1.384,1.384,0,0,1,1.716-1.716l4.433,1.3A1.375,1.375,0,0,0,730.158,77.025Z" transform="translate(-702.866 -43.408)" fill="#fff"/>
        <path id="Path_3764" data-name="Path 3764" d="M744.216,77.961l4.433-1.3a1.381,1.381,0,0,1,1.715,1.714l-1.3,4.433a1.377,1.377,0,0,0,0,.777l1.3,4.433a1.382,1.382,0,0,1-1.715,1.716l-4.433-1.3a1.375,1.375,0,0,0-.778,0l-4.433,1.3a1.382,1.382,0,0,1-1.714-1.716l1.3-4.433a1.373,1.373,0,0,0,0-.777l-1.3-4.433a1.381,1.381,0,0,1,1.714-1.714l4.433,1.3A1.375,1.375,0,0,0,744.216,77.961Z" transform="translate(-689.252 -42.5)" fill="#fff"/>
        <path id="Path_3765" data-name="Path 3765" d="M745.882,63.8l4.433-1.3a1.384,1.384,0,0,1,1.716,1.716l-1.3,4.433a1.367,1.367,0,0,0,0,.776l1.3,4.433a1.384,1.384,0,0,1-1.716,1.716l-4.433-1.3a1.411,1.411,0,0,0-.778,0l-4.433,1.3a1.383,1.383,0,0,1-1.715-1.716l1.3-4.433a1.37,1.37,0,0,0,0-.776l-1.3-4.433a1.383,1.383,0,0,1,1.715-1.716l4.433,1.3A1.411,1.411,0,0,0,745.882,63.8Z" transform="translate(-687.638 -56.216)" fill="#fff"/>
        <path id="Path_3766" data-name="Path 3766" d="M760.879,81.71l4.433-1.3a1.383,1.383,0,0,1,1.716,1.714l-1.3,4.433a1.374,1.374,0,0,0,0,.778l1.3,4.433a1.384,1.384,0,0,1-1.716,1.716l-4.433-1.3a1.375,1.375,0,0,0-.777,0l-4.433,1.3a1.382,1.382,0,0,1-1.714-1.716l1.3-4.433a1.377,1.377,0,0,0,0-.778l-1.3-4.433a1.381,1.381,0,0,1,1.714-1.714l4.433,1.3A1.374,1.374,0,0,0,760.879,81.71Z" transform="translate(-673.115 -38.869)" fill="#fff"/>
        <path id="Path_3767" data-name="Path 3767" d="M750.674,91.083l4.433-1.3a1.381,1.381,0,0,1,1.715,1.714l-1.3,4.433a1.376,1.376,0,0,0,0,.778l1.3,4.433a1.382,1.382,0,0,1-1.715,1.716l-4.433-1.3a1.411,1.411,0,0,0-.778,0l-4.433,1.3a1.384,1.384,0,0,1-1.716-1.716l1.3-4.433a1.377,1.377,0,0,0,0-.778l-1.3-4.433a1.382,1.382,0,0,1,1.716-1.714l4.433,1.3A1.375,1.375,0,0,0,750.674,91.083Z" transform="translate(-682.999 -29.793)" fill="#fff"/>
        <path id="Path_3768" data-name="Path 3768" d="M766.711,93.9l4.433-1.3a1.382,1.382,0,0,1,1.716,1.714l-1.3,4.433a1.377,1.377,0,0,0,0,.777l1.3,4.433a1.384,1.384,0,0,1-1.716,1.716l-4.433-1.3a1.375,1.375,0,0,0-.778,0l-4.433,1.3a1.383,1.383,0,0,1-1.715-1.716l1.3-4.433a1.373,1.373,0,0,0,0-.777l-1.3-4.433A1.381,1.381,0,0,1,761.5,92.6l4.433,1.3A1.375,1.375,0,0,0,766.711,93.9Z" transform="translate(-667.467 -27.07)" fill="#fff"/>
        <path id="Path_3769" data-name="Path 3769" d="M728.283,90.147l4.433-1.3a1.382,1.382,0,0,1,1.714,1.716L733.133,95a1.377,1.377,0,0,0,0,.778l1.3,4.433a1.38,1.38,0,0,1-1.714,1.714l-4.433-1.3a1.375,1.375,0,0,0-.778,0l-4.433,1.3a1.382,1.382,0,0,1-1.716-1.714l1.3-4.433a1.377,1.377,0,0,0,0-.778l-1.3-4.433a1.384,1.384,0,0,1,1.716-1.716l4.433,1.3A1.375,1.375,0,0,0,728.283,90.147Z" transform="translate(-704.682 -30.701)" fill="#fff"/>
      </g>
    </g>
    <g id="Group_1486" data-name="Group 1486" transform="translate(814.967 96.782)">
      <path id="Path_3771" data-name="Path 3771" d="M735.219,104c3.673-3.226,5.962-7.655,7.885-12.072a64.232,64.232,0,0,0,4.937-15.412,31.7,31.7,0,0,0,.2-9.082.353.353,0,0,0-.342-.344.346.346,0,0,0-.344.344A36.686,36.686,0,0,1,745.714,83.2c-.815,2.575-1.8,5.092-2.858,7.576a59,59,0,0,1-3.157,6.494,24.718,24.718,0,0,1-4.966,6.242c-.335.293.153.777.486.486Z" transform="translate(-734.62 -67.088)" fill="#363644"/>
    </g>
    <g id="Group_1487" data-name="Group 1487" transform="translate(775.513 141.655)">
      <path id="Path_3772" data-name="Path 3772" d="M714.594,90.32a83.406,83.406,0,0,0,5.269,10.434.344.344,0,0,0,.594-.346,82.389,82.389,0,0,1-5.2-10.271.358.358,0,0,0-.423-.24.347.347,0,0,0-.24.423Z" transform="translate(-714.576 -89.885)" fill="#363644"/>
    </g>
    <g id="Group_1488" data-name="Group 1488" transform="translate(774.706 144.137)">
      <path id="Path_3773" data-name="Path 3773" d="M714.4,100.271a18.643,18.643,0,0,0,9.159,1,30.425,30.425,0,0,0,11.6-4.2,48.279,48.279,0,0,0,7.265-5.35c.333-.293-.156-.778-.486-.486a41.293,41.293,0,0,1-12.361,7.8,23.559,23.559,0,0,1-10.393,1.648,16.376,16.376,0,0,1-4.6-1.073c-.411-.163-.59.5-.183.663Z" transform="translate(-714.166 -91.146)" fill="#363644"/>
    </g>
    <g id="Group_1489" data-name="Group 1489" transform="translate(800.614 132.148)">
      <path id="Path_3774" data-name="Path 3774" d="M727.363,85.58q1.848,4.042,3.7,8.086c.185.4.778.053.594-.348l-3.7-8.084c-.185-.4-.778-.053-.594.346Z" transform="translate(-727.328 -85.055)" fill="#363644"/>
    </g>
    <g id="Group_1490" data-name="Group 1490" transform="translate(803.006 131.15)">
      <path id="Path_3775" data-name="Path 3775" d="M728.555,84.977a25.829,25.829,0,0,0,2.978,7.177.345.345,0,0,0,.594-.348,25.122,25.122,0,0,1-2.907-7.011c-.106-.431-.772-.248-.665.183Z" transform="translate(-728.543 -84.548)" fill="#363644"/>
    </g>
    <g id="Group_1491" data-name="Group 1491" transform="translate(821.915 131.761)">
      <path id="Path_3776" data-name="Path 3776" d="M738.247,85.45q6.029,6.336,12.056,12.668a43.28,43.28,0,0,0,5.382,5.037,16.511,16.511,0,0,0,3.144,1.872,28.112,28.112,0,0,0,2.943,1.051c2.045.65,4.372,1.36,5.488,3.356a.344.344,0,0,0,.594-.346c-1-1.787-2.888-2.661-4.746-3.3-.978-.335-1.974-.618-2.948-.968a15.223,15.223,0,0,1-3.151-1.579,32.563,32.563,0,0,1-5.541-4.9c-1.978-2.065-3.944-4.143-5.917-6.214l-6.815-7.163c-.307-.321-.793.165-.488.486Z" transform="translate(-738.15 -84.859)" fill="#363644"/>
    </g>
    <g id="Group_1492" data-name="Group 1492" transform="translate(838.287 127.672)">
      <path id="Path_3777" data-name="Path 3777" d="M747.073,95.313q5.89-4.647,11.915-9.119,1.494-1.107,2.994-2.2c.407-.3.9-.7,1.411-.421a5.922,5.922,0,0,1,1.24,1.161q2.637,2.7,5.275,5.407,3,3.074,6,6.145V95.8q-5.264,5.09-10.706,9.993a7.342,7.342,0,0,1-1.271,1.059,1.249,1.249,0,0,1-1.37-.246c-.992-.691-1.925-1.48-2.882-2.218L753.74,99.8l-6.7-5.179a.348.348,0,0,0-.472.124.354.354,0,0,0,.124.47l12.23,9.446c1.021.789,2.035,1.587,3.063,2.366a2.7,2.7,0,0,0,1.356.632,1.954,1.954,0,0,0,1.374-.524c.945-.758,1.819-1.624,2.713-2.439q1.405-1.278,2.8-2.573,3.112-2.891,6.167-5.844a.348.348,0,0,0,0-.486Q770.9,90.162,765.4,84.529a17.01,17.01,0,0,0-1.289-1.291,1.6,1.6,0,0,0-1.468-.407,4.772,4.772,0,0,0-1.461.9q-.774.567-1.543,1.136-3.1,2.291-6.173,4.63-3.46,2.637-6.877,5.334c-.348.274.142.758.486.486Z" transform="translate(-746.467 -82.781)" fill="#363644"/>
    </g>
    <g id="Group_1493" data-name="Group 1493" transform="translate(842.364 130.756)">
      <path id="Path_3778" data-name="Path 3778" d="M749.136,96.18q5.3-4.709,11.047-8.877,1.621-1.172,3.272-2.3c.364-.248.02-.846-.346-.594q-5.905,4.03-11.391,8.635-1.553,1.3-3.067,2.649c-.333.3.155.779.486.486Z" transform="translate(-748.539 -84.348)" fill="#363644"/>
    </g>
    <g id="Group_1494" data-name="Group 1494" transform="translate(769.878 152.05)">
      <path id="Path_3779" data-name="Path 3779" d="M712.738,100.305a5.172,5.172,0,0,1,.492-4.634c.24-.372-.354-.716-.594-.346a5.836,5.836,0,0,0-.563,5.163c.155.409.821.232.665-.183Z" transform="translate(-711.713 -95.166)" fill="#a46e4a"/>
    </g>
    <g id="Group_1495" data-name="Group 1495" transform="translate(767.268 151.02)">
      <path id="Path_3780" data-name="Path 3780" d="M711.227,100.456a7.345,7.345,0,0,1,.905-5.3.345.345,0,0,0-.594-.348,8.068,8.068,0,0,0-.974,5.832c.091.433.756.25.663-.183Z" transform="translate(-710.387 -94.643)" fill="#a46e4a"/>
    </g>
    <g id="Group_1496" data-name="Group 1496" transform="translate(765.02 150.188)">
      <path id="Path_3781" data-name="Path 3781" d="M710.054,100.208a9.526,9.526,0,0,1,.7-5.46c.179-.4-.413-.752-.594-.348a10.359,10.359,0,0,0-.772,5.992c.073.437.736.252.663-.183Z" transform="translate(-709.245 -94.22)" fill="#a46e4a"/>
    </g>
    <g id="Group_1497" data-name="Group 1497" transform="translate(765.373 149.884)">
      <path id="Path_3782" data-name="Path 3782" d="M709.662,94.751l6.409,2.155c.421.142.6-.524.183-.663q-3.2-1.078-6.409-2.157c-.421-.142-.6.524-.183.665Z" transform="translate(-709.424 -94.066)" fill="#a46e4a"/>
    </g>
    <g id="Group_1498" data-name="Group 1498" transform="translate(758.479 146.816)">
      <path id="Path_3783" data-name="Path 3783" d="M706.254,93.2a3.008,3.008,0,0,1,2.3,1.071.344.344,0,1,0,.486-.486,3.681,3.681,0,0,0-2.783-1.274.345.345,0,0,0,0,.689Z" transform="translate(-705.922 -92.507)" fill="#a46e4a"/>
    </g>
    <g id="Group_1499" data-name="Group 1499" transform="translate(761.345 148.99)">
      <path id="Path_3784" data-name="Path 3784" d="M707.657,93.864a4.4,4.4,0,0,0,.455,3.972c.246.366.843.022.594-.348a3.757,3.757,0,0,1-.386-3.441.346.346,0,0,0-.24-.423.352.352,0,0,0-.423.24Z" transform="translate(-707.378 -93.611)" fill="#363644"/>
    </g>
    <g id="Group_1500" data-name="Group 1500" transform="translate(749.299 146.673)">
      <path id="Path_3785" data-name="Path 3785" d="M701.4,92.688a2.889,2.889,0,0,0,1.1,3.248.346.346,0,0,0,.47-.122.351.351,0,0,0-.122-.47,2.2,2.2,0,0,1-.787-2.472.344.344,0,0,0-.663-.183Z" transform="translate(-701.258 -92.434)" fill="#363644"/>
    </g>
    <g id="Group_1501" data-name="Group 1501" transform="translate(749.71 158.309)">
      <path id="Path_3786" data-name="Path 3786" d="M711.859,98.437a9.328,9.328,0,0,1-9.865,1.683c-.4-.177-.752.415-.346.594a9.893,9.893,0,0,0,8.541-.3,10.792,10.792,0,0,0,2.159-1.5c.331-.293-.158-.779-.488-.486Z" transform="translate(-701.467 -98.346)" fill="#363644"/>
    </g>
    <g id="Group_1502" data-name="Group 1502" transform="translate(750.634 157.051)">
      <path id="Path_3787" data-name="Path 3787" d="M702.354,97.878a2.234,2.234,0,0,0,.146,2.781.344.344,0,0,0,.486-.488,1.746,1.746,0,0,1-.144-.195c-.026-.043-.049-.087-.073-.132a2.193,2.193,0,0,1-.118-.372,1.875,1.875,0,0,1-.027-.24,2.2,2.2,0,0,1,.012-.282c.028-.138.041-.187.055-.234s.03-.094.047-.142a1.98,1.98,0,0,1,.211-.35.344.344,0,0,0-.124-.47.353.353,0,0,0-.471.124Z" transform="translate(-701.937 -97.707)" fill="#363644"/>
    </g>
    <g id="Group_1503" data-name="Group 1503" transform="translate(752.711 157.424)">
      <path id="Path_3788" data-name="Path 3788" d="M703.451,98a2.063,2.063,0,0,0-.211,2.275.348.348,0,0,0,.471.124.352.352,0,0,0,.124-.47c-.018-.033-.035-.067-.051-.1a1.955,1.955,0,0,1-.085-.272,2.1,2.1,0,0,1-.018-.394c0-.028.02-.122,0-.047.008-.035.012-.073.022-.11a1.634,1.634,0,0,1,.061-.213,1.336,1.336,0,0,1,.077-.157,1.1,1.1,0,0,1,.057-.094c.148-.195.183-.405.037-.541a.351.351,0,0,0-.488,0Z" transform="translate(-702.992 -97.897)" fill="#363644"/>
    </g>
    <g id="Group_1504" data-name="Group 1504" transform="translate(754.6 157.591)">
      <path id="Path_3789" data-name="Path 3789" d="M704.131,98.146a2.146,2.146,0,0,0,.827,2.673.346.346,0,0,0,.471-.124.351.351,0,0,0-.122-.47c-.043-.026-.085-.053-.126-.083a1.91,1.91,0,0,1-.161-.156,1.719,1.719,0,0,1-.213-.309,1.547,1.547,0,0,1-.092-.22,2.328,2.328,0,0,1-.065-.278,2.067,2.067,0,0,1-.012-.22c0-.051,0-.1.008-.15a2.134,2.134,0,0,1,.047-.217c.1-.264.087-.476-.091-.571a.348.348,0,0,0-.47.124Z" transform="translate(-703.952 -97.981)" fill="#363644"/>
    </g>
    <g id="Group_1505" data-name="Group 1505" transform="translate(743.559 183.687)">
      <path id="Path_3790" data-name="Path 3790" d="M699.812,121.548a8.485,8.485,0,0,1,.408-7.9,7.876,7.876,0,0,1,1.49-1.827c.329-.3-.159-.783-.486-.486a9.2,9.2,0,0,0-2.771,8.149,8.476,8.476,0,0,0,.766,2.415c.193.4.787.049.594-.348Z" transform="translate(-698.342 -111.239)" fill="#9b5e0e"/>
    </g>
    <g id="Group_1506" data-name="Group 1506" transform="translate(735.384 206.148)">
      <path id="Path_3791" data-name="Path 3791" d="M698.311,122.656a4.984,4.984,0,0,0-3.508,7.334c.211.39.8.041.594-.348a4.369,4.369,0,0,1,0-4.149,4.424,4.424,0,0,1,3.1-2.173c.435-.075.25-.738-.183-.663Z" transform="translate(-694.189 -122.65)" fill="#9b5e0e"/>
    </g>
    <g id="Group_1507" data-name="Group 1507" transform="translate(815.842 248.54)">
      <path id="Path_3792" data-name="Path 3792" d="M735.4,147.691q6.537-.068,13.06-.512t13.007-1.277q3.637-.467,7.261-1.047c.435-.071.25-.732-.183-.663q-6.41,1.03-12.869,1.685t-12.979.935q-3.646.156-7.3.191a.345.345,0,0,0,0,.689Z" transform="translate(-735.065 -144.186)" fill="#363644"/>
    </g>
    <g id="Group_1508" data-name="Group 1508" transform="translate(837.343 217.678)">
      <path id="Path_3793" data-name="Path 3793" d="M763.985,156.469a67.316,67.316,0,0,0,18.9-19.717c.618-.984,1.246-1.98,1.774-3.016.5-.98.813-2.218-.067-3.09a5.78,5.78,0,0,0-2.9-1.126c-1.23-.272-2.472-.484-3.72-.646a52.633,52.633,0,0,0-15.092.409,89.411,89.411,0,0,0-14.853,3.866q-.9.31-1.8.636c-.413.15-.234.813.183.663a98.017,98.017,0,0,1,14.351-4.09,56,56,0,0,1,14.71-1.045,39.2,39.2,0,0,1,7.226,1.151c.939.25,1.955.726,1.752,1.884a5.132,5.132,0,0,1-.689,1.6c-.274.482-.555.964-.842,1.441a66.79,66.79,0,0,1-17.95,19.552q-.658.475-1.325.935c-.364.248-.02.844.346.592Z" transform="translate(-745.988 -128.507)" fill="#363644"/>
    </g>
    <g id="Group_1509" data-name="Group 1509" transform="translate(817.374 228.064)">
      <path id="Path_3794" data-name="Path 3794" d="M749.466,133.885a59.33,59.33,0,0,0-11.4,15.912q-1.217,2.492-2.2,5.086c-.156.415.508.594.665.183a58.521,58.521,0,0,1,9.738-16.674q1.748-2.1,3.683-4.021a.344.344,0,0,0-.486-.486Z" transform="translate(-735.843 -133.784)" fill="#363644"/>
    </g>
    <path id="Path_3795" data-name="Path 3795" d="M699.442,110.705a3.343,3.343,0,0,1,.775-1.394,1.149,1.149,0,0,1,1.466-.142,1.406,1.406,0,0,1,.37.624,7.621,7.621,0,0,1,.185,3.559,19.546,19.546,0,0,1-3.683,8.992c-.6.8-1.567,1.638-2.478,1.23-.888-.4-.943-1.634-.74-2.583a11.657,11.657,0,0,1,2.5-5.074Z" transform="translate(42.213 70.244)" fill="#363644"/>
    <path id="Path_3796" data-name="Path 3796" d="M695.581,122.5a2.855,2.855,0,0,1-.307-2.094,20.9,20.9,0,0,1,3.783-9.549c.579-.8,1.433-1.636,2.394-1.417a22.531,22.531,0,0,1-3.819,12.371,2.025,2.025,0,0,1-.837.817.745.745,0,0,1-.992-.356Z" transform="translate(42.188 70.675)" fill="#e15046"/>
    <g id="Group_1510" data-name="Group 1510" transform="translate(790.128 268.621)">
      <path id="Path_3797" data-name="Path 3797" d="M722.611,154.5a2.6,2.6,0,0,0,.608,3.874.344.344,0,0,0,.346-.594,1.9,1.9,0,0,1-.468-2.793c.3-.329-.189-.817-.486-.486Z" transform="translate(-722.001 -154.388)" fill="#9b5e0e"/>
    </g>
    <g id="Group_1511" data-name="Group 1511" transform="translate(797.664 268.209)">
      <path id="Path_3798" data-name="Path 3798" d="M725.929,154.76a2.216,2.216,0,0,0,2.433.329.35.35,0,0,0,.124-.472.356.356,0,0,0-.473-.122,1.351,1.351,0,0,1-.181.069c-.077.024-.153.037-.232.055-.112.01-.152.01-.193.012s-.079,0-.118,0a2.853,2.853,0,0,1-.309-.053c-.037-.01-.075-.022-.114-.035a2.207,2.207,0,0,1-.281-.138c-.037-.024-.075-.051-.11-.077-.193-.169-.415-.193-.545-.049a.348.348,0,0,0,0,.486Z" transform="translate(-725.83 -154.179)" fill="#9b5e0e"/>
    </g>
    <g id="Group_1512" data-name="Group 1512" transform="translate(826.745 213.164)">
      <path id="Path_3799" data-name="Path 3799" d="M740.612,126.558a1.982,1.982,0,0,0,1.358,1.925,4.235,4.235,0,0,0,2.982-.3.355.355,0,0,0,.24-.423.347.347,0,0,0-.423-.24,3.938,3.938,0,0,1-2.457.36,1.324,1.324,0,0,1-1.012-1.319.347.347,0,0,0-.344-.344.353.353,0,0,0-.345.344Z" transform="translate(-740.604 -126.214)" fill="#9b5e0e"/>
    </g>
    <g id="Group_1513" data-name="Group 1513" transform="translate(819.17 206.342)">
      <path id="Path_3800" data-name="Path 3800" d="M738.55,122.767a3.111,3.111,0,0,0-.953,4.933c.319.307.807-.179.486-.486a2.423,2.423,0,0,1,.65-3.781.355.355,0,0,0,.24-.423.346.346,0,0,0-.423-.242Z" transform="translate(-736.755 -122.749)" fill="#9b5e0e"/>
    </g>
    <g id="Group_1514" data-name="Group 1514" transform="translate(854.624 256.18)">
      <path id="Path_3801" data-name="Path 3801" d="M755.108,148.574a5.746,5.746,0,0,0,3.9,7.393.7.7,0,0,0,.846-.48.7.7,0,0,0-.48-.846,4.152,4.152,0,0,1-2.722-2.214,4.82,4.82,0,0,1-.492-1.655,4.364,4.364,0,0,1,.02-.949c-.016.106.023-.118.029-.142.016-.085.036-.167.057-.25a4.724,4.724,0,0,1,.165-.49.694.694,0,0,0-.48-.846.7.7,0,0,0-.846.48Z" transform="translate(-754.767 -148.068)" fill="#c13f37"/>
    </g>
    <g id="Group_1515" data-name="Group 1515" transform="translate(863.525 254.905)">
      <path id="Path_3802" data-name="Path 3802" d="M759.62,148.688a3.748,3.748,0,0,1,.555.293c.053.033.106.069.157.1.012.01.144.108.081.059s.081.067.077.065c.039.033.079.069.116.1a4.284,4.284,0,0,1,.429.459c.047.059-.045-.065.028.035.036.051.073.1.106.156.059.089.114.177.165.27s.1.185.146.279c.006.014.075.165.043.091s.029.077.035.092a4.29,4.29,0,0,1,.177.6c.014.061.024.124.035.185s.012.073,0,0c.014.114.024.228.028.343s0,.211,0,.315c0,.053-.006.1-.012.157,0,.032-.026.215,0,.067a.7.7,0,0,0,.48.846.7.7,0,0,0,.846-.48,4.975,4.975,0,0,0-2.8-5.236.706.706,0,0,0-.941.246.7.7,0,0,0,.246.943Z" transform="translate(-759.289 -147.42)" fill="#c13f37"/>
    </g>
    <g id="Group_1516" data-name="Group 1516" transform="translate(811.098 138.994)">
      <path id="Path_3803" data-name="Path 3803" d="M732.89,89.219l6.1,2.13c.419.146.6-.52.183-.663l-6.1-2.132c-.419-.146-.6.52-.183.665Z" transform="translate(-732.654 -88.533)" fill="#c13f37"/>
    </g>
    <g id="Group_1517" data-name="Group 1517" transform="translate(813.158 141.985)">
      <path id="Path_3804" data-name="Path 3804" d="M733.947,90.728q1.8.455,3.591.905a.344.344,0,0,0,.183-.663l-3.59-.905a.344.344,0,0,0-.183.663Z" transform="translate(-733.701 -90.053)" fill="#c13f37"/>
    </g>
    <g id="Group_1518" data-name="Group 1518" transform="translate(796.531 114.205)">
      <path id="Path_3805" data-name="Path 3805" d="M725.419,76.578q.785.452,1.571.9a.345.345,0,1,0,.348-.594l-1.571-.9a.344.344,0,0,0-.348.594Z" transform="translate(-725.254 -75.94)" fill="#c13f37"/>
    </g>
    <g id="Group_1519" data-name="Group 1519" transform="translate(795.836 115.383)">
      <path id="Path_3806" data-name="Path 3806" d="M725.151,77.215l1.36.4a.345.345,0,0,0,.183-.665l-1.36-.4a.345.345,0,0,0-.183.665Z" transform="translate(-724.901 -76.538)" fill="#c13f37"/>
    </g>
    <g id="Group_1520" data-name="Group 1520" transform="translate(811.124 67.883)">
      <path id="Path_3807" data-name="Path 3807" d="M733.255,55.108a26.191,26.191,0,0,1,3.017-2.057.345.345,0,0,0-.348-.594,27.2,27.2,0,0,0-3.155,2.165.343.343,0,0,0,0,.486.35.35,0,0,0,.486,0Z" transform="translate(-732.667 -52.407)" fill="#a46e4a"/>
    </g>
    <g id="Group_1521" data-name="Group 1521" transform="translate(812.284 69.236)">
      <path id="Path_3808" data-name="Path 3808" d="M733.424,53.732l1.756.97a.344.344,0,1,0,.346-.594q-.877-.487-1.756-.97a.344.344,0,1,0-.346.594Z" transform="translate(-733.257 -53.094)" fill="#a46e4a"/>
    </g>
    <path id="Path_3809" data-name="Path 3809" d="M726.091,59.7l10.475-1.223-7.972,4.633Z" transform="translate(72.088 21.359)" fill="#a46e4a" opacity="0.48"/>
    <path id="Path_3810" data-name="Path 3810" d="M726.153,51.818c-.319.787-.988,1.26-1.5,1.055s-.657-1.01-.338-1.8.988-1.26,1.5-1.053S726.472,51.031,726.153,51.818Z" transform="translate(70.209 13.119)"/>
    <path id="Path_3811" data-name="Path 3811" d="M724.7,48.748a1.682,1.682,0,0,0-.669,1.159,5.025,5.025,0,0,1,3.838,2.24,2.068,2.068,0,0,0-.516-2.675,6,6,0,0,0-2.758-1.1Z" transform="translate(70.096 11.573)" fill="#f59f18"/>
    <g id="Group_1522" data-name="Group 1522" transform="translate(775.613 153.975)">
      <path id="Path_3812" data-name="Path 3812" d="M716.259,96.152a1.987,1.987,0,0,0-.528,3.736.354.354,0,0,0,.472-.124.347.347,0,0,0-.124-.47,1.3,1.3,0,0,1,.362-2.478.347.347,0,0,0,.24-.423.352.352,0,0,0-.423-.24Z" transform="translate(-714.627 -96.144)" fill="#363644"/>
    </g>
    <g id="Group_1523" data-name="Group 1523" transform="translate(795.71 164.706)">
      <path id="Path_3813" data-name="Path 3813" d="M731.624,124.87l15.546-6.807,4.411-1.931a.352.352,0,0,0,.124-.47q-2.456-5.486-5.157-10.858-.768-1.524-1.553-3.035a.342.342,0,0,0-.388-.157q-7.748,3.077-15.339,6.533-2.141.977-4.269,1.982a.351.351,0,0,0-.122.47l2.12,4.779q1.692,3.812,3.382,7.62.387.877.776,1.75c.179.405.771.055.594-.346q-1.06-2.392-2.122-4.781-1.689-3.809-3.38-7.62-.39-.874-.776-1.75l-.124.472q7.458-3.525,15.082-6.679,2.173-.9,4.362-1.768l-.39-.159q2.769,5.335,5.3,10.789.717,1.547,1.413,3.1l.122-.47-15.544,6.807-4.411,1.931C730.872,124.453,731.223,125.046,731.624,124.87Z" transform="translate(-724.837 -101.596)" fill="#685434"/>
    </g>
    <g id="Group_1524" data-name="Group 1524" transform="translate(808.272 165.025)">
      <path id="Path_3814" data-name="Path 3814" d="M737.888,101.933a91.161,91.161,0,0,1-6.618,11.22.345.345,0,0,0,.2.5,55.146,55.146,0,0,0,13.251,2.092c.443.016.443-.673,0-.689a54.429,54.429,0,0,1-13.068-2.067l.207.506a91.015,91.015,0,0,0,6.618-11.22c.2-.394-.4-.744-.594-.346Z" transform="translate(-731.219 -101.758)" fill="#685434"/>
    </g>
    <g id="Group_1525" data-name="Group 1525" transform="translate(827.271 103.017)">
      <path id="Path_3815" data-name="Path 3815" d="M743.687,70.5a6.054,6.054,0,0,1-2.655,3.785c-.374.236-.03.833.346.594a6.753,6.753,0,0,0,2.974-4.2c.1-.431-.567-.616-.665-.183Z" transform="translate(-740.871 -70.256)" fill="#363644"/>
    </g>
    <g id="Group_1526" data-name="Group 1526" transform="translate(814.26 91.764)">
      <path id="Path_3816" data-name="Path 3816" d="M734.269,64.974q.224,1.122.451,2.244a.345.345,0,0,0,.423.24.352.352,0,0,0,.24-.423l-.449-2.244a.35.35,0,0,0-.423-.242.355.355,0,0,0-.242.425Z" transform="translate(-734.261 -64.539)" fill="#363644"/>
    </g>
    <g id="Group_1527" data-name="Group 1527" transform="translate(817.849 92.66)">
      <path id="Path_3817" data-name="Path 3817" d="M736.084,65.339v.9a.344.344,0,0,0,.689,0v-.9a.344.344,0,1,0-.689,0Z" transform="translate(-736.084 -64.994)" fill="#363644"/>
    </g>
    <g id="Group_1528" data-name="Group 1528" transform="translate(820.992 102.539)">
      <path id="Path_3818" data-name="Path 3818" d="M737.681,70.358V72.6a.343.343,0,1,0,.687,0V70.358a.343.343,0,1,0-.687,0Z" transform="translate(-737.681 -70.013)" fill="#363644"/>
    </g>
    <g id="Group_1529" data-name="Group 1529" transform="translate(817.88 112.896)">
      <path id="Path_3819" data-name="Path 3819" d="M737.065,75.527l-.949,2.677a.347.347,0,0,0,.24.423.352.352,0,0,0,.423-.24l.949-2.677a.346.346,0,0,0-.24-.423.353.353,0,0,0-.423.24Z" transform="translate(-736.1 -75.275)" fill="#363644"/>
    </g>
    <g id="Group_1530" data-name="Group 1530" transform="translate(820.054 116.461)">
      <path id="Path_3820" data-name="Path 3820" d="M737.743,77.256a3.3,3.3,0,0,0-.467,2.5.345.345,0,0,0,.665-.183,2.106,2.106,0,0,1-.053-.5,2.279,2.279,0,0,1,.045-.5,2.5,2.5,0,0,1,.4-.974.344.344,0,1,0-.594-.348Z" transform="translate(-737.204 -77.086)" fill="#363644"/>
    </g>
    <g id="Group_1531" data-name="Group 1531" transform="translate(834.426 114.286)">
      <path id="Path_3821" data-name="Path 3821" d="M745.1,83.644a53.116,53.116,0,0,1,8.993-7.015c.374-.232.029-.829-.349-.594a54.108,54.108,0,0,0-9.133,7.124c-.317.309.169.8.488.486Z" transform="translate(-744.506 -75.981)" fill="#363644"/>
    </g>
    <g id="Group_1532" data-name="Group 1532" transform="translate(837.151 116.003)">
      <path id="Path_3822" data-name="Path 3822" d="M746.5,84.645q4.473-3.611,8.948-7.222c.344-.28-.146-.764-.486-.488q-4.476,3.614-8.95,7.224c-.345.28.146.764.488.486Z" transform="translate(-745.89 -76.853)" fill="#363644"/>
    </g>
    <g id="Group_1533" data-name="Group 1533" transform="translate(822.808 241.273)">
      <path id="Path_3823" data-name="Path 3823" d="M738.644,141.015l3.59,7.187c.2.4.791.047.593-.348q-1.792-3.593-3.588-7.185c-.2-.4-.793-.047-.595.346Z" transform="translate(-738.603 -140.494)" fill="#363644"/>
    </g>
    <g id="Group_1534" data-name="Group 1534" transform="translate(825.507 239.907)">
      <path id="Path_3824" data-name="Path 3824" d="M740.084,140.378a8.3,8.3,0,0,1,2.555,4.382c.1.431.76.248.663-.183a8.924,8.924,0,0,0-2.73-4.685c-.329-.3-.817.189-.488.486Z" transform="translate(-739.974 -139.8)" fill="#363644"/>
    </g>
    <g id="Group_1535" data-name="Group 1535" transform="translate(828.159 238.157)">
      <path id="Path_3825" data-name="Path 3825" d="M741.42,139.5q1.113,1.352,2.23,2.7a.345.345,0,0,0,.486,0,.352.352,0,0,0,0-.486q-1.116-1.352-2.23-2.707a.346.346,0,0,0-.486,0,.352.352,0,0,0,0,.488Z" transform="translate(-741.322 -138.911)" fill="#363644"/>
    </g>
    <g id="Group_1536" data-name="Group 1536" transform="translate(847.986 224.643)">
      <path id="Path_3826" data-name="Path 3826" d="M751.431,132.57q2.61,5.586,5.222,11.171.747,1.6,1.5,3.206c.187.4.781.051.595-.348q-2.61-5.583-5.222-11.169-.75-1.6-1.5-3.206c-.187-.4-.782-.051-.594.346Z" transform="translate(-751.395 -132.046)" fill="#363644"/>
    </g>
    <g id="Group_1537" data-name="Group 1537" transform="translate(852.392 224.698)">
      <path id="Path_3827" data-name="Path 3827" d="M753.658,132.488a67.7,67.7,0,0,0,4.6,9.47.345.345,0,0,0,.594-.348,66.385,66.385,0,0,1-4.535-9.3c-.159-.407-.825-.23-.663.183Z" transform="translate(-753.633 -132.074)" fill="#363644"/>
    </g>
    <g id="Group_1538" data-name="Group 1538" transform="translate(857.408 226.891)">
      <path id="Path_3828" data-name="Path 3828" d="M756.24,133.692l3.023,4.569c.244.368.839.024.595-.346l-3.024-4.571c-.244-.366-.84-.022-.594.348Z" transform="translate(-756.181 -133.188)" fill="#363644"/>
    </g>
    <g id="Group_1539" data-name="Group 1539" transform="translate(861.395 224.226)">
      <path id="Path_3829" data-name="Path 3829" d="M758.252,132.352q1.2,2.2,2.405,4.4c.213.39.807.043.594-.346q-1.2-2.2-2.405-4.4c-.213-.388-.807-.041-.595.348Z" transform="translate(-758.207 -131.834)" fill="#363644"/>
    </g>
    <g id="Group_1540" data-name="Group 1540" transform="translate(866.321 223.351)">
      <path id="Path_3830" data-name="Path 3830" d="M760.809,131.973a3.8,3.8,0,0,1,1.3,2.423.356.356,0,0,0,.345.344.349.349,0,0,0,.344-.344,4.509,4.509,0,0,0-1.5-2.909.355.355,0,0,0-.488,0,.348.348,0,0,0,0,.486Z" transform="translate(-760.71 -131.389)" fill="#363644"/>
    </g>
    <g id="Group_1541" data-name="Group 1541" transform="translate(853.555 199.466)">
      <path id="Path_3831" data-name="Path 3831" d="M754.556,121.215q6.847.109,13.694-.059,6.818-.168,13.625-.616,3.844-.254,7.681-.594c.437-.039.441-.728,0-.689q-6.82.605-13.663.933-6.811.328-13.633.372-3.853.027-7.7-.035a.345.345,0,0,0,0,.689Z" transform="translate(-754.224 -119.255)" fill="#363644"/>
    </g>
    <g id="Group_1542" data-name="Group 1542" transform="translate(890.341 204.485)">
      <path id="Path_3832" data-name="Path 3832" d="M773.012,122.4a3.728,3.728,0,0,1,.449,4.517c-.238.374.356.72.594.348a4.424,4.424,0,0,0-.555-5.352c-.311-.319-.8.167-.488.486Z" transform="translate(-772.913 -121.805)" fill="#9b5e0e"/>
    </g>
    <g id="Group_1543" data-name="Group 1543" transform="translate(889.471 206.013)">
      <path id="Path_3833" data-name="Path 3833" d="M772.544,123.106a4.573,4.573,0,0,1-.036,3.933c-.195.4.4.744.594.346a5.322,5.322,0,0,0,.036-4.628c-.189-.4-.781-.051-.594.348Z" transform="translate(-772.47 -122.581)" fill="#9b5e0e"/>
    </g>
    <g id="Group_1544" data-name="Group 1544" transform="translate(786.887 251.528)">
      <path id="Path_3834" data-name="Path 3834" d="M720.686,148.1a27.986,27.986,0,0,0,10.834-1.709c.411-.154.232-.819-.183-.663a27.433,27.433,0,0,1-10.651,1.683c-.443-.018-.443.671,0,.689Z" transform="translate(-720.354 -145.704)" fill="#363644"/>
    </g>
    <g id="Group_1545" data-name="Group 1545" transform="translate(789.962 250.712)">
      <path id="Path_3835" data-name="Path 3835" d="M722.228,145.458a3.7,3.7,0,0,0-.085,2.76.352.352,0,0,0,.423.24.347.347,0,0,0,.24-.423,3,3,0,0,1,.016-2.23.357.357,0,0,0-.124-.47.345.345,0,0,0-.471.124Z" transform="translate(-721.916 -145.29)" fill="#363644"/>
    </g>
    <g id="Group_1546" data-name="Group 1546" transform="translate(792 250.043)">
      <path id="Path_3836" data-name="Path 3836" d="M723.241,145.295l-.287,2.236a.343.343,0,0,0,.343.344.354.354,0,0,0,.344-.344q.145-1.119.287-2.236a.344.344,0,0,0-.344-.344.354.354,0,0,0-.343.344Z" transform="translate(-722.952 -144.95)" fill="#363644"/>
    </g>
    <g id="Group_1547" data-name="Group 1547" transform="translate(793.582 249.818)">
      <path id="Path_3837" data-name="Path 3837" d="M724.5,145.005a5.46,5.46,0,0,0-.746,2.413.346.346,0,0,0,.345.344.353.353,0,0,0,.344-.344,4.774,4.774,0,0,1,.65-2.067.343.343,0,1,0-.592-.346Z" transform="translate(-723.756 -144.836)" fill="#363644"/>
    </g>
    <g id="Group_1548" data-name="Group 1548" transform="translate(793.192 266.801)">
      <path id="Path_3838" data-name="Path 3838" d="M724.227,154.653c.008-.051.026-.1.037-.15a.647.647,0,0,1,.252-.252,1.1,1.1,0,0,1,.2-.073,1.433,1.433,0,0,1,.234-.028c.02,0,.122-.006.136.01a.731.731,0,0,1,.264.1c.163.193.2.278.158.177a.353.353,0,0,0,.423.24.348.348,0,0,0,.24-.423,1.192,1.192,0,0,0-.443-.569,1.376,1.376,0,0,0-.624-.215,1.54,1.54,0,0,0-1.189.366,1.092,1.092,0,0,0-.352.63.344.344,0,0,0,.663.183Z" transform="translate(-723.558 -153.464)" fill="#363644"/>
    </g>
    <g id="Group_1549" data-name="Group 1549" transform="translate(702.245 260.795)">
      <path id="Path_3839" data-name="Path 3839" d="M677.467,150.986a4.056,4.056,0,0,0,4.437.551c.4-.2.047-.793-.346-.594a3.342,3.342,0,0,1-3.6-.443c-.333-.287-.823.2-.486.486Z" transform="translate(-677.354 -150.412)" fill="#9b5e0e"/>
    </g>
    <g id="Group_1550" data-name="Group 1550" transform="translate(824.812 184.016)">
      <path id="Path_3840" data-name="Path 3840" d="M740.057,112.335a3.544,3.544,0,0,1,2.509-.016.344.344,0,1,0,.183-.663,4.13,4.13,0,0,0-2.876.016.354.354,0,0,0-.24.423.347.347,0,0,0,.423.24Z" transform="translate(-739.621 -111.406)" fill="#9b5e0e"/>
    </g>
    <g id="Group_1551" data-name="Group 1551" transform="translate(746.477 175.491)">
      <path id="Path_3841" data-name="Path 3841" d="M699.871,107.593l.917,1.561a.348.348,0,0,0,.47.124.352.352,0,0,0,.124-.47l-.917-1.561a.344.344,0,0,0-.594.346Z" transform="translate(-699.825 -107.075)" fill="#9b5e0e"/>
    </g>
    <g id="Group_1552" data-name="Group 1552" transform="translate(747.373 173.244)">
      <path id="Path_3842" data-name="Path 3842" d="M700.378,106.519l1.122,1.122a.346.346,0,0,0,.486,0,.35.35,0,0,0,0-.486l-1.122-1.122a.346.346,0,0,0-.486,0,.35.35,0,0,0,0,.486Z" transform="translate(-700.28 -105.933)" fill="#9b5e0e"/>
    </g>
    <g id="Group_1553" data-name="Group 1553" transform="translate(748.494 169.88)">
      <path id="Path_3843" data-name="Path 3843" d="M700.9,104.743l.669,1.124a.344.344,0,1,0,.594-.346c-.222-.376-.445-.75-.669-1.126a.345.345,0,1,0-.594.348Z" transform="translate(-700.849 -104.224)" fill="#9b5e0e"/>
    </g>
    <g id="Group_1554" data-name="Group 1554" transform="translate(795.801 52.392)">
      <path id="Path_3844" data-name="Path 3844" d="M724.883,44.868a6.775,6.775,0,0,0,6.267,6.3c1.561.079,3.832-.955,4.919.663.817,1.218.728,2.827,1.47,4.092a3.39,3.39,0,0,0,4.616,1.144c.376-.232.029-.829-.348-.594a2.693,2.693,0,0,1-3.71-.959c-.685-1.228-.63-2.742-1.378-3.945a2.728,2.728,0,0,0-1.754-1.252,8.233,8.233,0,0,0-2.689.108,5.851,5.851,0,0,1-4.34-1.183,5.912,5.912,0,0,1-2.364-4.378c-.016-.441-.7-.443-.689,0Z" transform="translate(-724.883 -44.537)" fill="#9b5e0e"/>
    </g>
    <g id="Group_1555" data-name="Group 1555" transform="translate(818.364 69.884)">
      <path id="Path_3845" data-name="Path 3845" d="M736.348,53.755a6.371,6.371,0,0,0,5.451,6.318c.437.057.433-.632,0-.689a5.678,5.678,0,0,1-4.764-5.63.344.344,0,0,0-.687,0Z" transform="translate(-736.346 -53.423)" fill="#9b5e0e"/>
    </g>
    <g id="Group_1556" data-name="Group 1556" transform="translate(812.321 50.514)">
      <path id="Path_3846" data-name="Path 3846" d="M733.524,44.253a6.15,6.15,0,0,1,4.7,4.252.345.345,0,0,0,.665-.183,6.844,6.844,0,0,0-5.181-4.732c-.433-.083-.618.581-.183.663Z" transform="translate(-733.276 -43.582)" fill="#9b5e0e"/>
    </g>
    <path id="Path_3847" data-name="Path 3847" d="M729.929,76.285a36.076,36.076,0,0,1,.579-8.9,12.615,12.615,0,0,1,4.555-7.47,6.5,6.5,0,0,1,4-1.358,8.458,8.458,0,0,1,2.578.62c3.555,1.317,7.055,3.478,8.657,6.911a14.766,14.766,0,0,0-7.247-4.787,7.92,7.92,0,0,0-4.915-.071c-2.1.774-3.5,2.758-4.551,4.736A32.119,32.119,0,0,0,730.1,76.913Z" transform="translate(75.775 21.429)" fill="#685434"/>
    <g id="Group_1557" data-name="Group 1557" transform="translate(826.604 70.703)">
      <path id="Path_3848" data-name="Path 3848" d="M740.7,54.484A6.107,6.107,0,0,1,743.13,58a27.968,27.968,0,0,0,1.608,4.714c.211.39.805.043.594-.346-1.494-2.762-1.275-6.7-4.289-8.474a.344.344,0,0,0-.346.594Z" transform="translate(-740.531 -53.839)" fill="#9b5e0e"/>
    </g>
    <g id="Group_1558" data-name="Group 1558" transform="translate(853.882 107.66)">
      <path id="Path_3849" data-name="Path 3849" d="M755.053,79.851a43.441,43.441,0,0,1,3.59-4.114,21.122,21.122,0,0,1,1.9-1.783,2.224,2.224,0,0,1,2.173-.535,7.614,7.614,0,0,1,2.077,1.482q1.048.877,2.067,1.787,2.055,1.839,3.994,3.8c.612.622,1.25,1.238,1.8,1.913a2.811,2.811,0,0,1,.72,2.275,7,7,0,0,1-1.063,2.417q-.747,1.228-1.494,2.455c-.252.411-.5.825-.752,1.234a2.809,2.809,0,0,1-.7.86c-.7.5-1.573.041-2.187-.374a25.926,25.926,0,0,1-2.073-1.64q-1-.836-1.974-1.711a68.413,68.413,0,0,1-7.236-7.6q-.419-.517-.831-1.041l-.417.541c1.925,1.142,4.033,2.311,6.352,1.87a4.062,4.062,0,0,0,2.535-1.563,4.976,4.976,0,0,0,.884-2.874,10.389,10.389,0,0,0-.943-3.972c-.165-.405-.831-.228-.664.183.748,1.85,1.439,4.078.366,5.95-1,1.734-3.165,1.951-4.917,1.417A15.3,15.3,0,0,1,755,79.225c-.36-.215-.644.25-.415.541a68.6,68.6,0,0,0,7.649,8.261c1.374,1.26,2.793,2.492,4.287,3.612a3.5,3.5,0,0,0,2.36.9,2.57,2.57,0,0,0,1.831-1.482c.541-.884,1.077-1.768,1.616-2.653a18.688,18.688,0,0,0,1.413-2.537,3.676,3.676,0,0,0,.2-2.63,6.245,6.245,0,0,0-1.516-2.116q-2.029-2.135-4.2-4.128-1.1-1.016-2.244-1.99c-.695-.6-1.388-1.222-2.14-1.75a2.819,2.819,0,0,0-2.413-.549,5.4,5.4,0,0,0-2.09,1.4,43.57,43.57,0,0,0-4,4.289c-.3.364-.589.734-.874,1.106-.27.352.329.695.594.348Z" transform="translate(-754.39 -72.615)" fill="#512e05"/>
    </g>
    <path id="Path_3850" data-name="Path 3850" d="M742.42,61.51a77.025,77.025,0,0,1,19.932,19.784l.709-.636A101.819,101.819,0,0,0,746.148,61.97a5.046,5.046,0,0,0-1.791-1.138,1.778,1.778,0,0,0-1.933.524Z" transform="translate(87.9 23.554)" fill="#512e05"/>
    <g id="Group_1559" data-name="Group 1559" transform="translate(849.945 104.005)">
      <path id="Path_3851" data-name="Path 3851" d="M752.406,71.424c.307,1.045.589,2.1.925,3.136a2.422,2.422,0,0,0,1.736,1.878,1.424,1.424,0,0,0,1.616-1.256,2.394,2.394,0,0,0-.961-2.173c-.722-.622-1.8-1.071-2.195-2a.354.354,0,0,0-.423-.24.345.345,0,0,0-.24.423,4.089,4.089,0,0,0,1.555,1.7c.575.405,1.307.848,1.541,1.557.151.463.041,1.209-.531,1.313-.809.148-1.252-.811-1.447-1.423-.327-1.024-.61-2.063-.913-3.1a.344.344,0,0,0-.663.183Z" transform="translate(-752.39 -70.758)" fill="#512e05"/>
    </g>
    <g id="Group_1560" data-name="Group 1560" transform="translate(831.261 90.689)">
      <path id="Path_3852" data-name="Path 3852" d="M742.983,64.6q4.039,4.884,7.684,10.076,1.034,1.473,2.033,2.97c.246.366.843.022.594-.346q-3.558-5.321-7.529-10.346-1.131-1.432-2.3-2.84c-.282-.343-.768.148-.486.486Z" transform="translate(-742.898 -63.993)" fill="#512e05"/>
    </g>
    <g id="Group_1561" data-name="Group 1561" transform="translate(835.858 93.778)">
      <path id="Path_3853" data-name="Path 3853" d="M745.325,66.158a55.063,55.063,0,0,1,5.537,7.324c.236.372.831.028.594-.348a55.949,55.949,0,0,0-5.646-7.462c-.3-.331-.781.157-.486.486Z" transform="translate(-745.233 -65.562)" fill="#512e05"/>
    </g>
    <path id="Path_3854" data-name="Path 3854" d="M723.926,48.806a47.881,47.881,0,0,1,10.509-9.18c2.754-1.772,5.856-3.3,9.129-3.2,4.128.124,7.883,2.951,9.791,6.614a18.805,18.805,0,0,1,1.392,12.08L724,48.346Z" transform="translate(69.991 0)" fill="#512e05"/>
    <path id="Path_3855" data-name="Path 3855" d="M726.691,52.68c-2.687-1.707-5.238-2.455-6.832-5.21a3.376,3.376,0,0,1-.579-2.787,3.319,3.319,0,0,1,1.85-1.61c6.421-3,13.973-1.852,20.812.014a110.476,110.476,0,0,1,19.8,7.511c1.524.754,3.143,1.659,3.8,3.228a3.28,3.28,0,0,1,.213.858,2.494,2.494,0,0,1-4.065,2.191,26.67,26.67,0,0,0-6.982-4.283,104.846,104.846,0,0,0-20.855-5.46c-2.122-.329-4.783-.342-5.834,1.529a14.764,14.764,0,0,0-1.325,4.019Z" transform="translate(65.37 4.653)" fill="#9b5e0e"/>
    <g id="Group_1562" data-name="Group 1562" transform="translate(808.874 56.205)">
      <path id="Path_3856" data-name="Path 3856" d="M731.765,47.156a4.181,4.181,0,0,1,2.012,1.35,9.14,9.14,0,0,1,1.075,2.063,3.422,3.422,0,0,0,1.342,1.655,5.065,5.065,0,0,0,2.736.254,2.306,2.306,0,0,1,1.469.3.931.931,0,0,1,.388,1.079c-.159.413.506.591.665.183a1.682,1.682,0,0,0-1.035-2.033c-.959-.407-1.984-.1-2.982-.154a2.189,2.189,0,0,1-1.9-1.453,12.457,12.457,0,0,0-1.132-2.212,4.9,4.9,0,0,0-2.451-1.7c-.425-.13-.606.533-.183.665Z" transform="translate(-731.525 -46.473)" fill="#9b5e0e"/>
    </g>
    <g id="Group_1563" data-name="Group 1563" transform="translate(827.488 62.296)">
      <path id="Path_3857" data-name="Path 3857" d="M741.075,50.162a4.873,4.873,0,0,0,3.459,1.38,31.924,31.924,0,0,0,4.586-.557,7.5,7.5,0,0,1,4.224.758,11.518,11.518,0,0,1,3.317,2.6,14.377,14.377,0,0,1,2.384,3.616,17.4,17.4,0,0,0,1.7,3.675,4.448,4.448,0,0,0,3.449,1.518c1.4.065,2.793-.14,4.195-.008a7.892,7.892,0,0,1,4.393,1.673,5.132,5.132,0,0,1,1.913,3.773.345.345,0,0,0,.689,0c-.034-2.86-2.382-5.01-4.98-5.763a13.194,13.194,0,0,0-4.311-.4,7.2,7.2,0,0,1-3.966-.482c-1.189-.693-1.592-2.09-2.055-3.3a15.143,15.143,0,0,0-2.1-3.8c-1.7-2.222-4.1-4.177-6.95-4.549-1.819-.238-3.571.342-5.366.514a4.827,4.827,0,0,1-4.092-1.144c-.3-.327-.787.161-.488.486Z" transform="translate(-740.981 -49.568)" fill="#f59f18"/>
    </g>
    <g id="Group_1564" data-name="Group 1564" transform="translate(799.047 43.436)">
      <path id="Path_3858" data-name="Path 3858" d="M726.772,40.667c3.746,1.15,7.511,2.232,11.279,3.3,3.915,1.114,7.836,2.22,11.783,3.228a26.828,26.828,0,0,0,3.4.766c.437.053.435-.636,0-.689-.079-.008.094.016-.016,0l-.1-.016c-.083-.014-.167-.03-.252-.045-.217-.043-.431-.091-.648-.138-.6-.136-1.193-.281-1.787-.433-1.719-.433-3.431-.9-5.141-1.362q-6.339-1.733-12.651-3.582c-1.9-.553-3.8-1.112-5.689-1.693-.423-.13-.6.533-.183.663Z" transform="translate(-726.532 -39.986)" fill="#9b5e0e"/>
    </g>
    <g id="Group_1565" data-name="Group 1565" transform="translate(814.41 43.751)">
      <path id="Path_3859" data-name="Path 3859" d="M738.126,45.424a27.734,27.734,0,0,1-2.045-2.386,12.855,12.855,0,0,1-.9-1.264c-.23-.394-.2-.807.3-.933.86-.217,1.582.951,1.85,1.6a3.894,3.894,0,0,1,.118,2.612c-.112.364.472.628.628.264a6.215,6.215,0,0,1,1.451-2.177c.453-.411,1.289-.76,1.791-.211.6.659-.279,1.443-.831,1.716a6.133,6.133,0,0,1-2.77.571.345.345,0,0,0,0,.689,7.057,7.057,0,0,0,2.783-.52,2.47,2.47,0,0,0,1.644-1.628,1.436,1.436,0,0,0-.947-1.693,2.113,2.113,0,0,0-2.057.5,6.425,6.425,0,0,0-1.659,2.405l.63.266a4.41,4.41,0,0,0-1.429-4.756,1.516,1.516,0,0,0-2.193.276c-.521.872.412,1.846.9,2.5a29.394,29.394,0,0,0,2.248,2.649c.307.321.793-.167.486-.486Z" transform="translate(-734.337 -40.147)" fill="#9b5e0e"/>
    </g>
    <g id="Group_1567" data-name="Group 1567" transform="translate(790.034 68.364)">
      <path id="Path_3860" data-name="Path 3860" d="M722.464,54.01a6.7,6.7,0,0,0,5.445-1.177,6.283,6.283,0,0,1-5.145,3.143.674.674,0,0,1-.431-.089.642.642,0,0,1-.193-.545,3.209,3.209,0,0,1,.3-1.317Z" transform="translate(-721.773 -52.475)" fill="#fff"/>
      <g id="Group_1566" data-name="Group 1566">
        <path id="Path_3861" data-name="Path 3861" d="M722.551,54.519a7.08,7.08,0,0,0,5.71-1.213c-.156-.157-.313-.315-.47-.47a5.969,5.969,0,0,1-2.732,2.468,5.611,5.611,0,0,1-1.771.48,2.676,2.676,0,0,1-.435.026c-.191-.016-.189-.12-.189-.291a2.793,2.793,0,0,1,.25-1.144c.179-.4-.413-.75-.594-.346-.272.608-.711,1.966.1,2.378a2.161,2.161,0,0,0,1.221.024,6.158,6.158,0,0,0,1.128-.274,6.676,6.676,0,0,0,3.622-2.974c.158-.278-.181-.687-.47-.47a6.421,6.421,0,0,1-5.181,1.144c-.431-.094-.616.569-.183.663Z" transform="translate(-721.953 -52.651)" fill="#a46e4a"/>
      </g>
    </g>
    <g id="Group_1568" data-name="Group 1568" transform="translate(799.724 232.073)">
      <path id="Path_3862" data-name="Path 3862" d="M729.854,138.912c-.626-.091-1.25-.177-1.876-.268-.157-.024-.392-.016-.413-.209a2.853,2.853,0,0,1,.065-.807,4.826,4.826,0,0,1,.238-.846c.012-.033.149-.278.143-.3-.083.02-.075.028-.006.037a1.678,1.678,0,0,0,.228.091l1.756.693c.211.073-.031.075.061-.055-.028.037-.018.165-.024.213l-.067.526-.138,1.083a.346.346,0,0,0,.344.344.351.351,0,0,0,.343-.344c.051-.392.1-.783.151-1.175.041-.329.191-.783-.091-1.045a1.468,1.468,0,0,0-.482-.244l-.577-.226-1.037-.409a1.366,1.366,0,0,0-.551-.152.664.664,0,0,0-.506.317,3.176,3.176,0,0,0-.374.963,5.27,5.27,0,0,0-.165,1.1.975.975,0,0,0,.362.925,2.746,2.746,0,0,0,1.14.26c.431.063.86.124,1.291.185a.356.356,0,0,0,.423-.24.345.345,0,0,0-.24-.423Z" transform="translate(-726.876 -135.821)" fill="#fff"/>
    </g>
    <g id="Group_1569" data-name="Group 1569" transform="translate(801.107 233.775)">
      <path id="Path_3863" data-name="Path 3863" d="M727.924,137.374a1.642,1.642,0,0,1,.2.022c-.082-.018.02,0,.038.006l.1.016c.128.022.256.049.38.079a5.88,5.88,0,0,1,.752.246.345.345,0,0,0,.423-.24.355.355,0,0,0-.242-.423,5.723,5.723,0,0,0-1.648-.392.343.343,0,0,0-.344.342.353.353,0,0,0,.344.344Z" transform="translate(-727.579 -136.685)" fill="#fff"/>
    </g>
    <g id="Group_1570" data-name="Group 1570" transform="translate(874.992 122.782)">
      <path id="Path_3864" data-name="Path 3864" d="M778.667,88.1c-.451-1.3-.866-2.62-1.36-3.905a5.757,5.757,0,0,0-1.724-2.486,6.524,6.524,0,0,0-5.326-1.289c-4.1.823-6.132,5.756-4.667,9.456a6.458,6.458,0,0,0,5.027,4.151,5.46,5.46,0,0,0,5.433-2.642,5.4,5.4,0,0,0-.339-5.883,4.853,4.853,0,0,0-2.769-1.913,3.759,3.759,0,0,0-4.492,3.72,3.033,3.033,0,0,0,1.579,2.551,2.516,2.516,0,0,0,2.718-.289,2.013,2.013,0,0,0,.38-2.453,1.7,1.7,0,0,0-.959-.805c-.419-.146-.6.52-.183.663a1.272,1.272,0,0,1,.592,1.7,1.662,1.662,0,0,1-2.071.642,2.3,2.3,0,0,1-1.37-2.053,2.989,2.989,0,0,1,1.138-2.38,2.922,2.922,0,0,1,2.9-.516,4.32,4.32,0,0,1,2.179,1.827,4.7,4.7,0,0,1-.051,5.082,4.749,4.749,0,0,1-4.779,2.039,5.8,5.8,0,0,1-4.287-3.669c-1.232-3.175.256-7.413,3.7-8.44a5.826,5.826,0,0,1,4.6.594,4.817,4.817,0,0,1,1.671,1.648,16.783,16.783,0,0,1,1.216,3.142q.292.844.583,1.689c.144.415.809.236.665-.183Z" transform="translate(-765.115 -80.297)" fill="#579177"/>
    </g>
  </g>
</svg>
