<?xml version="1.0" encoding="UTF-8"?>
<svg id="Layer_2" data-name="Layer 2" xmlns="http://www.w3.org/2000/svg" viewBox="0 0 566.21 101.62">
  <defs>
    <style>
      .cls-1 {
        fill: #f48120;
      }

      .cls-2 {
        fill: #2a3890;
      }
    </style>
  </defs>
  <g id="Layer_1-2" data-name="Layer 1">
    <g>
      <g>
        <path class="cls-2" d="M174.3,27.79c-.76,.2-3.77,.2-7.45,.15,.31,9.43,.51,18.92,.51,28.35,0,0-.1,1.99-2.5,2.14-2.4,.25-5.3,.46-5.76-2.29-.25-1.43,0-8.87,.2-16.12,.1-4.95,.2-9.74,.25-12.29-4.28-.1-7.8-.21-7.8-.21,0,0-1.02,.15-1.12-1.63-.15-1.89-.51-5.51,.56-5.56l22.79-.77s1.43,.05,1.68,2.4c.31,2.35,.66,5.36-1.38,5.81Z"/>
        <path class="cls-2" d="M190.32,44.93c-1.93-.25-2.13-1.88-1.88-3.66,.15-1.14,.2-2.08,.15-2.82-.2-4.06-5.64-1.49-5.59,7.12l.15,11.18s-.1,1.58-2.38,1.78c-2.33,.2-5.15,.4-5.64-1.78-.4-2.13,.64-24.2,.64-24.2,0,0-.15-1.04,1.63-1.14,1.78-.1,5.25-.3,5.34,.84l.05,.94c2.18-1.53,5.1-2.28,7.92-1.58,3.37,.89,5.1,3.22,5.49,6.38,.5,3.81-1.39,7.27-5.89,6.93Z"/>
        <path class="cls-2" d="M206.5,56.75s-.1,1.34-2.38,1.68c-2.23,.2-5.15,.4-5.54-1.43-.25-.94-.15-6.19,.2-11.18,.25-5.05,.74-9.85,.74-9.85,0,0-.15-.99,1.63-.94,1.83,0,5.25-.1,5.29,.94-.15,6.98-.15,13.9,.05,20.78Zm-3.17-24.2c-1.98,0-3.61-1.39-3.61-3.12s1.63-3.21,3.61-3.21,3.61,1.43,3.61,3.21-1.63,3.12-3.61,3.12Z"/>
        <path class="cls-2" d="M224.02,56.11c-1.78,.74-3.76,1.29-5.84,1.63,0,0-.15,.59-.15,9.01,0,0-.05,2.28-2.38,2.52-2.33,.2-5.49,.49-5.59-2.67-.15-5.49,.2-25.93-.25-34.39,0-1.04,.79-1.78,2.08-2.03,1.83-.3,5.2-1.04,5.44,.74,.05,.3,.05,.54,.1,.74,2.52-.2,5.34,.3,8.12,1.68,9.75,4.8,8.66,18.41-1.53,22.76Zm-6.14-17.37c0,3.66,.05,7.32,.1,11.53,.05,0,0,.3,0,.3,7.77-.74,9.25-11.73-.1-11.83Z"/>
        <path class="cls-2" d="M266.97,20.12c-.4,.54-.89,.99-1.58,.74-5.59-2.82-7.22-2.33-7.37,3.71-.05,1.68-.05,3.37-.05,5.05,2.57-.1,5.79-.2,8.36-.2,1.73,.79,1.88,7.52,0,7.97-.4,.1-2.18,.1-3.86,.05-1.24,0-2.57-.05-4.11-.1,.5,8.16,.64,12.32,.5,16.28,0,1.73-.4,4.65-2.82,4.7-1.93,0-5.2-.45-5.2-3.07,0-5.34,0-11.78-.3-18.01h-1.63s-.74,.3-.99-1.48c-.25-1.78-.74-5.25,.1-5.39,.79-.1,1.53-.2,2.33-.25,0-6.04-.4-15.84,7.87-17.07,2.97-.45,6.88,.1,9.3,1.29,2.08,1.04,.35,4.45-.54,5.79Z"/>
        <path class="cls-2" d="M266.87,44.97c0-7.47,5.59-13.61,12.42-13.61s12.42,6.14,12.42,13.61-5.59,13.66-12.42,13.66-12.42-6.19-12.42-13.66Zm7.13,0c0,3.46,2.33,6.29,5.29,6.29s5.34-2.82,5.34-6.29-2.38-6.29-5.34-6.29-5.29,2.82-5.29,6.29Z"/>
        <path class="cls-2" d="M309.58,44.93c-1.93-.25-2.13-1.88-1.88-3.66,.15-1.14,.2-2.08,.15-2.82-.2-4.06-5.64-1.49-5.59,7.12l.15,11.18s-.1,1.58-2.38,1.78c-2.33,.2-5.15,.4-5.64-1.78-.4-2.13,.64-24.2,.64-24.2,0,0-.15-1.04,1.63-1.14,1.78-.1,5.25-.3,5.34,.84l.05,.94c2.18-1.53,5.1-2.28,7.92-1.58,3.37,.89,5.1,3.22,5.49,6.38,.5,3.81-1.39,7.27-5.89,6.93Z"/>
        <path class="cls-2" d="M357.52,35.56c.88,5.88,.93,12.01,.64,18.04-.25,3.43-.39,4.21-2.69,4.89-1.08,.16-2.39,.36-3.42-.37-.98-.68-1.71-2.24-1.76-5.36v-.52c-3.27-.47-9.48-.42-12.51-.42-.1,1.3-.34,6.45-2.25,6.66-.88,.05-2.15,.26-3.27-.11-1.12-.26-1.96-1.04-2-2.81,0-2.13,.05-4.99,.24-8.22,.49-8.11,1.81-21.63,9.33-26.78,2.98-1.98,6.84-1.98,10.02-.1,4.99,3.07,6.84,9.1,7.67,15.08Zm-7.28,8.16c.34-9.88-2.54-15.6-5.57-15.65-2.64-.05-5.77,5.88-6.7,16.07,4.11-.36,8.21-.57,12.27-.42Z"/>
        <path class="cls-2" d="M385.02,55.91s-.05,2.18-2.33,2.47c-1.53,.2-3.32,.35-4.35-.3-4.16,.84-8.76,.59-12.22-1.68-6.04-3.96-6.43-12.32-2.87-18.16,2.87-4.6,8.71-7.03,14.15-5.89,.3-5.34,.64-9.45,.64-9.45,0,0-.15-1.63,1.68-1.63s5.25-.05,5.29,1.58c-.35,10.98-.35,22.02,0,33.05Zm-8.17-5.74c0-3.22,.1-6.48,.25-10.49-10.09-3.66-11.48,14.05-.25,10.49Z"/>
        <path class="cls-2" d="M413.92,34.34c.05,.54,0,1.09-.05,1.68-.64,6.04-5.1,22.71-14,22.71-2.67,0-4.8-1.38-6.38-3.56-4.45-6.09-5.49-14.05-5.59-21.62-.1-.94,.79-2.28,1.98-2.33,1.83-.15,5.29-.59,5.49,1.73,.1,4.8,.54,9.75,2.42,14.95,.69,1.98,1.53,3.37,2.13,3.31,1.09-.1,2.42-3.41,3.61-7.18,1.14-3.61,1.78-7.57,2.52-10.19,.49-1.63,.94-2.72,2.97-2.72,2.97-.15,4.7,.89,4.9,3.22Z"/>
        <path class="cls-2" d="M438.56,43.59c-.1,.84-.4,1.49-1.14,1.63-.64,.25-4.45,.25-8.07,.1-2.42-.1-4.65-.2-5.99-.3-.1,3.17,1.09,6.33,4.6,6.58,1.39,.1,2.87-.49,3.96-2.08,1.78-2.62,5.79-.74,5.79,2.13,0,3.51-4.25,6.09-7.42,6.68-1.98,.39-4.11,.3-5.99-.25-4.21-1.34-7.03-4.95-8.17-9.06-1.04-3.81-.64-8.41,1.53-11.97,1.48-2.33,3.61-4.21,6.53-5.15,8.02-2.38,15.24,2.77,14.35,11.68Zm-7.13-3.56c-.64-4.4-5.54-3.56-7.08,.15,2.38,0,4.7-.05,7.08-.15Z"/>
        <path class="cls-2" d="M465.98,36.31c1.43,2.28,2.18,5.59,2.18,10.54l-.1,8.06c0,.99-.15,3.27-2.42,3.51-1.78,.25-4.06,.4-5.1-.99-1.19-1.54-.84-5.44-.59-7.57,.25-2.33,.59-4.5,.25-6.53-1.14-6.63-9.85-7.32-10.39,2.87l.15,10.39s-.15,1.63-2.38,1.83c-2.33,.25-5.25,.3-5.59-1.83-.45-1.24,.59-23.41,.64-24.69,0,0-.15-1.09,1.68-1.19,1.78-.1,5.29-.3,5.34,.84v1.63c5-2.13,12.92-2.28,16.33,3.12Z"/>
        <path class="cls-2" d="M487.25,52c1.63-.59,2.67-.05,2.92,1.73,.25,1.68-.25,3.61-1.14,4.55-1.68,1.73-4.16,2.03-6.23,1.73-5.64-.74-8.21-5.99-8.71-11.28-.25-2.57-.1-5.2,0-8.31-.3,0-.54-.05-.79-.05-1.39-.1-1.68-.54-1.93-2.08-.3-2.08-.1-5.05,.4-5,.99-.05,2.03-.05,3.07-.05,.15-3.76,.3-6.98,.54-10.29,.05-.89,.89-1.43,1.93-1.58,1.78-.1,5.25-.45,5.34,1.58,.05,3.61-.25,7.08-.45,10.44,2.13,.05,4.25,.1,6.43,.15,0,0,1.09,.2,1.14,2.52,.1,2.28,.1,5.15-1.34,5.49-.64,.15-3.51-.15-6.73-.45-.05,2.52-.54,7.27,.5,9.8,.99,2.28,2.92,1.83,5.05,1.09Z"/>
        <path class="cls-2" d="M517.19,56.6s-.05,1.48-2.38,1.83c-2.13,.25-4.85,.45-5.44-1.43-10.14,5.14-15.83-3.86-15.93-12.52-.05-3.81,.2-7.77,1.14-11.63,.2-.99,.84-1.73,1.98-1.68,1.83,.15,5.29,.35,5.15,2.18-.5,2.87-.84,5.84-.84,9.05,0,8.71,4.6,11.13,7.22,5.84,2.47-5,1.88-10.49,2.47-16.03,0,0,.15-1.19,2.03-1.09,1.78,.1,5.25,.2,5.25,1.38-.64,8.02-.84,16.03-.64,24.1Z"/>
        <path class="cls-2" d="M536.29,44.93c-1.93-.25-2.13-1.88-1.88-3.66,.15-1.14,.2-2.08,.15-2.82-.2-4.06-5.64-1.49-5.59,7.12l.15,11.18s-.1,1.58-2.38,1.78c-2.33,.2-5.15,.4-5.64-1.78-.4-2.13,.64-24.2,.64-24.2,0,0-.15-1.04,1.63-1.14,1.78-.1,5.25-.3,5.34,.84l.05,.94c2.18-1.53,5.1-2.28,7.92-1.58,3.37,.89,5.1,3.22,5.49,6.38,.5,3.81-1.39,7.27-5.89,6.93Z"/>
        <path class="cls-2" d="M566.13,43.59c-.1,.84-.4,1.49-1.14,1.63-.64,.25-4.45,.25-8.07,.1-2.42-.1-4.65-.2-5.99-.3-.1,3.17,1.09,6.33,4.6,6.58,1.39,.1,2.87-.49,3.96-2.08,1.78-2.62,5.79-.74,5.79,2.13,0,3.51-4.25,6.09-7.42,6.68-1.98,.39-4.11,.3-5.99-.25-4.21-1.34-7.03-4.95-8.17-9.06-1.04-3.81-.64-8.41,1.53-11.97,1.48-2.33,3.61-4.21,6.53-5.15,8.02-2.38,15.24,2.77,14.35,11.68Zm-7.13-3.56c-.64-4.4-5.54-3.56-7.08,.15,2.38,0,4.7-.05,7.08-.15Z"/>
      </g>
      <g>
        <path class="cls-2" d="M19.93,38.24c-4.35,0-7.88-3.53-7.88-7.88C12.05,13.62,25.67,0,42.41,0H109.89c4.35,0,7.88,3.53,7.88,7.88s-3.53,7.88-7.88,7.88H42.41c-8.05,0-14.6,6.55-14.6,14.6,0,4.35-3.53,7.88-7.88,7.88Z"/>
        <path class="cls-1" d="M104.49,78H40.58c-4.35,0-7.88-3.53-7.88-7.88s3.53-7.88,7.88-7.88h63.91c4.35,0,7.88,3.53,7.88,7.88s-3.53,7.88-7.88,7.88Z"/>
        <path class="cls-2" d="M23.04,101.47H7.88c-4.35,0-7.88-3.53-7.88-7.88s3.53-7.88,7.88-7.88h11.15L76.04,7.44c2.56-3.52,7.49-4.29,11.01-1.73,3.52,2.56,4.29,7.49,1.73,11.01L29.41,98.23c-1.48,2.04-3.85,3.24-6.37,3.24Z"/>
        <path class="cls-1" d="M104.49,101.62h-22.08c-4.35,0-7.88-3.53-7.88-7.88V12.07c0-4.35,3.53-7.88,7.88-7.88s7.88,3.53,7.88,7.88V85.87h14.2c4.35,0,7.88,3.53,7.88,7.88s-3.53,7.88-7.88,7.88Z"/>
      </g>
      <g>
        <path class="cls-1" d="M163.33,94.74h-7.48c-.13,.37-.27,.78-.42,1.21-.15,.44-.29,.87-.43,1.28-.14,.42-.27,.81-.4,1.17-.13,.36-.23,.67-.31,.91-.26,.11-.57,.17-.92,.17-.3,0-.56-.08-.79-.24-.23-.16-.35-.41-.35-.77,0-.17,.03-.34,.08-.52,.06-.18,.12-.37,.2-.57,.28-.78,.64-1.79,1.07-3.01,.44-1.23,.91-2.53,1.42-3.92,.51-1.39,1.03-2.78,1.56-4.19,.53-1.4,1.02-2.66,1.47-3.78,.15-.07,.37-.15,.67-.22,.3-.07,.6-.11,.92-.11,.37,0,.73,.06,1.07,.17,.34,.11,.56,.3,.66,.56,.45,1.08,.93,2.31,1.44,3.7,.51,1.39,1.03,2.8,1.55,4.25,.52,1.45,1.02,2.88,1.49,4.28,.47,1.4,.9,2.67,1.27,3.81-.15,.17-.33,.3-.53,.4-.21,.1-.44,.15-.7,.15-.35,0-.62-.08-.81-.24-.19-.16-.34-.42-.47-.8l-1.26-3.71Zm-3.74-10.69c-.21,.56-.44,1.2-.7,1.91-.26,.72-.53,1.46-.81,2.25-.28,.78-.56,1.57-.84,2.37-.28,.8-.54,1.56-.78,2.29h6.28c-.28-.84-.57-1.68-.86-2.53-.3-.85-.58-1.66-.85-2.44-.27-.78-.52-1.5-.75-2.16-.23-.66-.42-1.22-.57-1.69h-.11Z"/>
        <path class="cls-1" d="M172.26,99.33c-.19,.05-.39,.07-.61,.07-.82,0-1.23-.34-1.23-1.03v-16.02c.09-.04,.24-.08,.43-.13,.2-.05,.4-.07,.63-.07,.8,0,1.2,.34,1.2,1.03v16.02c-.09,.04-.23,.08-.42,.12Z"/>
        <path class="cls-1" d="M176.92,92.9c-.06-.13-.1-.26-.14-.4-.04-.14-.06-.3-.06-.49,0-.63,.33-.95,.98-.95h6.67c.04,.11,.08,.24,.13,.39,.05,.15,.07,.31,.07,.47,0,.65-.33,.98-.98,.98h-6.67Z"/>
        <path class="cls-1" d="M190.84,93.21v6c-.11,.04-.26,.08-.45,.12-.19,.05-.39,.07-.61,.07-.82,0-1.23-.34-1.23-1.03v-14.84c0-.3,.07-.53,.22-.68s.38-.28,.7-.38c.54-.17,1.19-.29,1.97-.36,.77-.07,1.52-.11,2.25-.11,2.36,0,4.09,.5,5.18,1.49,1.09,1,1.63,2.34,1.63,4.03s-.56,3.11-1.67,4.14c-1.12,1.03-2.84,1.55-5.16,1.55h-2.82Zm2.68-1.9c1.49,0,2.64-.31,3.46-.92,.82-.61,1.23-1.56,1.23-2.85s-.4-2.19-1.19-2.78c-.79-.59-1.92-.88-3.39-.88-.5,0-1,.02-1.49,.07-.49,.05-.93,.11-1.33,.18v7.17h2.71Z"/>
        <path class="cls-1" d="M219.58,90.78c0,1.45-.2,2.73-.61,3.84s-.98,2.03-1.7,2.76c-.73,.74-1.58,1.29-2.57,1.67-.99,.38-2.06,.57-3.21,.57s-2.22-.19-3.21-.57-1.84-.94-2.57-1.67c-.73-.73-1.29-1.66-1.7-2.76s-.61-2.39-.61-3.84,.21-2.72,.63-3.82c.42-1.1,.99-2.02,1.72-2.76s1.58-1.31,2.57-1.69c.99-.38,2.05-.57,3.18-.57s2.19,.19,3.18,.57c.99,.38,1.84,.94,2.57,1.69s1.3,1.67,1.72,2.76c.42,1.1,.63,2.37,.63,3.82Zm-2.32,0c0-2.23-.53-3.94-1.58-5.13-1.05-1.19-2.45-1.79-4.2-1.79-.87,0-1.67,.15-2.37,.46-.71,.31-1.31,.75-1.81,1.34-.5,.59-.89,1.31-1.16,2.16-.27,.86-.4,1.84-.4,2.96,0,2.23,.52,3.94,1.56,5.13,1.04,1.19,2.44,1.79,4.19,1.79s3.17-.59,4.21-1.79c1.04-1.19,1.56-2.9,1.56-5.13Z"/>
        <path class="cls-1" d="M231.14,86.51c.15-.07,.33-.14,.54-.2,.21-.06,.45-.08,.71-.08,.78,0,1.26,.24,1.42,.72,.33,1,.65,1.95,.95,2.85,.3,.89,.59,1.75,.87,2.58,.28,.83,.55,1.64,.81,2.44,.26,.8,.52,1.63,.78,2.48h.11c.26-1.25,.52-2.47,.78-3.67,.26-1.2,.51-2.41,.75-3.63,.24-1.22,.47-2.46,.7-3.71s.44-2.58,.64-3.98c.26-.13,.58-.2,.95-.2s.63,.08,.84,.24c.2,.16,.31,.4,.31,.71,0,.35-.05,.89-.15,1.62-.1,.73-.24,1.56-.42,2.5-.18,.94-.38,1.95-.61,3.04-.23,1.09-.48,2.16-.74,3.21-.26,1.05-.52,2.06-.78,3.03-.26,.97-.51,1.79-.75,2.48-.17,.09-.38,.18-.64,.26-.26,.08-.56,.13-.89,.13-.41,0-.75-.07-1.03-.2s-.47-.31-.56-.53c-.21-.48-.44-1.09-.7-1.83-.26-.73-.53-1.54-.82-2.43-.29-.88-.58-1.8-.88-2.76-.3-.96-.59-1.91-.87-2.86-.28,.93-.57,1.89-.86,2.87-.3,.99-.59,1.94-.88,2.86s-.57,1.77-.85,2.55c-.28,.78-.53,1.43-.75,1.95-.15,.09-.35,.18-.61,.25-.26,.07-.56,.11-.89,.11-.43,0-.77-.07-1.03-.21-.26-.14-.44-.31-.53-.52-.17-.39-.36-.95-.57-1.67-.21-.72-.44-1.55-.67-2.47-.23-.92-.47-1.91-.73-2.97s-.49-2.12-.73-3.17c-.23-1.05-.45-2.07-.64-3.04s-.36-1.86-.49-2.64c.13-.13,.31-.25,.53-.36,.22-.11,.46-.17,.73-.17,.65,0,1.04,.34,1.17,1.03,.24,1.17,.47,2.3,.7,3.39s.45,2.2,.68,3.32c.23,1.13,.48,2.29,.74,3.5,.26,1.21,.55,2.52,.87,3.93h.11c.26-.84,.51-1.63,.75-2.39,.24-.75,.49-1.54,.75-2.36,.26-.82,.54-1.71,.85-2.68,.31-.97,.66-2.09,1.05-3.38Z"/>
        <path class="cls-1" d="M246.34,98.93c-.22-.22-.33-.52-.33-.89v-14.51c0-.37,.11-.67,.33-.89,.22-.22,.52-.33,.89-.33h9.26c.06,.09,.11,.22,.17,.38,.06,.16,.08,.33,.08,.52,0,.32-.07,.57-.22,.75-.15,.19-.36,.28-.64,.28h-7.62v5.39h7.37c.06,.09,.11,.22,.17,.38s.08,.33,.08,.52c0,.32-.07,.56-.22,.74-.15,.18-.36,.27-.64,.27h-6.75v5.86h8.37c.06,.09,.11,.21,.17,.36,.06,.15,.08,.33,.08,.53,0,.32-.07,.56-.22,.74-.15,.18-.36,.26-.64,.26h-8.79c-.37,0-.67-.11-.89-.33Z"/>
        <path class="cls-1" d="M263.11,99.21c-.11,.04-.26,.08-.45,.12-.19,.05-.39,.07-.61,.07-.82,0-1.23-.34-1.23-1.03v-14.84c0-.3,.07-.53,.22-.68s.38-.28,.7-.38c.54-.17,1.2-.29,2-.36,.79-.07,1.56-.11,2.3-.11,2.34,0,4.09,.47,5.23,1.41,1.14,.94,1.72,2.27,1.72,4,0,1.28-.33,2.36-.99,3.24-.66,.88-1.66,1.5-3,1.87,.46,.6,.93,1.19,1.4,1.79,.46,.6,.91,1.16,1.33,1.69s.79,1.01,1.12,1.44c.33,.43,.58,.76,.77,1-.07,.32-.24,.57-.49,.75-.25,.19-.51,.28-.77,.28-.32,0-.58-.07-.78-.22-.21-.15-.42-.38-.64-.7l-4.07-5.69h-3.74v6.36Zm3.18-8.26c1.38,0,2.46-.3,3.24-.89,.78-.59,1.17-1.48,1.17-2.65s-.41-2.05-1.23-2.64c-.82-.59-1.99-.88-3.52-.88-.5,0-1.01,.02-1.52,.07-.51,.05-.96,.11-1.35,.18v6.81h3.21Z"/>
        <path class="cls-1" d="M277.59,98.93c-.22-.22-.33-.52-.33-.89v-14.51c0-.37,.11-.67,.33-.89,.22-.22,.52-.33,.89-.33h9.26c.06,.09,.11,.22,.17,.38,.06,.16,.08,.33,.08,.52,0,.32-.07,.57-.22,.75-.15,.19-.36,.28-.64,.28h-7.62v5.39h7.37c.06,.09,.11,.22,.17,.38s.08,.33,.08,.52c0,.32-.07,.56-.22,.74-.15,.18-.36,.27-.64,.27h-6.75v5.86h8.37c.06,.09,.11,.21,.17,.36,.06,.15,.08,.33,.08,.53,0,.32-.07,.56-.22,.74-.15,.18-.36,.26-.64,.26h-8.79c-.37,0-.67-.11-.89-.33Z"/>
        <path class="cls-1" d="M306.28,90.58c0,1.53-.21,2.85-.63,3.98-.42,1.13-1.01,2.06-1.79,2.8-.77,.74-1.71,1.3-2.8,1.66-1.1,.36-2.33,.54-3.68,.54-.6,0-1.27-.02-2.01-.07-.74-.05-1.45-.17-2.12-.38-.78-.24-1.17-.67-1.17-1.28v-14.34c0-.3,.07-.53,.22-.68,.15-.16,.38-.28,.7-.38,.58-.19,1.23-.31,1.95-.36s1.45-.08,2.18-.08c1.36,0,2.6,.18,3.73,.54,1.13,.36,2.09,.9,2.89,1.62,.8,.72,1.42,1.61,1.87,2.68,.45,1.07,.67,2.32,.67,3.75Zm-2.32,0c0-1.19-.18-2.21-.54-3.06-.36-.85-.86-1.54-1.48-2.08-.62-.54-1.35-.93-2.18-1.19-.83-.25-1.72-.38-2.67-.38-.6,0-1.11,.02-1.55,.06-.44,.04-.84,.09-1.21,.17v13.28c.45,.11,.92,.19,1.44,.22,.51,.04,1.04,.06,1.58,.06,2.19,0,3.85-.59,4.95-1.79,1.11-1.19,1.66-2.96,1.66-5.3Z"/>
        <path class="cls-1" d="M321.79,84.22v14.98c-.09,.04-.24,.08-.43,.12-.2,.05-.4,.07-.6,.07-.82,0-1.23-.34-1.23-1.03v-14.15h-5.22c-.06-.09-.11-.22-.17-.38s-.08-.34-.08-.54c0-.32,.07-.56,.22-.74,.15-.18,.36-.26,.64-.26h12.08c.06,.09,.11,.22,.17,.38s.08,.33,.08,.52c0,.32-.07,.57-.22,.75-.15,.19-.36,.28-.64,.28h-4.6Z"/>
        <path class="cls-1" d="M332.73,99.21c-.11,.04-.26,.08-.45,.12-.19,.05-.39,.07-.61,.07-.82,0-1.23-.34-1.23-1.03v-14.84c0-.3,.07-.53,.22-.68s.38-.28,.7-.38c.54-.17,1.2-.29,2-.36,.79-.07,1.56-.11,2.3-.11,2.34,0,4.09,.47,5.23,1.41,1.14,.94,1.72,2.27,1.72,4,0,1.28-.33,2.36-.99,3.24-.66,.88-1.66,1.5-3,1.87,.46,.6,.93,1.19,1.4,1.79,.46,.6,.91,1.16,1.33,1.69s.79,1.01,1.12,1.44c.33,.43,.58,.76,.77,1-.07,.32-.24,.57-.49,.75-.25,.19-.51,.28-.77,.28-.32,0-.58-.07-.78-.22-.21-.15-.42-.38-.64-.7l-4.07-5.69h-3.74v6.36Zm3.18-8.26c1.38,0,2.46-.3,3.24-.89,.78-.59,1.17-1.48,1.17-2.65s-.41-2.05-1.23-2.64c-.82-.59-1.99-.88-3.52-.88-.5,0-1.01,.02-1.52,.07-.51,.05-.96,.11-1.35,.18v6.81h3.21Z"/>
        <path class="cls-1" d="M348.75,99.33c-.19,.05-.39,.07-.61,.07-.82,0-1.23-.34-1.23-1.03v-16.02c.09-.04,.24-.08,.43-.13,.2-.05,.4-.07,.63-.07,.8,0,1.2,.34,1.2,1.03v16.02c-.09,.04-.23,.08-.42,.12Z"/>
        <path class="cls-1" d="M356.48,93.21v6c-.11,.04-.26,.08-.45,.12-.19,.05-.39,.07-.61,.07-.82,0-1.23-.34-1.23-1.03v-14.84c0-.3,.07-.53,.22-.68s.38-.28,.7-.38c.54-.17,1.19-.29,1.97-.36,.77-.07,1.52-.11,2.25-.11,2.36,0,4.09,.5,5.18,1.49,1.09,1,1.63,2.34,1.63,4.03s-.56,3.11-1.67,4.14c-1.12,1.03-2.84,1.55-5.16,1.55h-2.82Zm2.68-1.9c1.49,0,2.64-.31,3.46-.92,.82-.61,1.23-1.56,1.23-2.85s-.4-2.19-1.19-2.78c-.79-.59-1.92-.88-3.39-.88-.5,0-1,.02-1.49,.07-.49,.05-.93,.11-1.33,.18v7.17h2.71Z"/>
        <path class="cls-1" d="M377.88,99.21c-.11,.04-.26,.08-.45,.12-.19,.05-.39,.07-.61,.07-.82,0-1.23-.34-1.23-1.03v-14.84c0-.3,.07-.53,.22-.68s.38-.28,.7-.38c.54-.17,1.2-.29,2-.36,.79-.07,1.56-.11,2.3-.11,2.34,0,4.09,.47,5.23,1.41,1.14,.94,1.72,2.27,1.72,4,0,1.28-.33,2.36-.99,3.24-.66,.88-1.66,1.5-3,1.87,.46,.6,.93,1.19,1.4,1.79,.46,.6,.91,1.16,1.33,1.69s.79,1.01,1.12,1.44c.33,.43,.58,.76,.77,1-.07,.32-.24,.57-.49,.75-.25,.19-.51,.28-.77,.28-.32,0-.58-.07-.78-.22-.21-.15-.42-.38-.64-.7l-4.07-5.69h-3.74v6.36Zm3.18-8.26c1.38,0,2.46-.3,3.24-.89,.78-.59,1.17-1.48,1.17-2.65s-.41-2.05-1.23-2.64c-.82-.59-1.99-.88-3.52-.88-.5,0-1.01,.02-1.52,.07-.51,.05-.96,.11-1.35,.18v6.81h3.21Z"/>
        <path class="cls-1" d="M392.36,98.93c-.22-.22-.33-.52-.33-.89v-14.51c0-.37,.11-.67,.33-.89,.22-.22,.52-.33,.89-.33h9.26c.06,.09,.11,.22,.17,.38,.06,.16,.08,.33,.08,.52,0,.32-.07,.57-.22,.75-.15,.19-.36,.28-.64,.28h-7.62v5.39h7.37c.06,.09,.11,.22,.17,.38s.08,.33,.08,.52c0,.32-.07,.56-.22,.74-.15,.18-.36,.27-.64,.27h-6.75v5.86h8.37c.06,.09,.11,.21,.17,.36,.06,.15,.08,.33,.08,.53,0,.32-.07,.56-.22,.74-.15,.18-.36,.26-.64,.26h-8.79c-.37,0-.67-.11-.89-.33Z"/>
        <path class="cls-1" d="M419.06,84.17c0,.26-.08,.48-.24,.67-.16,.19-.34,.33-.54,.42-.48-.33-1.05-.65-1.7-.95-.65-.3-1.5-.45-2.54-.45-.86,0-1.65,.15-2.37,.45-.73,.3-1.36,.74-1.9,1.31-.54,.58-.96,1.3-1.27,2.18-.31,.87-.46,1.88-.46,3.01s.15,2.16,.45,3.01c.3,.86,.71,1.57,1.24,2.15,.53,.58,1.17,1.01,1.91,1.3,.74,.29,1.57,.43,2.48,.43,.97,0,1.81-.13,2.52-.4s1.32-.59,1.8-.96c.19,.07,.36,.21,.53,.4s.25,.42,.25,.68c0,.39-.22,.74-.67,1.06-.43,.3-1.01,.56-1.76,.79-.74,.23-1.69,.35-2.85,.35s-2.26-.19-3.26-.56-1.87-.92-2.61-1.66c-.74-.73-1.32-1.65-1.74-2.75-.43-1.1-.64-2.38-.64-3.85s.22-2.76,.66-3.86c.44-1.11,1.03-2.03,1.77-2.78,.74-.74,1.61-1.3,2.61-1.67,.99-.37,2.04-.56,3.14-.56,.76,0,1.47,.07,2.11,.2,.64,.13,1.19,.3,1.65,.52,.46,.21,.81,.46,1.06,.73s.38,.54,.38,.79Z"/>
        <path class="cls-1" d="M438.01,90.78c0,1.45-.2,2.73-.61,3.84s-.98,2.03-1.7,2.76c-.73,.74-1.58,1.29-2.57,1.67-.99,.38-2.06,.57-3.21,.57s-2.22-.19-3.21-.57-1.84-.94-2.57-1.67c-.73-.73-1.29-1.66-1.7-2.76s-.61-2.39-.61-3.84,.21-2.72,.63-3.82c.42-1.1,.99-2.02,1.72-2.76s1.58-1.31,2.57-1.69c.99-.38,2.05-.57,3.18-.57s2.19,.19,3.18,.57c.99,.38,1.84,.94,2.57,1.69s1.3,1.67,1.72,2.76c.42,1.1,.63,2.37,.63,3.82Zm-2.32,0c0-2.23-.53-3.94-1.58-5.13-1.05-1.19-2.45-1.79-4.2-1.79-.87,0-1.67,.15-2.37,.46-.71,.31-1.31,.75-1.81,1.34-.5,.59-.89,1.31-1.16,2.16-.27,.86-.4,1.84-.4,2.96,0,2.23,.52,3.94,1.56,5.13,1.04,1.19,2.44,1.79,4.19,1.79s3.17-.59,4.21-1.79c1.04-1.19,1.56-2.9,1.56-5.13Z"/>
        <path class="cls-1" d="M451.54,94.85c-.13,.09-.3,.18-.52,.25s-.45,.11-.71,.11c-.3,0-.56-.05-.8-.14-.23-.09-.4-.24-.49-.45-1-2.08-1.87-3.99-2.59-5.72-.73-1.73-1.31-3.16-1.76-4.3h-.11c-.06,1.4-.12,2.69-.18,3.89-.06,1.2-.13,2.37-.21,3.52-.07,1.14-.15,2.3-.22,3.47-.07,1.17-.15,2.43-.22,3.77-.11,.04-.26,.07-.43,.11-.18,.04-.37,.06-.57,.06-.41,0-.7-.08-.86-.25-.17-.17-.25-.41-.25-.73,0-.19,.01-.59,.04-1.2,.03-.61,.07-1.36,.13-2.23,.06-.87,.12-1.84,.18-2.9,.06-1.06,.14-2.14,.22-3.24s.17-2.18,.25-3.24c.08-1.06,.16-2.03,.24-2.9,.15-.13,.36-.25,.64-.36,.28-.11,.6-.17,.95-.17,.86,0,1.45,.34,1.79,1.03,.35,.73,.71,1.49,1.07,2.3,.36,.81,.73,1.63,1.09,2.47,.36,.84,.72,1.67,1.06,2.48,.34,.82,.67,1.6,.99,2.34h.11c.41-.99,.82-1.96,1.23-2.92,.41-.96,.81-1.88,1.2-2.78,.39-.89,.76-1.73,1.12-2.51,.35-.78,.67-1.5,.95-2.15,.17-.09,.38-.16,.64-.21,.26-.05,.5-.07,.73-.07,.87,0,1.38,.3,1.51,.89,.07,.33,.16,.89,.25,1.66,.09,.77,.19,1.66,.28,2.67,.09,1,.18,2.08,.27,3.24,.08,1.15,.16,2.26,.24,3.33,.07,1.07,.14,2.06,.2,2.96s.1,1.61,.14,2.13c-.33,.22-.73,.33-1.17,.33-.28,0-.53-.07-.74-.21s-.34-.39-.38-.77c-.09-1.36-.18-2.71-.25-4.05-.07-1.34-.14-2.61-.21-3.82-.07-1.21-.13-2.32-.18-3.33-.06-1.01-.1-1.87-.14-2.58h-.11c-.21,.52-.44,1.11-.71,1.76-.27,.65-.59,1.39-.95,2.2s-.77,1.74-1.21,2.78-.95,2.18-1.51,3.45Z"/>
        <path class="cls-1" d="M473.31,94.85c-.13,.09-.3,.18-.52,.25s-.45,.11-.71,.11c-.3,0-.56-.05-.8-.14-.23-.09-.4-.24-.49-.45-1-2.08-1.87-3.99-2.59-5.72-.73-1.73-1.31-3.16-1.76-4.3h-.11c-.06,1.4-.12,2.69-.18,3.89-.06,1.2-.13,2.37-.21,3.52-.07,1.14-.15,2.3-.22,3.47-.07,1.17-.15,2.43-.22,3.77-.11,.04-.26,.07-.43,.11-.18,.04-.37,.06-.57,.06-.41,0-.7-.08-.86-.25-.17-.17-.25-.41-.25-.73,0-.19,.01-.59,.04-1.2,.03-.61,.07-1.36,.13-2.23,.06-.87,.12-1.84,.18-2.9,.06-1.06,.14-2.14,.22-3.24s.17-2.18,.25-3.24c.08-1.06,.16-2.03,.24-2.9,.15-.13,.36-.25,.64-.36,.28-.11,.6-.17,.95-.17,.86,0,1.45,.34,1.79,1.03,.35,.73,.71,1.49,1.07,2.3,.36,.81,.73,1.63,1.09,2.47,.36,.84,.72,1.67,1.06,2.48,.34,.82,.67,1.6,.99,2.34h.11c.41-.99,.82-1.96,1.23-2.92,.41-.96,.81-1.88,1.2-2.78,.39-.89,.76-1.73,1.12-2.51,.35-.78,.67-1.5,.95-2.15,.17-.09,.38-.16,.64-.21,.26-.05,.5-.07,.73-.07,.87,0,1.38,.3,1.51,.89,.07,.33,.16,.89,.25,1.66,.09,.77,.19,1.66,.28,2.67,.09,1,.18,2.08,.27,3.24,.08,1.15,.16,2.26,.24,3.33,.07,1.07,.14,2.06,.2,2.96s.1,1.61,.14,2.13c-.33,.22-.73,.33-1.17,.33-.28,0-.53-.07-.74-.21s-.34-.39-.38-.77c-.09-1.36-.18-2.71-.25-4.05-.07-1.34-.14-2.61-.21-3.82-.07-1.21-.13-2.32-.18-3.33-.06-1.01-.1-1.87-.14-2.58h-.11c-.21,.52-.44,1.11-.71,1.76-.27,.65-.59,1.39-.95,2.2s-.77,1.74-1.21,2.78-.95,2.18-1.51,3.45Z"/>
        <path class="cls-1" d="M485.75,98.93c-.22-.22-.33-.52-.33-.89v-14.51c0-.37,.11-.67,.33-.89,.22-.22,.52-.33,.89-.33h9.26c.06,.09,.11,.22,.17,.38,.06,.16,.08,.33,.08,.52,0,.32-.07,.57-.22,.75-.15,.19-.36,.28-.64,.28h-7.62v5.39h7.37c.06,.09,.11,.22,.17,.38s.08,.33,.08,.52c0,.32-.07,.56-.22,.74-.15,.18-.36,.27-.64,.27h-6.75v5.86h8.37c.06,.09,.11,.21,.17,.36,.06,.15,.08,.33,.08,.53,0,.32-.07,.56-.22,.74-.15,.18-.36,.26-.64,.26h-8.79c-.37,0-.67-.11-.89-.33Z"/>
        <path class="cls-1" d="M501.46,99.4c-.82,0-1.23-.33-1.23-1v-15.76c.33-.33,.84-.5,1.51-.5,.45,0,.83,.09,1.14,.27,.32,.18,.6,.5,.86,.96l5.33,8.93c.22,.39,.46,.8,.7,1.24,.24,.44,.47,.88,.7,1.31,.22,.44,.43,.85,.63,1.23,.2,.38,.36,.7,.49,.96l.11-.03c-.15-1.51-.24-3.02-.27-4.55-.03-1.52-.04-3.01-.04-4.46v-5.64c.11-.04,.26-.08,.45-.13,.19-.05,.39-.07,.61-.07,.82,0,1.23,.33,1.23,1v15.79c-.17,.15-.38,.26-.64,.35-.26,.08-.55,.12-.87,.12-.45,0-.83-.09-1.14-.26s-.6-.5-.86-.96l-5.3-8.93c-.22-.37-.46-.78-.71-1.23s-.49-.88-.73-1.31c-.23-.43-.45-.84-.64-1.23s-.36-.72-.49-.98l-.11,.03c.09,.89,.17,1.91,.22,3.06,.06,1.14,.08,2.23,.08,3.25v8.34c-.09,.04-.24,.08-.43,.12-.2,.05-.4,.07-.6,.07Z"/>
        <path class="cls-1" d="M532.85,90.58c0,1.53-.21,2.85-.63,3.98-.42,1.13-1.01,2.06-1.79,2.8-.77,.74-1.71,1.3-2.8,1.66-1.1,.36-2.33,.54-3.68,.54-.6,0-1.27-.02-2.01-.07-.74-.05-1.45-.17-2.12-.38-.78-.24-1.17-.67-1.17-1.28v-14.34c0-.3,.07-.53,.22-.68,.15-.16,.38-.28,.7-.38,.58-.19,1.23-.31,1.95-.36s1.45-.08,2.18-.08c1.36,0,2.6,.18,3.73,.54,1.13,.36,2.09,.9,2.89,1.62,.8,.72,1.42,1.61,1.87,2.68,.45,1.07,.67,2.32,.67,3.75Zm-2.32,0c0-1.19-.18-2.21-.54-3.06-.36-.85-.86-1.54-1.48-2.08-.62-.54-1.35-.93-2.18-1.19-.83-.25-1.72-.38-2.67-.38-.6,0-1.11,.02-1.55,.06-.44,.04-.84,.09-1.21,.17v13.28c.45,.11,.92,.19,1.44,.22,.51,.04,1.04,.06,1.58,.06,2.19,0,3.85-.59,4.95-1.79,1.11-1.19,1.66-2.96,1.66-5.3Z"/>
        <path class="cls-1" d="M537.18,98.93c-.22-.22-.33-.52-.33-.89v-14.51c0-.37,.11-.67,.33-.89,.22-.22,.52-.33,.89-.33h9.26c.06,.09,.11,.22,.17,.38,.06,.16,.08,.33,.08,.52,0,.32-.07,.57-.22,.75-.15,.19-.36,.28-.64,.28h-7.62v5.39h7.37c.06,.09,.11,.22,.17,.38s.08,.33,.08,.52c0,.32-.07,.56-.22,.74-.15,.18-.36,.27-.64,.27h-6.75v5.86h8.37c.06,.09,.11,.21,.17,.36,.06,.15,.08,.33,.08,.53,0,.32-.07,.56-.22,.74-.15,.18-.36,.26-.64,.26h-8.79c-.37,0-.67-.11-.89-.33Z"/>
        <path class="cls-1" d="M553.95,99.21c-.11,.04-.26,.08-.45,.12-.19,.05-.39,.07-.61,.07-.82,0-1.23-.34-1.23-1.03v-14.84c0-.3,.07-.53,.22-.68s.38-.28,.7-.38c.54-.17,1.2-.29,2-.36,.79-.07,1.56-.11,2.3-.11,2.34,0,4.09,.47,5.23,1.41,1.14,.94,1.72,2.27,1.72,4,0,1.28-.33,2.36-.99,3.24-.66,.88-1.66,1.5-3,1.87,.46,.6,.93,1.19,1.4,1.79,.46,.6,.91,1.16,1.33,1.69s.79,1.01,1.12,1.44c.33,.43,.58,.76,.77,1-.07,.32-.24,.57-.49,.75-.25,.19-.51,.28-.77,.28-.32,0-.58-.07-.78-.22-.21-.15-.42-.38-.64-.7l-4.07-5.69h-3.74v6.36Zm3.18-8.26c1.38,0,2.46-.3,3.24-.89,.78-.59,1.17-1.48,1.17-2.65s-.41-2.05-1.23-2.64c-.82-.59-1.99-.88-3.52-.88-.5,0-1.01,.02-1.52,.07-.51,.05-.96,.11-1.35,.18v6.81h3.21Z"/>
      </g>
    </g>
  </g>
</svg>