<svg xmlns="http://www.w3.org/2000/svg" viewBox="0 0 33.545 33.343">
  <g id="Group_58" data-name="Group 58" transform="translate(-191.857 116.8) rotate(-45)">
    <path id="Path_1" data-name="Path 1" d="M-3.478-11c3.195,0,5.984,2.8,6.25,6.922S-2.553,11.365-2.553,11.365-3.03,12.43-3.618,12.43s-1.065-1.065-1.065-1.065S-10.274.049-10.008-4.078-6.673-11-3.478-11Z" transform="translate(221.871 70.472)" fill="#3347b0"/>
    <path id="Path_2" data-name="Path 2" d="M3.354,0C4.993,0,6.423,1.434,6.56,3.551s-2.731,7.921-2.731,7.921-.245.546-.546.546-.546-.546-.546-.546S-.132,5.668,0,3.551A3.584,3.584,0,0,1,3.354,0Z" transform="translate(233.15 76.332) rotate(45)" fill="#3347b0"/>
    <path id="Path_3" data-name="Path 3" d="M3.354,12.018c1.639,0,3.069-1.434,3.206-3.551S3.829.546,3.829.546,3.584,0,3.282,0s-.546.546-.546.546S-.132,6.35,0,8.467A3.584,3.584,0,0,0,3.354,12.018Z" transform="translate(212.14 84.83) rotate(135)" fill="#3347b0"/>
  </g>
</svg>
