<svg version="1.2" xmlns="http://www.w3.org/2000/svg" viewBox="0 0 120 120">
	<title>logo3-svg</title>
	<style>
		.s0 { fill: #2a3890 } 
		.s1 { fill: #f48120 } 
	</style>
	<g id="Layer_1-2">
		<g id="Layer">
			<g id="Layer">
				<path id="Layer" class="s0" d="m20.9 47.2c-4.3 0-7.8-3.5-7.8-7.8 0-16.8 13.6-30.4 30.3-30.4h67.5c4.3 0 7.9 3.5 7.9 7.9 0 4.3-3.6 7.9-7.9 7.9h-67.5c-8 0-14.6 6.5-14.6 14.6 0 4.3-3.5 7.8-7.9 7.8z"/>
				<path id="Layer" class="s1" d="m105.5 87h-63.9c-4.4 0-7.9-3.5-7.9-7.9 0-4.3 3.5-7.9 7.9-7.9h63.9c4.3 0 7.9 3.6 7.9 7.9 0 4.4-3.6 7.9-7.9 7.9z"/>
				<path id="Layer" class="s0" d="m24 110.5h-15.1c-4.4 0-7.9-3.6-7.9-7.9 0-4.4 3.5-7.9 7.9-7.9h11.1l57-78.3c2.6-3.5 7.5-4.3 11.1-1.7 3.5 2.6 4.2 7.5 1.7 11l-59.4 81.5c-1.5 2.1-3.8 3.3-6.4 3.3z"/>
				<path id="Layer" class="s1" d="m105.5 110.6h-22.1c-4.3 0-7.9-3.5-7.9-7.9v-81.6c0-4.4 3.6-7.9 7.9-7.9 4.4 0 7.9 3.5 7.9 7.9v73.8h14.2c4.3 0 7.9 3.5 7.9 7.9 0 4.3-3.6 7.8-7.9 7.8z"/>
			</g>
		</g>
	</g>
</svg>