<svg xmlns="http://www.w3.org/2000/svg" viewBox="0 0 56 56">
  <g id="Group_192" data-name="Group 192" transform="translate(-100 -50)">
    <g id="Polygon_1" data-name="Polygon 1" transform="translate(115.12 50)" fill="#fff">
      <path d="M 12.88000106811523 23.51735877990723 C 12.34578132629395 23.51735877990723 11.84354114532471 23.30931854248047 11.46579074859619 22.93157005310059 L 2.828431129455566 14.29420948028564 C 2.048630952835083 13.51440906524658 2.048630952835083 12.24558925628662 2.828431129455566 11.46578884124756 L 11.46579074859619 2.828429222106934 C 11.84354114532471 2.450679063796997 12.34578132629395 2.242639064788818 12.88000106811523 2.242639064788818 C 13.41422080993652 2.242639064788818 13.91646099090576 2.450679063796997 14.29421138763428 2.828429222106934 L 22.93157196044922 11.46578884124756 C 23.71137046813965 12.24558925628662 23.71137046813965 13.51440906524658 22.93157196044922 14.29420948028564 L 14.29421138763428 22.93157005310059 C 13.91646099090576 23.30931854248047 13.41422080993652 23.51735877990723 12.88000106811523 23.51735877990723 Z" stroke="none"/>
      <path d="M 12.88000106811523 3.242639541625977 C 12.72530078887939 3.242639541625977 12.42773151397705 3.280689239501953 12.17289066314697 3.535530090332031 L 3.535531997680664 12.17288875579834 C 3.145631790161133 12.56278896331787 3.145631790161133 13.19720935821533 3.535531997680664 13.58710956573486 L 12.17289066314697 22.22446823120117 C 12.42774105072021 22.47930908203125 12.72530078887939 22.51735877990723 12.88000106811523 22.51735877990723 C 13.03469085693359 22.51735877990723 13.33226108551025 22.47930908203125 13.5871114730835 22.22446823120117 L 22.22447204589844 13.58710956573486 C 22.61437034606934 13.19720935821533 22.61437034606934 12.56278896331787 22.22447204589844 12.17288875579834 L 13.5871114730835 3.535530090332031 C 13.33226108551025 3.280689239501953 13.03470134735107 3.242639541625977 12.88000106811523 3.242639541625977 M 12.88000106811523 1.242641448974609 C 13.6477689743042 1.242641448974609 14.41553592681885 1.535533905029297 15.00132083892822 2.121318817138672 L 23.63868141174316 10.75867938995361 C 24.81025123596191 11.93024921417236 24.81025123596191 13.82974910736084 23.63868141174316 15.00131893157959 L 15.00132083892822 23.63867950439453 C 13.82975101470947 24.81024932861328 11.930251121521 24.81024932861328 10.75868129730225 23.63867950439453 L 2.121320724487305 15.00131893157959 C 0.9497509002685547 13.82974910736084 0.9497509002685547 11.93024921417236 2.121320724487305 10.75867938995361 L 10.75868129730225 2.121318817138672 C 11.34446620941162 1.535533905029297 12.11223316192627 1.242641448974609 12.88000106811523 1.242641448974609 Z" stroke="none" fill="#3347b0"/>
    </g>
    <path id="Polygon_4" data-name="Polygon 4" d="M10.759,2.121a3,3,0,0,1,4.243,0l8.637,8.637a3,3,0,0,1,0,4.243L15,23.639a3,3,0,0,1-4.243,0L2.121,15a3,3,0,0,1,0-4.243Z" transform="translate(156 65.12) rotate(90)" fill="#3347b0"/>
    <g id="Polygon_2" data-name="Polygon 2" transform="translate(115.12 80.24)" fill="#fff">
      <path d="M 12.88000106811523 23.51735877990723 C 12.34578132629395 23.51735877990723 11.84354114532471 23.30931854248047 11.46579074859619 22.93157005310059 L 2.828431129455566 14.29420948028564 C 2.048630952835083 13.51440906524658 2.048630952835083 12.24558925628662 2.828431129455566 11.46578884124756 L 11.46579074859619 2.828429222106934 C 11.84354114532471 2.450679063796997 12.34578132629395 2.242639064788818 12.88000106811523 2.242639064788818 C 13.41422080993652 2.242639064788818 13.91646099090576 2.450679063796997 14.29421138763428 2.828429222106934 L 22.93157196044922 11.46578884124756 C 23.71137046813965 12.24558925628662 23.71137046813965 13.51440906524658 22.93157196044922 14.29420948028564 L 14.29421138763428 22.93157005310059 C 13.91646099090576 23.30931854248047 13.41422080993652 23.51735877990723 12.88000106811523 23.51735877990723 Z" stroke="none"/>
      <path d="M 12.88000106811523 3.242639541625977 C 12.72530078887939 3.242639541625977 12.42773151397705 3.280689239501953 12.17289066314697 3.535530090332031 L 3.535531997680664 12.17288875579834 C 3.145631790161133 12.56278896331787 3.145631790161133 13.19720935821533 3.535531997680664 13.58710956573486 L 12.17289066314697 22.22446823120117 C 12.42774105072021 22.47930908203125 12.72530078887939 22.51735877990723 12.88000106811523 22.51735877990723 C 13.03469085693359 22.51735877990723 13.33226108551025 22.47930908203125 13.5871114730835 22.22446823120117 L 22.22447204589844 13.58710956573486 C 22.61437034606934 13.19720935821533 22.61437034606934 12.56278896331787 22.22447204589844 12.17288875579834 L 13.5871114730835 3.535530090332031 C 13.33226108551025 3.280689239501953 13.03470134735107 3.242639541625977 12.88000106811523 3.242639541625977 M 12.88000106811523 1.242641448974609 C 13.6477689743042 1.242641448974609 14.41553592681885 1.535533905029297 15.00132083892822 2.121318817138672 L 23.63868141174316 10.75867938995361 C 24.81025123596191 11.93024921417236 24.81025123596191 13.82974910736084 23.63868141174316 15.00131893157959 L 15.00132083892822 23.63867950439453 C 13.82975101470947 24.81024932861328 11.930251121521 24.81024932861328 10.75868129730225 23.63867950439453 L 2.121320724487305 15.00131893157959 C 0.9497509002685547 13.82974910736084 0.9497509002685547 11.93024921417236 2.121320724487305 10.75867938995361 L 10.75868129730225 2.121318817138672 C 11.34446620941162 1.535533905029297 12.11223316192627 1.242641448974609 12.88000106811523 1.242641448974609 Z" stroke="none" fill="#3347b0"/>
    </g>
    <g id="Polygon_3" data-name="Polygon 3" transform="translate(125.76 65.12) rotate(90)" fill="#fff">
      <path d="M 12.88000106811523 23.51735877990723 C 12.34578132629395 23.51735877990723 11.84354114532471 23.30931854248047 11.46579074859619 22.93157005310059 L 2.828431129455566 14.29420948028564 C 2.048630952835083 13.51440906524658 2.048630952835083 12.24558925628662 2.828431129455566 11.46578884124756 L 11.46579074859619 2.828429222106934 C 11.84354114532471 2.450679063796997 12.34578132629395 2.242639064788818 12.88000106811523 2.242639064788818 C 13.41422080993652 2.242639064788818 13.91646099090576 2.450679063796997 14.29421138763428 2.828429222106934 L 22.93157196044922 11.46578884124756 C 23.71137046813965 12.24558925628662 23.71137046813965 13.51440906524658 22.93157196044922 14.29420948028564 L 14.29421138763428 22.93157005310059 C 13.91646099090576 23.30931854248047 13.41422080993652 23.51735877990723 12.88000106811523 23.51735877990723 Z" stroke="none"/>
      <path d="M 12.88000106811523 3.242639541625977 C 12.72530078887939 3.242639541625977 12.42773151397705 3.280689239501953 12.17289066314697 3.535530090332031 L 3.535531997680664 12.17288875579834 C 3.145631790161133 12.56278896331787 3.145631790161133 13.19720935821533 3.535531997680664 13.58710956573486 L 12.17289066314697 22.22446823120117 C 12.42774105072021 22.47930908203125 12.72530078887939 22.51735877990723 12.88000106811523 22.51735877990723 C 13.03469085693359 22.51735877990723 13.33226108551025 22.47930908203125 13.5871114730835 22.22446823120117 L 22.22447204589844 13.58710956573486 C 22.61437034606934 13.19720935821533 22.61437034606934 12.56278896331787 22.22447204589844 12.17288875579834 L 13.5871114730835 3.535530090332031 C 13.33226108551025 3.280689239501953 13.03470134735107 3.242639541625977 12.88000106811523 3.242639541625977 M 12.88000106811523 1.242641448974609 C 13.6477689743042 1.242641448974609 14.41553592681885 1.535533905029297 15.00132083892822 2.121318817138672 L 23.63868141174316 10.75867938995361 C 24.81025123596191 11.93024921417236 24.81025123596191 13.82974910736084 23.63868141174316 15.00131893157959 L 15.00132083892822 23.63867950439453 C 13.82975101470947 24.81024932861328 11.930251121521 24.81024932861328 10.75868129730225 23.63867950439453 L 2.121320724487305 15.00131893157959 C 0.9497509002685547 13.82974910736084 0.9497509002685547 11.93024921417236 2.121320724487305 10.75867938995361 L 10.75868129730225 2.121318817138672 C 11.34446620941162 1.535533905029297 12.11223316192627 1.242641448974609 12.88000106811523 1.242641448974609 Z" stroke="none" fill="#3347b0"/>
    </g>
  </g>
</svg>
